<svg width="289" height="207" viewBox="0 0 289 207" fill="none" xmlns="http://www.w3.org/2000/svg">
<path d="M22.2019 161.885C-26.7958 97.0217 12.8733 9.14178 83.0642 1.3181C88.4984 0.68129 151.353 -1.59304 185.135 7.41329C200.985 6.32162 226.344 3.77437 240.745 12.9626C274.165 34.3413 278.24 52.9908 271.448 86.3779C264.836 119.037 241.922 146.602 218.102 169.891C194.464 192.998 161.769 207.827 125.36 206.553C88.6795 205.371 44.3913 191.179 22.2019 161.885Z" fill="#F7F7F7"/>
<path d="M271.72 196.91C284.037 197.546 289.472 200.276 270.814 202.914C259.584 204.551 239.025 204.642 206.601 205.734C126.176 208.463 15.7725 203.551 15.7725 201.276C15.7725 199.548 35.5165 196.728 83.2463 196C98.009 195.818 117.3 193.453 137.859 193.453C224.805 193.544 236.217 195.181 271.72 196.91Z" fill="#E0E0E0"/>
<path opacity="0.8" d="M249.53 171.528H38.7763C33.2516 171.528 28.7231 166.98 28.7231 161.43V59.1765H259.583V161.521C259.583 167.071 255.055 171.528 249.53 171.528Z" fill="#F5F5F5"/>
<path d="M249.53 171.528L85.3289 171.71L44.3012 171.801H39.1388C37.418 171.892 35.6066 171.437 34.0669 170.619C32.5272 169.8 31.1687 168.617 30.1725 167.162C29.1762 165.706 28.5422 163.978 28.4516 162.158C28.3611 155.244 28.4516 148.421 28.3611 141.507L28.2705 59.0857V58.6309H28.7234L259.583 58.9947H259.674V59.0857L259.583 118.127V147.693V155.062V158.792C259.583 160.066 259.583 161.248 259.493 162.522C259.221 164.978 258.044 167.344 256.232 168.981C254.421 170.619 251.976 171.528 249.53 171.528ZM249.53 171.528C251.976 171.528 254.421 170.619 256.232 168.89C258.044 167.253 259.221 164.887 259.493 162.431C259.583 161.248 259.493 159.975 259.583 158.701V154.971V147.602V118.036L259.493 58.9947L259.583 59.0857L28.7234 59.6316L29.1762 59.1767L29.0856 141.598C29.0856 148.421 28.9951 155.335 29.0856 162.158C29.1762 163.796 29.8102 165.433 30.7159 166.798C31.6216 168.162 32.8895 169.345 34.4292 170.073C35.8783 170.801 37.5991 171.164 39.2293 171.164H44.3918L85.4195 171.255L249.53 171.528Z" fill="#A42A29"/>
<path d="M259.583 78.5541H28.7231V33.6134C28.7231 28.064 33.2516 23.5154 38.7763 23.5154H249.53C255.055 23.5154 259.583 28.064 259.583 33.6134V78.5541Z" fill="#A42A29"/>
<path d="M183.144 93.7463C182.147 91.9269 173.996 101.843 176.26 107.847C178.525 113.942 183.144 112.942 183.144 112.942C183.144 112.942 186.042 99.1137 183.144 93.7463Z" fill="#7A4B51"/>
<path d="M172.819 78.9177C172.819 78.9177 172.819 78.9177 177.347 84.2851C181.876 89.6525 180.698 90.1074 179.883 93.8373C179.068 97.2943 172.638 96.5665 170.102 95.4748C167.928 94.5651 162.132 95.9297 160.501 94.747C159.867 94.2922 160.501 94.0193 162.403 93.8373C164.577 93.6554 166.569 92.6547 166.569 92.6547C165.211 90.6532 157.331 92.1998 156.154 89.8345C155.611 88.6518 165.03 90.7442 165.935 89.5616C165.935 89.5616 165.483 88.7428 160.954 87.3782C158.328 86.5595 155.701 85.7407 155.52 84.9219C155.248 83.2844 160.411 85.9227 166.932 86.5595C166.932 86.5595 164.305 85.1949 161.769 84.1032C159.414 83.1025 157.15 82.4657 157.694 81.465C158.147 80.6462 161.679 82.2837 164.034 83.2844C168.381 85.1039 171.913 85.4678 173.724 85.4678C174.63 85.4678 175.083 85.4678 175.083 85.4678C170.917 79.3726 172.819 78.9177 172.819 78.9177Z" fill="#8F5045"/>
<path d="M175.083 85.1948C175.083 85.1948 174.63 88.2879 176.261 89.9254C176.261 89.9254 172.819 88.9247 173.634 85.1948C174.54 85.2858 175.083 85.1948 175.083 85.1948Z" fill="#703E38"/>
<path d="M180.607 89.6526L184.955 100.296L180.607 110.485C180.607 110.485 177.347 98.386 176.169 94.6561C175.083 90.7443 180.607 89.6526 180.607 89.6526Z" fill="#8F5045"/>
<path d="M230.24 73.1865C230.24 73.1865 215.115 78.7359 210.586 82.9206L198.269 121.22C198.269 121.22 197.816 118.582 197.001 119.674L183.144 93.7464C183.144 93.7464 182.872 107.847 176.261 107.847C176.261 107.847 189.846 145.419 197.363 147.512C204.971 149.604 217.922 116.49 217.922 116.49L230.24 73.1865Z" fill="#522228"/>
<path d="M251.523 173.439C253.697 173.257 255.78 173.166 257.954 172.984C258.316 158.064 248.172 96.5664 248.172 96.5664C248.172 96.5664 222.451 94.2011 221.002 100.933C213.394 136.413 192.382 171.983 192.382 171.983C197.816 166.343 236.851 168.799 251.523 173.439Z" fill="#4F1F25"/>
<path d="M238.3 68.5469C238.3 68.5469 247.991 64.2712 256.595 67.4553L258.044 79.8276C258.044 79.8276 237.485 87.3783 230.873 85.104C224.262 82.9207 222.541 77.6442 238.3 68.5469Z" fill="#7A4B51"/>
<path d="M227.522 174.44C231.779 174.349 236.036 174.167 240.293 173.985C239.568 162.431 233.862 151.332 234.406 140.779L211.039 140.234C207.054 149.513 204.337 161.521 202.525 173.803C210.948 173.894 219.281 174.621 227.522 174.44Z" fill="#0E3944"/>
<path d="M227.522 174.439C238.843 174.167 250.255 173.621 261.576 172.62C259.131 152.788 246.089 141.871 246.089 141.871L211.129 140.234C211.129 140.234 213.575 159.611 219.552 174.349C222.269 174.53 224.896 174.53 227.522 174.439Z" fill="#0E3944"/>
<path d="M200.714 173.894C209.68 173.803 218.737 174.712 227.522 174.439C239.387 174.167 251.251 173.621 263.116 172.529C259.946 150.241 254.24 134.411 251.704 128.134C251.704 128.134 282.226 89.7436 267.825 77.3713C267.01 76.6435 266.195 76.0067 265.289 75.4608C251.885 66.8184 231.417 73.1865 227.703 74.3692C227.341 74.4601 227.16 74.5511 227.16 74.5511C227.16 74.5511 198.993 93.9284 215.114 121.584C215.024 121.675 208.503 145.055 200.714 173.894Z" fill="#D95D7B"/>
<path d="M259.222 32.3394C259.222 32.3394 265.38 25.9713 271.358 31.4296C277.335 36.888 271.086 48.1687 271.358 50.2611C271.63 52.3534 276.52 52.8083 275.343 55.4465C274.166 58.0847 271.086 58.4486 271.358 59.7222C271.63 60.9959 274.618 62.9973 273.35 64.3619C272.082 65.6355 269.365 64.2709 269.547 66.5452C269.728 68.8196 271.267 71.7307 268.55 72.0036C268.55 72.0036 270.633 69.4564 268.731 68.6376C266.829 67.8189 265.38 68.7286 264.565 65.9994C263.75 63.3612 267.645 62.2695 265.924 60.8139C264.203 59.3584 260.309 59.3584 262.12 56.9931C263.931 54.6278 264.565 52.5354 261.214 50.6249C257.682 48.6235 259.222 32.3394 259.222 32.3394Z" fill="#222323"/>
<path d="M232.504 29.2465C225.53 29.0645 225.077 44.348 233.409 52.4446C241.742 60.5412 243.825 29.5194 232.504 29.2465Z" fill="#222323"/>
<path d="M256.142 27.7001C256.142 27.7001 235.402 20.6952 231.236 35.3419C227.069 49.9885 230.873 65.454 240.564 64.3623C254.331 62.9977 272.263 35.9787 256.142 27.7001Z" fill="#8F5045"/>
<path d="M247.9 35.2508C247.9 35.2508 252.61 41.346 252.429 49.1697C252.429 49.1697 255.87 44.894 257.682 48.6239C259.493 52.3538 252.248 57.8122 252.248 57.8122C252.248 57.8122 263.931 58.449 265.38 43.2565C265.924 36.7974 257.591 30.9751 247.9 35.2508Z" fill="#141515"/>
<path d="M251.976 54.5369C250.345 58.8126 244.277 66.2724 237.847 64.18C237.847 64.18 239.477 70.5481 236.76 72.9134C236.76 72.9134 233.952 77.9169 240.383 78.5537C248.443 79.4635 252.972 72.9134 252.972 72.9134C249.44 65.0897 254.24 55.3556 254.24 55.3556C252.519 56.4473 251.976 54.5369 251.976 54.5369Z" fill="#703E38"/>
<path d="M242.647 30.9751C242.647 30.9751 239.477 47.4412 252.429 49.1697C252.429 49.1697 257.048 41.346 263.116 46.8044C263.116 46.8044 269.637 28.8827 254.33 26.0625C254.33 26.0625 251.342 19.2395 239.477 21.4229C222.903 24.425 218.284 44.621 227.522 64.5441C227.431 64.5441 219.371 28.7007 242.647 30.9751Z" fill="#141515"/>
<path d="M265.199 75.5517C263.478 76.5524 261.395 77.5531 258.95 78.6448C214.571 98.5679 224.986 79.9184 224.986 79.9184C224.986 78.5538 225.439 77.2802 226.254 76.1885C226.616 75.6427 227.069 75.0969 227.613 74.551C231.235 73.3684 250.979 67.2732 264.293 75.0969C264.655 75.1878 264.927 75.3698 265.199 75.5517Z" fill="#703E38"/>
<path d="M265.199 75.5516C263.478 76.5523 261.395 77.553 258.95 78.6447C214.571 98.5678 224.986 79.9183 224.986 79.9183C224.986 78.5537 225.439 77.2801 226.254 76.1884C227.884 76.9162 231.145 78.4628 232.232 78.7357L232.956 81.4649L236.76 79.0086C236.76 79.0086 250.074 79.3725 264.384 75.1877C264.655 75.1877 264.927 75.3697 265.199 75.5516Z" fill="#8F5045"/>
<path d="M264.021 172.438C264.293 171.346 264.384 170.073 264.293 168.526C264.021 164.978 265.742 162.613 268.187 161.521L258.315 127.861C258.315 127.861 274.98 93.0185 275.342 87.2872C275.342 87.2872 272.444 74.8239 256.685 71.094C256.685 71.094 243.824 80.1003 236.217 97.931C230.964 110.394 239.658 150.695 245.364 173.803C251.613 173.53 257.772 173.075 264.021 172.438Z" fill="#4F1F25"/>
<path d="M262.029 72.1858C262.029 72.1858 264.021 78.3719 262.572 91.563C262.572 91.563 259.221 89.1067 252.972 89.4706C252.972 89.4706 237.304 107.301 237.122 134.411C237.122 134.411 230.42 108.575 235.22 95.3839C240.021 82.2838 256.685 67.5461 256.685 67.5461L262.029 72.1858Z" fill="#0E3944"/>
<path d="M192.291 174.349C193.016 174.258 193.74 174.167 194.465 174.167L216.02 129.681C216.02 129.681 215.748 107.21 216.02 100.296C216.292 93.3825 230.239 73.1865 230.239 73.1865C216.654 78.5539 210.314 92.9277 209.046 100.296C207.778 107.574 210.495 130.863 210.495 130.863C195.008 155.881 192.382 168.799 192.291 174.349Z" fill="#662D34"/>
<path d="M216.02 129.681C216.02 129.681 215.839 100.842 220.367 89.1978C224.986 77.5533 238.3 68.6379 238.3 68.6379C238.3 68.6379 221.544 74.1873 215.205 88.47C215.205 88.47 216.744 88.0152 218.374 88.1971C218.374 88.1062 211.401 94.7472 216.02 129.681Z" fill="#432024"/>
<path d="M275.251 87.2874C275.251 87.2874 288.927 140.143 284.761 144.6C280.595 149.058 275.523 157.155 268.006 140.143C260.489 123.131 259.221 109.03 259.221 109.03C259.221 109.03 266.466 87.5603 275.251 87.2874Z" fill="#0E3944"/>
<path d="M265.38 113.032C265.38 113.032 274.98 112.85 277.244 106.482C277.244 106.391 269.818 103.844 265.38 113.032Z" fill="#082930"/>
<path d="M266.104 97.9312L269.546 111.941C269.546 111.941 275.343 110.667 276.611 106.937L273.984 97.9312H266.104Z" fill="#8F5045"/>
<path d="M269.183 84.467C269.183 84.467 269.183 84.467 266.919 91.108C264.655 97.749 265.923 97.749 268.006 100.842C269.998 103.753 275.704 100.66 277.697 98.7497C279.418 97.1122 285.305 96.2935 286.301 94.565C286.754 93.8372 286.029 93.8372 284.218 94.383C282.135 95.0198 279.961 94.8379 279.961 94.8379C280.505 92.4726 288.384 91.017 288.565 88.3788C288.656 87.1052 280.686 92.4726 279.418 91.6538C279.418 91.6538 279.508 90.7441 283.222 87.833C285.305 86.1045 287.569 84.376 287.388 83.5572C287.025 82.0107 283.222 86.2864 277.335 89.2885C277.335 89.2885 279.327 87.0142 281.229 85.1038C283.04 83.3753 284.852 81.8288 284.037 81.101C283.312 80.4642 280.595 83.3753 278.784 85.1038C275.433 88.3788 272.263 90.0163 270.542 90.7441C269.727 91.108 269.274 91.199 269.274 91.199C271.176 84.194 269.183 84.467 269.183 84.467Z" fill="#8F5045"/>
<path d="M269.455 91.199C269.455 91.199 270.995 93.9282 270.089 96.1116C270.089 96.1116 272.897 93.9282 270.814 90.7441C269.908 91.0171 269.455 91.199 269.455 91.199Z" fill="#703E38"/>
<path d="M256.685 71.0942C256.685 71.0942 243.825 80.1006 236.217 97.9313C228.609 115.762 244.821 171.619 244.821 171.619C244.821 171.619 254.24 170.437 259.584 163.523L258.225 127.861C258.225 127.861 274.89 93.0187 275.252 87.2874C275.252 87.2874 272.354 74.8241 256.685 71.0942Z" fill="#662D34"/>
<path d="M262.029 72.186C262.029 72.186 264.021 78.3722 262.572 91.5633C262.572 91.5633 259.221 89.107 252.972 89.4709C252.972 89.4709 237.304 107.302 237.122 134.412C237.122 134.412 230.42 108.575 235.22 95.3841C240.021 82.284 256.685 67.5464 256.685 67.5464L262.029 72.186Z" fill="#522228"/>
<path d="M275.251 87.2874C275.251 87.2874 288.927 140.143 284.761 144.6C280.595 149.058 275.523 157.155 268.006 140.143C260.489 123.131 259.221 109.03 259.221 109.03C259.221 109.03 266.466 87.5603 275.251 87.2874Z" fill="#522228"/>
<path d="M265.38 113.033C265.38 113.033 274.98 112.851 277.244 106.483C277.244 106.392 269.818 103.844 265.38 113.033Z" fill="#7A4B51"/>
<path d="M266.104 97.9314L269.546 111.941C269.546 111.941 275.343 110.668 276.611 106.938L273.984 97.9314H266.104Z" fill="#8F5045"/>
<path d="M269.183 84.4672C269.183 84.4672 269.183 84.4672 266.919 91.1082C264.655 97.7493 265.923 97.7493 268.006 100.842C269.998 103.753 275.704 100.66 277.697 98.75C279.418 97.1125 285.305 96.2937 286.301 94.5652C286.754 93.8374 286.029 93.8374 284.218 94.3833C282.135 95.0201 279.961 94.8381 279.961 94.8381C280.505 92.4728 288.384 91.0173 288.565 88.3791C288.656 87.1054 280.686 92.4728 279.418 91.6541C279.418 91.6541 279.508 90.7444 283.222 87.8332C285.305 86.1047 287.569 84.3762 287.388 83.5575C287.025 82.0109 283.222 86.2867 277.335 89.2888C277.335 89.2888 279.327 87.0145 281.229 85.104C283.04 83.3755 284.852 81.829 284.037 81.1012C283.312 80.4644 280.595 83.3755 278.784 85.104C275.433 88.3791 272.263 90.0166 270.542 90.7444C269.727 91.1082 269.274 91.1992 269.274 91.1992C271.176 84.1943 269.183 84.4672 269.183 84.4672Z" fill="#8F5045"/>
<path d="M269.455 91.1992C269.455 91.1992 270.995 93.9284 270.089 96.1118C270.089 96.1118 272.897 93.9284 270.814 90.7444C269.908 91.0173 269.455 91.1992 269.455 91.1992Z" fill="#703E38"/>
<path d="M242.647 30.9751C242.647 30.9751 239.477 47.4412 252.429 49.1697C252.429 49.1697 257.048 41.346 263.116 46.8044C263.116 46.8044 269.637 28.8827 254.33 26.0625C254.33 26.0625 251.342 19.2395 239.477 21.4229C222.903 24.425 218.284 44.621 227.522 64.5441C227.431 64.5441 219.371 28.7007 242.647 30.9751Z" fill="#141515"/>
<path d="M247.899 35.2508C247.899 35.2508 252.609 41.346 252.428 49.1697C252.428 49.1697 255.869 44.894 257.681 48.6239C259.492 52.3538 252.247 57.8122 252.247 57.8122C252.247 57.8122 263.93 58.449 265.379 43.2565C265.923 36.7974 257.59 30.9751 247.899 35.2508Z" fill="#141515"/>
<path fill-rule="evenodd" clip-rule="evenodd" d="M32.7989 179.352C30.6252 178.26 28.7233 176.805 27.0025 175.258L20.7532 177.442L14.9568 168.162L19.5758 163.432C18.8513 161.157 18.489 158.792 18.3984 156.427L12.4209 153.607L14.7757 142.872H21.3872C22.474 140.689 23.9231 138.778 25.4628 137.05L23.2892 130.773L32.5272 124.859L37.2368 129.499C39.501 128.771 41.8558 128.407 44.2106 128.316L47.0182 122.312L57.7053 124.677V131.318C59.879 132.41 61.7809 133.866 63.5018 135.412L69.751 133.229L75.638 142.508L71.019 147.239C71.7435 149.513 72.1058 151.878 72.1964 154.244L78.1739 157.064L75.8191 167.799H69.2076C68.1208 169.982 66.6717 171.892 65.132 173.621L67.3056 179.898L58.0676 185.811L53.358 181.172C51.0938 181.899 48.739 182.263 46.3842 182.354L43.5766 188.358L32.8895 185.993L32.7989 179.352ZM42.2181 166.798C48.5579 168.253 54.8071 164.251 56.2562 157.882C57.7053 151.514 53.7203 145.237 47.3805 143.782C41.0407 142.326 34.7914 146.329 33.3423 152.697C31.8932 159.065 35.8782 165.342 42.2181 166.798Z" fill="#A42A29"/>
<path d="M108.153 148.057C108.153 148.057 107.519 148.057 106.522 147.511C105.526 147.056 104.168 146.055 103.353 144.236C102.9 143.326 102.628 142.235 102.719 141.052C102.809 139.869 103.081 138.596 103.805 137.504C104.168 136.958 104.62 136.412 105.073 135.957C105.617 135.503 106.16 135.139 106.885 134.866C108.153 134.229 109.692 134.138 111.232 134.411C112.681 134.775 114.04 135.594 114.945 136.685C115.398 137.231 115.76 137.868 116.032 138.505C116.304 139.142 116.485 139.778 116.576 140.415C116.757 141.689 116.485 142.962 116.032 144.054C115.579 145.146 114.855 145.965 114.13 146.601C112.591 147.875 110.96 148.148 109.873 148.148C108.787 148.239 108.153 148.057 108.153 148.057C108.153 147.966 108.787 148.148 109.783 148.148C110.87 148.148 112.409 147.784 113.858 146.51C114.583 145.874 115.217 145.055 115.67 144.054C116.123 143.053 116.304 141.78 116.123 140.597C116.032 139.96 115.851 139.323 115.579 138.778C115.308 138.141 114.945 137.595 114.492 137.14C113.587 136.139 112.319 135.321 110.96 135.048C109.602 134.775 108.062 134.866 106.885 135.412C106.251 135.685 105.707 136.048 105.164 136.503C104.711 136.958 104.258 137.413 103.896 137.959C103.171 138.96 102.9 140.233 102.809 141.325C102.719 142.417 102.99 143.508 103.353 144.327C104.168 146.056 105.436 147.056 106.341 147.602C107.609 147.875 108.243 147.966 108.153 148.057Z" fill="#263238"/>
<path d="M102.718 155.335C102.718 155.335 102.718 155.426 102.718 155.608C102.718 155.79 102.718 156.063 102.718 156.336C102.718 156.973 102.718 157.973 102.718 159.247L102.628 159.156C104.258 159.52 106.341 159.975 108.786 160.52L108.696 160.611C109.149 159.52 109.692 158.428 110.326 157.154V157.063H110.417C111.685 156.973 113.043 156.791 114.492 156.336H114.583L114.673 156.427C115.488 157.245 116.485 158.155 117.39 159.156H117.209C118.93 158.064 120.651 156.973 122.553 155.699L122.462 155.881C122.1 154.789 121.647 153.516 121.194 152.242V152.151L121.285 152.06C122.191 151.15 123.006 149.968 123.64 148.694L123.73 148.603H123.821C124.998 148.603 126.357 148.603 127.625 148.603L127.444 148.694C127.896 146.784 128.349 144.6 128.802 142.508L128.893 142.69C127.806 142.144 126.628 141.598 125.451 141.052L125.361 140.961V140.87C125.27 139.597 125.089 138.232 124.636 136.867V136.776L124.727 136.686C125.542 135.867 126.538 134.866 127.444 133.956V134.229C126.357 132.501 125.179 130.681 124.093 128.862L124.364 128.953C123.187 129.317 122.009 129.772 120.741 130.226H120.651L120.56 130.135C119.655 129.226 118.477 128.407 117.209 127.77C117.119 127.679 117.3 127.952 117.119 127.588V127.497V127.406V127.133V126.679V125.678C117.119 125.041 117.119 124.404 117.119 123.767L117.3 123.949C115.217 123.494 113.134 123.04 111.141 122.585L111.322 122.494C110.779 123.676 110.235 124.859 109.692 125.951L109.602 126.042H109.511C108.152 126.133 106.794 126.315 105.526 126.769H105.435L105.345 126.679C104.439 125.769 103.533 124.859 102.628 123.949H102.899C101.088 125.132 99.2767 126.224 97.5559 127.315L97.6464 127.133C98.0993 128.407 98.5521 129.59 98.9144 130.772V130.863L98.8238 130.954C97.9181 131.955 97.103 133.138 96.469 134.32L96.3785 134.411H96.2879C95.0199 134.411 93.6614 134.411 92.484 134.411L92.6651 134.32C92.2123 136.504 91.6689 138.596 91.3066 140.506L91.216 140.324C92.3934 140.87 93.5708 141.416 94.6576 141.962H94.7482V142.053C94.8388 143.509 95.0199 144.873 95.4728 146.147V146.238L95.3822 146.329C94.3859 147.329 93.4803 148.239 92.6651 149.058V148.876C93.9331 150.968 95.1105 152.788 96.0162 154.243H95.9256C97.3747 153.697 98.5521 153.334 99.5484 152.97C100.545 153.879 101.45 154.516 101.994 154.88C102.265 155.062 102.537 155.153 102.628 155.244C102.718 155.335 102.718 155.335 102.718 155.335C102.718 155.335 102.628 155.335 102.447 155.244C102.265 155.153 102.084 155.062 101.813 154.88C101.179 154.516 100.363 153.97 99.2767 152.97H99.3672C98.371 153.334 97.1936 153.788 95.7445 154.243H95.6539V154.152C94.6576 152.606 93.5708 150.877 92.2123 148.785L92.1217 148.694L92.2123 148.603C93.0274 147.784 93.9331 146.875 94.9294 145.874V145.965C94.5671 144.691 94.2954 143.327 94.2048 141.871L94.2954 141.962C93.2085 141.416 92.0312 140.87 90.8538 140.324L90.7632 140.233V140.142C91.216 138.141 91.6689 136.14 92.1217 133.956V133.865H92.2123C93.4803 133.865 94.7482 133.865 96.0162 133.865L95.835 133.956C96.469 132.774 97.2841 131.591 98.2804 130.499V130.681C97.8276 129.499 97.4653 128.316 97.0124 127.042L96.9219 126.951L97.0124 126.86C98.7332 125.769 100.545 124.586 102.356 123.494L102.447 123.403L102.537 123.494C103.443 124.404 104.349 125.314 105.254 126.224L105.073 126.133C106.432 125.678 107.79 125.496 109.149 125.405L108.968 125.496C109.511 124.313 110.054 123.222 110.598 122.039L110.688 121.857H110.869C112.862 122.312 114.945 122.767 117.028 123.222H117.209V123.403C117.209 124.04 117.209 124.677 117.209 125.314V126.315V126.769V127.042V127.133V127.224C117.028 126.86 117.119 127.133 117.119 127.042C118.387 127.679 119.564 128.589 120.56 129.499H120.379C121.647 129.044 122.825 128.589 124.002 128.225L124.183 128.134L124.274 128.225C125.451 130.045 126.628 131.864 127.625 133.592L127.715 133.683L127.625 133.774C126.719 134.684 125.723 135.685 124.908 136.504L124.998 136.322C125.451 137.686 125.632 139.142 125.723 140.415L125.632 140.233C126.81 140.779 127.987 141.416 129.074 141.871L129.164 141.962V142.144C128.712 144.327 128.168 146.42 127.806 148.33V148.421H127.625C126.266 148.421 124.998 148.421 123.821 148.421L124.002 148.33C123.368 149.604 122.462 150.786 121.557 151.787V151.605C122.009 152.879 122.462 154.152 122.825 155.244V155.335L122.734 155.426C120.832 156.609 119.021 157.791 117.39 158.792L117.3 158.883L117.209 158.792C116.304 157.791 115.307 156.882 114.492 156.063H114.583C113.134 156.518 111.775 156.7 110.507 156.791L110.598 156.7C109.964 157.973 109.42 159.156 108.968 160.157V160.248H108.877C106.341 159.702 104.258 159.156 102.718 158.792H102.628V158.701C102.628 157.427 102.628 156.518 102.628 155.881C102.628 155.608 102.628 155.335 102.628 155.153C102.718 155.426 102.718 155.335 102.718 155.335Z" fill="#263238"/>
<path fill-rule="evenodd" clip-rule="evenodd" d="M72.1056 118.673C71.0188 118.127 70.1131 117.4 69.2074 116.672L66.1281 117.764L63.2299 113.124L65.5847 110.759C65.2224 109.667 65.0413 108.484 64.9507 107.302L61.9619 105.846L63.1393 100.57H66.3998C66.9432 99.4779 67.6678 98.5682 68.3923 97.6585L67.3055 94.5654L71.9245 91.6542L74.2793 94.0195C75.3661 93.6556 76.5435 93.4737 77.7209 93.3827L79.17 90.3806L84.423 91.5633V94.8383C85.5098 95.3841 86.4155 96.1119 87.3212 96.8397L90.4006 95.748L93.2988 100.388L90.944 102.753C91.3062 103.845 91.4874 105.027 91.5779 106.21L94.5667 107.665L93.3893 112.942H90.1288C89.5854 114.034 88.8609 114.943 88.1363 115.853L89.2232 118.946L84.6041 121.857L82.2494 119.492C81.1625 119.856 79.9851 120.038 78.8077 120.129L77.3586 123.131L72.1056 121.948V118.673ZM76.7246 112.487C79.8946 113.215 82.9739 111.213 83.6985 108.029C84.423 104.845 82.4305 101.752 79.2606 101.024C76.0907 100.297 73.0113 102.298 72.2868 105.482C71.6528 108.666 73.6453 111.759 76.7246 112.487Z" fill="#E7515B"/>
<g opacity="0.4">
<g opacity="0.4">
<g opacity="0.4">
<g opacity="0.4">
<path opacity="0.4" fill-rule="evenodd" clip-rule="evenodd" d="M72.1056 118.673C71.0188 118.127 70.1131 117.4 69.2074 116.672L66.1281 117.764L63.2299 113.124L65.5847 110.759C65.2224 109.667 65.0413 108.484 64.9507 107.302L61.9619 105.846L63.1393 100.57H66.3998C66.9432 99.4779 67.6678 98.5682 68.3923 97.6585L67.3055 94.5654L71.9245 91.6542L74.2793 94.0195C75.3661 93.6556 76.5435 93.4737 77.7209 93.3827L79.17 90.3806L84.423 91.5633V94.8383C85.5098 95.3841 86.4155 96.1119 87.3212 96.8397L90.4006 95.748L93.2988 100.388L90.944 102.753C91.3062 103.845 91.4874 105.027 91.5779 106.21L94.5667 107.665L93.3893 112.942H90.1288C89.5854 114.034 88.8609 114.943 88.1363 115.853L89.2232 118.946L84.6041 121.857L82.2494 119.492C81.1625 119.856 79.9851 120.038 78.8077 120.129L77.3586 123.131L72.1056 121.948V118.673ZM76.7246 112.487C79.8946 113.215 82.9739 111.213 83.6985 108.029C84.423 104.845 82.4305 101.752 79.2606 101.024C76.0907 100.297 73.0113 102.298 72.2868 105.482C71.6528 108.666 73.6453 111.759 76.7246 112.487Z" fill="white"/>
</g>
</g>
</g>
</g>
</svg>
