<svg width="64" height="48" viewBox="0 0 64 48" fill="none" xmlns="http://www.w3.org/2000/svg">
<path d="M8.03199 33.9656V31.3096H0.0963745V43.2569H8.03199V40.601H2.79598V38.6193H6.61692V35.9473H2.79598V33.9656H8.03199Z" fill="#221F1F"/>
<path d="M20.601 40.8977C20.965 40.3944 21.2583 39.8451 21.4729 39.2647C21.7085 38.6353 21.8292 37.9699 21.8296 37.2991C21.8369 36.4526 21.6593 35.6145 21.3086 34.8415C20.6541 33.392 19.456 32.2471 17.9644 31.6454C17.205 31.3382 16.3905 31.1844 15.5695 31.1932C14.7485 31.2021 13.9376 31.3734 13.1853 31.697C12.4509 32.0178 11.7861 32.4745 11.227 33.0422C10.6778 33.6077 10.2402 34.2688 9.93666 34.9918C9.44846 36.1264 9.32741 37.3814 9.59 38.5861C9.85258 39.7908 10.486 40.8867 11.4042 41.7246C11.9819 42.2487 12.6539 42.6621 13.3858 42.9436C14.109 43.2236 14.8792 43.3679 15.6564 43.3691C16.1988 43.3707 16.7389 43.2989 17.2615 43.1558C17.7099 43.0362 18.1458 42.8753 18.5635 42.6753L19.0962 43.2613H22.7633L20.601 40.8977ZM14.4955 38.228C14.858 38.6305 15.2496 39.0548 15.6611 39.4895C16.0108 39.8622 16.3453 40.228 16.6589 40.5778C16.3339 40.6705 15.9971 40.7172 15.6588 40.7165C15.1942 40.7198 14.7339 40.6289 14.3066 40.4493C13.8915 40.2754 13.5131 40.0264 13.1911 39.7154C12.871 39.405 12.6156 39.0361 12.4393 38.6294C12.257 38.209 12.1646 37.7562 12.1677 37.2991C12.166 36.8394 12.2592 36.3841 12.4416 35.9608C12.617 35.5498 12.8697 35.1751 13.1864 34.8564C13.5096 34.5348 13.8947 34.2797 14.3192 34.106C14.7437 33.9324 15.199 33.8436 15.6588 33.845C16.1175 33.8433 16.5718 33.9342 16.9934 34.1122C17.4068 34.2856 17.7818 34.5369 18.0972 34.8519C18.4159 35.1716 18.6719 35.5464 18.8526 35.9574C19.0388 36.3793 19.1341 36.8346 19.1323 37.2945C19.1339 37.6083 19.0879 37.9206 18.996 38.2211C18.9305 38.4343 18.8483 38.6421 18.75 38.8427L16.4129 36.3003L14.3777 38.0915L14.4955 38.228Z" fill="#221F1F"/>
<path d="M30.9399 31.3096V38.3762C30.9446 38.713 30.8857 39.0478 30.7662 39.3636C30.6642 39.6368 30.5081 39.8875 30.307 40.101C30.1218 40.2957 29.8986 40.4517 29.6507 40.5597C29.4079 40.664 29.1458 40.7179 28.8808 40.7179C28.6159 40.7179 28.3537 40.664 28.1109 40.5597C27.8627 40.4517 27.6392 40.2957 27.4535 40.101C27.2528 39.8872 27.0967 39.6366 26.9943 39.3636C26.8756 39.0477 26.8171 38.7129 26.8217 38.3762V31.3096H24.1408V38.6743C24.1339 39.3197 24.2526 39.9605 24.4905 40.562C24.7108 41.1153 25.0418 41.6196 25.4638 42.0448C25.8908 42.4667 26.4009 42.7984 26.9628 43.0196C28.1983 43.4905 29.568 43.4905 30.8035 43.0196C31.3667 42.7975 31.8789 42.4664 32.3095 42.0459C32.7366 41.6224 33.071 41.1174 33.2922 40.562C33.5299 39.9604 33.6486 39.3197 33.6419 38.6743V31.3096H30.9399Z" fill="#221F1F"/>
<path d="M39.6332 31.3096H36.9498V43.2569H39.6332V31.3096Z" fill="#221F1F"/>
<path d="M42.0505 31.3096V33.9656H45.3166V43.2569H48.0162V33.9656H51.2485V31.3096H42.0505Z" fill="#221F1F"/>
<path d="M60.6568 31.3096L58.0714 34.8647L55.4709 31.3096H52.15L52.354 31.5894C52.6905 32.0528 53.0468 32.539 53.4229 33.0482C53.799 33.5573 54.1747 34.07 54.5501 34.586C54.927 35.1067 55.3035 35.6208 55.6796 36.1285C56.0417 36.6193 56.3863 37.0895 56.7135 37.539V43.2569H59.4166V37.539L63.9998 31.3096H60.6568Z" fill="#221F1F"/>
<path fill-rule="evenodd" clip-rule="evenodd" d="M10.5626 10.9961H0.0963745V27.2015L10.5696 27.2175L28.9143 14.5741L46.7659 27.2153H63.9963L28.9085 2.35724L10.5626 14.9961V10.9961Z" fill="#A32A29"/>
</svg>
