<?xml version="1.0" encoding="utf-8"?>
<!-- Generator: Adobe Illustrator 24.0.1, SVG Export Plug-In . SVG Version: 6.00 Build 0)  -->
<svg version="1.1" id="Layer_1" xmlns="http://www.w3.org/2000/svg" xmlns:xlink="http://www.w3.org/1999/xlink" x="0px" y="0px"
	 viewBox="0 0 487.84 286.47" style="enable-background:new 0 0 487.84 286.47;" xml:space="preserve">
<style type="text/css">
	.st0{fill:#211E1F;}
	.st1{fill-rule:evenodd;clip-rule:evenodd;fill:#A12B2A;}
	.st2{fill:#A12B2A;}
	.st3{fill:#636569;}
	.st4{fill:#FFFFFF;}
</style>
<g>
	<g>
		<polygon class="st0" points="80.8,164.12 80.79,154.95 53.81,154.99 53.89,196.27 80.86,196.22 80.84,187.05 63.05,187.08 
			63.04,180.23 76.03,180.21 76.01,170.98 63.02,171 63.01,164.15 		"/>
		<path class="st0" d="M122.57,187.96c1.21-1.7,2.19-3.57,2.91-5.57c0.79-2.17,1.18-4.42,1.18-6.69c-0.01-3.01-0.6-5.82-1.76-8.37
			c-1.16-2.54-2.71-4.75-4.63-6.58c-1.91-1.83-4.13-3.27-6.59-4.28c-2.47-1.02-5.07-1.53-7.73-1.53c-2.97,0.01-5.75,0.59-8.28,1.73
			c-2.52,1.14-4.73,2.69-6.55,4.6c-1.83,1.91-3.28,4.14-4.31,6.65c-1.04,2.51-1.56,5.15-1.55,7.85c0.01,3.12,0.61,5.99,1.79,8.54
			c1.18,2.54,2.77,4.74,4.72,6.53c1.95,1.79,4.19,3.18,6.65,4.14c2.47,0.96,5.03,1.44,7.61,1.44c1.85,0,3.66-0.25,5.38-0.74
			c1.55-0.44,3.01-1,4.35-1.67l1.79,1.99l12.28-0.02L122.57,187.96z M102.1,178.91c1.22,1.37,2.53,2.81,3.91,4.29
			c1.17,1.27,2.3,2.51,3.35,3.7c-1.07,0.31-2.19,0.47-3.35,0.48c-1.6,0-3.13-0.3-4.53-0.9c-1.41-0.6-2.67-1.44-3.74-2.49
			c-1.07-1.05-1.92-2.29-2.53-3.7c-0.61-1.4-0.91-2.92-0.92-4.53c0-1.6,0.3-3.14,0.9-4.56c0.6-1.43,1.44-2.7,2.49-3.77
			c1.05-1.07,2.3-1.92,3.72-2.52c1.42-0.61,2.95-0.92,4.56-0.92c1.56,0,3.07,0.3,4.47,0.9c1.41,0.6,2.65,1.45,3.7,2.51
			c1.05,1.07,1.91,2.33,2.53,3.76c0.62,1.42,0.94,2.95,0.94,4.55c0,1.1-0.15,2.16-0.45,3.15c-0.22,0.73-0.5,1.44-0.82,2.12
			l-7.84-8.64l-6.8,6.11L102.1,178.91z"/>
		<path class="st0" d="M157.34,154.99l0.04,24.28c0,1.25-0.19,2.39-0.58,3.39c-0.39,1-0.91,1.86-1.55,2.53
			c-0.64,0.68-1.39,1.21-2.22,1.57c-1.66,0.73-3.54,0.73-5.2,0.01c-0.83-0.36-1.58-0.89-2.22-1.56c-0.65-0.68-1.17-1.53-1.56-2.53
			c-0.39-1-0.59-2.14-0.59-3.39l-0.04-24.28l-9.07,0.02l0.04,25.3c0,2.34,0.41,4.53,1.19,6.48c0.79,1.96,1.9,3.67,3.3,5.09
			c1.4,1.42,3.11,2.54,5.07,3.34c1.96,0.8,4.15,1.21,6.49,1.2c2.34,0,4.52-0.42,6.49-1.22c1.96-0.81,3.67-1.94,5.09-3.36
			c1.42-1.42,2.53-3.14,3.31-5.1c0.78-1.96,1.17-4.14,1.17-6.49l-0.04-25.3L157.34,154.99z"/>
		
			<rect x="177.3" y="155" transform="matrix(1 -1.739015e-03 1.739015e-03 1 -0.3052 0.3165)" class="st0" width="9.14" height="41.35"/>
		<polygon class="st0" points="194.51,155.19 194.53,164.35 205.61,164.33 205.67,196.38 214.83,196.36 214.77,164.31 
			225.74,164.29 225.72,155.13 		"/>
		<path class="st0" d="M257.48,155.08l-8.74,12.25l-8.84-12.22l-11.25,0.02l0.69,0.96c1.14,1.6,2.36,3.27,3.63,5.02
			c1.28,1.75,2.55,3.51,3.83,5.29c1.28,1.79,2.56,3.56,3.84,5.3c1.23,1.69,2.41,3.31,3.51,4.85l0.03,19.7l9.15-0.02l-0.03-19.7
			l15.49-21.49L257.48,155.08z"/>
	</g>
	<polygon class="st1" points="88.75,86.21 53.69,86.21 53.79,141.45 88.88,141.44 150.25,98.28 210.58,141.47 268.3,141.37 
		150.16,56.69 88.78,99.83 	"/>
	<rect x="275.94" y="210.29" class="st2" width="158.2" height="19.49"/>
	<rect x="355.04" y="210.29" class="st3" width="79.1" height="19.49"/>
	<g>
		<path class="st3" d="M305,166.48c0,1.33-0.3,2.77-0.91,4.32c-0.6,1.55-1.74,2.91-3.42,4.09c1.01,0.47,1.89,1.06,2.63,1.76
			c0.74,0.71,1.35,1.46,1.81,2.26c0.47,0.8,0.82,1.64,1.05,2.5c0.23,0.86,0.35,1.71,0.35,2.53c0,1.53-0.22,3.03-0.68,4.5
			c-0.45,1.47-1.21,2.8-2.29,3.97c-1.08,1.18-2.5,2.13-4.29,2.85c-1.78,0.73-4,1.09-6.66,1.09h-16.68v-41.18h16.5
			c1.76,0,3.41,0.31,4.93,0.94c1.53,0.63,2.86,1.46,3.99,2.5c1.13,1.04,2.03,2.25,2.67,3.62C304.68,163.62,305,165.03,305,166.48z
			 M284.12,171.25h7.41c1.45,0,2.62-0.34,3.5-1.03c0.88-0.69,1.32-1.6,1.32-2.74c0-1.14-0.44-2.11-1.32-2.91
			c-0.88-0.8-2.05-1.21-3.5-1.21h-7.41V171.25z M291.59,188.19c2.24,0,3.84-0.42,4.82-1.26c0.98-0.84,1.47-1.83,1.47-2.97
			c0-0.59-0.1-1.16-0.29-1.71c-0.2-0.55-0.53-1.03-1-1.44c-0.47-0.41-1.12-0.74-1.94-1c-0.82-0.26-1.84-0.38-3.06-0.38h-7.47v8.77
			H291.59z"/>
		<path class="st3" d="M347.85,189.22c-2.27,2.27-4.72,4.03-7.35,5.28c-2.63,1.25-5.41,1.87-8.33,1.87c-3.11,0-5.94-0.59-8.48-1.76
			c-2.54-1.17-4.7-2.72-6.49-4.64c-1.79-1.92-3.16-4.11-4.12-6.58c-0.96-2.46-1.44-4.98-1.44-7.56c0-3,0.57-5.77,1.7-8.31
			c1.13-2.54,2.65-4.72,4.56-6.55c1.9-1.83,4.1-3.25,6.58-4.27c2.48-1.02,5.05-1.53,7.7-1.53c2.69,0,5.35,0.57,7.99,1.7
			c2.63,1.13,4.99,2.76,7.07,4.87l-5.6,5.65c-1.35-1.35-2.84-2.38-4.47-3.11c-1.63-0.73-3.3-1.1-4.99-1.1
			c-1.73,0-3.35,0.34-4.87,1.01c-1.52,0.67-2.85,1.58-3.98,2.71c-1.13,1.13-2.03,2.47-2.68,4.01c-0.65,1.54-0.98,3.17-0.98,4.9
			c0,1.73,0.33,3.35,0.98,4.87c0.65,1.52,1.55,2.85,2.68,3.98c1.13,1.13,2.46,2.03,3.98,2.68c1.52,0.65,3.14,0.98,4.87,0.98
			c1.92,0,3.7-0.41,5.34-1.24c1.63-0.83,3.2-1.99,4.7-3.49L347.85,189.22z"/>
		<path class="st3" d="M356,196.37v-41.18h14.3c3.06,0,5.81,0.5,8.27,1.5c2.45,1,4.54,2.41,6.27,4.24c1.72,1.82,3.06,4,4,6.53
			c0.94,2.53,1.41,5.32,1.41,8.38c0,2.9-0.47,5.6-1.41,8.09c-0.94,2.49-2.28,4.66-4,6.5c-1.73,1.84-3.82,3.29-6.27,4.35
			c-2.45,1.06-5.21,1.59-8.27,1.59H356z M364.12,188.19h6.18c1.69,0,3.24-0.31,4.68-0.94c1.43-0.63,2.68-1.5,3.74-2.62
			s1.88-2.43,2.47-3.94c0.59-1.51,0.88-3.13,0.88-4.85s-0.29-3.34-0.88-4.85c-0.59-1.51-1.41-2.82-2.47-3.94
			c-1.06-1.12-2.3-2-3.74-2.65c-1.43-0.65-2.99-0.97-4.68-0.97h-6.18V188.19z"/>
		<path class="st3" d="M434.14,189.22c-2.27,2.27-4.72,4.03-7.35,5.28c-2.63,1.25-5.41,1.87-8.33,1.87c-3.11,0-5.94-0.59-8.48-1.76
			c-2.54-1.17-4.7-2.72-6.49-4.64c-1.79-1.92-3.16-4.11-4.12-6.58c-0.96-2.46-1.44-4.98-1.44-7.56c0-3,0.57-5.77,1.7-8.31
			c1.13-2.54,2.65-4.72,4.56-6.55c1.9-1.83,4.1-3.25,6.58-4.27c2.48-1.02,5.05-1.53,7.7-1.53c2.69,0,5.35,0.57,7.99,1.7
			c2.63,1.13,4.99,2.76,7.07,4.87l-5.6,5.65c-1.35-1.35-2.84-2.38-4.47-3.11c-1.63-0.73-3.3-1.1-4.99-1.1
			c-1.73,0-3.35,0.34-4.87,1.01c-1.52,0.67-2.85,1.58-3.98,2.71c-1.13,1.13-2.03,2.47-2.68,4.01c-0.65,1.54-0.98,3.17-0.98,4.9
			c0,1.73,0.33,3.35,0.98,4.87c0.65,1.52,1.55,2.85,2.68,3.98c1.13,1.13,2.46,2.03,3.98,2.68c1.52,0.65,3.14,0.98,4.87,0.98
			c1.92,0,3.7-0.41,5.34-1.24c1.63-0.83,3.2-1.99,4.7-3.49L434.14,189.22z"/>
	</g>
	<g>
		<path class="st4" d="M373.85,214.88l3.78-0.97v12.1h-1.67v-10.01l-2.11,0.55V214.88z"/>
		<path class="st4" d="M381.9,218.19c0-2.34,1.89-4.26,4.21-4.26c2.28,0,4.21,1.93,4.21,4.26c0,0.82-0.24,1.6-0.63,2.25l-3.05,5.57
			h-1.81l2.01-3.61c-0.24,0.05-0.48,0.07-0.73,0.07C383.76,222.47,381.9,220.52,381.9,218.19z M386.11,220.88
			c1.41,0,2.57-1.24,2.57-2.69c0-1.41-1.16-2.68-2.57-2.68c-1.41,0-2.59,1.26-2.59,2.68C383.52,219.64,384.69,220.88,386.11,220.88z
			"/>
		<path class="st4" d="M393.73,220.05c0-3.36,1.55-6.14,4.88-6.14s4.89,2.78,4.89,6.14c0,3.38-1.6,6.12-4.89,6.12
			S393.73,223.42,393.73,220.05z M395.42,220.05c0,2.44,0.82,4.47,3.19,4.47c2.37,0,3.2-2.03,3.2-4.47c0-2.47-0.83-4.48-3.2-4.48
			C396.24,215.56,395.42,217.57,395.42,220.05z"/>
		<path class="st4" d="M406.91,218.19c0-2.34,1.89-4.26,4.21-4.26c2.28,0,4.21,1.93,4.21,4.26c0,0.82-0.24,1.6-0.63,2.25l-3.05,5.57
			h-1.81l2.01-3.61c-0.24,0.05-0.48,0.07-0.73,0.07C408.77,222.47,406.91,220.52,406.91,218.19z M411.12,220.88
			c1.41,0,2.57-1.24,2.57-2.69c0-1.41-1.16-2.68-2.57-2.68s-2.59,1.26-2.59,2.68C408.53,219.64,409.71,220.88,411.12,220.88z"/>
	</g>
</g>
</svg>
