<svg width="32" height="32" viewBox="0 0 32 32" fill="none" xmlns="http://www.w3.org/2000/svg">
<path d="M12.8261 15.2271C16.2024 15.2271 18.9396 12.4901 18.9396 9.11354C18.9396 5.73716 16.2024 3 12.8261 3C9.44969 3 6.71252 5.73716 6.71252 9.11354C6.71578 12.4888 9.45095 15.2238 12.8261 15.2271ZM12.8261 4.15674C15.5638 4.15674 17.7829 6.3762 17.7829 9.11354C17.7829 11.8512 15.5638 14.0703 12.8261 14.0703C10.0885 14.0703 7.86945 11.8512 7.86945 9.11354C7.87252 6.37728 10.0898 4.16 12.8261 4.15674Z" fill="currentColor" stroke="currentColor" stroke-width="0.2"/>
<path d="M28.7145 18.6454L23.7288 15.9907C23.557 15.897 23.3491 15.8992 23.1793 15.9963L18.6158 18.495C16.9442 17.2514 14.9428 16.6037 12.8147 16.6037C10.1656 16.6095 7.70743 17.6391 5.88543 19.513C4.04028 21.4043 3.02802 23.9897 3.03396 26.7949C3.03489 27.114 3.29329 27.3724 3.61227 27.3733L19.7031 27.3444C20.4595 28.2836 21.4319 29.0257 22.5371 29.5076L23.2082 29.8026C23.2811 29.8351 23.3601 29.8508 23.4396 29.8488C23.5188 29.8474 23.5973 29.8318 23.6709 29.8026L24.4286 29.4729C27.2124 28.305 29.023 25.5801 29.021 22.561V19.16C29.021 18.9452 28.9035 18.7476 28.7145 18.6454ZM4.20809 26.2108C4.32942 23.9376 5.21439 21.8614 6.71831 20.317C8.32025 18.6686 10.4893 17.7605 12.8203 17.7605H12.8376C14.7522 17.7605 16.5453 18.3621 18.0317 19.5014V22.6305C18.0326 23.8727 18.3425 25.0951 18.9338 26.1875L4.20809 26.2108ZM27.8643 22.561C27.8654 25.1172 26.3301 27.4234 23.9716 28.4087H23.9658L23.4396 28.6342L22.9999 28.4433C20.6868 27.4326 19.191 25.1492 19.1884 22.6248V19.4957L23.4626 17.1532L27.8643 19.5014V22.561Z" fill="currentColor" stroke="currentColor" stroke-width="0.2"/>
<path d="M21.8778 22.2545C21.6703 22.0119 21.3052 21.9835 21.0623 22.191C20.8197 22.3986 20.7913 22.7637 20.9989 23.0064L22.3116 24.5391C22.422 24.6673 22.5823 24.7411 22.7512 24.7416C22.8838 24.7427 23.0125 24.6978 23.1156 24.6143L26.1696 22.1332C26.4171 21.9303 26.4533 21.5652 26.2504 21.3175C26.0477 21.0699 25.6826 21.0338 25.4351 21.2366L22.8207 23.3652L21.8778 22.2545Z" fill="currentColor" stroke="currentColor" stroke-width="0.1"/>
</svg>
