<svg
  width="23"
  height="17"
  viewBox="0 0 23 17"
  fill="none"
  xmlns="http://www.w3.org/2000/svg"
>
  <path
    fill-rule="evenodd"
    clip-rule="evenodd"
    d="M0.299805 2.07673C0.299805 1.07864 1.12562 0.299805 2.10507 0.299805H20.8945C21.874 0.299805 22.6998 1.07864 22.6998 2.07673V7.46134C22.6998 7.84794 22.3864 8.16134 21.9998 8.16134C21.6132 8.16134 21.2998 7.84794 21.2998 7.46134V5.0075H1.6998V13.9229C1.6998 14.1137 1.86431 14.2998 2.10507 14.2998H13.3682C13.7548 14.2998 14.0682 14.6132 14.0682 14.9998C14.0682 15.3864 13.7548 15.6998 13.3682 15.6998H2.10507C1.12562 15.6998 0.299805 14.921 0.299805 13.9229V2.07673ZM1.6998 3.6075H21.2998V2.07673C21.2998 1.88589 21.1353 1.6998 20.8945 1.6998H2.10507C1.86431 1.6998 1.6998 1.88589 1.6998 2.07673V3.6075Z"
    fill="currentColor"
  />
  <path
    d="M3.61559 9.3075C3.61559 8.9209 3.92899 8.6075 4.31559 8.6075H8.84191C9.22851 8.6075 9.54191 8.9209 9.54191 9.3075C9.54191 9.6941 9.22851 10.0075 8.84191 10.0075H4.31559C3.92899 10.0075 3.61559 9.6941 3.61559 9.3075Z"
    fill="currentColor"
  />
  <path
    d="M3.61559 12.3075C3.61559 11.9209 3.92899 11.6075 4.31559 11.6075H11.8419C12.2285 11.6075 12.5419 11.9209 12.5419 12.3075C12.5419 12.6941 12.2285 13.0075 11.8419 13.0075H4.31559C3.92899 13.0075 3.61559 12.6941 3.61559 12.3075Z"
    fill="currentColor"
  />
  <path
    d="M18.9998 12.4998C18.9998 12.2237 18.776 11.9998 18.4998 11.9998C18.2237 11.9998 17.9998 12.2237 17.9998 12.4998V14.4998C17.9998 14.7759 18.2237 14.9998 18.4998 14.9998C18.776 14.9998 18.9998 14.7759 18.9998 14.4998V12.4998Z"
    fill="currentColor"
  />
  <path
    d="M18.9998 10.9998C18.9998 11.2759 18.776 11.4998 18.4998 11.4998C18.2237 11.4998 17.9998 11.2759 17.9998 10.9998C17.9998 10.7237 18.2237 10.4998 18.4998 10.4998C18.776 10.4998 18.9998 10.7237 18.9998 10.9998Z"
    fill="currentColor"
  />
  <path
    fill-rule="evenodd"
    clip-rule="evenodd"
    d="M18.4998 8.1498C16.0974 8.1498 14.1498 10.0974 14.1498 12.4998C14.1498 14.9022 16.0974 16.8498 18.4998 16.8498C20.9022 16.8498 22.8498 14.9022 22.8498 12.4998C22.8498 10.0974 20.9022 8.1498 18.4998 8.1498ZM15.3498 12.4998C15.3498 10.7601 16.7601 9.3498 18.4998 9.3498C20.2395 9.3498 21.6498 10.7601 21.6498 12.4998C21.6498 14.2395 20.2395 15.6498 18.4998 15.6498C16.7601 15.6498 15.3498 14.2395 15.3498 12.4998Z"
    fill="currentColor"
  />
</svg>
