<svg
  xmlns="http://www.w3.org/2000/svg"
  width="32"
  height="32"
  fill="none"
  viewBox="0 0 32 32"
>
  <path
    fill="currentColor"
    stroke="currentColor"
    stroke-width=".3"
    d="M13.12 25.087H7.25c-1.24 0-2.25-1.072-2.25-2.391V7.39C5 6.072 6.01 5 7.25 5h10.804c1.24 0 2.25 1.072 2.25 2.391v5.797c0 .264-.201.478-.45.478-.248 0-.45-.214-.45-.478V7.39c0-.79-.606-1.434-1.35-1.434H7.25c-.745 0-1.35.643-1.35 1.434v15.305c0 .79.605 1.434 1.35 1.434h5.87c.248 0 .45.215.45.479s-.202.478-.45.478z"
  />
  <path
    fill="currentColor"
    stroke="currentColor"
    stroke-width=".3"
    d="M17.957 13.609H9.26c-.24 0-.435-.215-.435-.479s.195-.478.435-.478h8.696c.24 0 .434.214.434.478s-.194.479-.434.479zM13.13 17.435H7.391c-.264 0-.478-.214-.478-.479 0-.264.214-.478.478-.478h5.74c.264 0 .478.214.478.478 0 .265-.214.479-.479.479zM12.174 9.783H7.391c-.264 0-.478-.215-.478-.479s.214-.478.478-.478h4.783c.264 0 .478.214.478.478s-.214.479-.478.479zM20.783 27c-3.429 0-6.218-2.79-6.218-6.217 0-3.428 2.79-6.218 6.218-6.218S27 17.355 27 20.783 24.21 27 20.783 27zm0-11.478c-2.902 0-5.261 2.36-5.261 5.26s2.36 5.262 5.26 5.262c2.902 0 5.261-2.361 5.261-5.261s-2.36-5.261-5.26-5.261z"
  />
  <path
    fill="currentColor"
    stroke="currentColor"
    stroke-width=".3"
    d="M21.061 24.529c-.264 0-.478-.214-.478-.478v-5.74c0-.263.215-.478.479-.478s.478.215.478.479v5.739c0 .264-.214.478-.479.478z"
  />
  <path
    fill="currentColor"
    stroke="currentColor"
    stroke-width=".3"
    d="M24.05 21.54h-5.739c-.264 0-.478-.214-.478-.478s.215-.479.479-.479h5.739c.264 0 .478.215.478.479s-.214.478-.478.478z"
  />
</svg>
