<svg width="32" height="32" viewBox="0 0 32 32" fill="none" xmlns="http://www.w3.org/2000/svg">
<path d="M24.7154 9.4932L19.9512 4.72893C19.4844 4.2622 18.8514 4 18.1913 4H11.7556C9.69369 4 8.02222 5.67147 8.02222 7.73333V22.6667C8.02222 24.7285 9.69369 26.4 11.7556 26.4H21.7111C23.773 26.4 25.4444 24.7285 25.4444 22.6667V11.2532C25.4444 10.593 25.1822 9.95995 24.7154 9.4932ZM19.2222 5.75979L23.6845 10.2222H20.4667C19.7797 10.2214 19.223 9.66474 19.2222 8.97778V5.75979ZM24.2 22.6667C24.1984 24.0406 23.085 25.154 21.7111 25.1556H11.7556C10.3816 25.154 9.26824 24.0406 9.26666 22.6667V7.73333C9.26821 6.3594 10.3816 5.24599 11.7556 5.24444H17.9778V8.97778C17.9778 10.3524 19.0921 11.4667 20.4667 11.4667H24.2V22.6667ZM21.7111 17.6889C21.7111 17.8539 21.6457 18.0123 21.529 18.129C21.4123 18.2457 21.2539 18.3112 21.0889 18.3111H17.3555V22.0444C17.3555 22.3881 17.077 22.6667 16.7333 22.6667C16.3897 22.6667 16.1111 22.3881 16.1111 22.0444V18.3111H12.3778C12.0341 18.3111 11.7556 18.0325 11.7556 17.6889C11.7556 17.3452 12.0341 17.0667 12.3778 17.0667H16.1111V13.3333C16.1111 12.9897 16.3897 12.7111 16.7333 12.7111C17.077 12.7111 17.3555 12.9897 17.3555 13.3333V17.0667H21.0889C21.2539 17.0666 21.4123 17.1321 21.529 17.2488C21.6457 17.3655 21.7111 17.5238 21.7111 17.6889Z" fill="currentColor"/>
</svg>
