<svg width="48" height="48" viewBox="0 0 48 48" fill="none" xmlns="http://www.w3.org/2000/svg">
<path d="M0 24C0 10.7452 10.7452 0 24 0C37.2548 0 48 10.7452 48 24C48 37.2548 37.2548 48 24 48C10.7452 48 0 37.2548 0 24Z" fill="#929497" fill-opacity="0.2"/>
<path d="M21.5 24.5C23.83 24.5 25.7188 22.6112 25.7188 20.2812C25.7188 17.9513 23.83 16.0625 21.5 16.0625C19.17 16.0625 17.2812 17.9513 17.2812 20.2812C17.2812 22.6112 19.17 24.5 21.5 24.5Z" stroke="#A32A29" stroke-width="1.5"/>
<path fill-rule="evenodd" clip-rule="evenodd" d="M21.5 32.9375C25.2279 32.9375 28.25 32.4102 28.25 30.8281C28.25 27.3332 25.2279 24.5 21.5 24.5C17.7721 24.5 14.75 27.3332 14.75 30.8281C14.75 32.4102 17.7721 32.9375 21.5 32.9375Z" stroke="#A32A29" stroke-width="1.5"/>
<path fill-rule="evenodd" clip-rule="evenodd" d="M31.8096 18C32.0989 18 32.3334 18.2345 32.3334 18.5238L32.3331 21.5H35.5001C35.7762 21.5 36.0001 21.7239 36.0001 22C36.0001 22.2761 35.7762 22.5 35.5001 22.5H32.3331L32.3334 25.4762C32.3334 25.7655 32.0989 26 31.8096 26C31.5203 26 31.2858 25.7655 31.2858 25.4762L31.2851 22.5H28.1191C27.843 22.5 27.6191 22.2761 27.6191 22C27.6191 21.7239 27.843 21.5 28.1191 21.5H31.2851L31.2858 18.5238C31.2858 18.2345 31.5203 18 31.8096 18Z" fill="#A32A29"/>
</svg>
