<svg width="32" height="32" viewBox="0 0 32 32" fill="none" xmlns="http://www.w3.org/2000/svg">
<path d="M16 14C18.7614 14 21 11.7614 21 9C21 6.23858 18.7614 4 16 4C13.2386 4 11 6.23858 11 9C11 11.7614 13.2386 14 16 14Z" stroke="#A32A29" stroke-width="2" stroke-miterlimit="10" stroke-linecap="square"/>
<path d="M18.476 21H24C27 21 27 23 27 23C27 23 18.0334 28 14 28C9.96657 28 5 24 5 24V21.5C5 21.5 5 19.9763 5 19H15C17.209 19 19 20.791 19 23H12" stroke="#A32A29" stroke-width="2" stroke-miterlimit="10"/>
</svg>
