<svg xmlns="http://www.w3.org/2000/svg" width="32" height="32" fill="none" viewBox="0 0 32 32">
    <path fill="currentColor" fill-rule="evenodd" d="M24.563 7.809v9.015c1.735.82 2.94 2.603 2.917 4.628 0 2.845-2.29 5.159-5.135 5.159-2.218 0-4.098-1.422-4.821-3.4H6.845c-1.23 0-2.241-1.011-2.241-2.24V7.808c0-1.23 1.012-2.242 2.241-2.242h2.917v-.82c0-.386.313-.699.7-.699.385 0 .698.313.698.7v.819h6.822v-.82c0-.386.313-.699.7-.699.385 0 .698.313.698.7v.819h2.941c1.23 0 2.242 1.012 2.242 2.242zM6.845 6.965c-.458 0-.843.386-.843.844v2.844h17.163V7.809c0-.458-.386-.844-.844-.844h-2.94v.82c0 .385-.314.698-.7.698-.386 0-.699-.313-.699-.699v-.82H11.16v.82c0 .386-.313.7-.699.7-.386 0-.699-.314-.699-.7v-.82H6.845zm0 14.849c-.482 0-.843-.386-.843-.844v-8.919h17.187v4.34c-.265-.05-.53-.073-.82-.073-2.844 0-5.158 2.314-5.158 5.158 0 .12 0 .241.024.362H6.845v-.024zm11.764-.362c0 2.073 1.687 3.76 3.76 3.76 2.05 0 3.76-1.687 3.76-3.76 0-2.073-1.687-3.76-3.76-3.76-2.073 0-3.76 1.687-3.76 3.76z" clip-rule="evenodd"/>
    <path fill="currentColor" d="M23.261 20.127l-1.326 1.422-.578-.627c-.265-.29-.723-.29-.988-.024-.29.265-.29.699-.025.988l1.085 1.181c.12.145.314.217.506.217.193 0 .386-.072.507-.217l1.832-1.976c.265-.29.24-.723-.024-.989-.29-.265-.724-.265-.989.025z"/>
</svg>
