<svg xmlns="http://www.w3.org/2000/svg" width="20" height="20" fill="none" viewBox="0 0 20 20">
    <path fill="#2F9803" fill-rule="evenodd" d="M10 17.5c4.142 0 7.5-3.358 7.5-7.5 0-4.142-3.358-7.5-7.5-7.5-4.142 0-7.5 3.358-7.5 7.5 0 4.142 3.358 7.5 7.5 7.5z" clip-rule="evenodd"/>
    <path fill="#fff" fill-rule="evenodd" d="M12.682 9.942c-.173.179-.454.179-.628 0l-1.56-1.61v4.491c0 .253-.21.458-.47.458-.258 0-.468-.205-.468-.458V8.282l-1.61 1.66c-.174.179-.455.179-.628 0-.174-.179-.174-.468 0-.647l2.368-2.442c.173-.179.455-.179.628 0l2.368 2.442c.174.179.174.468 0 .647z" clip-rule="evenodd"/>
</svg>
