<svg width="32" height="32" viewBox="0 0 32 32" fill="none" xmlns="http://www.w3.org/2000/svg">
<path d="M9.21661 27.4954H23.0187C23.7941 27.4954 24.4249 26.8646 24.4249 26.0893V6.49893C24.4249 5.72365 23.7941 5.09283 23.0187 5.09283H9.21661C8.44118 5.09283 7.81036 5.72365 7.81036 6.49893V26.0893C7.81036 26.8646 8.44118 27.4954 9.21661 27.4954ZM8.43781 6.49893C8.43781 6.06955 8.78708 5.72029 9.21661 5.72029H23.0187C23.4482 5.72029 23.7975 6.06955 23.7975 6.49893V26.0893C23.7975 26.5187 23.4482 26.868 23.0187 26.868H9.21661C8.78708 26.868 8.43781 26.5187 8.43781 26.0893V6.49893Z" fill="currentColor" stroke="currentColor" stroke-width="0.4"/>
<path d="M9.96296 16.2365H22.2724C22.4458 16.2365 22.5861 16.0961 22.5861 15.9228V7.20313C22.5861 7.02987 22.4458 6.8894 22.2724 6.8894H9.96296C9.78955 6.8894 9.64923 7.02987 9.64923 7.20313V15.9228C9.64923 16.0961 9.78955 16.2365 9.96296 16.2365ZM10.2767 7.51686H21.9587V15.6091H10.2767V7.51686Z" fill="currentColor" stroke="currentColor" stroke-width="0.4"/>
<path d="M20.4844 18.3664H11.7509C11.0138 18.3664 10.4142 18.966 10.4142 19.7031C10.4142 20.4403 11.0138 21.0398 11.7509 21.0398H12.4861L11.6361 23.5558C11.6036 23.6515 11.6195 23.7569 11.6783 23.839C11.7372 23.9211 11.8321 23.9698 11.9332 23.9698H20.3021C20.4032 23.9698 20.4982 23.9211 20.557 23.839C20.6158 23.7569 20.6318 23.6515 20.5993 23.5558L19.7493 21.0398H20.4844C21.2215 21.0398 21.8211 20.4403 21.8211 19.7031C21.8211 18.966 21.2215 18.3664 20.4844 18.3664ZM19.8649 23.3424H12.3704L13.4866 20.0386H18.7488L19.8649 23.3424ZM20.4844 20.4124H19.5373L19.2712 19.6245C19.2283 19.4969 19.1085 19.4112 18.974 19.4112H13.2614C13.1269 19.4112 13.0071 19.4969 12.9642 19.6245L12.698 20.4124H11.7509C11.36 20.4124 11.0417 20.0942 11.0417 19.7031C11.0417 19.312 11.36 18.9939 11.7509 18.9939H20.4844C20.8753 18.9939 21.1937 19.312 21.1937 19.7031C21.1937 20.0942 20.8753 20.4124 20.4844 20.4124Z" fill="currentColor" stroke="currentColor" stroke-width="0.2"/>
</svg>
