<svg width="48" height="48" viewBox="0 0 48 48" fill="none" xmlns="http://www.w3.org/2000/svg">
<path d="M0 24C0 10.7452 10.7452 0 24 0C37.2548 0 48 10.7452 48 24C48 37.2548 37.2548 48 24 48C10.7452 48 0 37.2548 0 24Z" fill="#A32A29"/>
<path fill-rule="evenodd" clip-rule="evenodd" d="M24 11.25C20.4896 11.25 17.625 14.0707 17.625 17.5719V18.7406C17.625 20.2863 18.1833 21.6994 19.109 22.7957L16.0628 24.7061L16.0615 24.7069C15.0155 25.3602 14.4375 26.5693 14.4375 27.7995V36.75H33.5625V27.7995C33.5625 26.5693 32.9845 25.3602 31.9385 24.7069L31.9372 24.7061L28.891 22.7957C29.8167 21.6994 30.375 20.2863 30.375 18.7406V17.5719C30.375 14.0707 27.5104 11.25 24 11.25ZM19.75 17.5719C19.75 15.2644 21.643 13.375 24 13.375C26.357 13.375 28.25 15.2644 28.25 17.5719V18.7406C28.25 21.0481 26.357 22.9375 24 22.9375C21.643 22.9375 19.75 21.0481 19.75 18.7406V17.5719ZM27.1713 24.2255C26.2363 24.7582 25.153 25.0625 24 25.0625C22.847 25.0625 21.7637 24.7582 20.8287 24.2255L17.1897 26.5077L17.1876 26.509C16.8489 26.7203 16.5625 27.1947 16.5625 27.7995V34.625H31.4375V27.7995C31.4375 27.1947 31.1511 26.7203 30.8124 26.509L30.8103 26.5077L27.1713 24.2255Z" fill="white"/>
</svg>
