<svg width="22" height="27" viewBox="0 0 22 27" fill="none" xmlns="http://www.w3.org/2000/svg">
<path fill-rule="evenodd" clip-rule="evenodd" d="M11.601 2C11.601 2.33137 11.3323 2.6 11.001 2.6C10.6696 2.6 10.401 2.33137 10.401 2C10.401 1.66863 10.6696 1.4 11.001 1.4C11.3323 1.4 11.601 1.66863 11.601 2ZM12.4179 3.41147C12.7782 3.04976 13.001 2.55089 13.001 2C13.001 0.895431 12.1055 0 11.001 0C9.89641 0 9.00098 0.895431 9.00098 2C9.00098 2.55086 9.22368 3.04971 9.58397 3.41142C8.08166 3.64978 6.63599 4.27205 5.47331 5.29225C3.93407 6.64286 2.93236 8.65596 2.93236 11.2736V20.3911C2.93236 20.4499 2.89402 20.6584 2.65295 20.8631C2.41772 21.0628 1.93654 21.3 1.00078 21.3C0.614182 21.3 0.300781 21.6134 0.300781 22C0.300781 22.3866 0.614182 22.7 1.00078 22.7H8.91905C8.35305 23.1547 8.00098 23.7931 8.00098 24.5C8.00098 25.8807 9.34412 27 11.001 27C12.6578 27 14.001 25.8807 14.001 24.5C14.001 23.7931 13.6489 23.1547 13.0829 22.7H21.0008C21.3874 22.7 21.7008 22.3866 21.7008 22C21.7008 21.6134 21.3874 21.3 21.0008 21.3C20.065 21.3 19.5838 21.0628 19.3486 20.8631C19.1075 20.6584 19.0692 20.4499 19.0692 20.3911V11.2736C19.0692 8.65596 18.0675 6.64286 16.5283 5.29225C15.3657 4.27213 13.9201 3.64987 12.4179 3.41147ZM4.08227 21.3C4.25557 20.9897 4.33236 20.6701 4.33236 20.3911V11.2736C4.33236 9.04224 5.17275 7.41852 6.39668 6.34458C7.63415 5.25875 9.3054 4.7 11.0008 4.7C12.6962 4.7 14.3674 5.25875 15.6049 6.34458C16.8288 7.41852 17.6692 9.04224 17.6692 11.2736V20.3911C17.6692 20.6701 17.746 20.9897 17.9193 21.3H4.08227ZM11.001 25.6C12.1345 25.6 12.601 24.8794 12.601 24.5C12.601 24.1206 12.1345 23.4 11.001 23.4C9.86748 23.4 9.40098 24.1206 9.40098 24.5C9.40098 24.8794 9.86748 25.6 11.001 25.6Z" fill="#A32A29"/>
</svg>
