<svg xmlns="http://www.w3.org/2000/svg" width="32" height="32" fill="none" viewBox="0 0 32 32">
    <path fill="currentColor" d="M12.458 11.562h7.729c.396 0 .729-.333.729-.729 0-.396-.333-.729-.73-.729h-7.728c-.396 0-.73.333-.73.73 0 .395.334.728.73.728zM12.458 14.646h7.729c.396 0 .729-.334.729-.73 0-.395-.333-.729-.73-.729h-7.728c-.396 0-.73.334-.73.73 0 .396.334.729.73.729zM12.458 17.729h7.729c.396 0 .729-.334.729-.73 0-.395-.333-.729-.73-.729h-7.728c-.396 0-.73.334-.73.73 0 .395.334.729.73.729zM12.458 20.812h7.729c.396 0 .729-.333.729-.729 0-.396-.333-.729-.73-.729h-7.728c-.396 0-.73.333-.73.73 0 .395.334.728.73.728z"/>
    <path fill="currentColor" fill-rule="evenodd" d="M8.833 6.104h15c.396 0 .729.333.708.73V24.79c0 .355-.188.688-.5.855-.313.166-.688.145-.98-.042l-1.728-1.167-1.98 1.313c-.145.104-.333.166-.52.166-.188 0-.375-.062-.542-.166l-1.958-1.313-1.98 1.313c-.312.208-.729.208-1.062 0l-1.98-1.313-1.728 1.167c-.292.188-.667.208-.98.042-.312-.167-.5-.5-.5-.855V6.834c0-.396.334-.729.73-.729zm14.25 17.736l.02.014h-.02v-.014zm0 0V7.562H9.54v16.292l1.25-.833c.333-.209.75-.209 1.063 0l1.979 1.312 1.979-1.291c.146-.105.333-.167.52-.167.188 0 .376.041.542.146l1.959 1.312 1.958-1.312c.333-.209.75-.209 1.063 0l1.229.82z" clip-rule="evenodd"/>
</svg>
