<svg width="36" height="36" viewBox="0 0 36 36" fill="none" xmlns="http://www.w3.org/2000/svg">
<circle cx="21" cy="11" r="6" stroke="#979797" stroke-width="1.5"/>
<path d="M23 11L21 9L19 11L21 13L23 11Z" stroke="#979797" stroke-width="1.5"/>
<path d="M14.5 21L13.9697 21.5303L14.1893 21.75H14.5V21ZM4 18V17.25H3.25V18H4ZM4 26H3.25V26.75H4L4 26ZM7.5 26V25.25H7.5L7.5 26ZM24.5 28L24.7372 28.7115L24.8325 28.6798L24.916 28.624L24.5 28ZM31 21.5L31.6708 21.1646L31 21.5ZM28.5 20.5L28.8354 21.1708V21.1708L28.5 20.5ZM14 26.25C15.2833 26.25 17.1698 26.1225 18.7832 25.9978C19.5931 25.9351 20.3449 25.8723 20.9232 25.8257C21.5257 25.7771 21.8976 25.75 22 25.75V24.25C21.8196 24.25 21.3626 24.2854 20.8026 24.3306C20.2185 24.3777 19.4744 24.4399 18.6676 24.5022C17.0474 24.6275 15.2167 24.75 14 24.75V26.25ZM22 25.75C22.7439 25.75 23.4251 25.3856 23.9053 24.9053C24.3856 24.4251 24.75 23.7439 24.75 23H23.25C23.25 23.2561 23.1144 23.5749 22.8447 23.8447C22.5749 24.1144 22.2561 24.25 22 24.25V25.75ZM24.75 23C24.75 21.6194 23.585 20.25 22 20.25V21.75C22.6908 21.75 23.25 22.3806 23.25 23H24.75ZM22 20.25H14.5V21.75H22V20.25ZM15.0303 20.4697C14.5337 19.9731 13.7604 19.1991 12.9801 18.5488C12.5905 18.2242 12.1807 17.9146 11.7878 17.6824C11.4209 17.4656 10.9614 17.25 10.5 17.25V18.75C10.5386 18.75 10.7041 18.7844 11.0247 18.9738C11.3193 19.1479 11.6595 19.4008 12.0199 19.7012C12.7396 20.3009 13.4663 21.0269 13.9697 21.5303L15.0303 20.4697ZM10.5 17.25H4V18.75H10.5V17.25ZM3.25 18V26H4.75V18H3.25ZM4 26.75L7.5 26.75L7.5 25.25L4 25.25L4 26.75ZM7.5 26.75C7.4414 26.75 7.39731 26.7422 7.37555 26.7377C7.35182 26.7328 7.3358 26.7278 7.32977 26.7258C7.31879 26.7222 7.32155 26.7224 7.34279 26.7321C7.38482 26.7514 7.45338 26.7871 7.55304 26.8442C7.75013 26.9571 8.01775 27.124 8.34443 27.334C8.66911 27.5427 9.04081 27.7867 9.44438 28.0511C9.84667 28.3148 10.2789 28.5977 10.7194 28.8809C11.5975 29.4454 12.5236 30.0207 13.3311 30.4568C13.7344 30.6746 14.1221 30.8652 14.4683 31.0033C14.7931 31.1328 15.1623 31.25 15.5 31.25V29.75C15.4627 29.75 15.3162 29.7266 15.0239 29.61C14.7529 29.502 14.4218 29.3411 14.0439 29.1369C13.2889 28.7293 12.4025 28.1796 11.5306 27.6191C11.0961 27.3398 10.669 27.0602 10.2666 26.7965C9.86544 26.5337 9.48714 26.2854 9.15557 26.0722C8.826 25.8604 8.53112 25.6758 8.29852 25.5425C8.18334 25.4766 8.07026 25.4156 7.96873 25.369C7.91819 25.3458 7.8587 25.3206 7.79559 25.3C7.74502 25.2835 7.63458 25.25 7.5 25.25V26.75ZM15.5 31.25C16.05 31.25 16.8219 31.1044 17.634 30.9089C18.4665 30.7085 19.4106 30.4379 20.3356 30.1546C22.1836 29.5885 23.9993 28.9575 24.7372 28.7115L24.2628 27.2885C23.5007 27.5425 21.7209 28.1615 19.8962 28.7204C18.9848 28.9996 18.0733 29.2603 17.283 29.4505C16.4724 29.6456 15.8545 29.75 15.5 29.75V31.25ZM24.916 28.624C25.6622 28.1266 27.0217 27.2617 28.2837 26.4413C28.9098 26.0344 29.5095 25.6399 29.9856 25.3145C30.4314 25.0099 30.8444 24.7163 31.0303 24.5303L29.9697 23.4697C29.97 23.4694 29.9686 23.4708 29.9651 23.474C29.9616 23.4772 29.9567 23.4816 29.9502 23.4873C29.9369 23.4989 29.9191 23.5138 29.8962 23.5323C29.8501 23.5694 29.7898 23.6156 29.7149 23.6709C29.5651 23.7814 29.3703 23.9183 29.1394 24.0761C28.678 24.3913 28.0902 24.7781 27.4663 25.1837C26.2283 25.9883 24.8378 26.8734 24.084 27.376L24.916 28.624ZM31.0303 24.5303C31.6482 23.9125 32.3745 22.572 31.6708 21.1646L30.3292 21.8354C30.6255 22.428 30.3518 23.0875 29.9697 23.4697L31.0303 24.5303ZM31.6708 21.1646C31.3248 20.4725 30.7274 20.0092 30.1031 19.7799C29.4914 19.5553 28.7691 19.5269 28.1646 19.8292L28.8354 21.1708C28.9831 21.097 29.2608 21.0686 29.5861 21.188C29.8987 21.3028 30.1752 21.5275 30.3292 21.8354L31.6708 21.1646ZM28.1646 19.8292C27.1561 20.3334 26.1231 20.8499 24.584 21.876L25.416 23.124C26.8769 22.1501 27.8439 21.6666 28.8354 21.1708L28.1646 19.8292Z" fill="#979797"/>
</svg>
