<svg width="36" height="36" viewBox="0 0 36 36" fill="none" xmlns="http://www.w3.org/2000/svg">
<path d="M21.614 20.3163C22.8978 20.3163 24.3954 20.7977 24.3954 22.5628C24.3954 24.3279 22.5768 24.6489 21.614 24.7558C20.6512 24.8628 15.3024 25.2907 13.1628 25.2907V26.6279C16.3187 26.521 18.6721 26.3605 20.0628 26.2535C21.4536 26.1465 22.7373 25.9326 23.5396 25.5582C24.3419 25.1837 25.018 24.663 25.3582 23.8465C25.6984 23.0301 25.6257 22.1349 25.6257 21.4396C27.2303 20.3698 27.7988 19.9727 28.9419 19.6209C29.6373 19.407 31.3489 19.8349 31.8303 21.2256C32.3117 22.6163 31.6699 23.5791 31.135 24.114C30.6001 24.6489 26.3745 27.3768 24.7698 28.4466C23.5 29 17.2911 31.0675 15.3559 31.0675C13.7512 31.0675 6.7442 26.2535 6.20931 26.2535H3.5V17.5H10.5C11.5698 17.5 13.5372 19.2465 14.607 20.3163H21.614Z" fill="#A42A29"/>
<circle cx="21" cy="11" r="6" fill="#A42A29"/>
<path d="M23 11L21 9L19 11L21 13L23 11Z" fill="white"/>
</svg>
