<svg xmlns="http://www.w3.org/2000/svg" width="32" height="32" fill="none" viewBox="0 0 32 32">
    <path fill="currentColor" fill-rule="evenodd" d="M15.286 6.114c-.39.001-.704.318-.703.708v4.938H12.47c-.188-.002-.369.073-.502.206s-.208.314-.207.502v5.642c-.001.188.074.369.207.502s.314.207.502.206h11.286c.189 0 .37-.074.502-.207.133-.133.207-.313.207-.501v-5.642c0-.188-.074-.369-.207-.502s-.314-.207-.502-.206H21.64V6.822c0-.188-.073-.369-.207-.502-.133-.133-.313-.207-.501-.206h-5.646zM5.411 7.526c-.256-.005-.495.128-.624.348-.13.221-.13.495 0 .715.13.22.368.354.624.348h3.526v11.995c0 .188.074.369.207.502s.314.207.502.206h2.823c-1.16 0-2.12.955-2.12 2.115 0 1.161.96 2.12 2.12 2.12 1.161 0 2.114-.959 2.114-2.12 0-1.16-.953-2.115-2.114-2.115h9.874c-1.16 0-2.114.955-2.114 2.115 0 1.161.953 2.12 2.114 2.12 1.16 0 2.12-.959 2.12-2.12 0-1.16-.96-2.115-2.12-2.115h2.824c.255.006.494-.127.624-.348.13-.22.13-.494 0-.715-.13-.22-.369-.354-.624-.348H10.348V8.235c.002-.39-.313-.707-.702-.709H5.41zm14.818 0h-4.235v4.234H20.23V7.526zm-7.057 5.646h4.234v4.233h-4.234v-4.233zm7.76 0h-2.114v4.233h4.235v-4.233h-2.121zm-8.463 9.88c.398 0 .703.305.703.703 0 .398-.305.709-.703.709-.398 0-.71-.31-.71-.709 0-.398.312-.704.71-.704zm10.584.703c0-.398-.312-.704-.71-.704-.398 0-.703.306-.703.704 0 .398.305.709.703.709.398 0 .71-.31.71-.709z" clip-rule="evenodd"/>
</svg>
