<svg
  width="32"
  height="32"
  viewBox="0 0 32 32"
  fill="none"
  xmlns="http://www.w3.org/2000/svg"
>
  <path
    d="M25.6292 21.7838L22.3899 19.5203C21.9664 19.2254 21.4712 19.0694 20.9578 19.0694C20.1412 19.0694 19.3748 19.4698 18.908 20.1397L18.156 21.2174C16.8958 20.3721 15.4893 19.192 14.1492 17.8519C12.8089 16.5115 11.6287 15.1053 10.784 13.845L11.8609 13.0933C12.9915 12.306 13.2696 10.744 12.4803 9.61066L10.2173 6.37189C9.74394 5.69489 8.98027 5.29084 8.1746 5.29084C7.89555 5.29084 7.62163 5.33991 7.36064 5.43635C7.06474 5.54597 6.78911 5.68 6.5186 5.84968L6.07133 6.16462C5.95952 6.25178 5.85551 6.34675 5.7559 6.44636C5.21025 6.99201 4.8228 7.68244 4.60454 8.49885C3.67216 11.9942 5.98198 17.2789 10.3521 21.649C14.022 25.3189 18.431 27.5989 21.8582 27.5992C21.8584 27.5992 21.8587 27.5992 21.8589 27.5992C22.4454 27.5992 22.9981 27.5308 23.5025 27.3966C24.3189 27.1783 25.0093 26.7908 25.5542 26.2457C25.6541 26.1463 25.7493 26.0421 25.8509 25.9105L26.1663 25.4603C26.3208 25.2127 26.4549 24.9368 26.5647 24.6404C26.9461 23.6102 26.5616 22.4354 25.6292 21.7838ZM25.6268 24.2933C25.5408 24.5262 25.4368 24.7403 25.333 24.9078L25.0469 25.3162C24.9856 25.3951 24.9183 25.4676 24.8475 25.5382C24.428 25.9581 23.8885 26.2581 23.2444 26.4302C22.8245 26.5423 22.3584 26.5992 21.8589 26.5992C21.8587 26.5992 21.8584 26.5992 21.8582 26.5992C18.6863 26.5989 14.5484 24.4312 11.0591 20.942C6.99736 16.8802 4.74052 11.8695 5.57084 8.7569C5.74296 8.11286 6.04301 7.57331 6.46293 7.15339C6.53325 7.08307 6.606 7.01545 6.66557 6.96857L7.07084 6.68293C7.26127 6.56403 7.47538 6.46027 7.70781 6.37433C7.85722 6.31891 8.01445 6.29084 8.1746 6.29084C8.6541 6.29084 9.11137 6.53547 9.39775 6.94489L11.66 10.1827C12.1338 10.8629 11.9676 11.8004 11.2891 12.273L9.81498 13.3018C9.59623 13.4544 9.53593 13.752 9.67778 13.9778C10.5701 15.397 11.907 17.024 13.4422 18.5589C14.9768 20.0938 16.6036 21.4307 18.0232 22.3236C18.2493 22.4654 18.5467 22.4049 18.6995 22.1863L19.7286 20.7115C20.1846 20.0565 21.1592 19.8814 21.8179 20.3406L25.0564 22.6036C25.6158 22.9945 25.8504 23.6893 25.6268 24.2933Z"
    fill="currentColor"
    stroke="currentColor"
    stroke-width="0.3"
  />
  <path
    d="M23.9627 8.03864C21.8076 5.88337 18.9468 4.59186 15.9073 4.40192C15.6333 4.38361 15.3943 4.59431 15.377 4.8697C15.3596 5.14533 15.5691 5.38264 15.8448 5.39997C18.6409 5.57477 21.2727 6.76301 23.2556 8.74567C25.2381 10.7281 26.4261 13.3597 26.6011 16.1558C26.6177 16.4207 26.8377 16.6246 27.0996 16.6246C27.1101 16.6246 27.1206 16.6243 27.1314 16.6236C27.407 16.6063 27.6165 16.369 27.5991 16.0933C27.409 13.054 26.1175 10.1934 23.9627 8.03864Z"
    fill="currentColor"
    stroke="currentColor"
    stroke-width="0.3"
  />
  <path
    d="M15.6573 8.39411C17.7239 8.5235 19.669 9.40168 21.1343 10.867C22.5994 12.3323 23.4776 14.2772 23.607 16.3433C23.6236 16.6082 23.8435 16.8121 24.1055 16.8121C24.116 16.8121 24.1265 16.8118 24.1372 16.8111C24.4129 16.7938 24.6223 16.5565 24.605 16.2808C24.4605 13.9713 23.479 11.7974 21.8413 10.16C20.2036 8.52228 18.0296 7.54059 15.7198 7.39606C15.4431 7.38068 15.2068 7.58845 15.1895 7.86384C15.1721 8.13947 15.3816 8.37678 15.6573 8.39411Z"
    fill="currentColor"
    stroke="currentColor"
    stroke-width="0.3"
  />
  <path
    d="M15.4698 11.3883C16.8064 11.472 18.0647 12.0401 19.013 12.9881C19.961 13.9363 20.5291 15.1944 20.6131 16.5308C20.6297 16.796 20.8499 16.9996 21.1116 16.9996C21.1221 16.9996 21.1328 16.9993 21.1433 16.9986C21.419 16.9813 21.6284 16.7437 21.6111 16.4683C21.512 14.8885 20.8404 13.4017 19.72 12.2811C18.5994 11.1607 17.1121 10.4891 15.5323 10.3902C15.253 10.3714 15.0193 10.5826 15.002 10.858C14.9846 11.1336 15.1941 11.3709 15.4698 11.3883Z"
    fill="currentColor"
    stroke="currentColor"
    stroke-width="0.3"
  />
</svg>
