<svg width="25" height="22" viewBox="0 0 25 22" fill="#a32a29" xmlns="http://www.w3.org/2000/svg">
<path d="M9.50339 0C11.6369 0 13.7703 0 15.891 0C16.7135 0.385799 17.2919 1.00308 17.6646 1.83897C17.8445 2.22477 18.1016 2.57199 18.2815 2.95779C18.4614 3.36931 18.7313 3.49791 19.1683 3.48505C20.3764 3.45933 21.5974 3.45933 22.8055 3.47219C24.1164 3.48505 24.9775 4.32095 24.9904 5.6198C25.0032 10.3008 25.0032 14.9818 24.9904 19.6757C24.9904 20.9489 24.412 21.5018 23.1525 21.5018C16.1866 21.5018 9.22064 21.5018 2.26756 21.5018C0.995188 21.5018 0.429688 20.936 0.429688 19.6757C0.429688 14.9947 0.429688 10.3137 0.429688 5.6198C0.429688 4.32095 1.27794 3.47219 2.58887 3.45933C3.66846 3.44647 4.7609 3.39503 5.84049 3.48505C6.62448 3.54935 7.0229 3.25357 7.35706 2.58485C7.8583 1.55605 8.35954 0.488678 9.50339 0ZM23.5895 20.2159C23.628 19.8944 23.6666 19.65 23.6666 19.4057C23.6666 14.8918 23.6666 10.378 23.6666 5.86414C23.6666 5.00252 23.4224 4.77104 22.5613 4.75818C21.366 4.75818 20.1708 4.7196 18.9884 4.77104C18.1273 4.80962 17.5746 4.50099 17.2019 3.74225C16.9192 3.16355 16.585 2.62343 16.2894 2.05759C16.0066 1.53033 15.6211 1.24742 14.9656 1.26028C13.5004 1.29886 12.0224 1.31172 10.5573 1.26028C9.8247 1.23456 9.40057 1.54319 9.07927 2.13475C8.74511 2.75203 8.38524 3.35645 8.06394 3.97373C7.78119 4.53956 7.34421 4.77104 6.7273 4.75818C5.42922 4.74532 4.13114 4.74532 2.83306 4.75818C1.9334 4.75818 1.70206 4.98966 1.70206 5.88986C1.70206 10.378 1.70206 14.879 1.70206 19.3671C1.70206 20.2159 1.70206 20.2159 2.53746 20.2159C9.31061 20.2159 16.0838 20.2159 22.8569 20.2159C23.0625 20.2159 23.2682 20.2159 23.5895 20.2159Z" fill="#F7F7F7"/>
<path d="M8.9122 12.295C8.87364 14.5326 11.2513 16.3973 13.5005 15.9215C13.9374 15.8315 14.3616 15.6772 14.76 15.4971C15.1584 15.3171 15.5183 15.2656 15.7496 15.7029C15.9809 16.153 15.7368 16.4487 15.3255 16.6802C12.6265 18.172 9.15639 16.9374 7.98683 14.0439C7.76835 13.5167 7.66553 12.9508 7.4856 12.3078C7.54986 12.3593 7.52415 12.3207 7.4856 12.3078C7.18999 12.2435 6.88154 12.1921 6.58594 12.1407C6.74016 11.832 6.86869 11.5105 7.06147 11.2276C7.29281 10.8675 7.56271 10.546 7.83261 10.2117C8.10251 9.87731 8.39811 9.86445 8.68086 10.2117C9.02787 10.6489 9.37488 11.0733 9.69619 11.5234C9.81186 11.6777 9.83756 11.8963 9.91468 12.0764C9.72189 12.1407 9.54196 12.2178 9.34918 12.2693C9.2078 12.295 9.05357 12.2821 8.9122 12.295Z" fill="#F7F7F7"/>
<path d="M16.5213 11.5094C16.367 8.73166 13.5267 7.03415 10.9819 8.12724C10.8406 8.19154 10.712 8.25584 10.5835 8.32014C10.1979 8.5259 9.86378 8.48732 9.65815 8.10152C9.45251 7.71573 9.60674 7.39423 9.97945 7.20133C11.2904 6.49403 12.6784 6.28827 14.105 6.75123C16.367 7.48425 17.5366 9.11746 17.8579 11.4451C17.8707 11.458 17.8964 11.4966 17.935 11.5094C18.2306 11.5737 18.5262 11.638 18.8347 11.6895C18.6933 11.9724 18.5776 12.281 18.3977 12.5511C18.1792 12.8854 17.9222 13.1941 17.6651 13.5156C17.2667 13.9914 17.0482 13.9914 16.6626 13.5284C16.3413 13.1298 16.02 12.7311 15.7373 12.3067C15.6216 12.1267 15.583 11.8952 15.5188 11.7023C15.7116 11.6509 15.8915 11.5737 16.0971 11.5351C16.2128 11.4966 16.3413 11.5094 16.5213 11.5094Z" fill="#F7F7F7"/>
</svg>
