<svg width="12" height="13" viewBox="0 0 12 13" fill="none" xmlns="http://www.w3.org/2000/svg">
<path fill-rule="evenodd" clip-rule="evenodd" d="M3.66667 1.5C3.20681 1.5 2.83333 1.87348 2.83333 2.33333C2.83333 2.79319 3.20681 3.16667 3.66667 3.16667C4.12652 3.16667 4.5 2.79319 4.5 2.33333C4.5 1.87348 4.12652 1.5 3.66667 1.5ZM5.43092 1.83333C5.21316 1.06403 4.50549 0.5 3.66667 0.5C2.82785 0.5 2.12018 1.06403 1.90241 1.83333H1C0.723858 1.83333 0.5 2.05719 0.5 2.33333C0.5 2.60948 0.723858 2.83333 1 2.83333H1.90241C2.12018 3.60264 2.82785 4.16667 3.66667 4.16667C4.50549 4.16667 5.21316 3.60264 5.43092 2.83333H11C11.2761 2.83333 11.5 2.60948 11.5 2.33333C11.5 2.05719 11.2761 1.83333 11 1.83333H5.43092ZM6.56908 5.83333C6.78684 5.06403 7.49451 4.5 8.33333 4.5C9.17216 4.5 9.87982 5.06403 10.0976 5.83333H11C11.2761 5.83333 11.5 6.05719 11.5 6.33333C11.5 6.60948 11.2761 6.83333 11 6.83333H10.0976C9.87982 7.60264 9.17216 8.16667 8.33333 8.16667C7.49451 8.16667 6.78684 7.60264 6.56908 6.83333H1C0.723858 6.83333 0.5 6.60948 0.5 6.33333C0.5 6.05719 0.723858 5.83333 1 5.83333H6.56908ZM8.33333 5.5C7.87348 5.5 7.5 5.87348 7.5 6.33333C7.5 6.79319 7.87348 7.16667 8.33333 7.16667C8.79319 7.16667 9.16667 6.79319 9.16667 6.33333C9.16667 5.87348 8.79319 5.5 8.33333 5.5ZM1.90241 9.83333C2.12018 9.06403 2.82785 8.5 3.66667 8.5C4.50549 8.5 5.21316 9.06403 5.43092 9.83333H11C11.2761 9.83333 11.5 10.0572 11.5 10.3333C11.5 10.6095 11.2761 10.8333 11 10.8333H5.43092C5.21316 11.6026 4.50549 12.1667 3.66667 12.1667C2.82785 12.1667 2.12018 11.6026 1.90241 10.8333H1C0.723858 10.8333 0.5 10.6095 0.5 10.3333C0.5 10.0572 0.723858 9.83333 1 9.83333H1.90241ZM3.66667 9.5C3.20681 9.5 2.83333 9.87348 2.83333 10.3333C2.83333 10.7932 3.20681 11.1667 3.66667 11.1667C4.12652 11.1667 4.5 10.7932 4.5 10.3333C4.5 9.87348 4.12652 9.5 3.66667 9.5Z" fill="#A32A29"/>
</svg>
