<svg width="32" height="32" viewBox="0 0 32 32" fill="none" xmlns="http://www.w3.org/2000/svg">
<path d="M0 16C0 7.16344 7.16344 0 16 0V0C24.8366 0 32 7.16344 32 16V16C32 24.8366 24.8366 32 16 32V32C7.16344 32 0 24.8366 0 16V16Z" fill="#929497" fill-opacity="0.2"/>
<path d="M19.4007 18.3333H8.00065C7.46732 18.3333 7.00065 17.8667 7.00065 17.3333V12.6667C7.00065 12.1333 7.46732 11.6667 8.00065 11.6667H24.0007C24.534 11.6667 25.0007 12.1333 25.0007 12.6667V16C25.0007 16.2 25.134 16.3333 25.334 16.3333C25.534 16.3333 25.6673 16.2 25.6673 16V12.6667C25.6673 11.7333 24.934 11 24.0007 11H8.00065C7.06732 11 6.33398 11.7333 6.33398 12.6667V17.3333C6.33398 18.2667 7.06732 19 8.00065 19H19.4007C19.6007 19 19.734 18.8667 19.734 18.6667C19.734 18.4667 19.534 18.3333 19.4007 18.3333Z" fill="#A32A29"/>
<path d="M11.2007 14L10.334 14.2L10.2673 13.3333H9.73398L9.66732 14.2L8.80065 14L8.66732 14.4667L9.46732 14.8667L9.00065 15.6L9.40065 15.8667L10.0007 15.2L10.6007 15.8667L11.0007 15.6L10.534 14.8667L11.334 14.4667L11.2007 14Z" fill="#A32A29"/>
<path d="M14.334 14.2L15.2007 14L15.334 14.4667L14.534 14.8667L15.0007 15.6L14.6007 15.8667L14.0007 15.2L13.4007 15.8667L13.0007 15.6L13.4673 14.8667L12.6673 14.4667L12.8007 14L13.6673 14.2L13.734 13.3333H14.2673L14.334 14.2Z" fill="#A32A29"/>
<path d="M19.2007 14L18.334 14.2L18.2673 13.3333H17.734L17.6673 14.2L16.8007 14L16.6673 14.4667L17.4673 14.8667L17.0007 15.6L17.4007 15.8667L18.0007 15.2L18.6007 15.8667L19.0007 15.6L18.534 14.8667L19.334 14.4667L19.2007 14Z" fill="#A32A29"/>
<path d="M22.334 14.2L23.2007 14L23.334 14.4667L22.534 14.8667L23.0007 15.6L22.6007 15.8667L22.0007 15.2L21.4007 15.8667L21.0007 15.6L21.4673 14.8667L20.6673 14.4667L20.8007 14L21.6673 14.2L21.734 13.3333H22.2673L22.334 14.2Z" fill="#A32A29"/>
<path fill-rule="evenodd" clip-rule="evenodd" d="M24.334 18.5333C24.334 19.1333 23.8674 19.6 23.2674 19.6C22.734 19.6 22.2007 19.1333 22.2007 18.5333C22.2007 17.9333 22.6674 17.4667 23.2674 17.4667C23.8674 17.4667 24.334 17.9333 24.334 18.5333ZM23.8007 18.5333C23.8007 18.2 23.534 18 23.2674 18C23.0007 18 22.734 18.2 22.734 18.5333C22.734 18.8667 22.934 19.0667 23.2674 19.0667C23.6007 19.0667 23.8007 18.8 23.8007 18.5333Z" fill="#A32A29"/>
<path fill-rule="evenodd" clip-rule="evenodd" d="M25.934 18.3333C25.134 17.2 24.2007 16.6667 23.2674 16.6667C21.734 16.7333 20.6674 18.2667 20.6674 18.3333C20.6007 18.4 20.6007 18.5333 20.6674 18.6667C21.4674 19.8 22.334 20.3333 23.2674 20.3333H23.334C24.8674 20.2667 25.934 18.7333 25.934 18.6667C26.0007 18.5333 26.0007 18.4 25.934 18.3333ZM23.334 17.2667C24.0007 17.2667 24.734 17.6667 25.334 18.5333C25.0674 18.8667 24.2674 19.8 23.2674 19.8H23.2007C22.534 19.8 21.8007 19.4 21.2007 18.5333C21.534 18.1333 22.334 17.2667 23.334 17.2667Z" fill="#A32A29"/>
</svg>
