<svg width="32" height="32" viewBox="0 0 32 32" fill="none" xmlns="http://www.w3.org/2000/svg">
<path d="M7.04998 20.4C7.04998 20.0635 7.38482 19.85 7.71428 19.85H13.8857C14.2152 19.85 14.5499 20.0635 14.55 20.4C14.55 20.7365 14.2151 20.95 13.8857 20.95H7.71428C7.38482 20.95 7.04998 20.7365 7.04998 20.4Z" fill="#A32A29"/>
<path fill-rule="evenodd" clip-rule="evenodd" d="M23.3 16.8H22.3C21.473 16.8 20.8 17.473 20.8 18.3V19.3C20.8 20.127 21.473 20.8 22.3 20.8H23.3C24.127 20.8 24.8 20.127 24.8 19.3V18.3C24.8 17.473 24.127 16.8 23.3 16.8ZM23.8 19.3C23.8 19.576 23.576 19.8001 23.3 19.8001H22.3C22.024 19.8001 21.8 19.576 21.8 19.3V18.3001C21.8 18.0241 22.024 17.8 22.3 17.8H23.3C23.576 17.8 23.8 18.0241 23.8 18.3001V19.3Z" fill="#A32A29"/>
<path fill-rule="evenodd" clip-rule="evenodd" d="M3.84998 10.5C3.84998 9.03916 5.03913 7.85001 6.49996 7.85001H25.5C26.9609 7.85001 28.15 9.03916 28.15 10.5V21.5C28.15 22.9609 26.9608 24.15 25.5 24.15H6.49996C5.03914 24.15 3.84998 22.9609 3.84998 21.5V10.5ZM5.14996 14.05V12.35H26.8499V14.05H5.14996ZM5.14996 15.35V21.5C5.14996 22.2442 5.75579 22.85 6.49996 22.85H25.5C26.2404 22.85 26.8438 22.2503 26.85 21.5114V15.35H5.14996ZM26.85 11.05H5.14996V10.5C5.14996 9.75586 5.75579 9.15004 6.49996 9.15004H25.5C26.2442 9.15004 26.85 9.75586 26.85 10.5V11.05Z" fill="#A32A29"/>
</svg>
