<svg width="48" height="48" viewBox="0 0 48 48" fill="none" xmlns="http://www.w3.org/2000/svg">
<path d="M0 24C0 10.7452 10.7452 0 24 0C37.2548 0 48 10.7452 48 24C48 37.2548 37.2548 48 24 48C10.7452 48 0 37.2548 0 24Z" fill="white"/>
<path d="M19.6711 31.7633C19.6711 31.9842 19.85 32.1633 20.0711 32.1633C20.2922 32.1633 20.4711 31.9842 20.4711 31.7633V26.7895C20.4711 26.5686 20.2922 26.3895 20.0711 26.3895C19.85 26.3895 19.6711 26.5686 19.6711 26.7895V31.7633Z" fill="#A32A29"/>
<path fill-rule="evenodd" clip-rule="evenodd" d="M15.1711 14.9C14.4674 14.9 13.9004 15.4886 13.9004 16.206V21.7939C13.9004 22.5114 14.4674 23.1 15.1711 23.1H18.0004V33.1173C18.0004 33.6041 18.4194 34 18.934 34H29.0667C29.5814 34 30.0004 33.6041 30.0004 33.1173V23.1H32.8301C33.5334 23.1 34.1004 22.5114 34.1004 21.7939V16.206C34.1004 15.4886 33.5334 14.9 32.8301 14.9H15.1711ZM25.318 33H26.65V18H25.318V33ZM28.8808 33H27.65V18H29.0004V32.8862C29.0004 32.9489 28.9467 33 28.8808 33ZM19.0004 18H24.318V33H19.12C19.0541 33 19.0004 32.9489 19.0004 32.8862V18ZM18.4986 16.8407C18.4895 16.8403 18.4803 16.84 18.4711 16.84H16.3379C16.0673 16.84 15.8379 17.0479 15.8379 17.3166V20.5634C15.8379 20.8322 16.0673 21.04 16.3379 21.04H18.0004V21.9H15.363C15.2179 21.9 15.1004 21.7825 15.1004 21.6393V16.3605C15.1004 16.2176 15.2178 16.1 15.363 16.1H32.6381C32.7832 16.1 32.9004 16.2175 32.9004 16.3605V21.6393C32.9004 21.7826 32.7831 21.9 32.6381 21.9H30.0004V21.04H31.6633C31.9339 21.04 32.1633 20.8322 32.1633 20.5634V17.3166C32.1633 17.0479 31.9339 16.84 31.6633 16.84H29.5297C29.5205 16.84 29.5113 16.8403 29.5022 16.8407C29.4721 16.835 29.4412 16.8321 29.4095 16.8321H18.5913C18.5596 16.8321 18.5286 16.835 18.4986 16.8407ZM16.8379 17.7932V20.0868H17.9711V17.7932H16.8379ZM30.0297 17.7932V20.0868H31.1633V17.7932H30.0297Z" fill="#A32A29"/>
</svg>
