<svg width="48" height="48" viewBox="0 0 48 48" fill="none" xmlns="http://www.w3.org/2000/svg">
<path d="M0 24C0 10.7452 10.7452 0 24 0C37.2548 0 48 10.7452 48 24C48 37.2548 37.2548 48 24 48C10.7452 48 0 37.2548 0 24Z" fill="#929497" fill-opacity="0.2"/>
<path d="M29.1253 24.6166C30.9887 24.6166 32.4993 26.1272 32.4993 27.9907V32.4402C32.4993 34.3037 30.9887 35.8143 29.1253 35.8143H24.6757C22.8123 35.8143 21.3017 34.3037 21.3017 32.4402V20.473C21.3017 19.2461 22.2962 18.2516 23.5231 18.2516C24.75 18.2516 25.7445 19.2461 25.7445 20.473V24.6166H29.1253ZM25.2118 25.6821C24.9176 25.6821 24.679 25.4436 24.679 25.1494V20.473C24.679 19.8346 24.1615 19.3171 23.5231 19.3171C22.8847 19.3171 22.3671 19.8346 22.3671 20.473V32.4402C22.3671 33.7152 23.4007 34.7488 24.6757 34.7488H29.1253C30.4002 34.7488 31.4338 33.7152 31.4338 32.4402V27.9907C31.4338 26.7157 30.4002 25.6821 29.1253 25.6821H25.2118ZM16.4199 15.7948C15.1449 15.7948 14.1113 14.7613 14.1113 13.4863C14.1113 12.2113 15.1449 11.1777 16.4199 11.1777C17.6948 11.1777 18.7284 12.2113 18.7284 13.4863C18.7284 14.7613 17.6948 15.7948 16.4199 15.7948ZM16.4199 22.898C15.1449 22.898 14.1113 21.8645 14.1113 20.5895C14.1113 19.3145 15.1449 18.281 16.4199 18.281C17.6948 18.281 18.7284 19.3145 18.7284 20.5895C18.7284 21.8645 17.6948 22.898 16.4199 22.898ZM16.4199 30.0013C15.1449 30.0013 14.1113 28.9677 14.1113 27.6927C14.1113 26.4177 15.1449 25.3842 16.4199 25.3842C17.6948 25.3842 18.7284 26.4177 18.7284 27.6927C18.7284 28.9677 17.6948 30.0013 16.4199 30.0013ZM23.5231 15.7948C22.2481 15.7948 21.2145 14.7613 21.2145 13.4863C21.2145 12.2113 22.2481 11.1777 23.5231 11.1777C24.7981 11.1777 25.8316 12.2113 25.8316 13.4863C25.8316 14.7613 24.7981 15.7948 23.5231 15.7948ZM30.6263 15.7948C29.3513 15.7948 28.3178 14.7613 28.3178 13.4863C28.3178 12.2113 29.3513 11.1777 30.6263 11.1777C31.9013 11.1777 32.9349 12.2113 32.9349 13.4863C32.9349 14.7613 31.9013 15.7948 30.6263 15.7948ZM30.6263 22.898C29.3513 22.898 28.3178 21.8645 28.3178 20.5895C28.3178 19.3145 29.3513 18.281 30.6263 18.281C31.9013 18.281 32.9349 19.3145 32.9349 20.5895C32.9349 21.8645 31.9013 22.898 30.6263 22.898ZM16.4199 14.7293C17.1064 14.7293 17.6629 14.1728 17.6629 13.4863C17.6629 12.7998 17.1064 12.2432 16.4199 12.2432C15.7333 12.2432 15.1768 12.7998 15.1768 13.4863C15.1768 14.1728 15.7333 14.7293 16.4199 14.7293ZM16.4199 21.8326C17.1064 21.8326 17.6629 21.276 17.6629 20.5895C17.6629 19.903 17.1064 19.3464 16.4199 19.3464C15.7333 19.3464 15.1768 19.903 15.1768 20.5895C15.1768 21.276 15.7333 21.8326 16.4199 21.8326ZM16.4199 28.9358C17.1064 28.9358 17.6629 28.3792 17.6629 27.6927C17.6629 27.0062 17.1064 26.4497 16.4199 26.4497C15.7333 26.4497 15.1768 27.0062 15.1768 27.6927C15.1768 28.3792 15.7333 28.9358 16.4199 28.9358ZM23.5231 14.7293C24.2096 14.7293 24.7662 14.1728 24.7662 13.4863C24.7662 12.7998 24.2096 12.2432 23.5231 12.2432C22.8366 12.2432 22.28 12.7998 22.28 13.4863C22.28 14.1728 22.8366 14.7293 23.5231 14.7293ZM30.6263 14.7293C31.3128 14.7293 31.8694 14.1728 31.8694 13.4863C31.8694 12.7998 31.3128 12.2432 30.6263 12.2432C29.9398 12.2432 29.3832 12.7998 29.3832 13.4863C29.3832 14.1728 29.9398 14.7293 30.6263 14.7293ZM30.6263 21.8326C31.3128 21.8326 31.8694 21.276 31.8694 20.5895C31.8694 19.903 31.3128 19.3464 30.6263 19.3464C29.9398 19.3464 29.3832 19.903 29.3832 20.5895C29.3832 21.276 29.9398 21.8326 30.6263 21.8326Z" fill="#A32A29" stroke="#A32A29" stroke-width="0.4"/>
</svg>
