<svg width="20" height="10" viewBox="0 0 20 10" fill="none" xmlns="http://www.w3.org/2000/svg">
<path d="M13.4007 7.33333H2.00065C1.46732 7.33333 1.00065 6.86667 1.00065 6.33333V1.66667C1.00065 1.13333 1.46732 0.666667 2.00065 0.666667H18.0007C18.534 0.666667 19.0007 1.13333 19.0007 1.66667V5C19.0007 5.2 19.134 5.33333 19.334 5.33333C19.534 5.33333 19.6673 5.2 19.6673 5V1.66667C19.6673 0.733333 18.934 0 18.0007 0H2.00065C1.06732 0 0.333984 0.733333 0.333984 1.66667V6.33333C0.333984 7.26667 1.06732 8 2.00065 8H13.4007C13.6007 8 13.734 7.86667 13.734 7.66667C13.734 7.46667 13.534 7.33333 13.4007 7.33333Z" fill="#A32A29"/>
<path d="M5.20065 3L4.33398 3.2L4.26732 2.33333H3.73398L3.66732 3.2L2.80065 3L2.66732 3.46667L3.46732 3.86667L3.00065 4.6L3.40065 4.86667L4.00065 4.2L4.60065 4.86667L5.00065 4.6L4.53398 3.86667L5.33398 3.46667L5.20065 3Z" fill="#A32A29"/>
<path d="M8.33398 3.2L9.20065 3L9.33398 3.46667L8.53399 3.86667L9.00065 4.6L8.60065 4.86667L8.00065 4.2L7.40065 4.86667L7.00065 4.6L7.46732 3.86667L6.66732 3.46667L6.80065 3L7.66732 3.2L7.73398 2.33333H8.26732L8.33398 3.2Z" fill="#A32A29"/>
<path d="M13.2007 3L12.334 3.2L12.2673 2.33333H11.734L11.6673 3.2L10.8007 3L10.6673 3.46667L11.4673 3.86667L11.0007 4.6L11.4007 4.86667L12.0007 4.2L12.6007 4.86667L13.0007 4.6L12.534 3.86667L13.334 3.46667L13.2007 3Z" fill="#A32A29"/>
<path d="M16.334 3.2L17.2007 3L17.334 3.46667L16.534 3.86667L17.0007 4.6L16.6007 4.86667L16.0007 4.2L15.4007 4.86667L15.0007 4.6L15.4673 3.86667L14.6673 3.46667L14.8007 3L15.6673 3.2L15.734 2.33333H16.2673L16.334 3.2Z" fill="#A32A29"/>
<path fill-rule="evenodd" clip-rule="evenodd" d="M18.334 7.53333C18.334 8.13333 17.8674 8.6 17.2674 8.6C16.734 8.6 16.2007 8.13333 16.2007 7.53333C16.2007 6.93333 16.6674 6.46667 17.2674 6.46667C17.8674 6.46667 18.334 6.93333 18.334 7.53333ZM17.8007 7.53333C17.8007 7.2 17.534 7 17.2674 7C17.0007 7 16.734 7.2 16.734 7.53333C16.734 7.86666 16.934 8.06667 17.2674 8.06667C17.6007 8.06667 17.8007 7.8 17.8007 7.53333Z" fill="#A32A29"/>
<path fill-rule="evenodd" clip-rule="evenodd" d="M19.934 7.33333C19.134 6.2 18.2007 5.66667 17.2674 5.66667C15.734 5.73333 14.6674 7.26667 14.6674 7.33333C14.6007 7.4 14.6007 7.53333 14.6674 7.66667C15.4674 8.8 16.334 9.33333 17.2674 9.33333H17.334C18.8674 9.26667 19.934 7.73333 19.934 7.66667C20.0007 7.53333 20.0007 7.4 19.934 7.33333ZM17.334 6.26667C18.0007 6.26667 18.734 6.66667 19.334 7.53333C19.0674 7.86666 18.2674 8.8 17.2674 8.8H17.2007C16.534 8.8 15.8007 8.4 15.2007 7.53333C15.534 7.13333 16.334 6.26667 17.334 6.26667Z" fill="#A32A29"/>
</svg>
