<svg xmlns="http://www.w3.org/2000/svg" width="32" height="32" fill="none" viewBox="0 0 32 32">
    <path fill="currentColor" fill-rule="evenodd" d="M6.158 5.164c-.429 0-.832.146-1.115.433-.283.288-.426.692-.426 1.108v11.819c0 .417.143.816.426 1.1.283.284.684.432 1.107.441h1.036v3.597c.001.2.13.391.312.47.183.077.41.036.555-.1l4.214-3.967h10.33c.43 0 .833-.154 1.116-.441.283-.287.425-.683.425-1.1V6.705c0-.416-.134-.82-.417-1.108-.283-.287-.695-.433-1.124-.433H6.158zm0 1.028h16.44c.21 0 .314.056.384.128.071.072.129.183.129.385v11.819c0 .203-.058.314-.129.385-.07.072-.174.129-.385.129H12.066c-.13 0-.258.048-.353.136l-3.5 3.292v-2.915c0-.268-.245-.513-.514-.513H6.16c-.21-.007-.324-.067-.394-.137s-.12-.175-.12-.377V6.705c0-.202.057-.313.128-.385.07-.072.174-.128.385-.128zm20.035 15.415V9.523c-.001-.25.208-.486.458-.513.287-.032.571.225.57.513v12.084c0 .416-.143.817-.426 1.1-.283.283-.68.426-1.1.441h-1.3v3.597c-.001.2-.13.391-.312.47-.183.077-.41.036-.555-.1l-4.214-3.966h-6.477c-.272.003-.521-.243-.521-.514 0-.272.25-.518.52-.514h6.679c.13-.001.258.049.353.136l3.5 3.292v-2.914c0-.27.244-.514.513-.514h1.782c.224-.008.34-.074.41-.145.07-.07.12-.166.12-.37z" clip-rule="evenodd"/>
    <path fill="currentColor" d="M5.043 5.597l-.178-.175.178.175zM6.15 20.065l-.005.25h.005v-.25zm1.036 0h.25v-.25h-.25v.25zm0 3.597h-.25v.002l.25-.002zm.312.47l-.098.23.098-.23zm.555-.1l-.172-.182.172.182zm4.214-3.967v-.25h-.1l-.072.068.172.182zM23.72 5.597l.178-.175-.178.175zm-1.124-.433v.25-.25zm0 1.028v.25-.25zm.385.128l-.178.175.178-.175zm0 12.59l-.178-.176.178.175zm-11.27.264l-.169-.183-.001.001.17.182zm-3.499 3.292h-.25v.578l.421-.396-.17-.182zm0-2.915h.25-.25zm-.514-.513v-.25.25zm-1.54 0l-.009.25h.008v-.25zm-.394-.137l-.177.177.177-.177zM5.773 6.32l-.178-.175.178.175zm20.42 3.203h.25v-.001l-.25.001zm0 12.084h-.25.25zm.458-12.597l-.028-.249.028.249zm.57.513l-.25-.001v.001h.25zm0 12.084h-.25.25zm-.426 1.1l-.177-.177.177.177zm-1.1.441v.25h.01l-.01-.25zm-1.3 0v-.25h-.25v.25h.25zm0 3.597l.25.002v-.002h-.25zm-.312.47l-.098-.23.098.23zm-.555-.1l.172-.182-.172.182zm-4.214-3.966l.171-.183-.072-.068h-.099v.25zm-6.477 0v-.25h-.004l.004.25zm0-1.028l-.004.25h.004v-.25zm6.678 0v.25h.002l-.002-.25zm.353.136l.171-.182-.001-.001-.17.183zm3.5 3.292l-.172.182.422.396v-.578h-.25zm0-2.914h-.25.25zm.513-.514v-.25.25zm1.782 0v.25h.01l-.01-.25zm.41-.145l-.177-.176.177.176zM5.22 5.773c.228-.232.563-.36.937-.36v-.5c-.484 0-.956.166-1.293.509l.356.35zm-.354.932c0-.362.124-.699.354-.932l-.356-.351c-.337.341-.498.812-.498 1.283h.5zm0 11.819V6.705h-.5v11.819h.5zm.353.923c-.23-.23-.353-.561-.353-.923h-.5c0 .472.162.938.498 1.276l.355-.353zm.936.369c-.37-.01-.707-.138-.936-.369l-.355.353c.337.338.805.504 1.28.515l.011-.5zm1.03 0H6.15v.5h1.036v-.5zm.25 3.846v-3.597h-.5v3.597h.5zm.16.24c-.091-.04-.16-.142-.16-.242l-.5.004c.002.298.19.58.464.697l.196-.46zm.285-.052c-.072.068-.194.09-.285.051l-.196.46c.275.117.608.057.825-.148l-.344-.363zm4.214-3.967L7.881 23.85l.343.364 4.214-3.967-.343-.364zm10.502-.068h-10.33v.5h10.33v-.5zm.938-.367c-.23.234-.567.367-.938.367v.5c.488 0 .958-.175 1.294-.516l-.356-.35zm.353-.924c0 .36-.123.69-.353.924l.356.351c.336-.34.497-.802.497-1.275h-.5zm0-11.819v11.819h.5V6.705h-.5zm-.345-.932c.227.23.345.566.345.932h.5c0-.467-.15-.94-.489-1.283l-.356.35zm-.946-.36c.376 0 .718.129.946.36l.356-.351c-.339-.344-.819-.508-1.302-.508v.5zm-16.439 0h16.44v-.5H6.157v.5zm16.44.529H6.157v.5h16.44v-.5zm.563.203c-.126-.128-.299-.204-.564-.203v.5c.084 0 .13.01.157.02.023.01.037.02.05.033l.357-.35zm.2.56c0-.257-.076-.435-.2-.56l-.357.35c.013.013.025.03.035.056.01.029.022.077.022.154h.5zm0 11.819V6.705h-.5v11.819h.5zm-.2.56c.123-.125.2-.303.2-.56h-.5c0 .078-.011.125-.022.154-.01.027-.022.043-.035.056l.357.35zm-.564.204c.265 0 .438-.076.563-.203l-.356-.351c-.013.013-.027.024-.05.032-.026.01-.073.022-.157.022v.5zm-10.531 0h10.531v-.5H12.066v.5zm-.184.07c.048-.044.115-.07.184-.07v-.5c-.19 0-.38.07-.523.203l.34.367zm-3.498 3.29l3.5-3.292-.342-.364-3.5 3.292.342.364zm-.42-3.096v2.914h.5v-2.915h-.5zm-.265-.264c.131 0 .264.133.264.264h.5c0-.407-.356-.764-.764-.764v.5zm-1.54 0h1.54v-.5H6.16v.5zm-.571-.21c.124.124.304.201.562.21l.017-.5c-.162-.006-.21-.048-.225-.063l-.354.353zm-.193-.554c0 .249.063.423.193.553l.354-.352c-.01-.011-.02-.024-.028-.047-.01-.026-.02-.072-.02-.154h-.5zm0-11.819v11.819h.5V6.705h-.5zm.2-.56c-.124.125-.2.303-.2.56h.5c0-.077.01-.125.021-.154.01-.027.023-.043.035-.056l-.356-.35zm.563-.203c-.265 0-.437.075-.563.203l.356.35c.014-.013.027-.024.05-.032.027-.01.074-.021.157-.021v-.5zm19.785 3.581v12.084h.5V9.523h-.5zm.68-.762c-.377.042-.682.385-.68.764l.5-.003c0-.123.113-.25.235-.264l-.055-.497zm.848.764c0-.228-.11-.429-.26-.564-.15-.136-.362-.225-.588-.2l.055.497c.06-.007.135.017.198.074.064.057.095.129.095.19l.5.003zm0 12.082V9.523h-.5v12.084h.5zm-.499 1.277c.337-.338.499-.806.498-1.277h-.5c0 .36-.123.695-.352.923l.354.354zm-1.267.514c.469-.017.93-.177 1.267-.514l-.354-.354c-.228.23-.56.355-.932.369l.019.5zm-.026 0h.016v-.5h-.016v.5zm-1.284 0h1.284v-.5h-1.284v.5zm.25 3.347v-3.597h-.5v3.597h.5zm-.464.7c.274-.118.462-.4.464-.698l-.5-.003c0 .099-.069.201-.16.24l.196.46zm-.825-.149c.217.205.55.265.825.148l-.196-.46c-.092.04-.213.017-.285-.05l-.344.362zm-4.213-3.965l4.214 3.966.343-.364-4.215-3.967-.342.364zm-6.306.067h6.477v-.5h-6.477v.5zm-.771-.763c0 .41.363.77.774.763l-.007-.5c-.132.002-.267-.131-.267-.263h-.5zm.774-.764c-.41-.006-.774.353-.774.764h.5c0-.133.135-.266.267-.264l.007-.5zm6.675 0h-6.678v.5h6.678v-.5zm.523.203c-.142-.131-.332-.205-.525-.203l.004.5c.066 0 .133.025.181.07l.34-.367zm3.501 3.293l-3.5-3.292-.342.364 3.5 3.292.342-.364zm-.421-2.732v2.914h.5v-2.914h-.5zm.763-.764c-.407 0-.763.357-.763.764h.5c0-.131.133-.264.263-.264v-.5zm1.782 0h-1.782v.5h1.782v-.5zm.233-.071c-.013.012-.031.027-.064.04-.034.013-.089.028-.178.03l.018.5c.276-.01.455-.095.578-.217l-.354-.353zm.047-.193c0 .082-.01.126-.019.148-.006.02-.015.031-.028.045l.354.353c.056-.057.108-.128.144-.226.034-.093.05-.199.05-.32h-.5z"/>
</svg>
