<svg width="32" height="32" viewBox="0 0 32 32" fill="none" xmlns="http://www.w3.org/2000/svg">
<path d="M0 16C0 7.16344 7.16344 0 16 0C24.8366 0 32 7.16344 32 16C32 24.8366 24.8366 32 16 32C7.16344 32 0 24.8366 0 16Z" fill="#929497" fill-opacity="0.2"/>
<g clip-path="url(#clip0)">
<path fill-rule="evenodd" clip-rule="evenodd" d="M33 -1H32V0H33V-1ZM24.0303 11.5303C24.3232 11.2374 24.3232 10.7626 24.0303 10.4697C23.7374 10.1768 23.2626 10.1768 22.9697 10.4697L12.5 20.9393L8.53033 16.9697C8.23744 16.6768 7.76256 16.6768 7.46967 16.9697C7.17678 17.2626 7.17678 17.7374 7.46967 18.0303L11.9697 22.5303C12.2626 22.8232 12.7374 22.8232 13.0303 22.5303L24.0303 11.5303Z" fill="#A32A29"/>
</g>
<defs>
<clipPath id="clip0">
<rect width="32" height="32" fill="white"/>
</clipPath>
</defs>
</svg>
