<svg width="32" height="32" viewBox="0 0 32 32" fill="none" xmlns="http://www.w3.org/2000/svg">
<path d="M0 16C0 7.16344 7.16344 0 16 0C24.8366 0 32 7.16344 32 16C32 24.8366 24.8366 32 16 32C7.16344 32 0 24.8366 0 16Z" fill="#929497" fill-opacity="0.2"/>
<g clip-path="url(#clip0)">
<path fill-rule="evenodd" clip-rule="evenodd" d="M33.0008 -1H32.0008V0H33.0008V-1ZM22.1008 11L17.1008 16L21.9008 21C22.2008 21.3 22.2008 21.8 21.9008 22.1C21.8008 22.2 21.6008 22.3 21.4008 22.3C21.2008 22.3 21.0008 22.2 20.9008 22.1L15.9008 17.1L10.9008 22.1C10.8008 22.2 10.6008 22.3 10.4008 22.3C10.2008 22.3 10.0008 22.2 9.90078 22.1C9.60078 21.8 9.60078 21.3 9.90078 21L14.9008 16L9.90078 11C9.60078 10.7 9.60078 10.2 9.90078 9.9C10.2008 9.6 10.7008 9.6 11.0008 9.9L16.0008 14.9L21.0008 9.9C21.3008 9.6 21.8008 9.6 22.1008 9.9C22.4008 10.2 22.4008 10.7 22.1008 11Z" fill="#A32A29"/>
</g>
<defs>
<clipPath id="clip0">
<rect width="32" height="32" fill="white"/>
</clipPath>
</defs>
</svg>
