<svg xmlns="http://www.w3.org/2000/svg" width="32" height="32" fill="none" viewBox="0 0 32 32">
    <path fill="#979797" d="M16.497 23.737c-4.486 0-8.17-3.698-8.17-8.2 0-4.5 3.684-8.199 8.17-8.199 4.485 0 8.169 3.698 8.169 8.2 0 4.501-3.684 8.199-8.17 8.199zm0-15.112c-3.765 0-6.888 3.054-6.888 6.912 0 3.859 3.043 6.914 6.888 6.914 3.844 0 6.887-3.055 6.887-6.914 0-3.858-3.123-6.912-6.887-6.912zM16.496 5.892c-.32 0-.64-.195-.64-.39V2.39c0-.194.32-.389.64-.389s.64.195.64.39v3.112c0 .244-.32.39-.64.39zM6.49 16.18H3.388c-.194 0-.388-.32-.388-.642s.194-.643.388-.643H6.49c.194 0 .388.321.388.643 0 .321-.146.643-.388.643zM16.496 29.098c-.32 0-.64-.194-.64-.389v-3.113c0-.195.32-.39.64-.39s.64.195.64.39v3.113c0 .195-.32.39-.64.39zM29.612 16.18H26.51c-.194 0-.388-.32-.388-.642s.194-.643.388-.643h3.102c.194 0 .388.321.388.643 0 .321-.194.643-.388.643zM26.006 6.562l-2.193 2.202c-.137.137-.498.05-.722-.174-.223-.224-.31-.586-.173-.724l2.194-2.201c.137-.138.497-.051.721.173.224.225.31.587.173.724zM6.765 6.807L8.96 9.008c.137.138.498.051.721-.173.224-.225.31-.587.173-.724L7.66 5.909c-.137-.137-.498-.05-.722.174-.223.224-.31.586-.173.724zM9.81 22.99L7.616 25.19c-.137.138-.497.051-.721-.173-.224-.225-.31-.587-.173-.724l2.193-2.202c.137-.137.498-.05.722.174.223.224.31.586.173.724zM25.993 24.408L23.8 22.206c-.137-.137-.498-.05-.722.174-.223.225-.31.587-.172.724l2.193 2.202c.137.137.498.05.721-.174.224-.225.31-.587.173-.724z"/>
    <path fill="#979797" d="M16.496 23.737c-.32 0-.64-.322-.64-.643V7.981c0-.322.32-.644.64-.644s.64.322.64.644v15.031c0 .402-.32.724-.64.724z"/>
    <path fill="#979797" d="M16.496 10.956H11.05c-.32 0-.64-.322-.64-.643 0-.322.32-.643.64-.643h5.446c.32 0 .64.321.64.643 0 .401-.32.643-.64.643zM16.496 13.528H9.528c-.32 0-.64-.322-.64-.643 0-.322.32-.643.64-.643h6.968c.32 0 .641.321.641.643 0 .321-.32.643-.64.643zM16.496 21.245H11.05c-.32 0-.64-.322-.64-.643 0-.322.32-.643.64-.643h5.446c.32 0 .64.321.64.643 0 .321-.32.643-.64.643zM16.496 18.672H9.528c-.32 0-.64-.321-.64-.643 0-.321.32-.643.64-.643h6.968c.32 0 .641.322.641.643 0 .322-.32.643-.64.643zM16.497 16.1h-7.53c-.32 0-.64-.321-.64-.643 0-.321.32-.643.64-.643h7.53c.32 0 .64.322.64.643 0 .322-.32.643-.64.643z"/>
</svg>
