<svg width="15" height="24" viewBox="0 0 15 24" fill="none" xmlns="http://www.w3.org/2000/svg">
<path fill-rule="evenodd" clip-rule="evenodd" d="M8.99995 0H6.99995V2.04765C5.90274 2.15319 4.75874 2.44367 3.79284 3.01385C2.47544 3.79154 1.49995 5.09581 1.49995 7C1.49995 7.9105 1.71093 8.70066 2.11394 9.37582C2.51348 10.0452 3.06947 10.5477 3.68182 10.9374C4.65319 11.5556 5.86169 11.9425 6.99995 12.2621V18.9751C5.409 18.8888 3.83634 18.5796 2.32828 18.0554L1.38372 17.7271L0.727051 19.6162L1.67161 19.9446C3.3909 20.5422 5.18534 20.8896 6.99995 20.9778V24H8.99995V20.957C10.2317 20.8562 11.4266 20.5681 12.3964 19.9659C13.6986 19.1575 14.4999 17.8383 14.4999 16C14.4999 15.0895 14.289 14.2993 13.886 13.6242C13.4864 12.9548 12.9304 12.4523 12.3181 12.0626C11.3467 11.4444 10.1382 11.0575 8.99995 10.7379V4.06324C10.0653 4.18281 11.1075 4.46835 12.0883 4.91135L12.9997 5.32298L13.8229 3.50029L12.9116 3.08865C11.6718 2.52868 10.3498 2.17935 8.99995 2.05274V0ZM6.99995 4.0591C6.18766 4.15698 5.41588 4.37822 4.80955 4.73615C4.00945 5.20846 3.49995 5.90419 3.49995 7C3.49995 7.5895 3.63271 8.01809 3.83127 8.35074C4.03329 8.68919 4.33667 8.98352 4.75557 9.25009C5.35937 9.63433 6.12158 9.91516 6.99995 10.1789V4.0591ZM8.99995 12.8211V18.9489C9.9609 18.8541 10.7596 18.6281 11.3415 18.2668C12.0433 17.831 12.4999 17.1617 12.4999 16C12.4999 15.4105 12.3672 14.9819 12.1686 14.6493C11.9666 14.3108 11.6632 14.0165 11.2443 13.7499C10.6405 13.3657 9.87832 13.0848 8.99995 12.8211Z" fill="#A32A29"/>
</svg>
