<svg width="21" height="24" viewBox="0 0 21 24" fill="none" xmlns="http://www.w3.org/2000/svg">
<path d="M12.981 0.00608088C14.2073 -0.0383503 15.4303 0.161052 16.5791 0.5928C17.7339 1.02681 18.7905 1.68689 19.687 2.53437L20.4137 3.22134L19.0397 4.67472L18.313 3.98776C17.6099 3.32306 16.7812 2.80535 15.8755 2.46495C14.9697 2.12454 14.0052 1.96829 13.0383 2.00533L13.0192 2.00607H13C10.0228 2.00607 8.07646 3.22515 6.83942 4.96134C6.11292 5.981 5.61545 7.2038 5.32285 8.50604H13V10.506H5.0344C5.01135 10.8389 5 11.1729 5 11.5061C5 11.8392 5.01134 12.1732 5.0344 12.506H13V14.506H5.32284C5.61544 15.8083 6.11291 17.0311 6.83942 18.0508C8.07646 19.787 10.0228 21.0061 13 21.0061H13.0192L13.0383 21.0068C14.0052 21.0438 14.9697 20.8876 15.8755 20.5472C16.7812 20.2068 17.6099 19.6891 18.313 19.0244L19.0397 18.3374L20.4137 19.7908L19.687 20.4778C18.7905 21.3252 17.7339 21.9853 16.5791 22.4193C15.4303 22.8511 14.2073 23.0505 12.981 23.0061C9.36824 23.0007 6.82072 21.4712 5.21058 19.2113C4.22017 17.8213 3.60306 16.184 3.28025 14.506H0V12.506H3.0303C3.00989 12.1705 3 11.8366 3 11.5061C3 11.1755 3.00989 10.8416 3.0303 10.506H0V8.50604H3.28026C3.60307 6.82813 4.22018 5.19082 5.21058 3.80079C6.82072 1.54095 9.36825 0.0114228 12.981 0.00608088Z" fill="#A32A29"/>
</svg>
