<svg width="32" height="32" viewBox="0 0 32 32" fill="none" xmlns="http://www.w3.org/2000/svg">
<path d="M28.8999 21.3V19.2C28.8999 17.6 27.6999 16.2 26.0999 15.9V7.10002C26.0999 5.40002 24.6999 3.90002 22.8999 3.90002H6.0999C4.3999 3.90002 2.8999 5.30002 2.8999 7.10002V21.3C2.8999 23 4.2999 24.5 6.0999 24.5H21.1999V26.9C21.1999 27.9 21.9999 28.8 23.0999 28.8H28.2999C29.2999 28.8 30.1999 28 30.1999 26.9V23.1C29.9999 22.3 29.5999 21.6 28.8999 21.3ZM23.3999 21.2V19.3C23.3999 18.1 24.2999 17.1 25.4999 17.1C25.5999 17.1 25.5999 17.1 25.6999 17.1C26.8999 17.2 27.7999 18.1 27.7999 19.3V21.2H23.3999ZM22.2999 19.3V21.4C21.5999 21.7 21.1999 22.4 21.1999 23.1V23.4H6.0999C4.9999 23.4 4.0999 22.5 4.0999 21.4V10.4H25.0999V16C23.3999 16.3 22.2999 17.6 22.2999 19.3ZM22.1999 23.1C22.1999 22.7 22.4999 22.4 22.8999 22.4H28.0999C28.4999 22.4 28.7999 22.7 28.7999 23.1V26.9C28.7999 27.3 28.4999 27.6 28.0999 27.6H22.9999C22.5999 27.6 22.2999 27.3 22.2999 26.9V23.1H22.1999ZM3.9999 9.20002V7.10002C3.9999 6.00002 4.8999 5.10002 5.9999 5.10002H22.9999C24.0999 5.10002 24.9999 6.00002 24.9999 7.10002V9.20002H3.9999Z" fill="#a32a29"/>
<path d="M5.8999 5.70002C5.0999 5.70002 4.4999 6.30002 4.4999 7.10002C4.4999 7.90002 5.0999 8.50002 5.8999 8.50002C6.6999 8.50002 7.2999 7.90002 7.2999 7.10002C7.2999 6.30002 6.5999 5.80002 5.8999 5.70002ZM6.0999 7.10002C6.0999 7.20002 6.0999 7.20002 5.9999 7.30002C5.9999 7.40002 5.8999 7.40002 5.7999 7.40002C5.6999 7.40002 5.5999 7.30002 5.5999 7.20002C5.5999 7.10002 5.5999 7.10002 5.6999 7.00002C5.6999 7.00002 5.7999 6.90002 5.8999 6.90002C5.9999 6.90002 5.9999 6.90002 6.0999 7.00002C6.1999 7.10002 6.0999 7.00002 6.0999 7.10002Z" fill="#a32a29"/>
<path d="M13.1999 5.80002C12.3999 5.80002 11.7999 6.40002 11.7999 7.20002C11.7999 8.00002 12.3999 8.60002 13.1999 8.60002C13.9999 8.60002 14.5999 8.00002 14.5999 7.20002C14.5999 6.40002 13.9999 5.80002 13.1999 5.80002ZM13.4999 7.10002C13.4999 7.20002 13.3999 7.30002 13.2999 7.40002C13.1999 7.40002 13.0999 7.40002 12.9999 7.30002C12.8999 7.20002 12.9999 7.10002 12.9999 7.00002C12.9999 7.00002 13.0999 6.90002 13.1999 6.90002C13.2999 6.90002 13.4999 7.00002 13.4999 7.10002Z" fill="#a32a29"/>
<path d="M9.4999 5.80002C8.6999 5.80002 8.0999 6.40002 8.0999 7.20002C8.0999 8.00002 8.6999 8.60002 9.4999 8.60002C9.8999 8.60002 10.1999 8.50002 10.4999 8.20002C10.7999 7.90002 10.8999 7.60002 10.8999 7.20002C10.8999 6.80002 10.7999 6.50002 10.4999 6.20002C10.1999 5.90002 9.8999 5.80002 9.4999 5.80002ZM9.2999 7.20002C9.2999 7.10002 9.2999 7.00002 9.3999 6.90002C9.3999 6.90002 9.4999 6.80002 9.5999 6.80002C9.6999 6.80002 9.8999 6.90002 9.8999 7.10002C9.8999 7.20002 9.7999 7.40002 9.5999 7.40002C9.3999 7.40002 9.2999 7.30002 9.2999 7.20002Z" fill="#a32a29"/>
</svg>
