<svg
  width="32"
  height="32"
  viewBox="0 0 32 32"
  fill="none"
  xmlns="http://www.w3.org/2000/svg"
>
  <g clip-path="url(#clip0)">
    <path
      fill-rule="evenodd"
      clip-rule="evenodd"
      d="M33 -1H32V0H33V-1ZM18.7216 9.42907H23.5616C23.8067 9.42907 24.0517 9.61592 23.9905 9.86505C23.9905 10.1142 23.8067 10.301 23.5616 10.301H22.275L21.356 23.3183C21.2948 24.2526 20.5596 25 19.6406 25H12.1661C11.2471 25 10.5119 24.2526 10.4506 23.3183L9.53166 10.301H8.42886C8.1838 10.301 8 10.1142 8 9.86505C8 9.61592 8.1838 9.42907 8.42886 9.42907H13.0238V8.55709C13.0238 7.68512 13.6978 7 14.5555 7H17.1899C18.0477 7 18.7216 7.68512 18.7216 8.55709V9.42907ZM14.5555 7.87197C14.1879 7.87197 13.9428 8.18339 13.9428 8.55709H13.8816V9.42907H17.8639V8.55709C17.8639 8.18339 17.6188 7.87197 17.2512 7.87197H14.5555ZM19.6406 24.0657C20.0694 24.0657 20.437 23.7543 20.4983 23.2561L21.4173 10.301H10.3281L11.3084 23.2561C11.3696 23.692 11.7372 24.0657 12.1661 24.0657H19.6406ZM15.4745 13.1038C15.4745 12.8547 15.6583 12.6678 15.9033 12.6678C16.1484 12.6678 16.3322 12.8547 16.3322 13.1038V21.3875C16.3322 21.6367 16.1484 21.8235 15.9033 21.8235C15.6583 21.8235 15.4745 21.6367 15.4745 21.3875V13.1038ZM18.2315 13.0415L17.8026 21.3253C17.8026 21.5744 17.9864 21.7612 18.2315 21.8235C18.4765 21.8235 18.6603 21.6367 18.6603 21.3875L19.0892 13.1038C19.0892 12.8547 18.9054 12.6678 18.6603 12.6055C18.4765 12.6678 18.2927 12.7924 18.2315 13.0415ZM12.6562 13.1661C12.6562 12.917 12.84 12.6678 13.0851 12.6678C13.3302 12.6678 13.514 12.7924 13.514 13.1038L13.9428 21.3875C13.9428 21.6367 13.759 21.8858 13.514 21.8858C13.2689 21.8858 13.0851 21.699 13.0851 21.4498L12.6562 13.1661Z"
      fill="currentColor"
    />
  </g>
  <defs>
    <clipPath id="clip0">
      <rect
        width="32"
        height="32"
        fill="white"
      />
    </clipPath>
  </defs>
</svg>
