<svg width="35" height="36" viewBox="0 0 35 36" fill="none" xmlns="http://www.w3.org/2000/svg">
<path d="M0 18.0144C0 8.39972 7.79425 0.605469 17.409 0.605469C27.0237 0.605469 34.8179 8.39972 34.8179 18.0144C34.8179 27.6291 27.0237 35.4234 17.409 35.4234C7.79425 35.4234 0 27.6291 0 18.0144Z" fill="#929497" fill-opacity="0.2"/>
<path d="M22.8934 13.2503H19.3826V12.6178C19.3826 11.9852 18.8938 11.4883 18.2716 11.4883H16.3606C15.7385 11.4883 15.2496 11.9852 15.2496 12.6178V13.2503H11.9166C11.7388 13.2503 11.6055 13.3858 11.6055 13.5665C11.6055 13.7472 11.7388 13.8828 11.9166 13.8828H12.7165L13.3831 23.3252C13.4275 24.0029 13.9608 24.545 14.6274 24.545H20.0492C20.7158 24.545 21.2491 24.0029 21.2936 23.3252L21.9602 13.8828H22.8934C23.0712 13.8828 23.2045 13.7472 23.2045 13.5665C23.249 13.3858 23.0712 13.2503 22.8934 13.2503ZM15.9162 12.6178C15.9162 12.3467 16.094 12.1208 16.3606 12.1208H18.316C18.5827 12.1208 18.7604 12.3467 18.7604 12.6178V13.2503H15.8718V12.6178H15.9162ZM20.6714 23.28C20.627 23.6414 20.3603 23.8673 20.0492 23.8673H14.6274C14.3164 23.8673 14.0497 23.5962 14.0053 23.28L13.2942 13.8828H21.338L20.6714 23.28Z" fill="#A32A29"/>
<path d="M17.3383 15.5996C17.1606 15.5996 17.0273 15.7351 17.0273 15.9158V21.9246C17.0273 22.1053 17.1606 22.2409 17.3383 22.2409C17.5161 22.2409 17.6494 22.1053 17.6494 21.9246V15.9158C17.6494 15.7351 17.5161 15.5996 17.3383 15.5996Z" fill="#A32A29"/>
<path d="M19.0271 15.8706L18.716 21.8794C18.716 22.0602 18.8493 22.1957 19.0271 22.2409C19.2049 22.2409 19.3382 22.1053 19.3382 21.9246L19.6493 15.9158C19.6493 15.7351 19.5159 15.5996 19.3382 15.5544C19.2049 15.5996 19.0715 15.6899 19.0271 15.8706Z" fill="#A32A29"/>
<path d="M15.2941 15.5996C15.1163 15.5996 14.983 15.7803 14.983 15.961L15.2941 21.9698C15.2941 22.1505 15.4274 22.2861 15.6051 22.2861C15.7829 22.2861 15.9162 22.1053 15.9162 21.9246L15.6051 15.9158C15.6051 15.6899 15.4718 15.5996 15.2941 15.5996Z" fill="#A32A29"/>
</svg>
