<svg width="32" height="32" viewBox="0 0 32 32" fill="none" xmlns="http://www.w3.org/2000/svg">
<path d="M23.5616 9.42907H18.7216V8.55709C18.7216 7.68512 18.0477 7 17.1899 7H14.5555C13.6978 7 13.0238 7.68512 13.0238 8.55709V9.42907H8.42886C8.1838 9.42907 8 9.61592 8 9.86505C8 10.1142 8.1838 10.301 8.42886 10.301H9.53166L10.4506 23.3183C10.5119 24.2526 11.2471 25 12.1661 25H19.6406C20.5596 25 21.2948 24.2526 21.356 23.3183L22.275 10.301H23.5616C23.8067 10.301 23.9905 10.1142 23.9905 9.86505C24.0517 9.61592 23.8067 9.42907 23.5616 9.42907ZM13.9428 8.55709C13.9428 8.18339 14.1879 7.87197 14.5555 7.87197H17.2512C17.6188 7.87197 17.8639 8.18339 17.8639 8.55709V9.42907H13.8816V8.55709H13.9428ZM20.4983 23.2561C20.437 23.7543 20.0694 24.0657 19.6406 24.0657H12.1661C11.7372 24.0657 11.3696 23.692 11.3084 23.2561L10.3281 10.301H21.4173L20.4983 23.2561Z" fill="#221F1F"/>
<path d="M15.9033 12.6678C15.6583 12.6678 15.4745 12.8547 15.4745 13.1038V21.3875C15.4745 21.6367 15.6583 21.8235 15.9033 21.8235C16.1484 21.8235 16.3322 21.6367 16.3322 21.3875V13.1038C16.3322 12.8547 16.1484 12.6678 15.9033 12.6678Z" fill="#221F1F"/>
<path d="M18.2315 13.0415L17.8026 21.3253C17.8026 21.5744 17.9864 21.7612 18.2315 21.8235C18.4765 21.8235 18.6603 21.6367 18.6603 21.3875L19.0892 13.1038C19.0892 12.8547 18.9054 12.6678 18.6603 12.6055C18.4765 12.6678 18.2927 12.7924 18.2315 13.0415Z" fill="#221F1F"/>
<path d="M13.0851 12.6678C12.84 12.6678 12.6562 12.917 12.6562 13.1661L13.0851 21.4498C13.0851 21.699 13.2689 21.8858 13.514 21.8858C13.759 21.8858 13.9428 21.6367 13.9428 21.3875L13.514 13.1038C13.514 12.7924 13.3302 12.6678 13.0851 12.6678Z" fill="#221F1F"/>
</svg>
