<svg width="26" height="26" viewBox="0 0 26 26" fill="none" xmlns="http://www.w3.org/2000/svg">
<path fill-rule="evenodd" clip-rule="evenodd" d="M23 1H3C1.89543 1 1 1.89543 1 3V14.1667H25V3C25 1.89543 24.1046 1 23 1ZM26 14.1667V15.1667V16.5C26 18.1569 24.6569 19.5 23 19.5H16V20V22V22.75H19.5833C20.1356 22.75 20.5833 23.1977 20.5833 23.75V25C20.5833 25.5523 20.1356 26 19.5833 26H6.41667C5.86438 26 5.41667 25.5523 5.41667 25V23.75C5.41667 23.1977 5.86438 22.75 6.41667 22.75H10V22V20V19.5H3C1.34315 19.5 0 18.1569 0 16.5V15.1667V14.1667V3C0 1.34315 1.34315 0 3 0H23C24.6569 0 26 1.34315 26 3V14.1667ZM1 15.1667V16.5C1 17.6046 1.89543 18.5 3 18.5H23C24.1046 18.5 25 17.6046 25 16.5V15.1667H1ZM19.5833 25H6.41667V23.75H19.5833L19.5833 25ZM15 22V20H11V22H15ZM10.2917 3.25C9.99251 3.25 9.75 3.00749 9.75 2.70833C9.75 2.40918 9.99251 2.16667 10.2917 2.16667H16.7917C17.0908 2.16667 17.3333 2.40918 17.3333 2.70833C17.3333 3.00749 17.0908 3.25 16.7917 3.25H10.2917Z" fill="#A32A29"/>
</svg>
