<svg width="32" height="32" viewBox="0 0 32 32" fill="none" xmlns="http://www.w3.org/2000/svg">
<path fill-rule="evenodd" clip-rule="evenodd" d="M5 9H10.6923C11.7969 9 12.6923 9.89543 12.6923 11V22.3462H3V11C3 9.89543 3.89543 9 5 9ZM2 23.3462V22.3462V11C2 9.34315 3.34315 8 5 8H10.6923C12.3492 8 13.6923 9.34315 13.6923 11V22.3462V23.3462V24C13.6923 25.6569 12.3492 27 10.6923 27H5C3.34314 27 2 25.6569 2 24V23.3462ZM12.6923 23.3462V24C12.6923 25.1046 11.7969 26 10.6923 26H5C3.89543 26 3 25.1046 3 24V23.3462H12.6923ZM6 24.5C6 24.7761 6.22386 25 6.5 25H9.5C9.77614 25 10 24.7761 10 24.5C10 24.2239 9.77614 24 9.5 24H6.5C6.22386 24 6 24.2239 6 24.5ZM8.60529 10.375H6.8996H6.44315C6.22454 10.375 6.04732 10.1978 6.04732 9.97917C6.04732 9.76055 6.22454 9.58333 6.44315 9.58333H6.8996H8.60529H9.06174C9.28035 9.58333 9.45757 9.76055 9.45757 9.97917C9.45757 10.1978 9.28035 10.375 9.06174 10.375H8.60529Z" fill="#A32A29"/>
<path fill-rule="evenodd" clip-rule="evenodd" d="M9.5 7C9.5 5.067 11.067 3.5 13 3.5H27.0571C28.9901 3.5 30.5571 5.067 30.5571 7V16.0429C30.5571 17.9759 28.9901 19.5429 27.0571 19.5429H22.3429V19.6571V21.5143V21.7429H24.5571C25.1094 21.7429 25.5571 22.1906 25.5571 22.7429V23.25C25.5571 23.8023 25.1094 24.25 24.5571 24.25H14.8571C14.3049 24.25 13.8571 23.8023 13.8571 23.25V22.7429C13.8571 22.1906 14.3049 21.7429 14.8571 21.7429H17.7143V21.5143V19.6571V19.5429H13V18.5429H20.0286H27.0571C28.4379 18.5429 29.5571 17.4236 29.5571 16.0429V16L13 16V15L29.5571 15V7C29.5571 5.61929 28.4379 4.5 27.0571 4.5H13C11.6193 4.5 10.5 5.61929 10.5 7V8.5H9.5V7ZM24.5571 23.25H14.8571L14.8571 22.7429H24.5571L24.5571 23.25ZM21.3429 21.5143V19.6571H18.7143V21.5143H21.3429ZM17.766 5.67143H21.9697H22.375C22.6058 5.67143 22.7929 5.85851 22.7929 6.08929C22.7929 6.32006 22.6058 6.50714 22.375 6.50714H21.9697H17.766H17.3607C17.1299 6.50714 16.9429 6.32006 16.9429 6.08929C16.9429 5.85851 17.1299 5.67143 17.3607 5.67143H17.766Z" fill="#A32A29"/>
</svg>
