<svg
  width="32"
  height="32"
  viewBox="0 0 32 32"
  fill="none"
  xmlns="http://www.w3.org/2000/svg"
>
  <path
    d="M10.8993 14.2767C10.6599 14.026 10.669 13.6292 10.9194 13.3895C11.17 13.1501 11.5675 13.1589 11.8066 13.4096L16.0588 17.8595V6.62745C16.0588 6.2811 16.3399 6 16.6863 6C17.0326 6 17.3137 6.2811 17.3137 6.62745V17.8595L21.566 13.4096C21.8053 13.1595 22.2028 13.1501 22.4532 13.3895C22.7035 13.6292 22.7126 14.026 22.4733 14.2767L16.6863 20.3322L10.8993 14.2767Z"
    fill="currentColor"
  />
  <path
    d="M6.64703 18.549C6.64703 18.2027 6.92813 17.9216 7.27448 17.9216C7.62084 17.9216 7.90194 18.2027 7.90194 18.549V21.4011C7.90194 22.9945 9.04233 24.1961 10.5545 24.1961H22.818C24.3302 24.1961 25.4706 22.9945 25.4706 21.4011V18.6915C25.4706 18.3451 25.7517 18.064 26.098 18.064C26.4444 18.064 26.7255 18.3451 26.7255 18.6915V21.4011C26.7255 23.6722 25.0091 25.451 22.8183 25.451H10.5545C8.36343 25.451 6.64703 23.6722 6.64703 21.4011V18.549Z"
    fill="currentColor"
  />
</svg>
