<svg xmlns="http://www.w3.org/2000/svg" width="32" height="32" fill="none" viewBox="0 0 32 32">
    <path fill="#221F1F" fill-rule="evenodd" d="M24.454 6.525l1.084 1.084c.402.403.623.939.623 1.509s-.222 1.105-.625 1.508l-1.402 1.402-.004.004-.004.004-8.346 8.347c-.091.091-.211.151-.339.169l-3.794.542c-.028.004-.057.006-.085.006-.158 0-.311-.062-.424-.177-.133-.134-.196-.322-.169-.509l.542-3.794c.018-.128.077-.247.169-.339l8.347-8.346.004-.004.004-.004 1.402-1.402c.806-.806 2.211-.806 3.017 0zM12.27 19.793l2.804-.401 7.785-7.785-2.403-2.403-7.785 7.784-.401 2.805zM24.689 9.777l-.982.982-2.403-2.403.982-.982c.353-.354.967-.354 1.319 0l1.084 1.084c.177.176.273.411.273.66 0 .249-.096.483-.273.659zm.349 11.723v-5c0-.332-.269-.6-.6-.6-.331 0-.6.268-.6.6v5c0 1.875-1.525 3.4-3.4 3.4h-10c-1.875 0-3.4-1.525-3.4-3.4v-10c0-1.875 1.525-3.4 3.4-3.4h5c.331 0 .6-.269.6-.6 0-.331-.268-.6-.6-.6h-5c-2.537 0-4.6 2.063-4.6 4.6v10c0 2.537 2.063 4.6 4.6 4.6h10c2.537 0 4.6-2.063 4.6-4.6z" clip-rule="evenodd"/>
</svg>
