<svg width="32" height="32" viewBox="0 0 32 32" fill="none" xmlns="http://www.w3.org/2000/svg">
<path d="M8.43323 17.9157V6.57399H22.7938H22.9086H23.5671V17.9157L20.4323 20.3824L19.4721 19.5101C18.5198 18.645 17.2867 18.1686 16.0002 18.1686C14.7136 18.1686 13.4805 18.6451 12.5282 19.5101L11.568 20.3824L8.43323 17.9157ZM3.16116 14.3136L3.19227 14.3527L3.16116 14.3136C3.02801 14.4194 2.95037 14.5802 2.95037 14.7504V25.1603C2.95037 26.6159 4.13447 27.8 5.59016 27.8H26.41C27.8656 27.8 29.0498 26.6159 29.0498 25.1603V14.7504C29.0498 14.5803 28.9721 14.4195 28.839 14.3136L28.8079 14.3528L28.839 14.3136L24.6827 11.0112V6.01618C24.6827 5.7081 24.4329 5.45837 24.1249 5.45837H22.9086H22.7938H7.87532C7.56724 5.45837 7.3175 5.7081 7.3175 6.01618V11.0111L3.16116 14.3136ZM4.06599 25.1603V15.899L10.7306 21.1431L4.86242 26.4739C4.85671 26.4791 4.85119 26.4843 4.84585 26.4896C4.38079 26.2282 4.06599 25.7303 4.06599 25.1603ZM27.1377 26.4739L27.1377 26.4738L21.2696 21.1431L27.9341 15.8991V25.1603C27.9341 25.7303 27.6193 26.2281 27.1542 26.4896C27.1489 26.4843 27.1434 26.4791 27.1377 26.4739ZM24.6827 12.436L27.5926 14.7482L24.6827 17.038V12.436ZM7.3175 12.436V17.038L4.40754 14.7482L7.3175 12.436ZM18.7219 20.3359L25.7103 26.6844H6.28978L7.87095 25.248L8.98895 24.2324L13.2782 20.3359C14.83 18.9261 17.1701 18.9261 18.7219 20.3359Z" fill="#A32A29" stroke="#A32A29" stroke-width="0.1"/>
<path d="M17.9523 15.1249L17.9523 15.1249C17.4585 15.4112 16.8915 15.5623 16.3127 15.5623C14.5053 15.5623 13.0346 14.0916 13.0346 12.284C13.0346 10.4762 14.5053 9.00531 16.3127 9.00531C18.1202 9.00531 19.5909 10.4762 19.5909 12.284C19.5909 12.5447 19.8021 12.7559 20.0627 12.7559C20.3232 12.7559 20.5346 12.5447 20.5346 12.284C20.5346 9.95557 18.6408 8.06156 16.3127 8.06156C13.9845 8.06156 12.0909 9.95557 12.0909 12.284C12.0909 14.6122 13.9845 16.5061 16.3127 16.5061C17.0572 16.5061 17.7876 16.3107 18.4254 15.9413L18.4254 15.9413C18.6509 15.8107 18.7278 15.5221 18.5972 15.2964L18.5972 15.2964C18.4665 15.0712 18.1778 14.9942 17.9523 15.1249Z" fill="#A32A29" stroke="#A32A29" stroke-width="0.1"/>
<path d="M13.9661 12.2847C13.9661 13.5791 15.0188 14.632 16.3128 14.632C17.6075 14.632 18.6608 13.5791 18.6608 12.2847C18.6608 10.9904 17.6075 9.9375 16.3128 9.9375C15.0188 9.9375 13.9661 10.9904 13.9661 12.2847ZM14.9099 12.2847C14.9099 11.511 15.5392 10.8812 16.3128 10.8812C17.087 10.8812 17.7171 11.511 17.7171 12.2847C17.7171 13.0585 17.087 13.6882 16.3128 13.6882C15.5392 13.6882 14.9099 13.0585 14.9099 12.2847Z" fill="#A32A29" stroke="#A32A29" stroke-width="0.1"/>
<path d="M18.7961 13.5505L18.7958 13.5502C18.7088 13.4646 18.6607 13.3485 18.6607 13.2228V12.2847C18.6607 12.0241 18.4493 11.8129 18.1888 11.8129C17.9284 11.8129 17.717 12.0241 17.717 12.2847V13.2228C17.717 13.6029 17.865 13.9581 18.1315 14.2204C18.3974 14.4858 18.7505 14.632 19.126 14.632C19.5011 14.632 19.855 14.4861 20.1252 14.2193L20.1256 14.219C20.3892 13.9534 20.5346 13.5995 20.5346 13.223V12.2849C20.5346 12.0242 20.3232 11.8131 20.0627 11.8131C19.802 11.8131 19.5908 12.0243 19.5908 12.2849V13.223C19.5908 13.3493 19.5428 13.4663 19.4589 13.551C19.2804 13.7269 18.9755 13.7298 18.7961 13.5505Z" fill="#A32A29" stroke="#A32A29" stroke-width="0.1"/>
</svg>
