<svg width="64" height="48" viewBox="0 0 64 48" fill="none" xmlns="http://www.w3.org/2000/svg">
<path d="M8.03132 33.9655V31.3096H0.0957031V43.2569H8.03132V40.6009H2.79531V38.6192H6.61625V35.9472H2.79531V33.9655H8.03132Z" fill="#221F1F"/>
<path d="M20.5996 40.8977C20.9636 40.3944 21.2568 39.8451 21.4715 39.2647C21.7071 38.6353 21.8278 37.9699 21.8282 37.2991C21.8355 36.4526 21.6578 35.6145 21.3072 34.8415C20.6527 33.392 19.4546 32.2471 17.963 31.6454C17.2036 31.3382 16.3891 31.1844 15.5681 31.1932C14.747 31.2021 13.9362 31.3734 13.1839 31.697C12.4495 32.0178 11.7847 32.4745 11.2256 33.0422C10.6763 33.6077 10.2388 34.2688 9.93526 34.9918C9.44705 36.1264 9.32601 37.3814 9.58859 38.5861C9.85118 39.7908 10.4846 40.8867 11.4028 41.7246C11.9805 42.2487 12.6525 42.6621 13.3844 42.9436C14.1076 43.2236 14.8778 43.3679 15.655 43.3691C16.1974 43.3707 16.7375 43.2989 17.2601 43.1558C17.7085 43.0362 18.1444 42.8753 18.5621 42.6753L19.0948 43.2613H22.7619L20.5996 40.8977ZM14.494 38.228C14.8566 38.6305 15.2482 39.0548 15.6597 39.4895C16.0094 39.8622 16.3439 40.228 16.6575 40.5778C16.3325 40.6705 15.9957 40.7172 15.6573 40.7165C15.1928 40.7198 14.7325 40.6289 14.3052 40.4493C13.8901 40.2754 13.5117 40.0264 13.1897 39.7154C12.8696 39.405 12.6142 39.0361 12.4379 38.6294C12.2556 38.209 12.1632 37.7562 12.1663 37.2991C12.1646 36.8394 12.2578 36.3841 12.4402 35.9608C12.6156 35.5498 12.8683 35.1751 13.185 34.8564C13.5082 34.5348 13.8933 34.2797 14.3178 34.106C14.7423 33.9324 15.1976 33.8436 15.6573 33.845C16.1161 33.8433 16.5704 33.9342 16.992 34.1122C17.4054 34.2856 17.7804 34.5369 18.0958 34.8519C18.4145 35.1716 18.6705 35.5464 18.8512 35.9574C19.0374 36.3793 19.1327 36.8346 19.1309 37.2945C19.1325 37.6083 19.0865 37.9206 18.9946 38.2211C18.9291 38.4343 18.8469 38.6421 18.7486 38.8427L16.4115 36.3003L14.3763 38.0915L14.494 38.228Z" fill="#221F1F"/>
<path d="M30.94 31.3096V38.3761C30.9447 38.713 30.8858 39.0478 30.7664 39.3635C30.6644 39.6368 30.5083 39.8874 30.3071 40.1009C30.1219 40.2956 29.8987 40.4516 29.6509 40.5596C29.408 40.664 29.1459 40.7178 28.881 40.7178C28.616 40.7178 28.3539 40.664 28.1111 40.5596C27.8629 40.4517 27.6393 40.2957 27.4536 40.1009C27.2529 39.8871 27.0968 39.6366 26.9944 39.3635C26.8757 39.0476 26.8172 38.7129 26.8219 38.3761V31.3096H24.1409V38.6743C24.134 39.3197 24.2527 39.9604 24.4906 40.5619C24.7109 41.1153 25.0419 41.6195 25.4639 42.0447C25.8909 42.4667 26.401 42.7984 26.9629 43.0195C28.1984 43.4905 29.5682 43.4905 30.8037 43.0195C31.3669 42.7974 31.879 42.4663 32.3097 42.0459C32.7367 41.6224 33.0711 41.1174 33.2923 40.5619C33.53 39.9604 33.6487 39.3197 33.642 38.6743V31.3096H30.94Z" fill="#221F1F"/>
<path d="M39.6325 31.3096H36.9492V43.2569H39.6325V31.3096Z" fill="#221F1F"/>
<path d="M42.0508 31.3096V33.9655H45.3169V43.2569H48.0165V33.9655H51.2488V31.3096H42.0508Z" fill="#221F1F"/>
<path d="M60.6552 31.3096L58.0699 34.8646L55.4693 31.3096H52.1484L52.3524 31.5894C52.6889 32.0527 53.0452 32.5389 53.4213 33.0481C53.7974 33.5573 54.1731 34.0699 54.5485 34.586C54.9254 35.1066 55.3019 35.6208 55.678 36.1284C56.0401 36.6192 56.3847 37.0894 56.7119 37.539V43.2569H59.415V37.539L63.9983 31.3096H60.6552Z" fill="#221F1F"/>
<path fill-rule="evenodd" clip-rule="evenodd" d="M10.5619 10.996H0.0957031V27.2014L10.5689 27.2175L28.9136 14.574L46.7653 27.2152H63.9956L28.9078 2.35718L10.5619 14.996V10.996Z" fill="#A32A29"/>
</svg>
