<svg width="40" height="41" viewBox="0 0 40 41" fill="none" xmlns="http://www.w3.org/2000/svg">
<g filter="url(#filter0_d_40806_384592)">
<path d="M4 18.3223C4 9.48571 11.1634 2.32227 20 2.32227C28.8366 2.32227 36 9.48571 36 18.3223C36 27.1588 28.8366 34.3223 20 34.3223C11.1634 34.3223 4 27.1588 4 18.3223Z" fill="white"/>
<path d="M14.1733 17.1368C14.1734 17.1367 14.1732 17.1369 14.1733 17.1368L17.8673 14.5189C17.8673 14.5189 17.8672 14.5189 17.8673 14.5189L14.1733 17.1368Z" fill="#A32A29"/>
<path fill-rule="evenodd" clip-rule="evenodd" d="M19.5803 13.3049C19.5803 13.3049 19.5803 13.3049 19.5803 13.3049L19.831 13.1273C22.5588 13.0554 25.1345 14.6986 27.4961 17.9109C27.6184 18.0772 27.6246 18.302 27.5115 18.4748C27.4447 18.577 26.6539 19.7662 25.3318 20.9443C24.0118 22.1207 22.1429 23.3029 19.922 23.355C19.8718 23.3562 19.8212 23.3569 19.7708 23.3569C17.0995 23.3569 14.5744 21.6961 12.2581 18.4941L12.3941 18.3977C12.3941 18.3977 12.394 18.3977 12.3941 18.3977L12.2581 18.4941C12.137 18.3268 12.1325 18.1019 12.2469 17.93C12.3138 17.8293 13.1043 16.6594 14.4258 15.5002C15.7454 14.3427 17.6128 13.1796 19.831 13.1273L19.5803 13.3049ZM13.5672 17.5662C13.5672 17.5661 13.5671 17.5663 13.5672 17.5662L14.1733 17.1368C13.7633 17.5731 13.4565 17.9567 13.2716 18.2013C15.4045 21.0432 17.6382 22.4184 19.8959 22.3657C21.5968 22.3266 23.1078 21.481 24.2778 20.5267C25.3617 19.6426 26.1387 18.6768 26.4846 18.2113C24.3524 15.4168 22.1169 14.0699 19.8574 14.1166C19.1584 14.1327 18.4915 14.2827 17.8673 14.5189L18.335 14.1875C18.335 14.1875 18.335 14.1875 18.335 14.1875L17.8673 14.5189C16.9731 14.8573 16.1664 15.3726 15.4779 15.9248C14.9722 16.3305 14.5329 16.7541 14.1733 17.1368L13.5672 17.5662Z" fill="#A32A29"/>
<path d="M19.8781 20.9386C18.3884 20.9386 17.1807 19.7309 17.1807 18.2412C17.1807 16.7514 18.3884 15.5437 19.8781 15.5437C21.3679 15.5437 22.5756 16.7514 22.5756 18.2412C22.5739 19.7302 21.3672 20.9369 19.8781 20.9386ZM19.8781 16.2001C18.7509 16.2001 17.8371 17.1139 17.8371 18.2412C17.8371 19.3684 18.7509 20.2822 19.8781 20.2822C21.0054 20.2822 21.9192 19.3684 21.9192 18.2412C21.9179 17.1144 21.0049 16.2014 19.8781 16.2001Z" fill="#A32A29"/>
<path fill-rule="evenodd" clip-rule="evenodd" d="M19.8781 15.7104C18.4804 15.7104 17.3474 16.8434 17.3474 18.2412C17.3474 19.6388 18.4803 20.7718 19.8779 20.7719C21.2751 20.7703 22.4073 19.6381 22.4089 18.241C22.4088 16.8433 21.2758 15.7104 19.8781 15.7104ZM17.014 18.2412C17.014 16.6594 18.2963 15.377 19.8781 15.377C21.4599 15.377 22.7422 16.6594 22.7422 18.2412C22.7404 19.8221 21.4593 21.1034 19.8783 21.1053C18.2965 21.1053 17.014 19.823 17.014 18.2412ZM17.6704 18.2412C17.6704 17.0219 18.6589 16.0335 19.8781 16.0335C21.0968 16.0348 22.0845 17.0223 22.0858 18.241C22.0858 19.4602 21.0974 20.4488 19.8781 20.4488C18.6589 20.4488 17.6704 19.4604 17.6704 18.2412ZM19.878 16.3668C18.8429 16.3669 18.0038 17.206 18.0038 18.2412C18.0038 19.2763 18.843 20.1155 19.8781 20.1155C20.9133 20.1155 21.7524 19.2764 21.7525 18.2413C21.7514 17.2065 20.9128 16.368 19.878 16.3668Z" fill="#A32A29"/>
</g>
<defs>
<filter id="filter0_d_40806_384592" x="0" y="0.322266" width="40" height="40" filterUnits="userSpaceOnUse" color-interpolation-filters="sRGB">
<feFlood flood-opacity="0" result="BackgroundImageFix"/>
<feColorMatrix in="SourceAlpha" type="matrix" values="0 0 0 0 0 0 0 0 0 0 0 0 0 0 0 0 0 0 127 0" result="hardAlpha"/>
<feOffset dy="2"/>
<feGaussianBlur stdDeviation="2"/>
<feColorMatrix type="matrix" values="0 0 0 0 0 0 0 0 0 0 0 0 0 0 0 0 0 0 0.25 0"/>
<feBlend mode="normal" in2="BackgroundImageFix" result="effect1_dropShadow_40806_384592"/>
<feBlend mode="normal" in="SourceGraphic" in2="effect1_dropShadow_40806_384592" result="shape"/>
</filter>
</defs>
</svg>
