<svg
  width="32"
  height="32"
  viewBox="0 0 32 32"
  fill="none"
  xmlns="http://www.w3.org/2000/svg"
>
  <path
    d="M22.8001 2.89999H9.2001C6.1001 2.89999 3.6001 5.29999 3.6001 8.19999V18.6C3.6001 21.2 5.6001 23.4 8.2001 23.8V28.3C8.2001 28.6 8.4001 28.9 8.7001 29.1C8.8001 29.2 9.0001 29.2 9.1001 29.2C9.3001 29.2 9.5001 29.2 9.6001 29L12.4001 27.1C15.4001 25 19.0001 23.9 22.8001 23.9C25.9001 23.9 28.4001 21.5 28.4001 18.6V8.19999C28.4001 5.29999 25.9001 2.89999 22.8001 2.89999ZM26.6001 18.6C26.6001 20.5 24.9001 22.1 22.9001 22.1C18.8001 22.1 14.8001 23.3 11.4001 25.6L10.1001 26.5V23C10.1001 22.5 9.7001 22.1 9.2001 22.1C7.2001 22.1 5.5001 20.5 5.5001 18.6V8.19999C5.5001 6.29999 7.2001 4.69999 9.2001 4.69999H22.9001C24.9001 4.69999 26.6001 6.29999 26.6001 8.19999V18.6Z"
    fill="currentColor"
  />
  <path
    d="M16.0001 8.49999C14.5001 8.49999 13.0001 9.49999 13.0001 11.3C13.0001 11.8 13.4001 12.2 13.9001 12.2C14.4001 12.2 14.8001 11.8 14.8001 11.3C14.8001 10.3 15.9001 10.3 16.0001 10.3C16.1001 10.3 17.2001 10.3 17.2001 11.3V11.5C17.2001 11.9 17.0001 12.2 16.6001 12.4L15.8001 12.8C15.3001 13 15.1001 13.5 15.1001 14V14.7C15.1001 15.2 15.5001 15.6 16.0001 15.6C16.5001 15.6 16.9001 15.2 16.9001 14.7V14.3L17.5001 14C18.5001 13.5 19.0001 12.6 19.0001 11.5V11.3C19.0001 9.39999 17.5001 8.49999 16.0001 8.49999Z"
    fill="currentColor"
  />
  <path
    d="M16.0001 16.5C14.5001 16.5 14.5001 18.7 16.0001 18.7C17.5001 18.8 17.5001 16.5 16.0001 16.5Z"
    fill="currentColor"
  />
</svg>
