<svg width="32" height="32" viewBox="0 0 32 32" fill="none" xmlns="http://www.w3.org/2000/svg">
<path d="M0 16C0 7.16344 7.16344 0 16 0C24.8366 0 32 7.16344 32 16C32 24.8366 24.8366 32 16 32C7.16344 32 0 24.8366 0 16Z" fill="#929497" fill-opacity="0.2"/>
<g clip-path="url(#clip0)">
<path fill-rule="evenodd" clip-rule="evenodd" d="M33 -1H32V0H33V-1ZM11.25 10.5C11.25 9.81021 11.8102 9.25 12.5 9.25C13.1898 9.25 13.75 9.81021 13.75 10.5C13.75 11.1898 13.1898 11.75 12.5 11.75C11.8102 11.75 11.25 11.1898 11.25 10.5ZM12.5 7.75C13.7582 7.75 14.8197 8.59604 15.1464 9.75H23.5C23.9142 9.75 24.25 10.0858 24.25 10.5C24.25 10.9142 23.9142 11.25 23.5 11.25H15.1464C14.8197 12.404 13.7582 13.25 12.5 13.25C11.2418 13.25 10.1803 12.404 9.85361 11.25H8.5C8.08579 11.25 7.75 10.9142 7.75 10.5C7.75 10.0858 8.08579 9.75 8.5 9.75H9.85361C10.1803 8.59604 11.2418 7.75 12.5 7.75ZM19.5 13.75C18.2418 13.75 17.1803 14.596 16.8536 15.75H8.5C8.08579 15.75 7.75 16.0858 7.75 16.5C7.75 16.9142 8.08579 17.25 8.5 17.25H16.8536C17.1803 18.404 18.2418 19.25 19.5 19.25C20.7582 19.25 21.8197 18.404 22.1464 17.25H23.5C23.9142 17.25 24.25 16.9142 24.25 16.5C24.25 16.0858 23.9142 15.75 23.5 15.75H22.1464C21.8197 14.596 20.7582 13.75 19.5 13.75ZM18.25 16.5C18.25 15.8102 18.8102 15.25 19.5 15.25C20.1898 15.25 20.75 15.8102 20.75 16.5C20.75 17.1898 20.1898 17.75 19.5 17.75C18.8102 17.75 18.25 17.1898 18.25 16.5ZM12.5 19.75C11.2418 19.75 10.1803 20.596 9.85361 21.75H8.5C8.08579 21.75 7.75 22.0858 7.75 22.5C7.75 22.9142 8.08579 23.25 8.5 23.25H9.85361C10.1803 24.404 11.2418 25.25 12.5 25.25C13.7582 25.25 14.8197 24.404 15.1464 23.25H23.5C23.9142 23.25 24.25 22.9142 24.25 22.5C24.25 22.0858 23.9142 21.75 23.5 21.75H15.1464C14.8197 20.596 13.7582 19.75 12.5 19.75ZM11.25 22.5C11.25 21.8102 11.8102 21.25 12.5 21.25C13.1898 21.25 13.75 21.8102 13.75 22.5C13.75 23.1898 13.1898 23.75 12.5 23.75C11.8102 23.75 11.25 23.1898 11.25 22.5Z" fill="#A32A29"/>
</g>
<defs>
<clipPath id="clip0">
<rect width="32" height="32" fill="white"/>
</clipPath>
</defs>
</svg>
