<svg xmlns="http://www.w3.org/2000/svg" width="22" height="22" fill="none" viewBox="0 0 22 22">
    <path fill-rule="evenodd" stroke="currentColor" stroke-linecap="round" stroke-linejoin="round" stroke-width="1.5" d="M10 15.333h6-6zm-4 0h1.333H6zM8.667 14c-.736 0-1.334.597-1.334 1.333s.598 1.334 1.334 1.334c.736 0 1.333-.598 1.333-1.334C10 14.597 9.403 14 8.667 14zm6-2.667H16h-1.333zm-8.667 0h6-6zM13.333 10c-.736 0-1.333.597-1.333 1.333s.597 1.334 1.333 1.334 1.334-.598 1.334-1.334c0-.736-.598-1.333-1.334-1.333zM10 7.333h6-6zm-4 0h1.333H6zm4 0c0 .736-.597 1.334-1.333 1.334s-1.334-.598-1.334-1.334C7.333 6.597 7.931 6 8.667 6 9.403 6 10 6.597 10 7.333z" clip-rule="evenodd"/>
</svg>
