<svg xmlns="http://www.w3.org/2000/svg" width="160" height="160" fill="none" viewBox="0 0 160 160">
    <rect width="160" height="160" fill="#F7F7F7" rx="20"/>
    <path fill="#929497" d="M54.514 42.568c.927-.62 1.854-1.032 2.884-1.548.515-.206.927-.413 1.442-.722.103-.104.927-.413.618-.31-.309.206.206-.103.206-.103.206-.103.412-.207.721-.31 1.339-.516 2.781-1.032 4.223-1.445 8.137-2.476 16.789-3.199 25.338-1.96 6.592 1.032 13.081 3.199 18.952 6.192 1.133.619 2.575.31 3.193-.826.618-1.032.309-2.683-.824-3.2-10.3-5.16-21.836-7.946-33.475-7.223-7.519.516-14.832 2.27-21.63 5.366-1.339.62-2.678 1.239-3.914 2.064-1.03.723-1.545 2.064-.824 3.2.515 1.031 2.06 1.547 3.09.825zM49.262 110.783c-1.133-2.787-1.751-5.676-2.266-8.669-.103-.619-.206-1.342-.31-1.961 0-.103-.102-.722 0 0 0-.206 0-.31-.102-.516 0-.413-.103-.826-.103-1.238-.206-1.548-.206-3.096-.206-4.748 0-1.65.103-3.405.309-5.056 0-.207 0-.413.103-.62-.103.517 0-.103 0-.206.103-.413.103-.826.206-1.238.206-.93.309-1.858.618-2.684 1.03-3.715 2.266-6.707 4.532-9.907 1.03-1.444 2.266-2.89 3.708-4.23 1.648-1.549 3.296-2.89 5.253-4.129 4.84-3.096 10.403-5.263 16.17-5.78 6.284-.618 12.567.31 18.438 2.58 4.635 1.755 8.858 4.439 12.257 8.05 1.854 1.858 3.296 4.025 4.635 6.296.721 1.238 1.442 2.58 2.06 3.921.309.723.721 1.445 1.03 2.168-.206-.413-.103-.104 0 0 .309.722.515 1.444.721 2.167.206.619.309 1.238.412 1.857.103.31.103.723.206 1.135 0 .207.103.413.103.62-.103-.62 0 .31 0 .412.103.826.103 1.652.103 2.58v2.477c0-.206 0-.206 0 0-.309 2.064-.721 3.2-1.957 4.85l-.206.31-.515.516c-.309.31-.618.62-.824.723-1.03.825-2.266 1.341-3.502 1.651-2.678.826-5.768.619-8.343-.722-1.957-1.032-3.4-2.477-4.43-4.438-.205-.413-.308-.62-.514-1.238-.103-.31-.206-.723-.206-1.032-.103-.413-.412-1.239 0-.31-.206-.516 0-1.239-.103-1.754 0-.826-.206-1.652-.31-2.58-2.265-11.353-18.436-14.861-25.75-6.399-5.561 6.398-4.016 15.79-1.03 23.014 3.4 8.359 9.889 14.964 17.923 18.989 2.575 1.341 5.356 2.373 8.137 3.302 2.884.929 4.12-3.612 1.236-4.541-4.944-1.651-9.991-4.025-13.905-7.327-3.296-2.683-5.562-5.573-7.622-9.185l-1.236-2.477-.103-.206c-.103-.206-.206-.413-.206-.516-.206-.413-.31-.826-.412-1.238-.515-1.445-.927-2.993-1.236-4.541-.103-.723-.206-1.342-.31-1.961 0-.206 0-.31-.102-.413-.103-.516 0 .207 0 0 0-.31-.103-.62-.103-.929-.31-2.58.103-5.16 1.442-7.43 2.884-4.747 8.549-5.573 13.287-3.612 1.75.722 3.399 1.96 4.429 3.612 1.236 1.96 1.133 4.128 1.442 6.501.103.62 0 .207 0 .104 0 .31.103.516.103.825.103.31.103.723.206 1.032.206.723.515 1.548.824 2.168.309.722.824 1.548 1.339 2.167 1.957 2.58 4.635 4.437 7.828 5.366 5.562 1.651 12.36.207 16.171-4.334 4.635-5.573 4.12-13.726 1.957-20.33-1.442-4.335-3.914-8.463-6.695-11.972-3.09-4.025-7.004-7.43-11.536-9.804-11.742-6.192-25.853-7.017-37.904-1.445C56.06 62.28 48.85 68.78 45.245 77.346c-2.781 6.605-3.605 13.932-2.884 21.156.412 4.334 1.236 8.669 2.678 12.797.103.206.206.413.206.619.515 1.238 1.545 2.064 2.884 1.651.618-.103 1.648-1.548 1.133-2.786z"/>
    <path fill="#929497" d="M41.845 67.645c.103-.206.206-.31.412-.516.206-.206.31-.413.412-.619.103-.206.515-.62 0 0 .103-.206.31-.31.412-.516 1.34-1.651 2.884-3.302 4.43-4.85 2.368-2.27 4.428-3.922 7.106-5.676 3.193-2.064 6.592-3.819 10.094-5.057 4.12-1.445 8.446-2.374 12.875-2.683 1.957-.104 3.914-.104 5.768 0 .927 0 1.957.103 2.884.103.515 0 1.133.103 1.648.206.31 0 .618.104.927.104.618.103-.515-.104.103 0 .206 0 .412 0 .515.103 3.09.516 6.18 1.238 9.167 2.27 8.858 3.096 16.789 9.391 22.454 17.131.721 1.032 2.06 1.548 3.193.826 1.03-.62 1.545-2.167.824-3.2-5.562-7.74-12.875-14.035-21.63-17.853-5.87-2.58-12.154-4.025-18.54-4.334-6.077-.31-12.36.103-18.23 1.754-7.623 2.167-14.627 6.192-20.6 11.352-2.988 2.683-5.975 5.676-8.138 9.082-1.75 2.58 2.266 4.953 3.914 2.373zM78.925 92.93c-.103 4.437 1.442 8.875 3.605 12.693 3.09 5.573 8.034 9.907 14.11 11.765 4.739 1.445 9.477 1.238 14.421.722 1.236-.103 2.369-1.032 2.369-2.373 0-1.239-1.03-2.477-2.369-2.374-4.017.413-8.034.723-11.742-.206-1.648-.413-2.781-.826-4.017-1.445-.618-.31-1.236-.722-1.854-1.032-.31-.206-.515-.413-.824-.516-.206-.103-.31-.206-.412-.31-.103-.103-.103-.103 0 0-.103-.103-.206-.103-.206-.206-1.03-.826-2.06-1.858-2.884-2.89-.206-.206-.412-.516-.618-.722.309.31-.31-.413-.31-.516-.411-.516-.72-1.135-1.132-1.651-.618-1.032-1.133-2.064-1.648-3.199 0-.104-.103-.207-.103-.31.206.516.103.206 0 .103-.103-.309-.206-.516-.31-.825-.205-.517-.308-1.032-.514-1.549-.31-.928-.515-1.857-.721-2.786 0-.103-.103-.825-.103-.31.103.517 0-.206 0-.31v-1.857c0-2.89-4.635-2.89-4.738.104z"/>
    <path fill="#929497" d="M109.001 93.136c.206-5.986-2.163-11.868-5.871-16.512-5.871-7.43-16.171-10.94-25.441-9.701-8.961 1.135-17.819 7.224-21.527 15.583-2.369 5.47-2.781 11.455-1.957 17.234 1.545 10.527 7.004 20.124 14.626 27.452 2.163 2.064 5.459-1.239 3.296-3.303-6.386-6.192-11.124-13.932-12.978-22.704-.206-.722-.309-1.445-.412-2.064 0-.103 0-.31-.103-.412-.103-.62.103.516 0-.104 0-.31-.103-.722-.103-1.032-.103-.928-.206-1.96-.206-2.89 0-2.063.206-4.024.618-5.985.824-3.818 2.678-7.327 5.356-10.01 1.339-1.342 2.369-2.064 3.708-3.096 1.854-1.239 3.708-2.27 5.871-2.993 4.944-1.651 10.094-1.445 14.935.103 3.605 1.135 6.695 2.993 9.167 5.573 1.339 1.341 2.06 2.27 3.09 4.025.412.619.721 1.341 1.03 2.064.103.206.206.31.206.516.206.516-.103-.31.103.206.103.31.309.722.412 1.032.412 1.239.824 2.477 1.03 3.819 0 .31.103.516.103.825-.103-.826 0 0 0 .207.103.825.103 1.65.103 2.373.206 2.89 4.944 2.89 4.944-.206z"/>
</svg>
