<svg width="48" height="48" viewBox="0 0 48 48" fill="none" xmlns="http://www.w3.org/2000/svg">
<path d="M24 48C37.2548 48 48 37.2548 48 24C48 10.7452 37.2548 0 24 0C10.7452 0 0 10.7452 0 24C0 37.2548 10.7452 48 24 48Z" fill="#0052B4"/>
<path d="M24.0001 9.39124L24.7771 11.7827H27.2915L25.2572 13.2607L26.0343 15.6521L24.0001 14.1741L21.9657 15.6521L22.7428 13.2607L20.7085 11.7827H23.223L24.0001 9.39124Z" fill="#FFDA44"/>
<path d="M13.67 13.6699L15.9106 14.8114L17.6886 13.0336L17.2951 15.517L19.5356 16.6586L17.0521 17.052L16.6587 19.5356L15.5171 17.2951L13.0337 17.6885L14.8117 15.9106L13.67 13.6699Z" fill="#FFDA44"/>
<path d="M9.39136 23.9998L11.7828 23.2227V20.7083L13.2607 22.7426L15.6523 21.9655L14.1741 23.9998L15.6523 26.0341L13.2607 25.2571L11.7828 27.2914V24.7769L9.39136 23.9998Z" fill="#FFDA44"/>
<path d="M13.67 34.3298L14.8116 32.0892L13.0337 30.3112L15.5172 30.7048L16.6586 28.4642L17.0521 30.9478L19.5355 31.3411L17.2953 32.4827L17.6886 34.9662L15.9106 33.1882L13.67 34.3298Z" fill="#FFDA44"/>
<path d="M24.0001 38.6085L23.2229 36.217H20.7085L22.7429 34.7391L21.9657 32.3478L24.0001 33.8257L26.0343 32.3478L25.2572 34.7391L27.2915 36.217H24.777L24.0001 38.6085Z" fill="#FFDA44"/>
<path d="M34.3301 34.3298L32.0895 33.1883L30.3115 34.9663L30.7049 32.4826L28.4646 31.3411L30.948 30.9478L31.3414 28.4642L32.4829 30.7048L34.9663 30.3112L33.1884 32.0894L34.3301 34.3298Z" fill="#FFDA44"/>
<path d="M38.6089 23.9998L36.2174 24.7769V27.2914L34.7394 25.257L32.3481 26.0341L33.8261 23.9998L32.3481 21.9655L34.7395 22.7426L36.2174 20.7083V23.2228L38.6089 23.9998Z" fill="#FFDA44"/>
<path d="M34.3301 13.67L33.1885 15.9106L34.9664 17.6886L32.4828 17.295L31.3414 19.5355L30.948 17.052L28.4646 16.6585L30.7049 15.517L30.3115 13.0337L32.0896 14.8116L34.3301 13.67Z" fill="#FFDA44"/>
</svg>
