<svg width="48" height="48" viewBox="0 0 48 48" fill="none" xmlns="http://www.w3.org/2000/svg">
<path d="M41.8868 39.9998C45.6878 35.7536 48 30.1472 48 23.9998C48 17.8525 45.6877 12.2459 41.8867 7.9998L24 6.26074L6.11325 7.9998C2.31234 12.2459 0 17.8525 0 23.9998C0 30.1472 2.31225 35.7536 6.11316 39.9998L24 41.7389L41.8868 39.9998Z" fill="#FFDA44"/>
<path d="M6.11328 7.99997H41.8869C37.4923 3.09056 31.1075 0 24 0C16.8926 0 10.5077 3.09056 6.11328 7.99997Z" fill="black"/>
<path d="M0 24L24 26.0869L48 24C48 21.1946 47.5171 18.5023 46.6324 15.9999H1.36762C0.482906 18.5023 0 21.1946 0 24Z" fill="#D80027"/>
<path d="M1.36762 32H46.6326C47.5171 29.4976 48 26.8054 48 24H0C0 26.8054 0.482906 29.4976 1.36762 32Z" fill="black"/>
<path d="M41.887 39.9999H6.11328C10.5077 44.9094 16.8926 48 24.0001 48C31.1077 48 37.4925 44.9094 41.887 39.9999Z" fill="#D80027"/>
<path d="M32.0086 23.9998C32.0086 28.4232 28.4233 32.0085 23.9999 32.0085C19.5765 32.0085 15.9912 28.4232 15.9912 23.9998C15.9912 19.5764 19.5765 15.9911 23.9999 15.9911C28.4233 15.9911 32.0086 19.5764 32.0086 23.9998Z" fill="#F0F0F0"/>
<path d="M26.9337 24.4086L23.9998 23.1373C23.9998 23.1373 24.6862 20.8589 24.7228 20.703C24.7495 20.5891 24.7638 20.4703 24.7638 20.3482C24.7638 19.9159 24.5886 19.5246 24.3052 19.2415L25.0431 18.5037C24.571 18.0317 23.9188 17.7396 23.1984 17.7396C22.4781 17.7396 21.8258 18.0316 21.3538 18.5037L22.0916 19.2415C21.8083 19.5247 21.6332 19.916 21.6332 20.3482C21.6332 20.5063 21.6571 20.6586 21.7007 20.8025L20.5898 21.9133H22.6088C22.6088 21.9133 21.7741 23.1671 21.3184 24.1967C20.8627 25.2263 21.3247 26.4832 22.3778 26.9514L22.9868 27.2221L23.9998 28.1742V29.2176L22.9564 30.2611H25.0433V28.1741L25.9956 27.2219H27.965C27.9745 27.2023 27.9845 27.1832 27.9935 27.1631C28.4614 26.11 27.987 24.8766 26.9337 24.4086Z" fill="black"/>
</svg>
