<svg width="48" height="48" viewBox="0 0 48 48" fill="none" xmlns="http://www.w3.org/2000/svg">
<path d="M24 48C37.2548 48 48 37.2548 48 24C48 10.7452 37.2548 0 24 0C10.7452 0 0 10.7452 0 24C0 37.2548 10.7452 48 24 48Z" fill="#F0F0F0"/>
<path d="M4.96113 9.3877C3.07591 11.8405 1.65438 14.6675 0.82666 17.7387H13.3121L4.96113 9.3877Z" fill="#0052B4"/>
<path d="M47.1732 17.7387C46.3455 14.6676 44.9239 11.8406 43.0388 9.38782L34.688 17.7387H47.1732Z" fill="#0052B4"/>
<path d="M0.82666 30.2607C1.65447 33.3318 3.076 36.1588 4.96113 38.6115L13.3118 30.2607H0.82666Z" fill="#0052B4"/>
<path d="M38.6116 4.96098C36.1588 3.07576 33.3319 1.65423 30.2607 0.826416V13.3118L38.6116 4.96098Z" fill="#0052B4"/>
<path d="M9.38818 43.0387C11.841 44.9239 14.668 46.3454 17.7391 47.1732V34.688L9.38818 43.0387Z" fill="#0052B4"/>
<path d="M17.739 0.826416C14.6679 1.65423 11.8409 3.07576 9.38818 4.96088L17.739 13.3117V0.826416Z" fill="#0052B4"/>
<path d="M30.2607 47.1732C33.3318 46.3454 36.1588 44.9239 38.6115 43.0388L30.2607 34.688V47.1732Z" fill="#0052B4"/>
<path d="M34.688 30.2607L43.0388 38.6116C44.9239 36.1589 46.3455 33.3318 47.1732 30.2607H34.688Z" fill="#0052B4"/>
<path d="M47.7968 20.8696H27.1306H27.1305V0.203156C26.1057 0.06975 25.061 0 24 0C22.9388 0 21.8943 0.06975 20.8696 0.203156V20.8694V20.8695H0.203156C0.06975 21.8943 0 22.939 0 24C0 25.0612 0.06975 26.1057 0.203156 27.1304H20.8694H20.8695V47.7968C21.8943 47.9303 22.9388 48 24 48C25.061 48 26.1057 47.9303 27.1304 47.7968V27.1306V27.1305H47.7968C47.9303 26.1057 48 25.0612 48 24C48 22.939 47.9303 21.8943 47.7968 20.8696Z" fill="#D80027"/>
<path d="M30.2607 30.2608L40.9704 40.9705C41.4629 40.4781 41.9328 39.9633 42.3811 39.4297L33.2122 30.2607H30.2607V30.2608Z" fill="#D80027"/>
<path d="M17.739 30.2609H17.7388L7.0293 40.9704C7.52167 41.463 8.03645 41.9328 8.57008 42.3811L17.739 33.212V30.2609Z" fill="#D80027"/>
<path d="M17.739 17.7388V17.7387L7.0294 7.02893C6.53684 7.52131 6.06696 8.03609 5.61865 8.56971L14.7877 17.7387H17.739V17.7388Z" fill="#D80027"/>
<path d="M30.2607 17.7396L40.9705 7.0298C40.4781 6.53723 39.9633 6.06736 39.4297 5.61914L30.2607 14.7882V17.7396V17.7396Z" fill="#D80027"/>
</svg>
