<svg width="48" height="48" viewBox="0 0 48 48" fill="none" xmlns="http://www.w3.org/2000/svg">
<g clip-path="url(#clip0_25539_385035)">
<path d="M24 48C37.2548 48 48 37.2548 48 24C48 10.7452 37.2548 0 24 0C10.7452 0 0 10.7452 0 24C0 37.2548 10.7452 48 24 48Z" fill="#F0F0F0"/>
<path d="M7.02942 40.9702C-2.34314 31.5975 -2.34314 16.4016 7.02942 7.02893C7.02877 7.02996 20.8696 23.9996 20.8696 23.9996L7.02942 40.9702Z" fill="black"/>
<path d="M20.8697 24.0002L3.18325 12.0483C2.6349 13.0015 2.15134 13.9964 1.73584 15.0261L10.6898 24.0003L1.73612 32.975C2.15125 34.004 2.63434 34.9982 3.18231 35.9507L20.8697 24.0002Z" fill="#FFDA44"/>
<path d="M47.7968 20.8693H20.8689L7.02916 7.02942C5.53778 8.52079 4.24207 10.2075 3.18307 12.0479L15.1117 23.9997L3.18213 35.95C4.24113 37.7909 5.53741 39.4781 7.02916 40.9698L20.8689 27.1301H47.7968C47.9302 26.1054 48 25.0606 48 23.9997C48 22.9387 47.9302 21.894 47.7968 20.8693Z" fill="#6DA544"/>
<path d="M9.38818 43.0383C13.4353 46.1491 18.5012 47.9998 24.0002 47.9998C35.0889 47.9998 44.4195 40.4791 47.1735 30.2607H22.1658L9.38818 43.0383Z" fill="#0052B4"/>
<path d="M47.1735 17.7391C44.4195 7.52072 35.0889 0 24.0002 0C18.5012 0 13.4353 1.85072 9.38818 4.96153L22.1657 17.7391H47.1735Z" fill="#D80027"/>
</g>
<defs>
<clipPath id="clip0_25539_385035">
<rect width="48" height="48" fill="white"/>
</clipPath>
</defs>
</svg>
