<svg width="26" height="26" viewBox="0 0 26 26" fill="none" xmlns="http://www.w3.org/2000/svg">
<g clip-path="url(#clip0_173:5323)">
<path d="M11.8005 10.6729L8.2703 14.2031C8.24651 14.2269 8.22582 14.2536 8.20874 14.2826L4.97185 19.7749C4.76281 20.1296 5.16308 20.5299 5.51778 20.3209L11.0101 17.084C11.0391 17.0669 11.0658 17.0462 11.0896 17.0224L14.6199 13.4922" stroke="white" stroke-width="0.927319"/>
<path fill-rule="evenodd" clip-rule="evenodd" d="M19.1306 7.85378L19.9767 7.0077C20.4438 6.54058 20.4438 5.78322 19.9767 5.3161C19.5095 4.84898 18.7522 4.84898 18.2851 5.3161L16.3115 7.28963L16.3119 7.28996L15.1841 8.41769L15.1838 8.41736L14.0561 7.28963L15.1838 6.1619L17.1573 4.18837C18.2473 3.09842 20.0144 3.09842 21.1044 4.18837C22.1943 5.27832 22.1943 7.04548 21.1044 8.13543L19.1309 10.109L18.0031 11.2367L16.8757 10.1093L19.1309 7.8541L19.1306 7.85378Z" fill="white"/>
<path fill-rule="evenodd" clip-rule="evenodd" d="M15.7476 7.85388L15.9997 7.09761L5.85014 3.71442L5.38259 3.55857L5.0341 3.90706L3.34251 5.59866L2.6337 6.30746L3.48374 6.83874L11.6554 11.9461L12.8128 10.7887L5.17904 6.01758L5.81334 5.38328L15.117 8.4845L15.7476 7.85388ZM13.3471 13.6376L18.4544 21.8094L18.9857 22.6594L19.6945 21.9506L21.3861 20.259L21.7346 19.9106L21.5787 19.443L18.1955 9.29343L17.4391 9.54556L16.8086 10.1761L19.9099 19.4798L19.2756 20.1141L14.5044 12.4803L13.3471 13.6376Z" fill="white"/>
<path d="M15.7476 7.85388L15.9116 8.01781L15.9502 7.97911L15.9676 7.9272L15.7476 7.85388ZM15.9997 7.09761L16.2196 7.17092L16.293 6.95099L16.073 6.87768L15.9997 7.09761ZM5.85014 3.71442L5.92345 3.49449L5.92345 3.49449L5.85014 3.71442ZM5.38259 3.55857L5.4559 3.33864L5.31997 3.29333L5.21866 3.39464L5.38259 3.55857ZM5.0341 3.90706L5.19803 4.07099L5.0341 3.90706ZM2.6337 6.30746L2.46977 6.14354L2.2637 6.3496L2.51083 6.50406L2.6337 6.30746ZM3.48374 6.83874L3.60661 6.64215L3.60661 6.64215L3.48374 6.83874ZM11.6554 11.9461L11.5326 12.1426L11.689 12.2404L11.8194 12.11L11.6554 11.9461ZM12.8128 10.7887L12.9767 10.9526L13.1828 10.7466L12.9357 10.5921L12.8128 10.7887ZM5.17904 6.01758L5.01512 5.85365L4.80905 6.05972L5.05617 6.21417L5.17904 6.01758ZM5.81334 5.38328L5.88666 5.16335L5.75073 5.11804L5.64942 5.21935L5.81334 5.38328ZM15.117 8.4845L15.0437 8.70443L15.1796 8.74974L15.2809 8.64843L15.117 8.4845ZM18.4544 21.8094L18.651 21.6865L18.4544 21.8094ZM13.3471 13.6376L13.1831 13.4737L13.0527 13.6041L13.1505 13.7605L13.3471 13.6376ZM18.9857 22.6594L18.7891 22.7823L18.9435 23.0294L19.1496 22.8234L18.9857 22.6594ZM21.3861 20.259L21.2222 20.0951L21.3861 20.259ZM21.7346 19.9106L21.8985 20.0745L21.9998 19.9732L21.9545 19.8372L21.7346 19.9106ZM21.5787 19.443L21.3588 19.5163L21.5787 19.443ZM18.1955 9.29343L18.4155 9.22012L18.3421 9.00018L18.1222 9.0735L18.1955 9.29343ZM17.4391 9.54556L17.3658 9.32562L17.3139 9.34293L17.2752 9.38163L17.4391 9.54556ZM16.8086 10.1761L16.6447 10.0121L16.5434 10.1135L16.5887 10.2494L16.8086 10.1761ZM19.9099 19.4798L20.0738 19.6437L20.1751 19.5424L20.1298 19.4065L19.9099 19.4798ZM19.2756 20.1141L19.079 20.237L19.2334 20.4841L19.4395 20.278L19.2756 20.1141ZM14.5044 12.4803L14.701 12.3574L14.5466 12.1103L14.3405 12.3163L14.5044 12.4803ZM15.9676 7.9272L16.2196 7.17092L15.7798 7.0243L15.5277 7.78057L15.9676 7.9272ZM16.073 6.87768L5.92345 3.49449L5.77682 3.93435L15.9264 7.31755L16.073 6.87768ZM5.92345 3.49449L5.4559 3.33864L5.30928 3.77851L5.77682 3.93435L5.92345 3.49449ZM5.21866 3.39464L4.87017 3.74313L5.19803 4.07099L5.54652 3.7225L5.21866 3.39464ZM4.87017 3.74313L3.17858 5.43473L3.50643 5.76258L5.19803 4.07099L4.87017 3.74313ZM3.17858 5.43473L2.46977 6.14354L2.79763 6.47139L3.50643 5.76258L3.17858 5.43473ZM2.51083 6.50406L3.36087 7.03533L3.60661 6.64215L2.75657 6.11087L2.51083 6.50406ZM3.36087 7.03533L11.5326 12.1426L11.7783 11.7495L3.60661 6.64215L3.36087 7.03533ZM11.8194 12.11L12.9767 10.9526L12.6489 10.6248L11.4915 11.7821L11.8194 12.11ZM12.9357 10.5921L5.30191 5.82099L5.05617 6.21417L12.6899 10.9853L12.9357 10.5921ZM5.34297 6.18151L5.97727 5.54721L5.64942 5.21935L5.01512 5.85365L5.34297 6.18151ZM5.74003 5.60321L15.0437 8.70443L15.1903 8.26457L5.88666 5.16335L5.74003 5.60321ZM15.2809 8.64843L15.9116 8.01781L15.5837 7.68996L14.9531 8.32057L15.2809 8.64843ZM18.651 21.6865L13.5436 13.5148L13.1505 13.7605L18.2578 21.9323L18.651 21.6865ZM19.1823 22.5366L18.651 21.6865L18.2578 21.9323L18.7891 22.7823L19.1823 22.5366ZM19.5306 21.7867L18.8217 22.4955L19.1496 22.8234L19.8584 22.1146L19.5306 21.7867ZM21.2222 20.0951L19.5306 21.7867L19.8584 22.1146L21.55 20.423L21.2222 20.0951ZM21.5706 19.7466L21.2222 20.0951L21.55 20.423L21.8985 20.0745L21.5706 19.7466ZM21.3588 19.5163L21.5146 19.9839L21.9545 19.8372L21.7987 19.3697L21.3588 19.5163ZM17.9756 9.36674L21.3588 19.5163L21.7987 19.3697L18.4155 9.22012L17.9756 9.36674ZM17.5125 9.76549L18.2688 9.51336L18.1222 9.0735L17.3658 9.32562L17.5125 9.76549ZM17.2752 9.38163L16.6447 10.0121L16.9726 10.34L17.6031 9.70949L17.2752 9.38163ZM20.1298 19.4065L17.0286 10.1028L16.5887 10.2494L19.6899 19.5531L20.1298 19.4065ZM19.4395 20.278L20.0738 19.6437L19.7459 19.3159L19.1116 19.9502L19.4395 20.278ZM14.3078 12.6031L19.079 20.237L19.4722 19.9912L14.701 12.3574L14.3078 12.6031ZM14.3405 12.3163L13.1831 13.4737L13.511 13.8016L14.6684 12.6442L14.3405 12.3163Z" fill="#A33629"/>
<line x1="2.32777" y1="17.6059" x2="5.40879" y2="18.4314" stroke="white" stroke-width="0.927319"/>
<line x1="6.86168" y1="19.8844" x2="7.68724" y2="22.9654" stroke="white" stroke-width="0.927319"/>
</g>
<defs>
<clipPath id="clip0_173:5323">
<rect width="25.5176" height="25.5176" fill="white"/>
</clipPath>
</defs>
</svg>
