<svg width="22" height="11" viewBox="0 0 22 11" fill="none" xmlns="http://www.w3.org/2000/svg">
<path fill-rule="evenodd" clip-rule="evenodd" d="M1 5.58718C1 5.18718 1.32428 4.8629 1.72428 4.8629L19.2899 4.8629L16.6635 2.23647C16.3806 1.95361 16.3806 1.495 16.6635 1.21214C16.9463 0.929287 17.4048 0.929287 17.6877 1.21214L21.5505 5.07507C21.6864 5.21084 21.7627 5.3951 21.7627 5.58718C21.7627 5.77926 21.6864 5.96351 21.5505 6.09929L17.6877 9.96212C17.4048 10.245 16.9463 10.245 16.6635 9.96212C16.3806 9.67926 16.3806 9.22065 16.6635 8.93779L19.2898 6.31146L1.72428 6.31146C1.32428 6.31146 1 5.98717 1 5.58718Z" fill="white" stroke="#A32A29" stroke-width="0.3"/>
</svg>
