<svg width="10" height="102" viewBox="0 0 10 102" fill="none" xmlns="http://www.w3.org/2000/svg">
<circle cx="4" cy="4" r="4" fill="#A42A29"/>
<line x1="4.5" y1="4" x2="4.5" y2="90" stroke="#A32A29"/>
<path d="M4.56879 89.3759C2.07667 89.3929 0.0781853 91.2599 0.0628777 93.5347C0.04757 95.8094 4.58423 101.854 4.58423 101.854C4.58423 101.854 9.06435 95.8212 9.04586 93.5317C9.0772 91.226 7.06091 89.359 4.56879 89.3759ZM4.58556 95.2768C3.43112 95.2682 2.45851 94.4262 2.48393 93.3346C2.49333 92.2741 3.40984 91.3806 4.59807 91.4039C5.7863 91.4273 6.72512 92.2545 6.6997 93.3461C6.69031 94.4067 5.74001 95.2855 4.58556 95.2768Z" fill="#A42A29"/>
</svg>
