<svg width="22" height="20" viewBox="0 0 22 20" fill="none" xmlns="http://www.w3.org/2000/svg">
<path fill-rule="evenodd" clip-rule="evenodd" d="M0.237304 5.58718C0.237305 5.18718 0.561589 4.8629 0.961584 4.8629L18.5272 4.8629L15.9008 2.23647C15.6179 1.95361 15.6179 1.495 15.9008 1.21214C16.1836 0.929287 16.6421 0.929287 16.925 1.21214L20.7878 5.07507C20.9237 5.21084 21 5.3951 21 5.58718C21 5.77926 20.9237 5.96351 20.7878 6.09929L16.925 9.96212C16.6421 10.245 16.1836 10.245 15.9008 9.96212C15.6179 9.67926 15.6179 9.22065 15.9008 8.93779L18.5271 6.31146L0.961584 6.31146C0.561589 6.31146 0.237304 5.98717 0.237304 5.58718ZM0.237304 15.2442C0.237304 15.0522 0.313595 14.8679 0.44947 14.7321L4.3123 10.8693C4.59515 10.5864 5.05367 10.5864 5.33652 10.8693C5.61938 11.1522 5.61938 11.6108 5.33652 11.8936L2.71019 14.52L20.2757 14.52C20.6757 14.52 21 14.8442 21 15.2442C21 15.6442 20.6757 15.9685 20.2757 15.9685L2.71009 15.9685L5.33652 18.595C5.61938 18.8778 5.61938 19.3364 5.33652 19.6193C5.05367 19.9021 4.59515 19.9021 4.3123 19.6193L0.44947 15.7564C0.313595 15.6206 0.237304 15.4363 0.237304 15.2442Z" fill="white" stroke="white" stroke-width="0.3"/>
</svg>
