<svg width="19" height="19" viewBox="0 0 19 19" fill="none" xmlns="http://www.w3.org/2000/svg">
<path d="M18.8519 10.3642C18.9461 10.1417 18.9963 9.90367 18.9997 9.66282C19.0042 9.42193 18.9612 9.18244 18.8731 8.95746C18.5729 8.19407 17.808 7.70336 16.9726 7.73824L12.9834 7.9099L12.4852 6.90065C12.8477 6.90108 13.1446 6.61906 13.1549 6.26461L13.1706 5.37385C13.1732 5.18604 13.0932 5.0062 12.9509 4.88006C12.8066 4.75182 12.6122 4.69155 12.4187 4.71503L11.4776 4.83339L9.45445 0.765857C9.23085 0.320176 8.76874 0.0365785 8.2612 0.0335638L7.22541 0.00013177C7.12321 -0.00270304 7.0253 0.0403285 6.9596 0.116953C6.89389 0.193577 6.86762 0.295382 6.88826 0.393329L8.66039 8.09295L3.81411 8.30318L1.91752 5.57049C1.73396 5.30572 1.43002 5.14503 1.10301 5.13988L0.45241 5.13745C0.34109 5.13529 0.235968 5.18745 0.171985 5.27658C0.108002 5.36571 0.0935435 5.48013 0.133414 5.58182L1.24978 8.43519C0.966787 8.49895 0.725899 8.67949 0.589326 8.93018L0.569776 8.97156C0.433307 9.2397 0.429445 9.55411 0.559289 9.82537L0.582595 9.84885C0.709426 10.1055 0.944011 10.2955 1.2254 10.3696L0.0260947 13.1826C-0.0169501 13.2829 -0.00626198 13.3975 0.0546103 13.4885L0.0988921 13.5331C0.160476 13.5959 0.245065 13.6321 0.333978 13.6337L0.986842 13.6431C1.30583 13.6484 1.60837 13.505 1.80182 13.2568L3.77023 10.589L8.61529 10.9319L6.61457 18.5749C6.58933 18.6714 6.61043 18.7739 6.67189 18.8534L6.69986 18.8816C6.76144 18.9443 6.84603 18.9805 6.93494 18.9822L7.98753 18.9996C8.49494 19.0112 8.96539 18.7411 9.20231 18.302L11.3285 14.2711L12.2868 14.4238C12.4773 14.452 12.671 14.3984 12.8182 14.2769C12.9655 14.1554 13.0521 13.9776 13.0558 13.7892L13.0691 12.9053C13.0717 12.7175 12.9917 12.5377 12.8494 12.4115C12.7318 12.309 12.5811 12.2502 12.4236 12.2457L12.952 11.2512L16.9154 11.5374C16.9586 11.5427 17.002 11.5456 17.0454 11.5463C17.8376 11.5491 18.5522 11.0815 18.8519 10.3642Z" fill="white"/>
</svg>
