<svg width="22" height="21" viewBox="0 0 22 21" fill="none" xmlns="http://www.w3.org/2000/svg">
<path d="M21.0992 1.7002C20.9992 1.4002 20.7992 1.1002 20.5992 0.900195C20.3992 0.700195 20.0992 0.500195 19.7992 0.400195C18.7992 0.000195339 17.6992 0.200195 16.8992 1.0002L13.7992 4.5002L12.7992 4.2002C12.9992 3.80019 12.9992 3.4002 12.6992 3.0002L11.8992 2.2002C11.6992 2.1002 11.3992 2.0002 11.0992 2.0002C10.7992 2.0002 10.5992 2.20019 10.3992 2.40019L9.79922 3.2002L4.59922 1.5002C3.99922 1.3002 3.29922 1.4002 2.79922 1.9002L1.89922 2.8002C1.79922 2.9002 1.69922 3.1002 1.69922 3.2002C1.69922 3.4002 1.79922 3.5002 1.99922 3.6002L10.1992 8.6002L6.49922 12.8002L2.59922 12.1002C2.19922 12.0002 1.69922 12.2002 1.39922 12.5002L0.899219 13.1002C0.799219 13.2002 0.699219 13.4002 0.699219 13.6002C0.699219 13.8002 0.899219 13.9002 0.999219 14.0002L4.29922 15.4002C4.19922 15.7002 4.09922 16.1002 4.29922 16.4002C4.39922 16.8002 4.69922 17.1002 5.09922 17.2002H5.19922C5.49922 17.3002 5.89922 17.3002 6.19922 17.1002L7.59922 20.4002C7.69922 20.6002 7.79922 20.7002 7.99922 20.7002C8.09922 20.7002 8.29922 20.6002 8.39922 20.5002L8.99922 19.9002C9.29922 19.6002 9.49922 19.2002 9.39922 18.7002L8.69922 14.8002L12.8992 11.1002L17.8992 19.3002C17.9992 19.4002 18.0992 19.5002 18.2992 19.6002C18.3992 19.6002 18.5992 19.5002 18.6992 19.4002L19.5992 18.5002C20.0992 18.0002 20.2992 17.3002 19.9992 16.7002L18.1992 11.5002L19.0992 10.9002C19.2992 10.7002 19.4992 10.5002 19.4992 10.2002C19.4992 9.9002 19.3992 9.7002 19.1992 9.5002L18.3992 8.7002C18.1992 8.5002 17.8992 8.4002 17.6992 8.4002C17.5992 8.4002 17.3992 8.5002 17.2992 8.5002L16.9992 7.5002L20.4992 4.40019L20.5992 4.3002C21.2992 3.7002 21.4992 2.60019 21.0992 1.7002ZM7.69922 15.9002L8.29922 19.2002C8.29922 19.3002 8.29922 19.3002 8.19922 19.4002L6.99922 16.6002L7.69922 15.9002ZM10.8992 3.6002L11.1992 3.2002L11.6992 3.7002L11.5992 3.8002L10.8992 3.6002ZM4.19922 2.5002L12.9992 5.40019L10.8992 7.8002L3.19922 3.1002L3.59922 2.7002C3.69922 2.5002 3.99922 2.5002 4.19922 2.5002ZM20.1992 2.6002C20.1992 3.0002 20.0992 3.3002 19.7992 3.6002V3.7002L5.69922 16.2002C5.59922 16.3002 5.49922 16.3002 5.39922 16.3002H5.29922C5.19922 16.3002 5.19922 16.2002 5.19922 16.2002V16.1002C5.19922 16.0002 5.19922 15.9002 5.29922 15.9002L17.7992 1.7002C18.0992 1.4002 18.3992 1.2002 18.7992 1.2002C19.0992 1.2002 19.4992 1.3002 19.6992 1.5002L19.7992 1.6002C20.0992 1.9002 20.1992 2.3002 20.1992 2.6002ZM5.59922 13.9002L4.99922 14.6002L2.19922 13.4002C2.29922 13.4002 2.29922 13.3002 2.39922 13.4002L5.59922 13.9002ZM16.0992 8.5002L18.9992 17.3002C19.0992 17.5002 18.9992 17.8002 18.7992 18.0002L18.3992 18.4002L13.6992 10.7002L16.0992 8.5002ZM17.6992 9.9002L17.7992 9.8002L18.2992 10.3002L17.8992 10.6002L17.6992 9.9002Z" fill="#A32A29"/>
</svg>
