<svg width="173" height="13" viewBox="0 0 173 13" fill="none" xmlns="http://www.w3.org/2000/svg">
<path d="M11.7685 0.000114908C9.38666 0.0170947 7.47658 1.88413 7.46195 4.15885C7.44732 6.43358 11.7833 12.4785 11.7833 12.4785C11.7833 12.4785 16.0652 6.44535 16.0476 4.15591C16.0775 1.85014 14.1504 -0.0168649 11.7685 0.000114908ZM11.7846 5.90103C10.6812 5.89239 9.75161 5.05042 9.77591 3.95882C9.78489 2.89826 10.6609 2.00475 11.7965 2.0281C12.9322 2.05146 13.8295 2.87871 13.8052 3.97031C13.7962 5.03087 12.8879 5.90966 11.7846 5.90103Z" fill="#A42A29"/>
<line y1="-0.5" x2="141.491" y2="-0.5" transform="matrix(-1 -0.00028652 0.000310122 -1 157 6)" stroke="#C0C0C0" stroke-dasharray="5 5"/>
<path d="M107.419 7.09131C107.486 6.93905 107.522 6.77619 107.525 6.6114C107.528 6.44658 107.497 6.28272 107.434 6.12879C107.221 5.60647 106.676 5.27072 106.082 5.29459L103.242 5.41204L102.887 4.7215C103.145 4.72179 103.357 4.52883 103.364 4.28631L103.375 3.67684C103.377 3.54835 103.32 3.42529 103.219 3.33899C103.116 3.25125 102.978 3.21001 102.84 3.22607L102.17 3.30705L100.73 0.524007C100.571 0.219068 100.242 0.0250274 99.8806 0.0229647L99.1433 9.01586e-05C99.0705 -0.00184945 99.0008 0.0275932 98.9541 0.0800203C98.9073 0.132447 98.8886 0.202103 98.9033 0.26912L100.165 5.53728L96.715 5.68112L95.365 3.81139C95.2343 3.63023 95.0179 3.52029 94.7852 3.51676L94.322 3.5151C94.2428 3.51362 94.168 3.54931 94.1224 3.61029C94.0769 3.67127 94.0666 3.74957 94.095 3.81914L94.8896 5.77144C94.6882 5.81507 94.5167 5.9386 94.4195 6.11013L94.4056 6.13844C94.3084 6.3219 94.3057 6.53702 94.3981 6.72262L94.4147 6.73869C94.505 6.91426 94.672 7.04428 94.8723 7.09496L94.0186 9.0197C93.9879 9.0883 93.9955 9.16673 94.0389 9.22899L94.0704 9.25951C94.1142 9.30245 94.1744 9.32721 94.2377 9.32833L94.7025 9.33477C94.9295 9.33835 95.1449 9.24023 95.2826 9.07045L96.6838 7.24513L100.133 7.47972L98.7085 12.7091C98.6905 12.7752 98.7055 12.8453 98.7493 12.8997L98.7692 12.919C98.813 12.9619 98.8732 12.9867 98.9365 12.9878L99.6858 12.9998C100.047 13.0077 100.382 12.8228 100.551 12.5224L102.064 9.76445L102.746 9.8689C102.882 9.88818 103.02 9.85155 103.124 9.7684C103.229 9.68524 103.291 9.56363 103.294 9.4347L103.303 8.82995C103.305 8.70145 103.248 8.5784 103.147 8.4921C103.063 8.42192 102.956 8.38175 102.844 8.37864L103.22 7.69822L106.041 7.89404C106.072 7.89761 106.103 7.89963 106.134 7.90007C106.697 7.90201 107.206 7.58206 107.419 7.09131Z" fill="#A32A29"/>
<circle cx="161.538" cy="6.23926" r="4" fill="#A42A29"/>
</svg>
