<svg width="22" height="20" viewBox="0 0 22 20" fill="none" xmlns="http://www.w3.org/2000/svg">
<path fill-rule="evenodd" clip-rule="evenodd" d="M1 5.58718C1 5.18718 1.32428 4.8629 1.72428 4.8629L19.2899 4.8629L16.6635 2.23647C16.3806 1.95361 16.3806 1.495 16.6635 1.21214C16.9463 0.929287 17.4048 0.929287 17.6877 1.21214L21.5505 5.07507C21.6864 5.21084 21.7627 5.3951 21.7627 5.58718C21.7627 5.77926 21.6864 5.96351 21.5505 6.09929L17.6877 9.96212C17.4048 10.245 16.9463 10.245 16.6635 9.96212C16.3806 9.67926 16.3806 9.22065 16.6635 8.93779L19.2898 6.31146L1.72428 6.31146C1.32428 6.31146 1 5.98717 1 5.58718ZM0.999999 15.2442C0.999999 15.0522 1.07629 14.8679 1.21217 14.7321L5.07499 10.8693C5.35785 10.5864 5.81636 10.5864 6.09922 10.8693C6.38207 11.1522 6.38207 11.6108 6.09922 11.8936L3.47288 14.52L21.0384 14.52C21.4384 14.52 21.7627 14.8442 21.7627 15.2442C21.7627 15.6442 21.4384 15.9685 21.0384 15.9685L3.47279 15.9685L6.09922 18.595C6.38207 18.8778 6.38207 19.3364 6.09922 19.6193C5.81636 19.9021 5.35785 19.9021 5.07499 19.6193L1.21217 15.7564C1.07629 15.6206 0.999999 15.4363 0.999999 15.2442Z" fill="white" stroke="#A32A29" stroke-width="0.3"/>
</svg>
