<?xml version="1.0" standalone="no"?>
<!DOCTYPE svg PUBLIC "-//W3C//DTD SVG 20010904//EN"
 "http://www.w3.org/TR/2001/REC-SVG-20010904/DTD/svg10.dtd">
<svg version="1.0" xmlns="http://www.w3.org/2000/svg"
 width="64.000000pt" height="48.000000pt" viewBox="0 0 64.000000 48.000000"
 preserveAspectRatio="xMidYMid meet">
<metadata>
Created by potrace 1.16, written by Peter Selinger 2001-2019
</metadata>
<g transform="translate(0.000000,48.000000) scale(0.003071,-0.002303)"
fill="#000000" stroke="none">
<path d="M7754 11881 c-71 -17 -120 -64 -152 -144 -15 -38 -17 -137 -20 -1122
-2 -636 1 -1112 7 -1158 12 -104 43 -163 105 -201 42 -26 56 -30 124 -30 90 1
145 24 186 77 54 70 56 89 56 486 1 555 14 701 76 807 36 61 126 141 191 172
77 35 206 43 283 17 97 -32 143 -92 182 -233 20 -72 22 -110 27 -622 l6 -545
31 -55 c43 -76 99 -105 200 -104 112 1 183 51 219 155 22 60 21 1184 0 1304
-41 232 -216 418 -443 471 -105 25 -323 15 -420 -19 -101 -35 -171 -79 -262
-164 -43 -40 -80 -73 -83 -73 -4 0 -7 186 -9 413 -3 404 -3 413 -25 454 -52
97 -162 142 -279 114z"/>
<path d="M12247 11877 c-52 -17 -103 -60 -130 -110 l-22 -42 0 -1165 0 -1165
31 -55 c21 -38 46 -64 78 -84 41 -26 56 -29 121 -29 65 0 80 3 122 29 64 40
102 102 114 191 6 42 9 497 7 1159 l-3 1089 -23 50 c-28 61 -55 91 -106 117
-48 25 -138 32 -189 15z"/>
<path d="M14618 11876 c-62 -23 -86 -44 -115 -99 l-28 -52 -3 -417 c-2 -230
-4 -418 -5 -418 -2 0 -30 25 -62 56 -170 157 -336 224 -558 224 -231 0 -402
-65 -546 -209 -163 -162 -243 -369 -257 -666 -24 -490 170 -875 512 -1018 89
-37 167 -51 289 -49 222 2 387 75 555 246 30 31 58 56 62 56 4 0 8 -25 8 -56
0 -85 18 -133 71 -185 36 -37 57 -49 99 -58 130 -28 243 44 270 172 7 36 10
404 8 1182 l-3 1130 -28 58 c-22 43 -39 63 -73 83 -54 32 -142 41 -196 20z
m-513 -1083 c147 -51 261 -191 312 -383 24 -90 24 -327 -1 -425 -40 -162 -139
-295 -263 -352 -77 -36 -214 -44 -294 -18 -154 50 -259 173 -311 364 -17 60
-21 105 -21 221 0 163 18 255 74 367 97 199 310 294 504 226z"/>
<path d="M10600 11174 c-14 -2 -58 -9 -98 -15 -167 -25 -333 -104 -456 -219
-105 -98 -196 -261 -243 -435 -24 -91 -26 -117 -27 -295 -1 -201 5 -252 46
-380 71 -221 222 -401 420 -499 120 -59 227 -87 389 -101 221 -20 419 14 594
100 118 58 207 128 262 207 55 79 73 125 73 192 0 102 -54 151 -168 151 -68 0
-72 -2 -223 -138 -145 -132 -248 -183 -392 -198 -133 -13 -287 44 -373 139
-77 86 -143 252 -144 364 l0 32 548 4 c453 3 556 6 597 19 144 44 185 105 185
278 -1 376 -269 694 -654 776 -70 15 -288 27 -336 18z m265 -364 c137 -53 244
-223 257 -410 l3 -45 -434 -3 -433 -2 7 45 c20 140 64 243 132 316 94 101 168
130 313 125 69 -2 111 -9 155 -26z"/>
<path d="M16185 11169 c-507 -64 -807 -459 -781 -1029 12 -279 89 -479 244
-643 154 -161 341 -243 612 -267 278 -25 531 36 726 175 125 90 209 222 208
326 -1 102 -54 149 -166 149 -75 0 -73 1 -206 -122 -41 -37 -107 -90 -148
-118 -267 -178 -588 -105 -718 162 -33 68 -66 195 -66 253 l0 25 499 0 c304 0
530 4 578 11 139 19 219 71 242 156 16 57 13 214 -5 296 -20 90 -87 233 -147
314 -52 70 -145 151 -238 206 -159 94 -403 135 -634 106z m316 -361 c68 -31
132 -87 171 -148 36 -57 75 -179 80 -250 l3 -55 -430 0 -430 0 3 40 c3 53 38
168 69 228 31 62 95 131 150 164 74 43 120 53 228 50 83 -2 110 -7 156 -29z"/>
<path d="M17838 11150 c-46 -25 -85 -75 -106 -137 -14 -42 -17 -136 -20 -763
-2 -473 0 -742 7 -795 14 -99 47 -157 114 -199 40 -24 58 -29 115 -29 80 0
126 17 175 68 61 63 67 96 67 384 1 721 51 966 215 1050 70 36 194 35 314 -3
114 -35 165 -34 224 5 110 73 118 237 15 324 -43 37 -158 90 -229 105 -33 7
-98 11 -160 8 -88 -3 -112 -8 -154 -30 -57 -30 -135 -107 -193 -190 l-39 -57
-16 81 c-29 146 -87 198 -219 198 -52 -1 -83 -6 -110 -20z"/>
</g>
</svg>
