<svg xmlns="http://www.w3.org/2000/svg" width="32" height="32" fill="none" viewBox="0 0 32 32">
    <path stroke="#fff" stroke-width="1.5" d="M16 25.75c5.385 0 9.75-4.365 9.75-9.75S21.385 6.25 16 6.25 6.25 10.615 6.25 16s4.365 9.75 9.75 9.75z"/>
    <path stroke="#fff" stroke-linecap="round" stroke-width="1.5" d="M16 17c0-1.333.302-1.795 1-2.333.698-.538 1-1.09 1-1.667 0-1.105-.895-2-2-2s-2 .895-2 2"/>
    <path fill="#fff" fill-rule="evenodd" d="M16 21.5c.552 0 1-.448 1-1s-.448-1-1-1-1 .448-1 1 .448 1 1 1z" clip-rule="evenodd"/>
</svg>
