<svg width="32" height="32" viewBox="0 0 32 32" fill="none" xmlns="http://www.w3.org/2000/svg">
<path d="M16 27C22.0751 27 27 22.0751 27 16C27 9.92487 22.0751 5 16 5C9.92487 5 5 9.92487 5 16C5 22.0751 9.92487 27 16 27Z" stroke="#221F1F" stroke-width="2" stroke-miterlimit="10" stroke-linecap="square"/>
<path fill-rule="evenodd" clip-rule="evenodd" d="M15.0809 11.2237C15.4065 11.0552 15.7722 10.9795 16.1379 11.0048C16.5037 11.0301 16.8555 11.1554 17.1549 11.3671C17.4542 11.5788 17.6896 11.8688 17.8353 12.2052C17.981 12.5417 18.0314 12.9117 17.981 13.2749C17.9306 13.638 17.7814 13.9804 17.5496 14.2644C17.3178 14.5485 17.0123 14.7634 16.6667 14.8856C16.179 15.058 15.7569 15.3774 15.4584 15.7998C15.16 16.222 14.9998 16.7264 15 17.2434L15 17.244L15 18L15 19L17 19L17 18L17 17.2434L17 17.2429C16.9999 17.1395 17.032 17.0385 17.0917 16.9541C17.1514 16.8696 17.2358 16.8057 17.3333 16.7712C18.0247 16.5268 18.6356 16.097 19.0992 15.5289C19.5628 14.9607 19.8613 14.2761 19.962 13.5497C20.0628 12.8234 19.962 12.0833 19.6706 11.4104C19.3792 10.7375 18.9084 10.1577 18.3097 9.73424C17.711 9.31081 17.0074 9.06011 16.2759 9.00953C15.5443 8.95895 14.813 9.11044 14.1617 9.44744C13.5104 9.78445 12.9643 10.294 12.5831 10.9204C12.2019 11.5468 12.0001 12.2659 12 12.9992L11.9998 13.9992L13.9998 13.9996L14 12.9996C14.0001 12.633 14.1009 12.2734 14.2915 11.9602C14.4822 11.647 14.7552 11.3922 15.0809 11.2237ZM16.9998 21L14.9998 21L14.9998 23L16.9998 23L16.9998 21Z" fill="#221F1F"/>
</svg>
