<svg width="32" height="32" viewBox="0 0 32 32" fill="none" xmlns="http://www.w3.org/2000/svg">
    <path stroke="currentColor" d="M28.5544 16.1303L17.4647 4.46065C16.9961 3.84645 16.0589 3.84645 15.5904 4.46065L4.34445 16.4374C3.56348 17.3587 4.18825 18.8942 5.4378 18.8942H7.93689V27.1859C7.93689 27.4929 8.24927 28.1071 8.87405 28.1071H12.9351C13.4036 28.1071 13.8722 27.6465 13.8722 27.1859V22.7329C13.8722 22.2723 14.1846 21.9652 14.6532 21.9652H19.0266C19.339 21.9652 19.6514 22.2723 19.6514 22.7329V27.1859C19.6514 27.6465 19.9638 28.1071 20.5885 28.1071H24.3372C25.2743 28.1071 25.4305 27.6465 25.4305 27.1859V18.8942H27.461C28.8668 18.8942 29.4915 17.2052 28.5544 16.1303Z" stroke-width="1.6"/>
</svg>
