<svg width="32" height="32" viewBox="0 0 32 32" fill="none" xmlns="http://www.w3.org/2000/svg">
<path fill-rule="evenodd" clip-rule="evenodd" d="M17.8704 3.73703L28.9458 15.3917L28.957 15.4046C29.629 16.1753 29.7492 17.182 29.4323 18.0033C29.1108 18.8366 28.3272 19.4942 27.2607 19.4942H26.0302V26.9858C26.0302 27.2817 25.9856 27.7607 25.6283 28.1558C25.2595 28.5637 24.721 28.7071 24.1368 28.7071H20.3882C19.8634 28.7071 19.4088 28.5062 19.0919 28.1558C18.7874 27.819 18.651 27.3904 18.651 26.9858V22.5652H14.4719V26.9858C14.4719 27.4812 14.2283 27.9061 13.9399 28.1897C13.6505 28.4742 13.2244 28.7071 12.7347 28.7071H8.6737C8.06953 28.7071 7.62295 28.4016 7.35033 28.0666C7.09894 27.7577 6.93654 27.354 6.93654 26.9858V19.4942H5.23745C4.24695 19.4942 3.51629 18.8753 3.1945 18.1276C2.87642 17.3885 2.92101 16.4431 3.53385 15.7201L3.54699 15.7046L14.7823 3.73914C15.5696 2.75432 17.082 2.75362 17.8704 3.73703ZM16.6283 4.74589C16.4799 4.55137 16.1744 4.55137 16.026 4.74589L16.0012 4.77842L4.74399 16.7673C4.58489 16.9649 4.55505 17.2415 4.66417 17.4951C4.77191 17.7454 4.97842 17.8942 5.23745 17.8942H8.53654V26.9576C8.53763 26.961 8.53911 26.9652 8.54107 26.9703C8.55183 26.9981 8.56944 27.0298 8.59134 27.0567C8.61266 27.0829 8.63031 27.0952 8.63971 27.1002C8.64561 27.1034 8.65366 27.1071 8.6737 27.1071H12.7286C12.7314 27.1064 12.7369 27.1047 12.7453 27.1008C12.7657 27.0915 12.7923 27.0742 12.8182 27.0487C12.8441 27.0232 12.8605 26.9983 12.8686 26.9811C12.8701 26.978 12.8712 26.9755 12.8719 26.9736V22.5329C12.8719 22.1167 13.0169 21.7095 13.3258 21.4058C13.6335 21.1033 14.0408 20.9652 14.4529 20.9652H18.8263C19.6799 20.9652 20.251 21.737 20.251 22.5329V26.9858C20.251 27.042 20.2708 27.074 20.2787 27.0827C20.2814 27.0857 20.2851 27.0891 20.2943 27.0931C20.3036 27.0971 20.3317 27.1071 20.3882 27.1071H24.1368C24.2884 27.1071 24.3785 27.0904 24.4257 27.0768C24.4282 27.0555 24.4302 27.0258 24.4302 26.9858V17.8942H27.2607C27.5999 17.8942 27.8315 17.7074 27.9396 17.4274C28.0508 17.1391 28.0171 16.7695 27.7607 16.4673L16.6546 4.78033L16.6283 4.74589Z" fill="#929497"/>
</svg>
