<svg width="32" height="33" viewBox="0 0 32 33" fill="none" xmlns="http://www.w3.org/2000/svg">
<path fill-rule="evenodd" clip-rule="evenodd" d="M5.35 9.57692C5.35 8.60766 6.15219 7.85 7.10526 7.85H25.8947C26.8478 7.85 27.65 8.60766 27.65 9.57692V14.9615C27.65 15.3205 27.359 15.6115 27 15.6115C26.641 15.6115 26.35 15.3205 26.35 14.9615V12.4577H6.65V21.4231C6.65 21.6427 6.83812 21.85 7.10526 21.85H18.3684C18.7274 21.85 19.0184 22.141 19.0184 22.5C19.0184 22.859 18.7274 23.15 18.3684 23.15H7.10526C6.15219 23.15 5.35 22.3923 5.35 21.4231V9.57692ZM6.65 11.1577H26.35V9.57692C26.35 9.35726 26.1619 9.15 25.8947 9.15H7.10526C6.83812 9.15 6.65 9.35726 6.65 9.57692V11.1577Z" fill="#A32A29"/>
<path d="M8.66579 16.8077C8.66579 16.4487 8.9568 16.1577 9.31579 16.1577H13.8421C14.2011 16.1577 14.4921 16.4487 14.4921 16.8077C14.4921 17.1667 14.2011 17.4577 13.8421 17.4577H9.31579C8.9568 17.4577 8.66579 17.1667 8.66579 16.8077Z" fill="#A32A29"/>
<path d="M8.66579 19.8077C8.66579 19.4487 8.9568 19.1577 9.31579 19.1577H16.8421C17.2011 19.1577 17.4921 19.4487 17.4921 19.8077C17.4921 20.1667 17.2011 20.4577 16.8421 20.4577H9.31579C8.9568 20.4577 8.66579 20.1667 8.66579 19.8077Z" fill="#A32A29"/>
<path d="M23.5389 22.2144C23.3626 22.2144 23.2207 22.0713 23.2207 21.8962V20.2571H21.6182C21.4418 20.2571 21.3 20.1152 21.3 19.9389C21.3 19.7638 21.4418 19.6207 21.6182 19.6207H23.2207V18.0182C23.2207 17.8431 23.3626 17.7 23.5389 17.7C23.7152 17.7 23.8571 17.8431 23.8571 18.0182V19.6207H25.4962C25.6726 19.6207 25.8144 19.7638 25.8144 19.9389C25.8144 20.1152 25.6726 20.2571 25.4962 20.2571H23.8571V21.8962C23.8571 22.0713 23.7152 22.2144 23.5389 22.2144Z" fill="#A32A29"/>
<path fill-rule="evenodd" clip-rule="evenodd" d="M19.2 20C19.2 17.6252 21.1252 15.7 23.5 15.7C25.8748 15.7 27.8 17.6252 27.8 20C27.8 22.3748 25.8748 24.3 23.5 24.3C21.1252 24.3 19.2 22.3748 19.2 20ZM23.5 16.8C21.7327 16.8 20.3 18.2327 20.3 20C20.3 21.7673 21.7327 23.2 23.5 23.2C25.2673 23.2 26.7 21.7673 26.7 20C26.7 18.2327 25.2673 16.8 23.5 16.8Z" fill="#A32A29"/>
<path fill-rule="evenodd" clip-rule="evenodd" d="M5.25 9.57692C5.25 8.54973 6.09971 7.75 7.10526 7.75H25.8947C26.9003 7.75 27.75 8.54973 27.75 9.57692V14.9615C27.75 15.3758 27.4142 15.7115 27 15.7115C26.5858 15.7115 26.25 15.3758 26.25 14.9615V12.5577H6.75V21.4231C6.75 21.5862 6.89199 21.75 7.10526 21.75H18.3684C18.7826 21.75 19.1184 22.0858 19.1184 22.5C19.1184 22.9142 18.7826 23.25 18.3684 23.25H7.10526C6.09971 23.25 5.25 22.4503 5.25 21.4231V9.57692ZM7.10526 7.95C6.20468 7.95 5.45 8.6656 5.45 9.57692V21.4231C5.45 22.3344 6.20468 23.05 7.10526 23.05H18.3684C18.6722 23.05 18.9184 22.8038 18.9184 22.5C18.9184 22.1962 18.6722 21.95 18.3684 21.95H7.10526C6.78426 21.95 6.55 21.6993 6.55 21.4231V12.3577H26.45V14.9615C26.45 15.2653 26.6962 15.5115 27 15.5115C27.3038 15.5115 27.55 15.2653 27.55 14.9615V9.57692C27.55 8.6656 26.7953 7.95 25.8947 7.95H7.10526ZM7.10526 9.25C6.89199 9.25 6.75 9.41384 6.75 9.57692V11.0577H26.25V9.57692C26.25 9.41384 26.108 9.25 25.8947 9.25H7.10526ZM6.55 9.57692C6.55 9.30068 6.78426 9.05 7.10526 9.05H25.8947C26.2157 9.05 26.45 9.30068 26.45 9.57692V11.2577H6.55V9.57692ZM19.1 20C19.1 17.5699 21.07 15.6 23.5 15.6C25.9301 15.6 27.9 17.5699 27.9 20C27.9 22.4301 25.9301 24.4 23.5 24.4C21.07 24.4 19.1 22.4301 19.1 20ZM23.5 15.8C21.1804 15.8 19.3 17.6804 19.3 20C19.3 22.3196 21.1804 24.2 23.5 24.2C25.8196 24.2 27.7 22.3196 27.7 20C27.7 17.6804 25.8196 15.8 23.5 15.8ZM8.56579 16.8077C8.56579 16.3935 8.90158 16.0577 9.31579 16.0577H13.8421C14.2563 16.0577 14.5921 16.3935 14.5921 16.8077C14.5921 17.2219 14.2563 17.5577 13.8421 17.5577H9.31579C8.90158 17.5577 8.56579 17.2219 8.56579 16.8077ZM9.31579 16.2577C9.01203 16.2577 8.76579 16.5039 8.76579 16.8077C8.76579 17.1114 9.01203 17.3577 9.31579 17.3577H13.8421C14.1459 17.3577 14.3921 17.1114 14.3921 16.8077C14.3921 16.5039 14.1459 16.2577 13.8421 16.2577H9.31579ZM23.5 16.9C21.7879 16.9 20.4 18.2879 20.4 20C20.4 21.7121 21.7879 23.1 23.5 23.1C25.2121 23.1 26.6 21.7121 26.6 20C26.6 18.2879 25.2121 16.9 23.5 16.9ZM20.2 20C20.2 18.1775 21.6775 16.7 23.5 16.7C25.3225 16.7 26.8 18.1775 26.8 20C26.8 21.8225 25.3225 23.3 23.5 23.3C21.6775 23.3 20.2 21.8225 20.2 20ZM23.1207 18.0182C23.1207 17.7881 23.3071 17.6 23.5389 17.6C23.7707 17.6 23.9571 17.7881 23.9571 18.0182V19.5207H25.4962C25.7281 19.5207 25.9144 19.7089 25.9144 19.9389C25.9144 20.1705 25.7278 20.3571 25.4962 20.3571H23.9571V21.8962C23.9571 22.1262 23.7707 22.3144 23.5389 22.3144C23.3071 22.3144 23.1207 22.1262 23.1207 21.8962V20.3571H21.6182C21.3866 20.3571 21.2 20.1705 21.2 19.9389C21.2 19.7089 21.3864 19.5207 21.6182 19.5207H23.1207V18.0182ZM23.5389 17.8C23.4181 17.8 23.3207 17.8981 23.3207 18.0182V19.7207H21.6182C21.4973 19.7207 21.4 19.8188 21.4 19.9389C21.4 20.06 21.4971 20.1571 21.6182 20.1571H23.3207V21.8962C23.3207 22.0163 23.4181 22.1144 23.5389 22.1144C23.6597 22.1144 23.7571 22.0163 23.7571 21.8962V20.1571H25.4962C25.6173 20.1571 25.7144 20.06 25.7144 19.9389C25.7144 19.8188 25.6171 19.7207 25.4962 19.7207H23.7571V18.0182C23.7571 17.8981 23.6597 17.8 23.5389 17.8ZM8.56579 19.8077C8.56579 19.3935 8.90158 19.0577 9.31579 19.0577H16.8421C17.2563 19.0577 17.5921 19.3935 17.5921 19.8077C17.5921 20.2219 17.2563 20.5577 16.8421 20.5577H9.31579C8.90158 20.5577 8.56579 20.2219 8.56579 19.8077ZM9.31579 19.2577C9.01203 19.2577 8.76579 19.5039 8.76579 19.8077C8.76579 20.1114 9.01203 20.3577 9.31579 20.3577H16.8421C17.1459 20.3577 17.3921 20.1114 17.3921 19.8077C17.3921 19.5039 17.1459 19.2577 16.8421 19.2577H9.31579Z" fill="#A32A29"/>
</svg>
