<svg width="70" height="70" viewBox="0 0 70 70" fill="none" xmlns="http://www.w3.org/2000/svg">
<path d="M29.9676 49.1571C29.9676 46.551 32.0802 44.4383 34.6863 44.4383C37.2924 44.4383 39.4051 46.551 39.4051 49.1571C39.4051 51.7632 37.2924 53.8758 34.6863 53.8758C32.0802 53.8758 29.9676 51.7632 29.9676 49.1571Z" fill="#A32A29"/>
<path d="M38.1467 35.0008L38.1467 16.1258C38.1467 14.3884 36.7382 12.98 35.0008 12.98C33.2634 12.98 31.855 14.3884 31.855 16.1258L31.855 35.0008C31.855 36.7382 33.2634 38.1466 35.0008 38.1466C36.7382 38.1466 38.1467 36.7382 38.1467 35.0008Z" fill="#A32A29"/>
<path fill-rule="evenodd" clip-rule="evenodd" d="M35.0008 0.396649C15.8895 0.396648 0.396657 15.8895 0.396655 35.0008C0.396654 54.1122 15.8895 69.605 35.0008 69.605C54.1122 69.605 69.605 54.1122 69.605 35.0008C69.605 15.8895 54.1122 0.396651 35.0008 0.396649ZM35.0008 5.1154C18.4956 5.1154 5.11541 18.4956 5.11541 35.0008C5.1154 51.5061 18.4956 64.8862 35.0008 64.8862C51.5061 64.8862 64.8862 51.5061 64.8862 35.0008C64.8862 18.4956 51.5061 5.1154 35.0008 5.1154Z" fill="#A32A29"/>
</svg>
