<svg width="32" height="32" viewBox="0 0 32 32" fill="none" xmlns="http://www.w3.org/2000/svg">
<path d="M0 16C0 7.16344 7.16344 0 16 0C24.8366 0 32 7.16344 32 16C32 24.8366 24.8366 32 16 32C7.16344 32 0 24.8366 0 16Z" fill="#E60000"/>
<g clip-path="url(#clip0)">
<path fill-rule="evenodd" clip-rule="evenodd" d="M33 -1H32V0H33V-1ZM5 16C5 9.92487 9.92487 5 16 5C22.0751 5 27 9.92487 27 16C27 22.0751 22.0751 27 16 27C9.92487 27 5 22.0751 5 16ZM6.5 16C6.5 10.7533 10.7533 6.5 16 6.5C21.2467 6.5 25.5 10.7533 25.5 16C25.5 21.2467 21.2467 25.5 16 25.5C10.7533 25.5 6.5 21.2467 6.5 16ZM17 16L17 10C17 9.44772 16.5523 9 16 9C15.4477 9 15 9.44772 15 10V16C15 16.5523 15.4477 17 16 17C16.5523 17 17 16.5523 17 16ZM14.4 20.5C14.4 19.6716 15.0716 19 15.9 19C16.7285 19 17.4 19.6716 17.4 20.5C17.4 21.3284 16.7284 22 15.9 22C15.0716 22 14.4 21.3284 14.4 20.5Z" fill="white"/>
</g>
<defs>
<clipPath id="clip0">
<rect width="32" height="32" fill="white"/>
</clipPath>
</defs>
</svg>
