<svg width="22" height="22" viewBox="0 0 22 22" fill="none" xmlns="http://www.w3.org/2000/svg">
<path d="M9.40002 15.5C9.40003 14.6716 10.0716 14 10.9 14C11.7285 14 12.4 14.6716 12.4 15.5C12.4 16.3284 11.7285 17 10.9 17C10.0716 17 9.40002 16.3284 9.40002 15.5Z" fill="#E60000"/>
<path d="M12 11L12 5C12 4.44771 11.5523 4 11 4C10.4477 4 10 4.44771 10 5L10 11C10 11.5523 10.4477 12 11 12C11.5523 12 12 11.5523 12 11Z" fill="#E60000"/>
<path fill-rule="evenodd" clip-rule="evenodd" d="M11 -9.61651e-07C4.92487 -1.49276e-06 1.49276e-06 4.92487 9.61651e-07 11C4.30546e-07 17.0751 4.92487 22 11 22C17.0751 22 22 17.0751 22 11C22 4.92487 17.0751 -4.30546e-07 11 -9.61651e-07ZM11 1.5C5.7533 1.5 1.5 5.75329 1.5 11C1.5 16.2467 5.75329 20.5 11 20.5C16.2467 20.5 20.5 16.2467 20.5 11C20.5 5.75329 16.2467 1.5 11 1.5Z" fill="#E60000"/>
</svg>
