<svg xmlns="http://www.w3.org/2000/svg" width="32" height="32" fill="currentColor" viewBox="0 0 32 32">
    <path fill="currentColor" fill-rule="evenodd" d="M16.055 6.196h1.042c5.893 0 10.7 4.683 10.926 10.521.015.14.022.282.022.426h-1.043c0-.063-.004-.125-.008-.188l-.008-.132c-.16-1.575-1.495-2.808-3.112-2.808-1.725 0-3.127 1.403-3.127 3.128h-1.043c0-1.547-1.13-2.832-2.607-3.081v10.38c0 .861-.701 1.563-1.564 1.563-.862 0-1.563-.702-1.563-1.564v-.521h1.042v.521c0 .287.234.521.521.521.288 0 .522-.234.522-.52v-10.38c-1.477.25-2.607 1.534-2.607 3.08h-1.042c0-1.724-1.403-3.127-3.128-3.127-1.617 0-2.951 1.233-3.112 2.808-.001.045-.004.088-.007.133-.005.062-.009.124-.009.187H5.107c0-.144.008-.286.022-.426.226-5.838 5.033-10.521 10.926-10.521zm-9.332 7.657c.707-.55 1.592-.88 2.555-.88 1.253 0 2.376.558 3.141 1.435.066-2.67 1.085-5.174 2.892-7.132-3.981.298-7.306 2.955-8.588 6.577zm9.853-.88c-1.238 0-2.348.545-3.113 1.404.078-2.53 1.089-4.898 2.886-6.696l.227-.227.227.227c1.797 1.798 2.809 4.167 2.886 6.696-.764-.86-1.875-1.405-3.113-1.405zm4.157 1.436c.765-.878 1.888-1.437 3.141-1.437.963 0 1.848.332 2.555.882-1.282-3.623-4.606-6.28-8.588-6.578 1.808 1.959 2.826 4.463 2.892 7.133z" clip-rule="evenodd"/>
</svg>
