<svg width="32" height="32" viewBox="0 0 32 32" fill="none" xmlns="http://www.w3.org/2000/svg">
<path d="M18.1876 19.4007C21.1942 17.0283 22.7493 13.1086 23.164 9.39524C23.3714 7.22911 23.164 5.06298 22.3346 3C20.7795 4.54724 16.9435 6.40392 11.6561 8.36375C8.13113 9.91098 6.57601 11.6645 5.53925 14.4495C4.9172 16.0999 4.81353 17.9566 5.3319 19.607C5.43558 19.9164 5.95395 19.9164 6.05763 19.607C6.88703 16.4094 9.99728 14.759 12.7965 13.5212C13.2112 13.3665 13.6259 13.186 14.0406 13.0055C14.4552 12.825 14.87 12.6444 15.2847 12.4897C12.4855 14.6558 9.78993 17.0283 7.92378 20.0196C7.92378 20.0712 7.69051 20.4838 7.45724 20.8964C7.22397 21.309 6.99071 21.7215 6.99071 21.7731C6.05763 24.0424 5.7466 26.518 6.16131 28.8904C6.16131 29.1999 8.33848 28.7873 8.23481 28.4778C7.92378 27.24 7.30173 24.3518 8.44216 22.2889C11.8634 22.2889 15.4921 21.5668 18.1876 19.4007Z" fill="#A32A29"/>
<path d="M16.6325 23.6298C16.6047 23.6851 16.5769 23.733 16.5511 23.7774C16.4807 23.8988 16.4251 23.9945 16.4251 24.1455C16.4251 25.177 18.8097 25.8991 21.7126 25.8991C24.6155 25.8991 27 25.0739 27 24.1455C27 23.9945 26.9444 23.8988 26.874 23.7774C26.8482 23.733 26.8204 23.6851 26.7926 23.6298C26.1706 24.3518 24.0971 24.8676 21.7126 24.8676C19.328 24.8676 17.2545 24.3518 16.6325 23.6298Z" fill="#A32A29"/>
<path d="M16.6325 25.0739C17.2545 25.7959 19.328 26.3117 21.7126 26.3117C24.0971 26.3117 26.0669 25.6928 26.7926 25.0739C26.8204 25.1292 26.8482 25.177 26.874 25.2215C26.9444 25.3429 27 25.4386 27 25.5896C27 26.518 24.6155 27.3432 21.7126 27.3432C18.8097 27.3432 16.4251 26.6211 16.4251 25.5896C16.4251 25.4386 16.4807 25.3429 16.5511 25.2215C16.5769 25.177 16.6047 25.1292 16.6325 25.0739Z" fill="#A32A29"/>
<path d="M21.7126 27.6526C19.328 27.6526 17.2545 27.1369 16.6325 26.4148C16.6047 26.4701 16.5769 26.518 16.5511 26.5624C16.4807 26.6838 16.4251 26.7795 16.4251 26.9306C16.4251 27.9621 18.8097 28.6841 21.7126 28.6841C24.6155 28.6841 27 27.8589 27 26.9306C27 26.7795 26.9444 26.6838 26.874 26.5624C26.8482 26.518 26.8204 26.4701 26.7926 26.4148C26.0669 27.1369 24.0971 27.6526 21.7126 27.6526Z" fill="#A32A29"/>
<path d="M21.6089 24.455C18.706 24.455 16.3215 23.6298 16.3215 22.7015C16.3215 21.7731 18.706 20.9479 21.6089 20.9479C24.5118 20.9479 26.8963 21.7731 26.8963 22.7015C26.8963 23.7329 24.5118 24.455 21.6089 24.455Z" fill="#A32A29"/>
</svg>
