<svg width="26" height="26" viewBox="0 0 26 26" fill="none" xmlns="http://www.w3.org/2000/svg">
<path fill-rule="evenodd" clip-rule="evenodd" d="M22.9999 0V1V3H24.9999H25.9999V5H24.9999H22.9999V7V8H20.9999V7V5H18.9999H17.9999V3H18.9999H20.9999V1V0H22.9999ZM-0.00012207 14V18V22C-0.00012207 23.4113 1.11778 24.4197 2.30991 25.0158C3.5618 25.6417 5.22132 26 6.99988 26C8.77843 26 10.438 25.6417 11.6898 25.0158C12.882 24.4197 13.9999 23.4113 13.9999 22V18V15H21.9999H22.9999V14V11H20.9999V13H13.7994C13.4254 12.1017 12.5781 11.4285 11.6897 10.9843C10.4378 10.3583 8.77831 10 6.99988 10C5.93684 10 4.91628 10.128 3.99988 10.3647V5H14.9999V3H2.99988H1.99988V4V11.15C0.931053 11.7596 -0.00012207 12.7121 -0.00012207 14ZM1.99988 16.85V18C1.99988 18.2457 2.22498 18.7373 3.20434 19.2269C4.12395 19.6868 5.46443 20 6.99988 20C8.53532 20 9.8758 19.6868 10.7954 19.2269C11.7748 18.7373 11.9999 18.2457 11.9999 18V16.85C11.8975 16.9084 11.7939 16.9637 11.6897 17.0157C10.4378 17.6417 8.77831 18 6.99988 18C5.22144 18 3.56193 17.6417 2.31002 17.0157C2.20584 16.9637 2.10223 16.9084 1.99988 16.85ZM11.9999 14C11.9999 14.2456 11.7748 14.7372 10.7953 15.2269C9.87564 15.6867 8.53515 16 6.99988 16C5.46461 16 4.12412 15.6867 3.20445 15.2269C2.22497 14.7372 1.99988 14.2456 1.99988 14C1.99988 13.7544 2.22497 13.2628 3.20445 12.7731C4.12412 12.3133 5.46461 12 6.99988 12C8.53515 12 9.87564 12.3133 10.7953 12.7731C11.7748 13.2628 11.9999 13.7544 11.9999 14ZM1.99988 22V20.8502C2.10219 20.9085 2.20577 20.9637 2.30991 21.0158C3.5618 21.6417 5.22132 22 6.99988 22C8.77843 22 10.438 21.6417 11.6898 21.0158C11.794 20.9637 11.8976 20.9085 11.9999 20.8502V22C11.9999 22.2457 11.7748 22.7373 10.7954 23.2269C9.8758 23.6868 8.53532 24 6.99988 24C5.46443 24 4.12395 23.6868 3.20434 23.2269C2.22498 22.7373 1.99988 22.2457 1.99988 22Z" fill="#A32A29"/>
</svg>
