<svg xmlns="http://www.w3.org/2000/svg" width="32" height="32" fill="none" viewBox="0 0 32 32">
    <path fill-rule="evenodd" stroke="currentColor" stroke-width="1.5" d="M22.526 3c-1.6 1.593-5.447 3.438-10.792 5.443-3.539 1.623-5.13 3.302-6.183 6.142-.63 1.696-.727 3.52-.254 5.264.098.358.67.325.757-.024.807-3.252 3.942-4.945 6.789-6.165.827-.354 1.675-.706 2.51-1.085-2.871 2.184-5.53 4.633-7.42 7.7-.035.054-.917 1.695-.92 1.742-.985 2.268-1.304 4.817-.827 7.262-.024.337 3.725-.144 3.616-.498-.36-1.21-.893-4.181.198-6.281 3.433.088 5.628-.665 8.33-2.8 3.038-2.4 4.609-6.374 4.997-10.212.221-2.195-.049-4.414-.8-6.488z" clip-rule="evenodd"/>
    <path stroke="currentColor" d="M26.078 26.715c.541.213.857.468.857.742 0 .734-2.249 1.326-5.022 1.326-2.774 0-5.022-.592-5.022-1.326 0-.272.31-.525.843-.736"/>
    <path stroke="currentColor" d="M26.055 25.21c.555.213.88.472.88.75 0 .733-2.248 1.327-5.022 1.327-2.773 0-5.021-.594-5.021-1.327 0-.271.31-.524.843-.736"/>
    <path stroke="currentColor" d="M25.979 23.665c.602.22.956.488.956.78 0 .732-2.249 1.326-5.022 1.326-2.774 0-5.022-.594-5.022-1.327 0-.275.315-.53.858-.741"/>
    <path fill-rule="evenodd" stroke="currentColor" d="M26.935 22.871c0 .733-2.249 1.327-5.022 1.327-2.774 0-5.022-.594-5.022-1.327 0-.732 2.248-1.326 5.022-1.326 2.773 0 5.022.594 5.022 1.326z" clip-rule="evenodd"/>
</svg>
