<svg
  width="32"
  height="32"
  viewBox="0 0 32 32"
  fill="none"
  xmlns="http://www.w3.org/2000/svg"
>
  <path
    fill-rule="evenodd"
    clip-rule="evenodd"
    d="M21.8 13.3C21.9 16.1 19.6 18.5 16.8 18.5C14 18.4 11.7 16.1 11.8 13.3C11.7 10.5 14 8.10001 16.8 8.10001C19.6 8.20001 21.8 10.5 21.8 13.3ZM18.4 17.2C19.7 16.5 20.6 15.3 20.8 13.8H19.2C19.2 15.2 18.9 16.4 18.4 17.2ZM16.8 17.3C17.4 17.3 18.1 15.9 18.2 13.8H15.4C15.5 15.8 16.2 17.3 16.8 17.3ZM20.7 12.8C20.6 11.3 19.7 10 18.3 9.40001C18.8 10.3 19.1 11.5 19.1 12.8H20.7ZM15.4 12.8H18.2C18.1 10.8 17.4 9.30001 16.8 9.30001C16.2 9.30001 15.5 10.8 15.4 12.8ZM15.3 9.30001C13.9 9.90001 12.9 11.2 12.7 12.8H14.4C14.5 11.4 14.8 10.1 15.3 9.30001ZM14.4 13.8H12.7C12.9 15.4 13.9 16.7 15.3 17.2C14.8 16.4 14.5 15.2 14.4 13.8Z"
    fill="currentColor"
  />
  <path
    fill-rule="evenodd"
    clip-rule="evenodd"
    d="M26.2 5.20001C26.9 5.20001 27.5 5.40001 28 5.90001C28.4 6.30001 28.7 7.00001 28.7 7.70001V19.1C28.7 20.5 27.6 21.6 26.2 21.6H16.2L10.5 26.8C10.4 26.9 10.2 27 10.1 27H9.79998C9.59998 26.9 9.49998 26.7 9.49998 26.5V21.7H7.09998C5.69998 21.7 4.59998 20.6 4.59998 19.2V7.70001C4.59998 6.30001 5.69998 5.20001 7.09998 5.20001H26.2ZM7.09998 20.4H9.99998C10.4 20.4 10.6 20.7 10.7 21V25.2L15.6 20.7C15.7 20.6 15.9 20.5 16 20.5H26.2C26.9 20.5 27.5 19.9 27.5 19.2V7.70001C27.5 7.00001 26.9 6.40001 26.2 6.40001H7.09998C6.39998 6.40001 5.79998 7.00001 5.79998 7.70001V19.1C5.79998 19.8 6.39998 20.4 7.09998 20.4Z"
    fill="currentColor"
  />
</svg>
