<svg width="32" height="32" viewBox="0 0 32 32" fill="currentColor" xmlns="http://www.w3.org/2000/svg">
<path d="M11.4118 11.4662C11.4058 11.4262 11.4362 11.6907 11.4301 11.5954C11.4271 11.5677 11.424 11.5369 11.424 11.5093C11.4179 11.417 11.4179 11.3217 11.424 11.2294C11.4271 11.1987 11.4301 11.1679 11.4332 11.1402C11.4423 11.0111 11.4088 11.2878 11.424 11.1956C11.4362 11.1279 11.4484 11.0572 11.4666 10.9895C11.4849 10.9188 11.5214 10.8481 11.5367 10.7773C11.5367 10.7773 11.4636 10.928 11.5062 10.8542C11.5153 10.8388 11.5214 10.8235 11.5275 10.8081C11.5488 10.7681 11.5701 10.7281 11.5914 10.6912C11.6097 10.6605 11.6371 10.6328 11.6523 10.599C11.5945 10.7251 11.5762 10.6943 11.6188 10.6451C11.631 10.6297 11.6432 10.6144 11.6554 10.6021C11.6858 10.5682 11.7163 10.5375 11.7497 10.5067C11.765 10.4944 11.7802 10.4821 11.7954 10.4667C11.8715 10.3929 11.6736 10.5498 11.771 10.4852C11.8471 10.436 11.9232 10.3929 12.0024 10.3499C12.0907 10.3038 11.9659 10.3683 11.9567 10.3683C11.9811 10.3683 12.0207 10.3437 12.045 10.3345C12.1059 10.313 12.1698 10.2945 12.2337 10.2792C12.3159 10.2576 12.4012 10.2422 12.4864 10.2238C12.6051 10.1992 12.4012 10.233 12.4194 10.233C12.4468 10.2299 12.4742 10.2269 12.5046 10.2238C12.5838 10.2176 12.666 10.2146 12.7451 10.2176C12.7938 10.2207 12.8425 10.2238 12.8912 10.2269C12.9399 10.2299 12.9734 10.2607 12.8212 10.2176C12.8517 10.2269 12.8852 10.2299 12.9186 10.2361C12.9734 10.2484 13.0282 10.2607 13.083 10.2792C13.1043 10.2853 13.1287 10.2945 13.15 10.3007C13.1622 10.3038 13.1713 10.3099 13.1835 10.313C13.2443 10.3376 13.2291 10.3314 13.1408 10.2945C13.1591 10.3222 13.2626 10.356 13.293 10.3745C13.3204 10.3899 13.3509 10.4083 13.3783 10.4268C13.3935 10.4391 13.494 10.5036 13.4179 10.4514C13.3357 10.396 13.4452 10.476 13.4544 10.4852C13.4818 10.5098 13.5092 10.5344 13.5366 10.5621C13.5975 10.6236 13.6553 10.6912 13.707 10.7589C13.6766 10.5098 13.6431 10.2607 13.6127 10.0147C13.5974 10.0362 13.5822 10.0577 13.567 10.0793C13.5518 10.1039 13.5335 10.1254 13.5153 10.15C13.5061 10.1654 13.494 10.1777 13.4848 10.193C13.4118 10.2945 13.5609 10.0946 13.5213 10.1438C13.3722 10.3284 13.22 10.5129 13.0526 10.682C12.9491 10.7866 12.8425 10.8881 12.7299 10.9834C12.7025 11.0049 12.6751 11.0295 12.6477 11.051C12.5716 11.1156 12.7634 10.9649 12.6629 11.0387C12.596 11.0879 12.529 11.1341 12.462 11.1771C12.4012 11.214 12.3403 11.2509 12.2794 11.2848C12.249 11.3001 12.2155 11.3155 12.185 11.3309C12.0511 11.3985 12.2733 11.3001 12.1942 11.3278C12.1241 11.3524 12.0572 11.377 11.9841 11.3955C11.9506 11.4047 11.9172 11.4108 11.8837 11.417C11.8654 11.4201 11.8441 11.4201 11.8258 11.4262C11.838 11.4232 11.9841 11.4139 11.9019 11.4139C11.8197 11.4139 11.7376 11.4078 11.6554 11.4139C11.5975 11.417 11.7467 11.4293 11.7436 11.4262C11.7254 11.417 11.6919 11.417 11.6706 11.4108C11.6249 11.4016 11.5823 11.3893 11.5397 11.3739C11.4027 11.3278 11.6219 11.4201 11.5397 11.377C11.5001 11.3555 11.4606 11.337 11.424 11.3155C11.3784 11.2878 11.3388 11.2571 11.2931 11.2294C11.2414 11.1956 11.3449 11.2663 11.3449 11.2694C11.3418 11.2571 11.2688 11.2048 11.2596 11.1956C11.0222 10.9803 10.6295 10.9403 10.3982 11.1956C10.1851 11.4293 10.1455 11.8352 10.3982 12.0659C10.7665 12.4011 11.1896 12.6071 11.6858 12.6471C12.0907 12.6779 12.4955 12.5487 12.8547 12.3673C13.43 12.0782 13.9232 11.5954 14.325 11.0941C14.4437 10.9465 14.5624 10.7958 14.6689 10.6359C14.8333 10.3899 14.7359 10.0977 14.5746 9.89167C13.9719 9.1167 12.9826 8.86145 12.0602 9.06442C11.558 9.17513 11.0709 9.39963 10.7391 9.80864C10.4347 10.1838 10.2825 10.6113 10.2247 11.0879C10.1973 11.3278 10.2064 11.5585 10.2429 11.7983C10.2917 12.1182 10.7026 12.3211 10.9918 12.2289C11.3297 12.1089 11.4636 11.8076 11.4118 11.4662Z" stroke="currentColor" stroke-width="0.3"/>
<path d="M10.9948 18.5055C10.9339 18.5209 10.8731 18.5332 10.8122 18.5424C10.7848 18.5485 10.7574 18.5516 10.733 18.5547C10.6448 18.5701 10.8913 18.5393 10.7574 18.5516C10.6417 18.5608 10.526 18.5701 10.4104 18.567C10.3038 18.567 10.2003 18.5547 10.0938 18.5455C10.0086 18.5393 10.2551 18.5731 10.1303 18.5485C10.106 18.5455 10.0816 18.5393 10.0603 18.5362C10.0025 18.5239 9.9416 18.5116 9.88376 18.4993C9.78635 18.4747 9.68895 18.4471 9.59458 18.4132C9.55196 18.3979 9.5063 18.3825 9.46369 18.364C9.42107 18.3486 9.34802 18.3025 9.49717 18.3794C9.47282 18.3671 9.44542 18.3548 9.41803 18.3456C9.23234 18.2595 9.05579 18.1611 8.88533 18.0503C8.80618 17.9981 8.73008 17.9458 8.65703 17.8904C8.53222 17.7982 8.73008 17.9519 8.65398 17.8874C8.61441 17.8535 8.57179 17.8197 8.53222 17.7859C8.39524 17.669 8.26435 17.546 8.1365 17.4168C8.02691 17.3031 7.91733 17.1862 7.81688 17.0632C7.77426 17.014 7.73469 16.9617 7.69207 16.9094C7.67381 16.8879 7.60075 16.7926 7.6799 16.8971C7.75904 17.0017 7.6799 16.8971 7.66163 16.8725C7.58249 16.7649 7.50334 16.6542 7.43333 16.5404C7.15633 16.8202 6.87932 17.1001 6.59927 17.383C7.44246 17.752 8.31305 18.0011 9.23234 18.0565C9.9416 18.0996 10.6722 18.0165 11.354 17.8136C12.3525 17.5153 13.2778 16.9709 14.0419 16.2544C14.1789 16.1252 14.3158 15.993 14.4346 15.8454C14.0875 15.7008 13.7405 15.5563 13.3966 15.4118C13.3966 15.4179 13.3935 15.4241 13.3935 15.4302C13.4026 15.544 13.4209 15.2365 13.4057 15.338C13.3935 15.4118 13.3813 15.4856 13.3692 15.5594C13.3205 15.8116 13.2535 16.0607 13.1713 16.3036C13.1469 16.3774 13.1195 16.4481 13.0921 16.5219C13.0769 16.5588 13.0617 16.5957 13.0465 16.6357C13.0191 16.7065 13.1165 16.4789 13.0708 16.5773C13.0587 16.6019 13.0495 16.6296 13.0374 16.6542C12.9643 16.8141 12.8852 16.9709 12.7969 17.1216C12.7512 17.2016 12.7025 17.2785 12.6508 17.3553C12.6203 17.3984 12.5929 17.4414 12.5625 17.4814C12.4712 17.6044 12.6416 17.3861 12.5412 17.506C12.4103 17.6659 12.2703 17.8166 12.115 17.9489C12.0724 17.9858 11.9232 18.0842 12.0815 17.9796C12.0359 18.0104 11.9902 18.0473 11.9446 18.0811C11.8441 18.1518 11.7406 18.2133 11.631 18.2718C11.5732 18.3025 11.5123 18.3302 11.4545 18.3579C11.4027 18.3825 11.3905 18.3579 11.5001 18.3394C11.4697 18.3456 11.4271 18.3702 11.3966 18.3794C11.2688 18.4317 11.1318 18.4747 10.9948 18.5055C10.6843 18.5793 10.4713 18.9545 10.5687 19.262C10.6722 19.588 10.9857 19.7725 11.3175 19.6925C12.3342 19.4465 13.1713 18.7976 13.7405 17.9243C14.1241 17.34 14.3859 16.6542 14.5289 15.9684C14.5685 15.787 14.5959 15.5994 14.6142 15.4148C14.6385 15.175 14.4406 14.9382 14.2397 14.8521C14.0358 14.766 13.7253 14.7906 13.5761 14.9782C13.4879 15.0889 13.3874 15.1934 13.2839 15.2918C13.1713 15.4025 13.0526 15.5102 12.9308 15.6117C12.8973 15.6393 12.8638 15.667 12.8304 15.6947C12.8212 15.7008 12.8121 15.707 12.803 15.7162C12.736 15.7716 12.8791 15.6578 12.873 15.6609C12.8517 15.6762 12.8304 15.6947 12.8091 15.7101C12.7238 15.7747 12.6386 15.8362 12.5503 15.8977C12.3525 16.033 12.1485 16.156 11.9354 16.2667C11.8198 16.3282 11.701 16.3836 11.5823 16.4358C11.4666 16.4881 11.6949 16.3897 11.5975 16.4297C11.5671 16.442 11.5397 16.4543 11.5093 16.4666C11.4393 16.4943 11.3692 16.5219 11.2992 16.5465C11.0192 16.645 10.733 16.7218 10.4408 16.7741C10.3708 16.7864 10.2947 16.7926 10.2277 16.8079C10.2216 16.8079 10.3678 16.7926 10.2977 16.7987C10.2734 16.8018 10.249 16.8049 10.2247 16.8079C10.1821 16.8141 10.1395 16.8172 10.0938 16.8202C9.92638 16.8356 9.762 16.8418 9.59458 16.8418C9.39672 16.8418 9.2019 16.8325 9.00709 16.811C8.97665 16.8079 8.80618 16.7956 8.8975 16.7987C8.98882 16.8049 8.83662 16.7895 8.80923 16.7833C8.70877 16.768 8.60528 16.7495 8.50482 16.728C8.27652 16.6788 8.05127 16.6203 7.82905 16.5465C7.71947 16.5127 7.60989 16.4727 7.50335 16.4328C7.43942 16.4082 7.3755 16.3836 7.31462 16.359C7.29026 16.3497 7.26591 16.3405 7.24156 16.3282C7.15024 16.2944 7.37245 16.3866 7.21721 16.319C6.97369 16.2113 6.67537 16.199 6.48056 16.4143C6.29792 16.6142 6.24312 16.9186 6.38619 17.1585C6.61449 17.5429 6.90976 17.8997 7.21721 18.2226C7.83514 18.8714 8.60528 19.4188 9.47282 19.6587C10.0786 19.8248 10.7087 19.8279 11.3175 19.6864C11.628 19.6157 11.8411 19.2374 11.7437 18.9299C11.6371 18.607 11.3266 18.4317 10.9948 18.5055Z" />
<path d="M10.9948 18.5055C10.9339 18.5209 10.8731 18.5332 10.8122 18.5424C10.7848 18.5485 10.7574 18.5516 10.733 18.5547C10.6448 18.5701 10.8913 18.5393 10.7574 18.5516C10.6417 18.5608 10.526 18.5701 10.4104 18.567C10.3038 18.567 10.2003 18.5547 10.0938 18.5455C10.0086 18.5393 10.2551 18.5731 10.1303 18.5485C10.106 18.5455 10.0816 18.5393 10.0603 18.5362C10.0025 18.5239 9.9416 18.5116 9.88376 18.4993C9.78635 18.4747 9.68895 18.4471 9.59458 18.4132C9.55196 18.3979 9.5063 18.3825 9.46369 18.364C9.42107 18.3486 9.34802 18.3025 9.49717 18.3794C9.47282 18.3671 9.44542 18.3548 9.41803 18.3456C9.23234 18.2595 9.05579 18.1611 8.88533 18.0503C8.80618 17.9981 8.73008 17.9458 8.65703 17.8904C8.53222 17.7982 8.73008 17.9519 8.65398 17.8874C8.61441 17.8535 8.57179 17.8197 8.53222 17.7859C8.39524 17.669 8.26435 17.546 8.1365 17.4168C8.02691 17.3031 7.91733 17.1862 7.81688 17.0632C7.77426 17.014 7.73469 16.9617 7.69207 16.9094C7.67381 16.8879 7.60075 16.7926 7.6799 16.8971C7.75904 17.0017 7.6799 16.8971 7.66163 16.8725C7.58249 16.7649 7.50334 16.6542 7.43333 16.5404C7.15633 16.8202 6.87932 17.1001 6.59927 17.383C7.44246 17.752 8.31305 18.0011 9.23234 18.0565C9.9416 18.0996 10.6722 18.0165 11.354 17.8136C12.3525 17.5153 13.2778 16.9709 14.0419 16.2544C14.1789 16.1252 14.3158 15.993 14.4346 15.8454C14.0875 15.7008 13.7405 15.5563 13.3966 15.4118C13.3966 15.4179 13.3935 15.4241 13.3935 15.4302C13.4026 15.544 13.4209 15.2365 13.4057 15.338C13.3935 15.4118 13.3813 15.4856 13.3692 15.5594C13.3205 15.8116 13.2535 16.0607 13.1713 16.3036C13.1469 16.3774 13.1195 16.4481 13.0921 16.5219C13.0769 16.5588 13.0617 16.5957 13.0465 16.6357C13.0191 16.7065 13.1165 16.4789 13.0708 16.5773C13.0587 16.6019 13.0495 16.6296 13.0374 16.6542C12.9643 16.8141 12.8852 16.9709 12.7969 17.1216C12.7512 17.2016 12.7025 17.2785 12.6508 17.3553C12.6203 17.3984 12.5929 17.4414 12.5625 17.4814C12.4712 17.6044 12.6416 17.3861 12.5412 17.506C12.4103 17.6659 12.2703 17.8166 12.115 17.9489C12.0724 17.9858 11.9232 18.0842 12.0815 17.9796C12.0359 18.0104 11.9902 18.0473 11.9446 18.0811C11.8441 18.1518 11.7406 18.2133 11.631 18.2718C11.5732 18.3025 11.5123 18.3302 11.4545 18.3579C11.4027 18.3825 11.3905 18.3579 11.5001 18.3394C11.4697 18.3456 11.4271 18.3702 11.3966 18.3794C11.2688 18.4317 11.1318 18.4747 10.9948 18.5055ZM10.9948 18.5055C10.6843 18.5793 10.4713 18.9545 10.5687 19.262C10.6722 19.588 10.9857 19.7725 11.3175 19.6925C12.3342 19.4465 13.1713 18.7976 13.7405 17.9243C14.1241 17.34 14.3859 16.6542 14.5289 15.9684C14.5685 15.787 14.5959 15.5994 14.6142 15.4148C14.6385 15.175 14.4406 14.9382 14.2397 14.8521C14.0358 14.766 13.7253 14.7906 13.5761 14.9782C13.4879 15.0889 13.3874 15.1934 13.2839 15.2918C13.1713 15.4025 13.0526 15.5102 12.9308 15.6117C12.8973 15.6393 12.8638 15.667 12.8304 15.6947C12.8212 15.7008 12.8121 15.707 12.803 15.7162C12.736 15.7716 12.8791 15.6578 12.873 15.6609C12.8517 15.6762 12.8304 15.6947 12.8091 15.7101C12.7238 15.7747 12.6386 15.8362 12.5503 15.8977C12.3525 16.033 12.1485 16.156 11.9354 16.2667C11.8198 16.3282 11.701 16.3836 11.5823 16.4358C11.4666 16.4881 11.6949 16.3897 11.5975 16.4297C11.5671 16.442 11.5397 16.4543 11.5093 16.4666C11.4393 16.4943 11.3692 16.5219 11.2992 16.5465C11.0192 16.645 10.733 16.7218 10.4408 16.7741C10.3708 16.7864 10.2947 16.7926 10.2277 16.8079C10.2216 16.8079 10.3678 16.7926 10.2977 16.7987C10.2734 16.8018 10.249 16.8049 10.2247 16.8079C10.1821 16.8141 10.1395 16.8172 10.0938 16.8202C9.92638 16.8356 9.762 16.8418 9.59458 16.8418C9.39672 16.8418 9.2019 16.8325 9.00709 16.811C8.97665 16.8079 8.80618 16.7956 8.8975 16.7987C8.98882 16.8049 8.83662 16.7895 8.80923 16.7833C8.70877 16.768 8.60528 16.7495 8.50482 16.728C8.27652 16.6788 8.05127 16.6203 7.82905 16.5465C7.71947 16.5127 7.60989 16.4727 7.50335 16.4328C7.43942 16.4082 7.3755 16.3836 7.31462 16.359C7.29026 16.3497 7.26591 16.3405 7.24156 16.3282C7.15024 16.2944 7.37245 16.3866 7.21721 16.319C6.97369 16.2113 6.67537 16.199 6.48056 16.4143C6.29792 16.6142 6.24312 16.9187 6.38619 17.1585C6.61449 17.5429 6.90976 17.8997 7.21721 18.2226C7.83514 18.8714 8.60528 19.4188 9.47282 19.6587C10.0786 19.8248 10.7087 19.8279 11.3175 19.6864C11.628 19.6157 11.8411 19.2374 11.7437 18.9299C11.6371 18.607 11.3266 18.4317 10.9948 18.5055Z" stroke="currentColor" stroke-width="0.3"/>
<path d="M5.69216 12.4933C5.71347 12.3673 5.74695 12.2504 5.78652 12.1305C5.82001 12.0259 5.77739 12.1643 5.76826 12.1704C5.77435 12.1674 5.79565 12.1151 5.7987 12.1028C5.82914 12.0444 5.85958 11.9859 5.89611 11.9306C5.90828 11.9121 5.9235 11.8937 5.93568 11.8721C5.97829 11.8014 5.83523 11.9921 5.91133 11.9029C5.93872 11.8691 5.96612 11.8352 5.99656 11.8045C6.03004 11.7707 6.06353 11.7368 6.09701 11.7061C6.11527 11.6907 6.13658 11.6722 6.15485 11.6569C6.2279 11.5892 6.05439 11.7307 6.11223 11.6907C6.24008 11.6046 6.36793 11.5246 6.50795 11.4601C6.5871 11.4232 6.34053 11.5246 6.45012 11.4847C6.47447 11.4754 6.49578 11.4662 6.51708 11.4601C6.55057 11.4478 6.58405 11.4385 6.61754 11.4293C6.64189 11.4232 6.66624 11.4139 6.69059 11.4078C6.74538 11.3924 6.80018 11.377 6.85497 11.3647C6.88237 11.3586 6.90976 11.3555 6.93411 11.3493C7.06196 11.3186 6.80627 11.3586 6.92498 11.3493C7.03152 11.3432 7.13502 11.3432 7.2446 11.3463C7.34506 11.3524 7.18677 11.3401 7.18068 11.337C7.19894 11.3432 7.22329 11.3432 7.2446 11.3493C7.2994 11.3616 7.35419 11.377 7.40898 11.3924C7.42724 11.3985 7.44551 11.4078 7.46377 11.4139C7.53683 11.4355 7.31766 11.3401 7.41202 11.3924C7.44551 11.4108 7.47899 11.4262 7.51248 11.4447C7.549 11.4662 7.58249 11.4877 7.61902 11.5123C7.756 11.6077 7.54292 11.4416 7.6251 11.5154C7.6799 11.5646 7.73164 11.6138 7.78339 11.6661C7.81079 11.6968 7.83819 11.7276 7.86254 11.7584C7.95081 11.8629 7.77426 11.6323 7.85036 11.743C7.92037 11.8475 7.98734 11.9521 8.03909 12.0659C8.08475 12.1643 8.07866 12.2104 8.02996 12.0321C8.033 12.0474 8.04213 12.0597 8.04518 12.0751C8.04518 11.9675 8.04518 11.8568 8.04518 11.7491C8.03909 11.7614 8.02083 11.8014 8.02083 11.8168C8.02083 11.8076 8.08475 11.6784 8.04213 11.7676C8.02083 11.8076 8.00256 11.8475 7.98125 11.8875C7.96299 11.9213 7.94473 11.9521 7.92342 11.9828C7.91124 12.0013 7.89907 12.0167 7.88689 12.0351C7.84732 12.0966 7.9843 11.9244 7.91733 11.9951C7.86558 12.0474 7.81383 12.0966 7.76513 12.1489C7.71642 12.2012 7.88385 12.0659 7.82297 12.1059C7.80774 12.1151 7.79253 12.1274 7.77731 12.1366C7.74382 12.1581 7.70729 12.1797 7.67076 12.2012C7.64337 12.2166 7.61293 12.2289 7.58553 12.2442C7.52161 12.2781 7.72251 12.195 7.65554 12.2135C7.63728 12.2196 7.62206 12.2258 7.6038 12.2319C7.53074 12.2565 7.45464 12.2781 7.37854 12.2904C7.35114 12.2965 7.22634 12.315 7.35114 12.2965C7.4729 12.2781 7.3481 12.2934 7.3207 12.2965C7.24156 12.3027 7.15937 12.3027 7.08023 12.3027C7.01021 12.2996 6.93716 12.2965 6.86715 12.2904C6.84888 12.2873 6.83062 12.2873 6.80931 12.2842C6.71495 12.275 6.88541 12.2965 6.88541 12.2965C6.84279 12.2873 6.80018 12.2842 6.75756 12.275C6.61449 12.2504 6.47447 12.2166 6.33444 12.1766C6.20051 12.1397 6.06961 12.0966 5.94177 12.0474C5.88393 12.0259 5.82609 12.0044 5.76826 11.9798C5.74391 11.9705 5.7226 11.9613 5.69824 11.9521C5.56735 11.8998 5.81696 12.0044 5.74391 11.9705C5.63128 11.9183 5.51865 11.8691 5.40906 11.8106C5.12902 11.6599 4.73329 11.7307 4.575 12.0321C4.42585 12.3181 4.49282 12.7117 4.79417 12.8747C5.92046 13.4836 7.59466 13.9449 8.66007 12.9915C8.9736 12.7086 9.32975 12.1581 9.21408 11.7276C9.13798 11.4447 8.94621 11.1741 8.76965 10.9496C8.50787 10.6144 8.16085 10.3683 7.76208 10.2269C7.29331 10.0577 6.78496 10.1131 6.31618 10.2484C5.41515 10.5067 4.6785 11.2294 4.51412 12.1827C4.45933 12.4995 4.59936 12.8593 4.94029 12.9393C5.2386 12.9915 5.63128 12.8316 5.69216 12.4933Z" stroke="currentColor" stroke-width="0.3"/>
<path d="M15.506 3.8457C15.293 3.38748 14.8972 3.09841 14.4041 3.0369C13.9871 2.9877 13.5487 3.16914 13.2048 3.39056C12.7756 3.66733 12.4194 4.02406 12.0754 4.39925C11.9811 4.5038 11.8776 4.59606 11.768 4.68832C11.6797 4.76213 11.8289 4.64527 11.7984 4.66679C11.768 4.68832 11.7406 4.70985 11.7132 4.73137C11.6493 4.7775 11.5854 4.82056 11.5214 4.86361C11.3936 4.94357 11.2627 5.02045 11.1288 5.0881C11.0648 5.12193 10.9979 5.15269 10.9339 5.18344C10.8974 5.19881 10.8609 5.21727 10.8244 5.23264C10.7026 5.288 10.937 5.18651 10.8122 5.23879C10.4986 5.36488 10.179 5.47251 9.85332 5.5617C9.50934 5.65703 9.16232 5.73083 8.81226 5.78926C8.72399 5.80464 8.63267 5.82002 8.54439 5.83232C8.52004 5.83539 8.38915 5.85385 8.4896 5.84154C8.59309 5.82924 8.42567 5.85077 8.39828 5.85385C8.21868 5.87537 8.03908 5.89382 7.85644 5.9092C7.15936 5.96456 6.4562 5.97071 5.75912 5.90613C5.68606 5.89997 5.61301 5.89075 5.53691 5.8846C5.49733 5.88152 5.45776 5.87537 5.42123 5.86922C5.32991 5.85692 5.57648 5.89075 5.41819 5.86922C5.27208 5.8477 5.12597 5.82309 4.9829 5.79234C4.7272 5.74006 4.47455 5.66933 4.23103 5.57707C4.20667 5.56785 4.18537 5.55862 4.16101 5.54939C4.36192 5.62013 4.2432 5.58322 4.1945 5.5617C4.05143 5.49711 3.90836 5.43561 3.7592 5.38333C3.54612 5.30952 3.33304 5.26647 3.11083 5.23879C2.78208 5.19881 2.44115 5.25417 2.14892 5.41101C1.75624 5.6232 1.49142 6.05374 1.42445 6.4935C1.39705 6.67494 1.39096 6.82563 1.39401 7.01015C1.4001 7.49604 1.41227 7.98193 1.43662 8.46475C1.47924 9.3289 1.54925 10.193 1.65579 11.051C1.84148 12.5149 2.11544 13.9695 2.57204 15.3718C2.92515 16.4604 3.3787 17.5245 3.97533 18.5024C4.4502 19.2805 5.01638 20.0154 5.67693 20.6428C6.22485 21.1625 6.8367 21.6207 7.49725 21.9805C8.04822 22.2788 8.63571 22.5187 9.24147 22.6848C9.72242 22.817 10.2156 22.9 10.7117 22.94C10.9948 22.9646 11.2779 22.9708 11.561 22.9554C11.6219 22.9523 11.6858 22.9462 11.7467 22.94C12.1515 22.8939 12.5473 22.6817 12.9156 22.5095C13.9688 22.0113 14.9338 21.2794 15.6582 20.3599C16.3645 19.468 16.8667 18.4471 17.1833 17.3492C17.4938 16.2759 17.6247 15.1442 17.646 14.0279C17.6673 12.8993 17.5638 11.7737 17.3994 10.6605C17.2533 9.6764 17.0494 8.70154 16.7967 7.73898C16.5958 6.96709 16.3645 6.20443 16.1088 5.45099C15.9596 5.01737 15.8044 4.58684 15.6308 4.16245C15.5943 4.05174 15.5517 3.95026 15.506 3.8457C15.3782 3.55047 14.9277 3.46129 14.672 3.62428C14.3676 3.8211 14.3189 4.15015 14.4528 4.4669C14.4954 4.56838 14.398 4.33774 14.4102 4.36849C14.4285 4.41155 14.4467 4.45768 14.465 4.50073C14.532 4.66679 14.5959 4.83286 14.6598 5.002C14.882 5.59552 15.0829 6.1952 15.2686 6.79795C15.5274 7.6498 15.7557 8.51395 15.9383 9.38425C16.0418 9.87629 16.1331 10.3745 16.2092 10.8727C16.2275 10.9988 16.2457 11.1249 16.264 11.2509C16.2823 11.377 16.2457 11.1125 16.2579 11.214C16.261 11.2417 16.264 11.2694 16.2701 11.3001C16.2792 11.3709 16.2884 11.4416 16.2944 11.5123C16.3249 11.7737 16.3523 12.0382 16.3705 12.2996C16.4527 13.3544 16.4558 14.4185 16.3279 15.4671C16.3249 15.501 16.3188 15.5348 16.3158 15.5655C16.3218 15.4948 16.3371 15.4179 16.3188 15.5286C16.3097 15.5963 16.3005 15.6609 16.2884 15.7285C16.267 15.8546 16.2457 15.9807 16.2214 16.1099C16.1727 16.3651 16.1148 16.6203 16.0448 16.8694C15.9779 17.1185 15.9018 17.3646 15.8135 17.6075C15.7678 17.7305 15.7191 17.8505 15.6704 17.9735C15.6887 17.9243 15.7283 17.8382 15.6887 17.9304C15.6765 17.9612 15.6613 17.9888 15.6491 18.0196C15.6217 18.078 15.5943 18.1395 15.5669 18.198C15.4573 18.4286 15.3356 18.6562 15.2047 18.8745C15.1377 18.9852 15.0677 19.0959 14.9947 19.2036C14.9612 19.2528 14.9246 19.3051 14.8912 19.3543C14.8729 19.3819 14.8516 19.4065 14.8333 19.4342C14.8181 19.4557 14.745 19.5511 14.812 19.4619C14.882 19.3727 14.809 19.468 14.7907 19.4896C14.7724 19.5111 14.7542 19.5326 14.739 19.5572C14.6933 19.6126 14.6476 19.6679 14.602 19.7202C14.5167 19.8186 14.4315 19.914 14.3432 20.0062C14.1575 20.2 13.9597 20.3814 13.7527 20.5505C13.7253 20.5721 13.6979 20.5936 13.6705 20.6151C13.5974 20.6735 13.6492 20.6274 13.7009 20.5936C13.637 20.6336 13.5792 20.6858 13.5183 20.7289C13.4057 20.8089 13.293 20.8888 13.1743 20.9626C12.9278 21.1195 12.6721 21.264 12.4103 21.3932C12.3464 21.4239 12.2824 21.4547 12.2155 21.4854C12.1789 21.5008 12.1455 21.5192 12.1089 21.5346C12.0846 21.5469 11.9415 21.6084 12.042 21.5654C12.1394 21.5223 12.0267 21.5715 12.0054 21.5808C11.9689 21.5961 11.9324 21.6115 11.8928 21.6269C11.8167 21.6576 11.7406 21.6853 11.6645 21.713C11.4575 21.7868 11.8319 21.7099 11.7376 21.7161C11.564 21.7314 11.3936 21.7407 11.2201 21.7407C11.0618 21.7407 10.9005 21.7314 10.7422 21.7191C10.6478 21.713 10.5534 21.7038 10.4591 21.6915C10.4347 21.6884 10.4104 21.6853 10.3891 21.6822C10.2795 21.6699 10.5869 21.7099 10.4621 21.6915C10.4073 21.6822 10.3556 21.6761 10.3008 21.6669C9.80766 21.5838 9.32061 21.4516 8.85184 21.2732C8.78791 21.2486 8.72094 21.2209 8.65702 21.1963C8.52917 21.1441 8.80618 21.2609 8.69355 21.2117C8.65702 21.1963 8.62049 21.181 8.58396 21.1625C8.44698 21.101 8.31 21.0334 8.17606 20.9626C7.88993 20.8119 7.61292 20.6428 7.34809 20.4552C7.27504 20.406 7.20502 20.3537 7.13501 20.2984C7.10153 20.2738 7.06804 20.2461 7.03456 20.2215C7.01325 20.2061 7.17458 20.3322 7.08935 20.2645C7.06804 20.2492 7.04978 20.2307 7.02847 20.2153C6.88845 20.1015 6.75147 19.9816 6.61753 19.8586C6.32531 19.588 6.05134 19.2989 5.79565 18.9914C5.72564 18.9083 5.65867 18.8222 5.5917 18.7361C5.53082 18.6593 5.60692 18.7546 5.62823 18.7853C5.61301 18.7638 5.59474 18.7423 5.57952 18.7177C5.54604 18.6716 5.51255 18.6285 5.47907 18.5824C5.34513 18.3979 5.21729 18.2072 5.09553 18.0134C4.8307 17.5891 4.59022 17.1493 4.37714 16.6942C4.3193 16.5711 4.26147 16.4451 4.20667 16.319C4.1945 16.2913 4.18232 16.2636 4.17015 16.2359C4.15797 16.2083 4.10927 16.0945 4.15493 16.199C4.20059 16.3067 4.14884 16.1806 4.13971 16.1591C4.12753 16.1252 4.11231 16.0914 4.10013 16.0576C3.99055 15.787 3.8901 15.5102 3.79573 15.2334C3.58874 14.6214 3.41828 14.0002 3.27216 13.3729C3.10779 12.6563 2.97994 11.9336 2.87949 11.2079C2.87644 11.1864 2.8734 11.1648 2.87035 11.1433C2.85818 11.0572 2.88557 11.2663 2.87644 11.1802C2.87035 11.1372 2.86427 11.0941 2.86122 11.051C2.846 10.9434 2.83382 10.8327 2.82165 10.7251C2.7973 10.5252 2.77599 10.3222 2.75772 10.1223C2.71815 9.69178 2.68467 9.26124 2.66032 8.8307C2.62074 8.13877 2.56595 7.42531 2.59944 6.73337C2.60248 6.69954 2.61466 6.60729 2.59639 6.74875C2.57813 6.89636 2.59335 6.7795 2.59944 6.7426C2.61466 6.67494 2.64205 6.61036 2.65727 6.54578C2.66336 6.52425 2.57508 6.71492 2.62379 6.62574C2.63292 6.61036 2.63901 6.59498 2.64814 6.57961C2.6664 6.5427 2.6938 6.51195 2.71206 6.47812C2.61466 6.65649 2.65423 6.55501 2.71206 6.4935C2.72424 6.4812 2.74555 6.47197 2.75468 6.4566C2.75468 6.45967 2.61466 6.54578 2.67858 6.5181C2.69076 6.51195 2.69989 6.50273 2.71206 6.49658C2.73033 6.48735 2.74859 6.47812 2.76686 6.46582C2.82774 6.42584 2.60857 6.51503 2.71206 6.49043C2.76686 6.47812 2.81861 6.46275 2.8734 6.45045C2.89471 6.4443 2.70598 6.46275 2.82774 6.45967C2.85513 6.45967 2.88557 6.4566 2.91297 6.4566C2.9495 6.4566 2.98298 6.45967 3.01951 6.46275C3.1504 6.47197 2.88862 6.43507 3.02255 6.46275C3.20519 6.49965 3.3787 6.55501 3.55221 6.61959C3.57656 6.62881 3.65571 6.66572 3.54308 6.61344C3.56134 6.62266 3.58265 6.63189 3.60092 6.63804C3.66788 6.66879 3.73485 6.69647 3.80182 6.72415C3.85661 6.74567 3.91141 6.7672 3.9662 6.78873C4.53238 6.99477 5.14727 7.08088 5.7439 7.13623C7.15632 7.26539 8.62353 7.14238 9.99638 6.7918C10.66 6.62266 11.3175 6.38587 11.9172 6.04759C12.1942 5.89075 12.459 5.70316 12.6995 5.49096C13.0008 5.22649 13.2443 4.90359 13.5518 4.64527C13.5914 4.61144 13.6279 4.58069 13.6675 4.54993C13.5761 4.62374 13.6766 4.54378 13.7162 4.51918C13.7953 4.46383 13.8745 4.41155 13.9597 4.36542C13.9962 4.34697 14.0327 4.32851 14.0693 4.31006C14.1636 4.26086 13.9536 4.34697 14.0845 4.30699C14.1575 4.28546 14.2367 4.27623 14.3067 4.24856C14.2945 4.25163 14.1484 4.25778 14.2428 4.26086C14.258 4.26086 14.2732 4.26086 14.2915 4.26086C14.3189 4.26086 14.4315 4.27008 14.3189 4.25778C14.1667 4.24241 14.3585 4.27008 14.3554 4.27623C14.3493 4.28239 14.1941 4.20243 14.3311 4.27316C14.3432 4.27931 14.3554 4.29469 14.3706 4.29776C14.3615 4.29469 14.2824 4.20858 14.3097 4.25163C14.3219 4.27316 14.3706 4.32544 14.3889 4.33466C14.3798 4.33159 14.325 4.22703 14.3463 4.28239C14.3524 4.29776 14.3676 4.31314 14.3767 4.32851C14.4041 4.37464 14.4285 4.42077 14.4498 4.46998C14.5837 4.76213 15.0251 4.86054 15.2838 4.6914C15.5882 4.49458 15.6522 4.15937 15.506 3.8457Z" />
<path d="M15.506 3.8457C15.293 3.38748 14.8972 3.09841 14.4041 3.0369C13.9871 2.9877 13.5487 3.16914 13.2048 3.39056C12.7756 3.66733 12.4194 4.02406 12.0754 4.39925C11.9811 4.5038 11.8776 4.59606 11.768 4.68832C11.6797 4.76213 11.8289 4.64527 11.7984 4.66679C11.768 4.68832 11.7406 4.70985 11.7132 4.73137C11.6493 4.7775 11.5854 4.82056 11.5214 4.86361C11.3936 4.94357 11.2627 5.02045 11.1288 5.0881C11.0648 5.12193 10.9979 5.15269 10.9339 5.18344C10.8974 5.19881 10.8609 5.21727 10.8244 5.23264C10.7026 5.288 10.937 5.18651 10.8122 5.23879C10.4986 5.36488 10.179 5.47251 9.85332 5.5617C9.50934 5.65703 9.16232 5.73083 8.81226 5.78926C8.72399 5.80464 8.63267 5.82002 8.54439 5.83232C8.52004 5.83539 8.38915 5.85385 8.4896 5.84154C8.59309 5.82924 8.42567 5.85077 8.39828 5.85385C8.21868 5.87537 8.03908 5.89382 7.85644 5.9092C7.15936 5.96455 6.4562 5.97071 5.75912 5.90613C5.68606 5.89997 5.61301 5.89075 5.53691 5.8846C5.49733 5.88152 5.45776 5.87537 5.42123 5.86922C5.32991 5.85692 5.57648 5.89075 5.41819 5.86922C5.27208 5.8477 5.12597 5.82309 4.9829 5.79234C4.7272 5.74006 4.47455 5.66933 4.23103 5.57707C4.20667 5.56785 4.18537 5.55862 4.16101 5.54939C4.36192 5.62013 4.2432 5.58322 4.1945 5.5617C4.05143 5.49711 3.90836 5.43561 3.7592 5.38333C3.54612 5.30952 3.33304 5.26647 3.11083 5.23879C2.78208 5.19881 2.44115 5.25417 2.14892 5.41101C1.75624 5.6232 1.49142 6.05374 1.42445 6.4935C1.39705 6.67494 1.39096 6.82563 1.39401 7.01015C1.4001 7.49604 1.41227 7.98193 1.43662 8.46475C1.47924 9.32889 1.54925 10.193 1.65579 11.051C1.84148 12.5149 2.11544 13.9695 2.57204 15.3718C2.92515 16.4604 3.3787 17.5245 3.97533 18.5024C4.4502 19.2805 5.01638 20.0154 5.67693 20.6428C6.22485 21.1625 6.8367 21.6207 7.49725 21.9805C8.04822 22.2788 8.63571 22.5187 9.24147 22.6848C9.72242 22.817 10.2156 22.9 10.7117 22.94C10.9948 22.9646 11.2779 22.9708 11.561 22.9554C11.6219 22.9523 11.6858 22.9462 11.7467 22.94C12.1515 22.8939 12.5473 22.6817 12.9156 22.5095C13.9688 22.0113 14.9338 21.2794 15.6582 20.3599C16.3645 19.468 16.8667 18.4471 17.1833 17.3492C17.4938 16.2759 17.6247 15.1442 17.646 14.0279C17.6673 12.8993 17.5638 11.7737 17.3994 10.6605C17.2533 9.6764 17.0494 8.70154 16.7967 7.73898C16.5958 6.96709 16.3645 6.20443 16.1088 5.45099C15.9596 5.01737 15.8044 4.58684 15.6308 4.16245C15.5943 4.05174 15.5517 3.95026 15.506 3.8457ZM15.506 3.8457C15.3782 3.55047 14.9277 3.46129 14.672 3.62428C14.3676 3.8211 14.3189 4.15015 14.4528 4.4669C14.4954 4.56838 14.398 4.33774 14.4102 4.36849C14.4285 4.41155 14.4467 4.45768 14.465 4.50073C14.532 4.66679 14.5959 4.83286 14.6598 5.002C14.882 5.59552 15.0829 6.1952 15.2686 6.79795C15.5274 7.6498 15.7557 8.51395 15.9383 9.38425C16.0418 9.87629 16.1331 10.3745 16.2092 10.8727C16.2275 10.9988 16.2457 11.1249 16.264 11.2509C16.2823 11.377 16.2457 11.1125 16.2579 11.214C16.261 11.2417 16.264 11.2694 16.2701 11.3001C16.2792 11.3709 16.2884 11.4416 16.2944 11.5123C16.3249 11.7737 16.3523 12.0382 16.3705 12.2996C16.4527 13.3544 16.4558 14.4185 16.3279 15.4671C16.3249 15.501 16.3188 15.5348 16.3158 15.5655C16.3218 15.4948 16.3371 15.4179 16.3188 15.5286C16.3097 15.5963 16.3005 15.6609 16.2884 15.7285C16.267 15.8546 16.2457 15.9807 16.2214 16.1099C16.1727 16.3651 16.1148 16.6203 16.0448 16.8694C15.9779 17.1185 15.9018 17.3646 15.8135 17.6075C15.7678 17.7305 15.7191 17.8505 15.6704 17.9735C15.6887 17.9243 15.7283 17.8382 15.6887 17.9304C15.6765 17.9612 15.6613 17.9888 15.6491 18.0196C15.6217 18.078 15.5943 18.1395 15.5669 18.198C15.4573 18.4286 15.3356 18.6562 15.2047 18.8745C15.1377 18.9852 15.0677 19.0959 14.9947 19.2036C14.9612 19.2528 14.9246 19.3051 14.8912 19.3543C14.8729 19.3819 14.8516 19.4065 14.8333 19.4342C14.8181 19.4557 14.745 19.5511 14.812 19.4619C14.882 19.3727 14.809 19.468 14.7907 19.4896C14.7724 19.5111 14.7542 19.5326 14.739 19.5572C14.6933 19.6126 14.6476 19.6679 14.602 19.7202C14.5167 19.8186 14.4315 19.914 14.3432 20.0062C14.1575 20.2 13.9597 20.3814 13.7527 20.5505C13.7253 20.5721 13.6979 20.5936 13.6705 20.6151C13.5974 20.6735 13.6492 20.6274 13.7009 20.5936C13.637 20.6336 13.5792 20.6858 13.5183 20.7289C13.4057 20.8089 13.293 20.8888 13.1743 20.9626C12.9278 21.1195 12.6721 21.264 12.4103 21.3932C12.3464 21.4239 12.2824 21.4547 12.2155 21.4854C12.1789 21.5008 12.1455 21.5192 12.1089 21.5346C12.0846 21.5469 11.9415 21.6084 12.042 21.5654C12.1394 21.5223 12.0267 21.5715 12.0054 21.5808C11.9689 21.5961 11.9324 21.6115 11.8928 21.6269C11.8167 21.6576 11.7406 21.6853 11.6645 21.713C11.4575 21.7868 11.8319 21.7099 11.7376 21.7161C11.564 21.7314 11.3936 21.7407 11.2201 21.7407C11.0618 21.7407 10.9005 21.7314 10.7422 21.7191C10.6478 21.713 10.5534 21.7038 10.4591 21.6915C10.4347 21.6884 10.4104 21.6853 10.3891 21.6822C10.2795 21.6699 10.5869 21.7099 10.4621 21.6915C10.4073 21.6822 10.3556 21.6761 10.3008 21.6669C9.80766 21.5838 9.32061 21.4516 8.85184 21.2732C8.78791 21.2486 8.72094 21.2209 8.65702 21.1963C8.52917 21.1441 8.80618 21.2609 8.69355 21.2117C8.65702 21.1963 8.62049 21.181 8.58396 21.1625C8.44698 21.101 8.31 21.0334 8.17606 20.9626C7.88993 20.8119 7.61292 20.6428 7.34809 20.4552C7.27504 20.406 7.20502 20.3537 7.13501 20.2984C7.10153 20.2738 7.06804 20.2461 7.03456 20.2215C7.01325 20.2061 7.17458 20.3322 7.08935 20.2645C7.06804 20.2492 7.04978 20.2307 7.02847 20.2153C6.88845 20.1015 6.75147 19.9816 6.61753 19.8586C6.32531 19.588 6.05134 19.2989 5.79565 18.9914C5.72564 18.9083 5.65867 18.8222 5.5917 18.7361C5.53082 18.6592 5.60692 18.7546 5.62823 18.7853C5.61301 18.7638 5.59474 18.7423 5.57952 18.7177C5.54604 18.6716 5.51255 18.6285 5.47907 18.5824C5.34513 18.3979 5.21729 18.2072 5.09553 18.0134C4.8307 17.5891 4.59022 17.1493 4.37714 16.6942C4.3193 16.5711 4.26147 16.4451 4.20667 16.319C4.1945 16.2913 4.18232 16.2636 4.17015 16.2359C4.15797 16.2083 4.10927 16.0945 4.15493 16.199C4.20059 16.3067 4.14884 16.1806 4.13971 16.1591C4.12753 16.1252 4.11231 16.0914 4.10013 16.0576C3.99055 15.787 3.8901 15.5102 3.79573 15.2334C3.58874 14.6214 3.41828 14.0002 3.27216 13.3729C3.10779 12.6563 2.97994 11.9336 2.87949 11.2079C2.87644 11.1864 2.8734 11.1648 2.87035 11.1433C2.85818 11.0572 2.88557 11.2663 2.87644 11.1802C2.87035 11.1372 2.86427 11.0941 2.86122 11.051C2.846 10.9434 2.83383 10.8327 2.82165 10.7251C2.7973 10.5252 2.77599 10.3222 2.75772 10.1223C2.71815 9.69178 2.68467 9.26124 2.66032 8.8307C2.62074 8.13877 2.56595 7.42531 2.59944 6.73337C2.60248 6.69954 2.61466 6.60729 2.59639 6.74875C2.57813 6.89636 2.59335 6.7795 2.59944 6.7426C2.61466 6.67494 2.64205 6.61036 2.65727 6.54578C2.66336 6.52425 2.57508 6.71492 2.62379 6.62574C2.63292 6.61036 2.63901 6.59498 2.64814 6.57961C2.6664 6.5427 2.6938 6.51195 2.71206 6.47812C2.61466 6.65649 2.65423 6.55501 2.71206 6.4935C2.72424 6.4812 2.74555 6.47197 2.75468 6.4566C2.75468 6.45967 2.61466 6.54578 2.67858 6.5181C2.69076 6.51195 2.69989 6.50273 2.71206 6.49658C2.73033 6.48735 2.74859 6.47812 2.76686 6.46582C2.82774 6.42584 2.60857 6.51503 2.71206 6.49043C2.76686 6.47812 2.81861 6.46275 2.8734 6.45045C2.89471 6.4443 2.70598 6.46275 2.82774 6.45967C2.85513 6.45967 2.88557 6.4566 2.91297 6.4566C2.9495 6.4566 2.98298 6.45967 3.01951 6.46275C3.1504 6.47197 2.88862 6.43507 3.02255 6.46275C3.20519 6.49965 3.3787 6.55501 3.55221 6.61959C3.57656 6.62881 3.65571 6.66572 3.54308 6.61344C3.56134 6.62266 3.58265 6.63189 3.60092 6.63804C3.66788 6.66879 3.73485 6.69647 3.80182 6.72415C3.85661 6.74567 3.91141 6.7672 3.9662 6.78873C4.53238 6.99477 5.14727 7.08088 5.7439 7.13623C7.15632 7.26539 8.62353 7.14238 9.99638 6.7918C10.66 6.62266 11.3175 6.38587 11.9172 6.04759C12.1942 5.89075 12.459 5.70316 12.6995 5.49096C13.0008 5.22649 13.2443 4.90359 13.5518 4.64527C13.5914 4.61144 13.6279 4.58069 13.6675 4.54993C13.5761 4.62374 13.6766 4.54378 13.7162 4.51918C13.7953 4.46383 13.8745 4.41155 13.9597 4.36542C13.9962 4.34697 14.0327 4.32851 14.0693 4.31006C14.1636 4.26086 13.9536 4.34697 14.0845 4.30699C14.1575 4.28546 14.2367 4.27623 14.3067 4.24856C14.2945 4.25163 14.1484 4.25778 14.2428 4.26086C14.258 4.26086 14.2732 4.26086 14.2915 4.26086C14.3189 4.26086 14.4315 4.27008 14.3189 4.25778C14.1667 4.24241 14.3585 4.27008 14.3554 4.27623C14.3493 4.28239 14.1941 4.20243 14.3311 4.27316C14.3432 4.27931 14.3554 4.29469 14.3706 4.29776C14.3615 4.29469 14.2824 4.20858 14.3097 4.25163C14.3219 4.27316 14.3706 4.32544 14.3889 4.33466C14.3798 4.33159 14.325 4.22703 14.3463 4.28239C14.3524 4.29776 14.3676 4.31314 14.3767 4.32851C14.4041 4.37464 14.4285 4.42077 14.4498 4.46998C14.5837 4.76213 15.0251 4.86053 15.2838 4.6914C15.5882 4.49458 15.6522 4.15937 15.506 3.8457Z" stroke="currentColor" stroke-width="0.3"/>
<path d="M14.5746 22.8939C15.2747 24.6745 16.5136 26.2213 18.197 27.1378C18.5074 27.3069 18.8453 27.4914 19.1893 27.5775C19.3719 27.6236 19.582 27.6206 19.7707 27.6267C19.9564 27.6329 20.1421 27.636 20.3278 27.6298C20.7235 27.6206 21.1192 27.5775 21.5119 27.5099C22.8756 27.2823 24.1328 26.6396 25.1708 25.7262C26.157 24.8621 26.9302 23.7519 27.5299 22.5864C28.1417 21.3993 28.5983 20.1292 28.9454 18.8376C29.2467 17.7213 29.4689 16.5834 29.6272 15.4364C29.7429 14.603 29.8342 13.7665 29.8829 12.927C29.9103 12.4595 29.9651 11.9367 29.8068 11.4939C29.679 11.1372 29.4507 10.8173 29.1067 10.6451C28.6592 10.4237 28.163 10.4391 27.6851 10.5436C27.3777 10.6113 27.0824 10.7281 26.7932 10.8512C26.7628 10.8635 26.5345 10.9465 26.7567 10.8665C26.7385 10.8727 26.7171 10.8819 26.6989 10.8911C26.6593 10.9065 26.6197 10.9219 26.5832 10.9342C26.4828 10.9711 26.3793 10.9988 26.2758 11.0264C26.1844 11.051 26.0901 11.0695 25.9988 11.0879C25.947 11.0972 25.8983 11.1064 25.8466 11.1156C25.8253 11.1187 25.8009 11.1218 25.7765 11.1249C25.9622 11.0879 25.8435 11.1156 25.7979 11.1218C25.5787 11.1464 25.3595 11.1618 25.1373 11.1648C24.906 11.1679 24.6716 11.1618 24.4402 11.1464C24.3215 11.1372 24.2028 11.1279 24.0841 11.1156C24.0293 11.1095 23.9775 11.1033 23.9227 11.0972C23.8893 11.0941 23.8558 11.0879 23.8223 11.0849C23.7645 11.0787 23.9654 11.1064 23.8223 11.0849C23.3292 11.0141 22.8391 10.9096 22.3581 10.7743C22.1237 10.7097 21.8924 10.6359 21.661 10.559C21.5484 10.519 21.4358 10.479 21.3262 10.436C21.2257 10.3991 21.104 10.3222 21.0005 10.3068C21.1253 10.3253 21.0796 10.3407 21.0218 10.3161C20.9974 10.3068 20.9761 10.2945 20.9518 10.2853C20.9 10.2638 20.8483 10.2392 20.7996 10.2146C20.6961 10.1654 20.5896 10.1131 20.4891 10.0608C20.3065 9.96548 20.1269 9.86399 19.9503 9.75328C19.8742 9.70408 19.7981 9.65487 19.7251 9.59952C19.6824 9.56877 19.6429 9.53494 19.6002 9.50726C19.6033 9.51034 19.725 9.60875 19.652 9.54724C19.6368 9.53494 19.6216 9.52264 19.6063 9.51034C19.4785 9.40578 19.3567 9.29199 19.2471 9.16591C19.0341 8.92604 18.5988 8.92911 18.3857 9.16591C18.1513 9.42115 18.1574 9.77789 18.3857 10.0362C18.9214 10.642 19.6763 11.0572 20.4069 11.377C21.3262 11.7768 22.2851 12.072 23.2744 12.235C24.2606 12.398 25.2591 12.4595 26.2484 12.2873C26.4401 12.2535 26.6289 12.2104 26.8115 12.152C26.8998 12.1243 26.9881 12.0905 27.0763 12.0567C27.1342 12.0321 27.2011 12.0075 27.2498 11.9829C27.3138 11.949 27.2498 11.9829 27.2377 11.989C27.3199 11.9552 27.402 11.9213 27.4842 11.8906C27.6151 11.8414 27.7491 11.7983 27.883 11.7645C27.9347 11.7522 27.9895 11.7368 28.0413 11.7276C28.0656 11.7215 28.09 11.7184 28.1174 11.7122C28.1813 11.6999 28.2513 11.7184 28.0991 11.7122C28.1874 11.7153 28.2787 11.6969 28.37 11.6999C28.3944 11.6999 28.4187 11.703 28.4401 11.703C28.4948 11.703 28.504 11.7399 28.3579 11.6907C28.3974 11.703 28.4401 11.7061 28.4796 11.7153C28.5101 11.7245 28.5405 11.7399 28.5679 11.743C28.4248 11.7215 28.4492 11.6876 28.5314 11.7307C28.5557 11.7461 28.5831 11.7707 28.6105 11.7799C28.6105 11.7799 28.4857 11.6661 28.5344 11.7215C28.5466 11.7368 28.5649 11.7491 28.577 11.7614C28.5953 11.7799 28.6105 11.8045 28.6288 11.8199C28.507 11.7245 28.5496 11.703 28.5892 11.7737C28.6044 11.7983 28.6197 11.8229 28.6318 11.8475C28.6897 11.9613 28.6288 11.8445 28.6166 11.8045C28.6318 11.8568 28.6501 11.906 28.6623 11.9582C28.6684 11.9859 28.6744 12.0136 28.6805 12.0413C28.7079 12.1797 28.6653 11.8783 28.6744 11.9859C28.6836 12.0843 28.6866 12.1858 28.6836 12.2842C28.6805 12.3857 28.6775 12.4872 28.6744 12.5887C28.647 13.2314 28.5923 13.8711 28.5222 14.5076C28.5101 14.6184 28.4979 14.7321 28.4827 14.8428C28.4766 14.9013 28.4675 14.9628 28.4614 15.0212C28.4461 15.1504 28.4461 14.9812 28.4705 14.9597C28.4583 14.972 28.4583 15.0427 28.4553 15.0612C28.4187 15.3195 28.3822 15.5778 28.3396 15.8331C28.2483 16.3897 28.1417 16.9463 28.0169 17.4968C27.883 18.0965 27.7247 18.6931 27.5451 19.2835C27.4538 19.5849 27.3533 19.8832 27.2468 20.1815C27.192 20.3322 27.1372 20.4829 27.0763 20.6336C27.0459 20.7074 27.0185 20.7843 26.9881 20.8581C26.9759 20.8919 26.9607 20.9257 26.9485 20.9565C26.915 21.0426 26.9789 20.8827 26.9789 20.8827C26.9668 20.9073 26.9576 20.9319 26.9485 20.9565C26.6989 21.5438 26.4158 22.1189 26.0901 22.6663C25.9287 22.9369 25.7583 23.1983 25.5787 23.4536C25.533 23.5182 25.4874 23.5828 25.4387 23.6443C25.4082 23.6842 25.323 23.7857 25.4539 23.6227C25.4265 23.6566 25.3991 23.6904 25.3747 23.7273C25.2773 23.8503 25.1769 23.9702 25.0734 24.0871C24.8725 24.3177 24.6594 24.5392 24.4341 24.7452C24.3215 24.8498 24.2028 24.9512 24.0841 25.0466C24.0536 25.0712 24.0232 25.0927 23.9928 25.1204C23.9897 25.1235 24.1267 25.0189 24.0536 25.0712C24.0384 25.0804 24.0262 25.0927 24.0141 25.1019C23.9532 25.1481 23.8893 25.1942 23.8284 25.2403C23.5757 25.4187 23.3109 25.5817 23.0339 25.7262C22.8939 25.8 22.7508 25.8615 22.6077 25.9292C22.6047 25.9292 22.763 25.8646 22.6808 25.8984C22.6656 25.9046 22.6473 25.9107 22.6321 25.92C22.5986 25.9323 22.5651 25.9476 22.5347 25.9599C22.4555 25.9907 22.3764 26.0184 22.2972 26.046C21.9898 26.1537 21.6763 26.2367 21.3566 26.2951C21.2745 26.3105 21.1892 26.3259 21.104 26.3382C21.0857 26.3413 21.0675 26.3443 21.0462 26.3474C20.9518 26.3628 21.1223 26.3382 21.1223 26.3382C21.0735 26.3413 21.0248 26.3505 20.9792 26.3566C20.8026 26.3751 20.6261 26.3905 20.4495 26.3966C20.2638 26.4058 20.0812 26.4058 19.8955 26.3997C19.8072 26.3966 19.7159 26.3935 19.6276 26.3874C19.5789 26.3843 19.5302 26.3812 19.4846 26.3782C19.4633 26.3751 19.442 26.3751 19.4206 26.372C19.3385 26.3659 19.4328 26.3413 19.5181 26.3874C19.4511 26.3505 19.3598 26.332 19.2898 26.3044C19.2319 26.2798 19.0797 26.209 19.3141 26.3167C19.2684 26.2951 19.2228 26.2767 19.1771 26.2552C19.0675 26.206 18.961 26.1506 18.8545 26.0922C18.5775 25.9446 18.3096 25.7754 18.0539 25.5909C18.0204 25.5663 17.99 25.5417 17.9565 25.5202C17.9413 25.5079 17.923 25.4956 17.9078 25.4833C17.8165 25.4156 18.0052 25.5632 17.9443 25.5109C17.8652 25.4464 17.783 25.3818 17.7069 25.3141C17.5516 25.1819 17.4025 25.0404 17.2594 24.8959C17.1011 24.7329 16.9489 24.5638 16.8028 24.3854C16.7724 24.3454 16.7084 24.2901 16.6902 24.2439C16.6932 24.2532 16.7754 24.3608 16.7115 24.2716C16.6963 24.2501 16.678 24.2286 16.6628 24.207C16.5897 24.1055 16.5167 24.001 16.4467 23.8964C16.3036 23.6812 16.1727 23.4567 16.054 23.226C15.9931 23.1092 15.9353 22.9892 15.8774 22.8662C15.85 22.8078 15.8257 22.7494 15.7983 22.6909C15.7344 22.5464 15.8287 22.7709 15.7922 22.6786C15.777 22.6386 15.7617 22.6017 15.7465 22.5618C15.6278 22.2635 15.3356 22.0236 14.9977 22.1312C14.7146 22.2327 14.4467 22.5741 14.5746 22.8939Z"  stroke="currentColor" stroke-width="0.3"/>
<path d="M18.4861 15.5471C18.5013 15.5256 18.5196 15.4887 18.5409 15.4671C18.4466 15.5594 18.5196 15.4948 18.547 15.4671C18.5835 15.4241 18.6262 15.381 18.6657 15.3441C18.687 15.3257 18.7083 15.3072 18.7266 15.2888C18.7875 15.2273 18.6048 15.3718 18.7144 15.298C18.7631 15.2672 18.8088 15.2334 18.8575 15.2057C18.9001 15.1811 18.9671 15.1627 19.0036 15.1319C18.9945 15.1381 18.8605 15.1842 18.9549 15.1534C18.9762 15.1473 18.9975 15.1381 19.0188 15.1319C19.1101 15.1012 19.2015 15.0858 19.2928 15.0643C19.3902 15.0427 19.1254 15.0766 19.2715 15.0673C19.305 15.0643 19.3415 15.0612 19.375 15.0612C19.4419 15.0581 19.5089 15.0581 19.5728 15.0643C19.652 15.0704 19.8103 15.0766 19.5515 15.0581C19.5698 15.0581 19.585 15.0643 19.6033 15.0673C19.7768 15.0919 19.8194 15.0981 19.725 15.0827C19.6337 15.0643 19.725 15.0827 19.7463 15.0889C19.8042 15.0981 19.862 15.1104 19.9168 15.1288C19.9625 15.1411 20.0112 15.1565 20.0568 15.1719C20.0781 15.178 20.1025 15.1934 20.1208 15.1965C19.9807 15.1657 20.0416 15.1627 20.0964 15.1903C20.1299 15.2088 20.2791 15.3287 20.3095 15.3226C20.2547 15.3318 20.2029 15.2273 20.2547 15.2826C20.2669 15.2949 20.2851 15.3072 20.2973 15.3226C20.3308 15.3564 20.3612 15.3902 20.3947 15.4241C20.4921 15.5286 20.3369 15.3287 20.3825 15.4087C20.4039 15.4425 20.4282 15.4733 20.4465 15.5102C20.4647 15.5409 20.48 15.5686 20.4952 15.5994C20.5043 15.6147 20.5104 15.6301 20.5165 15.6455C20.5713 15.7531 20.4769 15.5286 20.4952 15.5901C20.5347 15.7193 20.5774 15.8423 20.6017 15.9745C20.6261 16.1006 20.5987 15.9407 20.5956 15.9192C20.5987 15.9499 20.6017 15.9776 20.6048 16.0084C20.6078 16.0545 20.6108 16.1037 20.6108 16.1498C20.6108 16.196 20.6108 16.2421 20.6078 16.2851C20.6687 16.1406 20.7265 15.9961 20.7874 15.8515C20.757 15.8823 20.7265 15.913 20.693 15.9438C20.6809 15.9561 20.6656 15.9684 20.6535 15.9807C20.5804 16.0483 20.6839 15.953 20.693 15.9499C20.6261 15.9715 20.5469 16.0453 20.483 16.0791C20.3704 16.1406 20.5895 16.0483 20.5013 16.073C20.4708 16.0822 20.4434 16.0914 20.416 16.1006C20.3825 16.1099 20.3491 16.116 20.3156 16.1252C20.1877 16.156 20.4586 16.1191 20.3338 16.1222C20.2669 16.1252 20.1999 16.1222 20.1299 16.1222C20.0051 16.116 20.2608 16.1498 20.1634 16.1283C20.1268 16.1191 20.0873 16.1129 20.0477 16.1037C19.9807 16.0883 19.9138 16.0668 19.8498 16.0422C19.8224 16.033 19.7951 16.0176 19.7646 16.0084C19.932 16.0483 19.8316 16.036 19.7737 16.0084C19.6398 15.9438 19.515 15.8669 19.3932 15.7839C19.3354 15.7439 19.2806 15.7008 19.2197 15.6609C19.168 15.624 19.2928 15.7193 19.2837 15.7101C19.2684 15.6978 19.2532 15.6855 19.238 15.6732C19.2076 15.6486 19.1771 15.624 19.1467 15.5994C18.964 15.4425 18.7905 15.2734 18.6292 15.095C18.5683 15.0304 18.5105 14.9628 18.4557 14.8951C18.4405 14.8767 18.4222 14.8551 18.407 14.8336C18.3431 14.7567 18.48 14.929 18.48 14.932C18.3796 14.7998 18.2822 14.6952 18.1148 14.6491C17.9686 14.6091 17.7738 14.6276 17.646 14.7106C17.3964 14.8736 17.2198 15.2795 17.4268 15.5532C17.7556 15.9868 18.1361 16.3651 18.5683 16.6972C19.2106 17.1893 20.0842 17.5552 20.8818 17.2385C21.1527 17.1308 21.3871 16.9832 21.5971 16.7772C21.7524 16.6265 21.8254 16.4451 21.8315 16.2329C21.8406 15.9899 21.8071 15.7377 21.7463 15.501C21.6519 15.1288 21.4632 14.7721 21.1953 14.4953C21.0401 14.3354 20.8483 14.197 20.6474 14.1017C20.5256 14.0433 20.4008 13.991 20.2699 13.9541C20.2151 13.9387 20.1573 13.9233 20.1025 13.9141C20.0447 13.9018 19.6763 13.8526 19.859 13.8772C19.9838 13.8957 19.8894 13.8803 19.862 13.8772C19.7646 13.8618 19.6642 13.8465 19.5637 13.8403C19.3506 13.828 19.1375 13.8526 18.9275 13.8895C18.2974 14.0064 17.7799 14.4092 17.4238 14.932C17.2442 15.1996 17.3659 15.627 17.6429 15.7746C17.9626 15.9315 18.2944 15.83 18.4861 15.5471Z"  stroke="none" stroke-width="0.3"/>
<path d="M17.5851 22.1527C17.6034 22.1251 17.6216 22.0974 17.6429 22.0697C17.6643 22.042 17.6825 22.0113 17.7038 21.9836C17.716 21.9682 17.7282 21.9498 17.7404 21.9344C17.8073 21.8421 17.6338 22.0697 17.7099 21.9775C17.8834 21.7591 18.0691 21.55 18.267 21.3563C18.3948 21.2332 18.5288 21.1164 18.6657 21.0026C18.7418 20.9411 18.544 21.0949 18.6688 20.9995C18.7053 20.9718 18.7388 20.9472 18.7753 20.9226C18.8575 20.8642 18.9427 20.8089 19.028 20.7566C19.1071 20.7074 19.1863 20.6643 19.2654 20.6213C19.3111 20.5967 19.3567 20.5751 19.4054 20.5505C19.4267 20.5413 19.448 20.5321 19.4694 20.5198C19.5607 20.4767 19.4785 20.5259 19.4359 20.5321C19.5302 20.5136 19.6276 20.4583 19.719 20.4306C19.8225 20.3998 19.929 20.3722 20.0355 20.3506C20.0934 20.3383 20.2577 20.3383 20.0721 20.3414C20.1208 20.3414 20.1725 20.3291 20.2212 20.326C20.3369 20.3168 20.4495 20.3168 20.5652 20.3199C20.6169 20.323 20.6687 20.326 20.7235 20.3322C20.7235 20.3322 20.7965 20.3445 20.8026 20.3414C20.7722 20.3629 20.6748 20.3199 20.76 20.3383C20.8818 20.3599 21.0035 20.3875 21.1222 20.4214C21.2288 20.4521 21.3292 20.4921 21.4327 20.529C21.5088 20.5567 21.3201 20.4767 21.3901 20.5106C21.4114 20.5229 21.4358 20.5321 21.4571 20.5413C21.5119 20.5659 21.5667 20.5936 21.6184 20.6243C21.7067 20.6735 21.7919 20.7258 21.8741 20.7812C21.9106 20.8058 21.9472 20.8427 21.9867 20.8611C21.9807 20.8581 21.868 20.7658 21.9441 20.8273C21.9715 20.8488 21.9959 20.8704 22.0233 20.8919C22.1633 21.0149 22.2942 21.1471 22.4129 21.2917C22.4251 21.3071 22.4403 21.3255 22.4525 21.3409C22.5134 21.4147 22.419 21.2978 22.416 21.2917C22.4433 21.3317 22.4738 21.3686 22.4981 21.4055C22.5529 21.4823 22.6016 21.5592 22.6503 21.6392C22.7386 21.7899 22.8208 21.9436 22.8908 22.1035C22.9121 22.1497 22.9578 22.2819 22.8847 22.0882C22.8969 22.122 22.9121 22.1558 22.9273 22.1927C22.9578 22.2665 22.9852 22.3434 23.0095 22.4203C23.1009 22.6878 23.1709 22.9646 23.2165 23.2445C23.2257 23.2906 23.2317 23.3367 23.2378 23.3829C23.2561 23.4966 23.2165 23.2106 23.2257 23.2844C23.2287 23.2998 23.2287 23.3183 23.2317 23.3337C23.2348 23.3644 23.2378 23.3952 23.2409 23.4259C23.6183 23.3214 23.9958 23.2199 24.3763 23.1153C24.011 22.6294 23.5544 22.2266 23.0613 21.8729C22.0628 21.1564 20.8544 20.7474 19.6276 20.7197C18.6962 20.6981 17.7586 20.898 16.8972 21.2455C16.6019 21.3655 16.3645 21.6607 16.471 22.0021C16.5623 22.2911 16.9032 22.5587 17.2198 22.4326C17.6034 22.2788 17.996 22.1527 18.3979 22.0666C18.4922 22.0451 18.5866 22.0267 18.681 22.0113C18.7236 22.0051 18.7662 21.999 18.8088 21.9898C18.9153 21.9744 18.6931 22.0021 18.8362 21.9867C19.0127 21.9652 19.1893 21.9529 19.3689 21.9498C19.5302 21.9467 19.6946 21.9498 19.8559 21.959C19.932 21.9652 20.0051 21.9713 20.0812 21.9775C20.1025 21.9805 20.2578 21.999 20.1451 21.9836C20.0386 21.9682 20.1816 21.9898 20.209 21.9928C20.4982 22.039 20.7813 22.1097 21.0614 22.205C21.1222 22.2266 21.1831 22.2481 21.244 22.2696C21.2775 22.2819 21.314 22.2973 21.3475 22.3096C21.3719 22.3188 21.4936 22.3711 21.3901 22.328C21.2897 22.285 21.3932 22.3311 21.4175 22.3403C21.4449 22.3526 21.4723 22.3649 21.5027 22.3772C21.5606 22.4049 21.6215 22.4326 21.6793 22.4634C21.8954 22.5741 22.1055 22.6971 22.3064 22.8355C22.3946 22.8939 22.4799 22.9554 22.5651 23.02C22.5834 23.0354 22.6047 23.0507 22.6229 23.063C22.6412 23.0784 22.4921 22.9585 22.5834 23.0323C22.6199 23.063 22.6595 23.0938 22.696 23.1245C22.8239 23.2322 22.9456 23.3429 23.0613 23.4597C23.1526 23.5489 23.2409 23.6443 23.3231 23.7427C23.39 23.8226 23.4753 23.9395 23.32 23.7304C23.4783 23.9426 23.731 24.1025 24.008 24.0133C24.2515 23.9333 24.4737 23.6965 24.4554 23.4198C24.3733 22.2389 23.8771 20.9903 23.0369 20.1569C22.3064 19.4373 21.2623 19.0068 20.2364 19.0806C19.2532 19.1482 18.3826 19.6095 17.6429 20.2492C17.2229 20.612 16.8271 21.0487 16.5288 21.5223C16.3584 21.796 16.4649 22.2112 16.748 22.3649C17.0524 22.5341 17.4025 22.4418 17.5851 22.1527Z"  stroke="currentColor" stroke-width="0.3"/>
<path d="M23.8405 17.0786C23.8497 17.0417 23.8649 17.0048 23.8771 16.9679C23.9288 16.8202 23.801 17.1339 23.8679 16.9863C23.8923 16.934 23.9166 16.8848 23.944 16.8356C23.9745 16.7803 24.0049 16.728 24.0414 16.6788C24.0567 16.6542 24.1389 16.5465 24.0628 16.6449C23.9867 16.7434 24.0719 16.6357 24.0932 16.6111C24.1449 16.5527 24.1997 16.5004 24.2576 16.4481C24.358 16.3559 24.1632 16.5066 24.2393 16.4604C24.2789 16.4358 24.3154 16.4082 24.355 16.3866C24.3885 16.3682 24.4219 16.3528 24.4554 16.3343C24.5528 16.2821 24.3306 16.3743 24.4037 16.3559C24.4219 16.3497 24.4402 16.3436 24.4615 16.3374C24.5072 16.322 24.5498 16.3097 24.5955 16.3005C24.6168 16.2974 24.6381 16.2913 24.6594 16.2882C24.769 16.2667 24.5072 16.2974 24.6289 16.2944C24.7263 16.2913 24.8207 16.2913 24.9181 16.2974C25.0338 16.3036 24.8755 16.2974 24.8755 16.2913C24.8755 16.2944 24.9668 16.3067 24.979 16.3097C25.0155 16.3159 25.0521 16.3251 25.0886 16.3343C25.1464 16.3466 25.2043 16.3589 25.2621 16.3774C25.3138 16.3928 25.3656 16.4143 25.4173 16.4328C25.5269 16.4727 25.2651 16.3589 25.3899 16.4205C25.4295 16.4389 25.466 16.4574 25.5026 16.4789C25.5421 16.5004 25.5817 16.525 25.6213 16.5496C25.67 16.5804 25.7796 16.6942 25.6426 16.5588C25.7187 16.6326 25.8009 16.7003 25.8739 16.7833C25.8892 16.7987 25.9013 16.8233 25.9166 16.8356C25.88 16.8049 25.8435 16.728 25.8922 16.811C25.9257 16.8633 25.9561 16.9156 25.9866 16.9679C25.9927 16.9771 26.0261 17.054 26.0292 17.054C26.017 17.054 25.9774 16.9094 26.0201 17.0386C26.0474 17.1124 26.0688 17.1862 26.087 17.2631C26.1814 17.0324 26.2727 16.7987 26.3671 16.5681C26.2849 16.6203 26.1996 16.6665 26.1144 16.7095C26.0231 16.7587 25.9287 16.8049 25.8344 16.8479C25.7826 16.8725 25.7278 16.894 25.6761 16.9186C25.7339 16.891 25.8161 16.8602 25.7126 16.9033C25.6791 16.9156 25.6456 16.9309 25.6122 16.9432C25.4782 16.9925 25.3443 17.0386 25.2073 17.0786C25.1403 17.097 25.0734 17.1124 25.0064 17.1278C24.9729 17.1339 24.9394 17.1431 24.9059 17.1493C24.8785 17.1554 24.7172 17.177 24.842 17.1616C24.9577 17.1462 24.8359 17.1616 24.8055 17.1647C24.772 17.1677 24.7385 17.1708 24.702 17.1708C24.6289 17.1739 24.5559 17.1739 24.4859 17.1708C24.4493 17.1677 24.4067 17.1585 24.3732 17.1616C24.4402 17.1554 24.5224 17.1862 24.4098 17.1647C24.3398 17.1524 24.2728 17.1308 24.2058 17.1093C24.0658 17.0663 24.3124 17.1677 24.2089 17.1124C24.1754 17.0939 24.1419 17.0786 24.1084 17.057C24.081 17.0417 23.9775 16.9617 24.0628 17.0324C24.1541 17.1062 24.0323 17.0048 24.011 16.9832C23.9806 16.9556 23.9562 16.9248 23.9258 16.894C23.8923 16.8571 23.8984 16.8233 23.9623 16.9432C23.9532 16.9248 23.9349 16.9063 23.9258 16.891C23.8679 16.8018 23.8192 16.7065 23.7766 16.6111C23.6488 16.3159 23.1983 16.2236 22.9426 16.3897C22.6412 16.5865 22.5864 16.9156 22.7234 17.2323C23.0704 18.0257 23.8649 18.444 24.702 18.404C25.3747 18.3702 26.017 18.1365 26.6167 17.8351C26.7384 17.7736 26.8632 17.709 26.9789 17.6352C27.2133 17.4876 27.3259 17.2108 27.259 16.9402C27.0428 16.0453 26.3214 15.3533 25.4326 15.1565C24.9699 15.055 24.4889 15.0181 24.0384 15.1934C23.5848 15.3718 23.2317 15.6824 22.9669 16.0914C22.836 16.2913 22.7234 16.525 22.6625 16.7587C22.5773 17.0693 22.766 17.4414 23.0887 17.5152C23.4144 17.5829 23.7492 17.4107 23.8405 17.0786Z"  stroke="currentColor" stroke-width="0.3"/>
</svg>
