<svg xmlns="http://www.w3.org/2000/svg" width="32" height="32" fill="none" viewBox="0 0 32 32">
    <path fill="#A32A29" d="M12.358 12.532c-.006-.036.022.2.016.115-.003-.025-.005-.052-.005-.077-.006-.082-.006-.167 0-.249l.008-.08c.008-.114-.022.132-.008.05.01-.06.021-.123.038-.183.016-.063.05-.126.063-.189 0 0-.066.134-.027.068.008-.013.013-.027.019-.04l.057-.105c.017-.027.041-.052.055-.082-.052.113-.069.085-.03.041l.032-.038c.028-.03.055-.057.085-.085.014-.01.028-.022.041-.035.069-.066-.11.074-.021.016.068-.044.136-.082.207-.12.08-.041-.032.016-.04.016.021 0 .057-.022.079-.03.054-.02.112-.036.17-.05.073-.018.15-.032.226-.048.107-.022-.076.008-.06.008l.077-.008c.071-.006.145-.009.216-.006l.131.008c.044.003.074.03-.063-.008.028.008.058.011.088.017.05.01.098.021.148.038l.06.019c.01.003.019.008.03.01l-.038-.016c.016.025.11.055.136.072.025.013.052.03.077.046.014.011.104.069.036.022-.074-.05.024.022.032.03.025.022.05.044.074.068.055.055.107.115.154.176l-.085-.662-.041.057c-.014.022-.03.041-.047.063-.008.014-.019.024-.027.038-.066.09.068-.087.033-.044-.134.165-.271.329-.422.48-.093.092-.189.182-.29.267l-.074.06c-.068.058.104-.076.014-.01-.06.043-.12.084-.18.123-.055.032-.11.065-.165.095l-.084.042c-.12.06.079-.028.008-.003-.063.022-.123.043-.189.06-.03.008-.06.014-.09.02-.017.002-.036.002-.052.007.01-.002.142-.01.068-.01-.074 0-.148-.006-.222 0-.051.002.083.013.08.01-.017-.008-.047-.008-.066-.013-.04-.009-.08-.02-.117-.033-.123-.041.073.04 0 .003-.036-.02-.072-.036-.104-.055-.041-.025-.077-.052-.118-.077-.046-.03.046.033.046.036-.002-.011-.068-.058-.076-.066-.213-.191-.566-.227-.774 0-.192.208-.227.57 0 .774.33.299.71.482 1.157.517.364.028.728-.087 1.05-.248.518-.258.96-.687 1.322-1.133.107-.132.213-.266.309-.408.148-.219.06-.479-.085-.662-.541-.69-1.43-.916-2.26-.736-.451.099-.889.298-1.187.662-.274.334-.41.714-.462 1.138-.025.214-.017.419.016.632.044.285.413.465.673.383.304-.106.424-.375.378-.678zM11.983 18.794c-.055.014-.11.025-.165.033-.024.005-.049.008-.07.01-.08.015.142-.013.021-.002-.104.008-.208.017-.312.014-.095 0-.188-.011-.284-.02-.077-.005.145.025.033.003-.022-.002-.044-.008-.063-.01l-.159-.033c-.087-.022-.175-.047-.26-.077-.038-.014-.08-.027-.117-.044-.039-.013-.104-.054.03.014-.022-.01-.047-.022-.072-.03-.166-.077-.325-.164-.478-.263-.071-.046-.14-.093-.205-.142-.113-.082.065.055-.003-.003l-.11-.09c-.123-.104-.24-.213-.355-.328-.099-.102-.197-.206-.288-.315-.038-.044-.073-.09-.112-.137-.016-.019-.082-.104-.01-.01.07.092 0 0-.017-.023-.071-.095-.142-.194-.205-.295l-.75.75c.758.328 1.54.55 2.367.599.637.038 1.294-.036 1.907-.216.897-.266 1.729-.75 2.415-1.387.123-.115.246-.233.353-.364l-.933-.386-.002.016c.008.102.024-.172.01-.082l-.032.197c-.044.225-.104.446-.178.662-.022.066-.047.129-.071.194-.014.033-.028.066-.041.102-.025.063.063-.14.021-.052-.01.022-.019.046-.03.068-.065.143-.136.282-.216.416-.04.071-.085.14-.131.208-.027.038-.052.077-.08.112-.081.11.072-.085-.018.022-.118.142-.244.276-.383.394-.039.033-.173.12-.03.027-.042.028-.083.06-.124.09-.09.064-.183.118-.281.17-.053.028-.107.052-.16.077-.046.022-.057 0 .042-.017-.027.006-.066.028-.093.036-.115.047-.238.085-.361.112-.28.066-.47.4-.383.673.093.29.375.454.673.383.914-.219 1.666-.796 2.177-1.573.345-.52.58-1.13.709-1.74.036-.161.06-.328.077-.492.021-.214-.156-.424-.337-.501-.183-.077-.462-.055-.596.112-.08.099-.17.192-.263.28-.101.098-.208.194-.317.284l-.09.074c-.009.005-.017.01-.025.019-.06.049.068-.052.063-.05l-.058.044c-.076.058-.153.113-.232.167-.178.12-.361.23-.553.328-.104.055-.21.104-.317.15-.104.047.1-.04.013-.005l-.079.033c-.063.025-.126.05-.189.071-.251.088-.509.156-.771.203-.063.01-.132.016-.192.03-.005 0 .126-.014.063-.008l-.066.008c-.038.006-.076.008-.117.01-.15.015-.298.02-.449.02-.178 0-.353-.008-.528-.027-.027-.003-.18-.014-.098-.011.082.005-.055-.008-.08-.014-.09-.014-.183-.03-.273-.05-.205-.043-.408-.095-.608-.16-.098-.03-.197-.066-.292-.102l-.17-.066c-.022-.008-.044-.016-.066-.027-.082-.03.118.052-.021-.008-.22-.096-.487-.107-.663.085-.164.178-.213.448-.084.662.205.342.47.66.747.947.555.577 1.247 1.064 2.027 1.277.544.148 1.11.15 1.658.025.279-.063.47-.4.383-.673-.096-.288-.375-.444-.673-.378zM7.217 13.446c.02-.113.05-.216.085-.323.03-.093-.008.03-.016.035.005-.002.024-.049.027-.06.027-.052.055-.104.088-.153.01-.017.024-.033.035-.052.038-.063-.09.107-.022.027.025-.03.05-.06.077-.087l.09-.088c.017-.013.036-.03.052-.044.066-.06-.09.066-.038.03.115-.076.23-.147.356-.205.07-.033-.15.058-.052.022.021-.008.04-.016.06-.022l.09-.027.066-.02c.049-.013.098-.026.147-.037.025-.006.05-.009.072-.014.114-.028-.115.008-.009 0 .096-.006.19-.006.288-.003.09.006-.052-.005-.058-.008.017.005.038.005.058.01.049.012.098.026.147.04.017.005.033.013.05.018.065.02-.132-.065-.047-.019.03.017.06.03.09.047.033.019.063.038.096.06.123.085-.068-.063.006.003.049.043.095.087.142.134.024.027.05.054.071.082.08.093-.08-.112-.011-.014.063.093.123.186.17.287.04.088.035.129-.009-.03.003.014.011.025.014.038v-.29c-.005.011-.022.047-.022.06 0-.008.058-.122.02-.043-.02.035-.036.071-.055.107-.017.03-.033.057-.052.084l-.033.047c-.036.055.087-.098.027-.036-.046.047-.093.09-.137.137-.043.047.107-.074.052-.038l-.04.027c-.03.02-.064.038-.096.058-.025.013-.052.024-.077.038-.057.03.123-.044.063-.027l-.047.016c-.065.022-.134.041-.202.052-.025.005-.137.022-.025.005.11-.016-.002-.002-.027 0-.071.006-.145.006-.216.006-.063-.003-.129-.005-.192-.011-.016-.003-.032-.003-.052-.005-.084-.009.069.01.069.01-.039-.008-.077-.01-.115-.019-.129-.021-.255-.052-.38-.087-.12-.033-.238-.071-.353-.115-.052-.02-.104-.038-.156-.06l-.063-.025c-.118-.046.106.047.04.016-.1-.046-.202-.09-.3-.142-.252-.134-.607-.07-.75.197-.134.255-.074.605.197.75 1.013.541 2.517.952 3.475.104.282-.252.602-.742.498-1.125-.069-.251-.241-.492-.4-.692-.235-.298-.547-.517-.905-.643-.422-.15-.879-.101-1.3.02-.81.23-1.472.872-1.62 1.72-.049.282.077.602.384.673.268.047.62-.096.675-.396z"/>
    <path fill="#A32A29" d="M16.038 5.752c-.192-.407-.548-.664-.99-.72-.376-.043-.77.119-1.079.315-.385.247-.706.564-1.015.898-.085.093-.178.175-.276.257-.08.066.055-.038.027-.02l-.076.058c-.058.041-.115.08-.173.118-.115.071-.232.14-.353.2-.057.03-.117.057-.175.084l-.098.044c-.11.05.101-.04-.011.006-.282.112-.57.208-.862.287-.31.085-.62.15-.936.202-.079.014-.161.028-.24.039-.022.002-.14.019-.05.008.093-.011-.057.008-.082.01-.161.02-.322.036-.487.05-.626.05-1.258.055-1.885-.003-.065-.005-.131-.013-.2-.019-.035-.002-.07-.008-.103-.013-.082-.011.14.019-.003 0-.131-.02-.263-.041-.391-.069-.23-.046-.457-.11-.676-.191l-.063-.025c.18.063.074.03.03.011-.128-.057-.257-.112-.391-.159-.192-.065-.383-.104-.583-.128-.295-.036-.602.013-.864.153-.353.189-.591.572-.651.963-.025.161-.03.295-.028.46.006.432.017.864.038 1.294.039.768.102 1.537.197 2.3.167 1.303.414 2.597.824 3.844.317.969.725 1.916 1.261 2.785.427.693.936 1.346 1.53 1.905.492.462 1.042.87 1.636 1.19.495.265 1.023.479 1.567.626.432.118.876.192 1.322.227.254.022.509.028.763.014.055-.003.112-.008.167-.014.364-.04.72-.23 1.05-.383.947-.443 1.814-1.094 2.465-1.912.635-.793 1.087-1.702 1.371-2.678.28-.955.397-1.962.416-2.955.019-1.004-.074-2.006-.222-2.996-.131-.875-.314-1.743-.541-2.599-.181-.687-.389-1.365-.619-2.035-.134-.386-.273-.77-.43-1.147-.032-.098-.07-.189-.111-.282-.115-.262-.52-.342-.75-.197-.274.176-.317.468-.197.75l-.038-.088c.016.039.032.08.049.118.06.148.117.296.175.446.2.528.38 1.062.547 1.598.233.758.438 1.526.602 2.3.093.438.175.882.244 1.325l.049.336c.016.113-.017-.123-.006-.033.003.025.006.05.011.077.009.063.017.126.022.189.027.232.052.468.069.7.073.939.076 1.885-.039 2.818-.003.03-.008.06-.01.088.005-.063.019-.132.002-.033-.008.06-.016.117-.027.178l-.06.339c-.044.227-.096.454-.16.676-.06.221-.128.44-.207.656-.041.11-.085.216-.129.326.017-.044.052-.12.017-.038-.011.027-.025.052-.036.079l-.074.159c-.098.205-.208.407-.325.601-.06.099-.123.198-.19.293l-.092.134c-.016.025-.036.047-.052.071-.014.02-.08.104-.02.025.064-.08-.002.006-.018.025-.017.019-.033.038-.047.06-.04.05-.082.098-.123.145-.077.087-.153.172-.232.254-.167.173-.345.334-.531.484l-.074.058c-.066.052-.02.01.027-.02-.057.036-.11.083-.164.121-.101.071-.202.143-.31.208-.22.14-.45.268-.686.383-.057.027-.115.055-.175.082-.033.014-.063.03-.096.044-.021.011-.15.066-.06.027l-.033.014-.1.041-.206.077c-.186.065.15-.003.066.002-.156.014-.31.022-.466.022-.142 0-.287-.008-.429-.019-.085-.005-.17-.013-.255-.024l-.062-.009c-.099-.01.177.025.065.008l-.145-.021c-.443-.074-.88-.192-1.302-.35l-.175-.069c-.115-.046.134.058.033.014-.033-.014-.066-.028-.099-.044-.123-.055-.246-.115-.366-.178-.258-.134-.506-.284-.745-.451-.065-.044-.128-.09-.191-.14l-.09-.068c-.02-.014.126.098.049.038-.02-.014-.036-.03-.055-.044-.126-.1-.249-.208-.37-.317-.262-.24-.508-.498-.738-.771-.063-.074-.123-.151-.183-.228-.055-.068.014.017.033.044-.014-.019-.03-.038-.044-.06l-.09-.12c-.12-.165-.236-.334-.345-.506-.238-.378-.454-.77-.646-1.174-.052-.11-.104-.222-.153-.334-.01-.025-.022-.05-.033-.074-.01-.024-.054-.126-.013-.033.04.096-.006-.016-.014-.035l-.036-.09c-.098-.241-.188-.488-.273-.734-.186-.544-.34-1.097-.47-1.655-.149-.637-.263-1.28-.354-1.926l-.008-.057c-.01-.077.014.109.006.032-.006-.038-.011-.076-.014-.114-.014-.096-.025-.195-.036-.29-.022-.178-.04-.359-.057-.537-.036-.383-.066-.766-.088-1.149-.035-.615-.085-1.25-.054-1.866.002-.03.013-.112-.003.014-.017.131-.003.027.003-.005.013-.06.038-.118.052-.176.005-.019-.074.15-.03.072.008-.014.013-.028.021-.041.017-.033.041-.06.058-.09-.088.158-.052.068 0 .013.01-.011.03-.02.038-.033 0 .003-.126.08-.068.055.01-.006.019-.014.03-.02.016-.008.033-.016.049-.027.055-.035-.142.044-.05.022.05-.01.097-.024.146-.035.019-.006-.15.01-.041.008l.076-.003c.033 0 .063.003.096.006.118.008-.118-.025.003 0 .164.032.32.082.476.14.022.007.093.04-.008-.006.016.008.035.016.052.022.06.027.12.052.18.076l.148.058c.509.183 1.061.26 1.598.309 1.27.115 2.588.005 3.822-.307.596-.15 1.187-.36 1.726-.662.249-.14.487-.306.703-.495.271-.235.49-.522.766-.752.036-.03.069-.058.104-.085-.082.066.008-.006.044-.027.071-.05.142-.096.219-.137l.098-.05c.085-.043-.104.033.014-.002.066-.02.137-.028.2-.052-.011.003-.143.008-.058.01h.044c.025 0 .126.009.025-.002-.137-.014.035.01.032.016-.005.006-.145-.065-.021-.002.01.005.021.019.035.022-.008-.003-.08-.08-.055-.041.011.019.055.065.072.073-.009-.002-.058-.095-.039-.046.006.014.02.027.028.04.024.042.046.083.065.127.12.26.517.347.75.197.273-.175.33-.474.2-.753z"/>
    <path fill="#A32A29" d="M15.2 22.698c.63 1.584 1.743 2.96 3.256 3.776.28.15.583.314.892.391.164.041.353.038.523.044.166.005.333.008.5.003.356-.009.712-.047 1.064-.107 1.226-.203 2.356-.774 3.289-1.587.886-.769 1.581-1.756 2.12-2.793.55-1.056.96-2.186 1.272-3.335.271-.993.47-2.006.613-3.026.104-.742.186-1.486.23-2.233.025-.415.074-.88-.068-1.274-.115-.318-.32-.602-.63-.756-.402-.197-.848-.183-1.277-.09-.277.06-.542.164-.802.274-.027.01-.232.085-.033.013l-.052.022c-.035.014-.07.028-.104.039-.09.032-.183.057-.276.082-.082.021-.167.038-.249.054l-.137.025-.063.008c.167-.033.06-.008.02-.003-.198.022-.395.036-.594.039-.208.003-.419-.003-.627-.017-.106-.008-.213-.016-.32-.027l-.145-.016c-.03-.003-.06-.009-.09-.011-.052-.006.128.019 0 0-.443-.063-.884-.156-1.316-.277-.21-.057-.419-.123-.627-.191-.1-.036-.202-.071-.3-.11-.09-.033-.2-.1-.293-.115.112.017.07.03.019.009-.022-.009-.041-.02-.063-.028-.046-.019-.093-.04-.137-.063-.093-.043-.189-.09-.279-.136-.164-.085-.325-.175-.484-.274-.069-.044-.137-.088-.203-.137-.038-.027-.073-.057-.112-.082.003.003.112.09.047.036l-.041-.033c-.115-.093-.225-.194-.323-.307-.192-.213-.583-.21-.774 0-.211.228-.206.545 0 .775.481.539 1.16.908 1.816 1.193.826.355 1.688.618 2.577.763.887.145 1.784.2 2.673.046.173-.03.342-.068.506-.12.08-.025.16-.055.238-.085.052-.022.113-.044.157-.066.057-.03 0 0-.012.006.074-.03.148-.06.222-.088.118-.043.238-.082.358-.112.047-.01.096-.024.143-.033l.068-.013c.058-.011.12.005-.016 0 .08.003.161-.014.243-.011l.063.002c.05 0 .058.033-.074-.01.036.01.074.013.11.022.027.008.055.021.08.024-.13-.02-.108-.05-.034-.01.022.013.047.035.071.043 0 0-.112-.101-.068-.052.01.014.027.025.038.035.017.017.03.039.047.053-.11-.085-.071-.104-.036-.042.014.022.028.044.038.066.053.101-.002-.003-.013-.038.013.046.03.09.04.137l.017.073c.025.124-.013-.144-.005-.049.008.088.01.178.008.266l-.008.27c-.025.572-.074 1.141-.137 1.708-.01.098-.022.2-.035.298l-.02.159c-.013.114-.013-.036.008-.055-.01.01-.01.074-.013.09-.033.23-.066.46-.104.687-.082.495-.178.99-.29 1.48-.12.533-.263 1.064-.424 1.59-.082.268-.172.533-.268.798-.05.134-.099.268-.154.402l-.079.2c-.01.03-.024.06-.035.088-.03.076.027-.066.027-.066-.011.022-.02.044-.027.066-.225.522-.48 1.034-.772 1.52-.145.242-.298.474-.46.701-.04.058-.082.115-.125.17-.028.035-.104.126.013-.02-.024.03-.049.06-.07.094-.088.11-.179.216-.272.32-.18.205-.372.402-.574.585-.101.093-.208.184-.315.268-.027.022-.055.041-.082.066-.003.003.12-.09.055-.044-.014.008-.025.02-.036.028l-.167.123c-.227.158-.465.303-.714.432-.126.066-.254.12-.383.18l.066-.027c-.014.006-.03.011-.044.02-.03.01-.06.024-.087.035-.072.027-.143.052-.214.077-.276.095-.558.17-.845.221-.074.014-.15.027-.227.038l-.052.009c-.085.013.068-.009.068-.009-.044.003-.087.011-.128.017-.16.016-.318.03-.476.035-.167.009-.332.009-.498.003-.08-.003-.162-.005-.241-.01l-.129-.009c-.019-.003-.038-.003-.057-.005-.074-.006.01-.028.087.013-.06-.033-.142-.049-.205-.074-.052-.021-.189-.084.022.011-.04-.019-.082-.035-.123-.054-.099-.044-.194-.093-.29-.145-.249-.132-.49-.282-.72-.446-.03-.022-.057-.044-.087-.063l-.044-.033c-.082-.06.088.071.033.024-.071-.057-.145-.114-.213-.175-.14-.117-.274-.243-.403-.372-.142-.145-.279-.295-.41-.454-.027-.035-.085-.085-.101-.126.003.008.076.104.019.025l-.044-.058c-.066-.09-.131-.183-.194-.276-.129-.191-.246-.391-.353-.596-.055-.104-.107-.21-.159-.32l-.07-.156c-.058-.129.027.07-.006-.011l-.041-.104c-.107-.266-.37-.479-.673-.383-.255.09-.495.394-.38.678z"/>
    <path fill="#A32A29" d="M18.716 16.162c.013-.019.03-.052.049-.07-.085.081-.02.024.005 0 .033-.04.072-.077.107-.11.02-.017.038-.033.055-.05.055-.054-.11.074-.011.009.044-.028.085-.058.128-.082.039-.022.099-.039.132-.066-.008.005-.129.046-.044.02.02-.006.038-.015.057-.02.082-.027.165-.041.247-.06.087-.02-.15.01-.02.002.03-.002.063-.005.094-.005.06-.003.12-.003.177.003.072.005.214.01-.019-.006.017 0 .03.006.047.008.156.022.194.028.11.014-.083-.016 0 0 .018.006.052.008.104.019.154.035.04.011.084.025.125.039.02.005.041.019.058.021-.126-.027-.071-.03-.022-.005.03.016.164.123.191.118-.049.008-.095-.085-.049-.036.011.011.028.022.038.036l.088.09c.088.093-.052-.085-.01-.014.018.03.04.058.057.09.016.028.03.052.043.08l.02.04c.049.097-.036-.103-.02-.048.036.114.074.224.096.342.022.112-.003-.03-.005-.05l.008.08c.003.04.005.084.005.125 0 .042 0 .083-.002.12l.161-.385c-.027.027-.055.055-.085.082-.01.011-.025.022-.035.033-.066.06.027-.025.035-.027-.06.019-.131.084-.189.115-.1.054.096-.028.017-.006-.028.008-.052.017-.077.025-.03.008-.06.013-.09.022-.115.027.128-.006.016-.003-.06.003-.12 0-.183 0-.112-.006.118.024.03.005-.033-.008-.068-.013-.104-.021-.06-.014-.12-.033-.178-.055-.024-.008-.049-.022-.076-.03.15.035.06.024.008 0-.12-.058-.233-.126-.342-.2-.052-.036-.101-.074-.156-.11-.047-.032.066.052.058.044l-.042-.032-.082-.066c-.164-.14-.32-.29-.465-.449-.055-.057-.106-.117-.156-.178-.013-.016-.03-.035-.043-.054-.058-.069.065.084.065.087-.09-.117-.178-.21-.328-.252-.131-.035-.306-.019-.421.055-.225.145-.383.506-.197.75.295.386.637.722 1.026 1.018.577.437 1.362.763 2.079.481.243-.096.454-.227.643-.41.14-.134.205-.296.21-.485.009-.216-.021-.44-.076-.65-.085-.332-.255-.65-.495-.895-.14-.143-.312-.266-.493-.35-.11-.053-.222-.099-.34-.132-.048-.014-.1-.027-.15-.035-.052-.011-.383-.055-.218-.033.112.016.027.003.002 0-.087-.014-.178-.028-.268-.033-.191-.011-.383.01-.572.044-.566.104-1.031.462-1.351.927-.162.238-.052.618.197.75.287.14.585.049.758-.203zM17.907 22.039c.016-.025.032-.05.051-.074.02-.025.036-.052.055-.076l.033-.044c.06-.082-.096.12-.027.038.156-.194.323-.38.5-.553.115-.11.236-.213.359-.314.068-.055-.11.082.002-.003.033-.025.063-.047.096-.068.074-.052.15-.102.227-.148.071-.044.143-.082.214-.12.04-.022.082-.042.125-.064.02-.008.039-.016.058-.027.082-.038.008.006-.03.011.085-.016.172-.066.254-.09.093-.027.19-.052.285-.071.052-.011.2-.011.033-.009.043 0 .09-.01.134-.013.104-.008.205-.008.309-.006.046.003.093.006.142.011 0 0 .066.011.071.008-.027.02-.115-.019-.038-.002.11.019.219.043.325.074.096.027.187.063.28.095.068.025-.102-.046-.039-.016.02.01.041.02.06.027.05.022.099.047.146.074.079.044.155.09.23.14.032.022.065.054.1.07-.005-.002-.106-.084-.038-.03.025.02.047.04.071.058.126.11.244.227.35.356l.036.044c.055.065-.03-.039-.033-.044.025.035.052.068.074.101.05.069.093.137.137.208.08.134.153.27.216.413.02.041.06.159-.005-.014.01.03.024.06.038.093.027.066.052.134.074.203.082.238.145.484.186.733.008.041.014.082.019.123.016.102-.02-.153-.011-.087.003.013.003.03.006.044l.008.082c.339-.094.678-.184 1.02-.277-.328-.432-.739-.79-1.182-1.105-.897-.637-1.983-1.001-3.086-1.026-.837-.02-1.68.159-2.454.468-.265.107-.479.37-.383.673.082.257.389.495.673.383.345-.137.698-.25 1.059-.326.085-.019.17-.035.254-.049.039-.005.077-.01.115-.02.096-.013-.104.012.025-.002.159-.019.317-.03.479-.033.145-.002.292 0 .437.009l.203.016c.019.003.159.02.057.006l.058.008c.26.04.514.104.766.188l.164.058c.03.01.063.024.093.035.022.009.131.055.038.017-.09-.038.003.003.025.01.024.012.05.023.076.034.053.024.107.049.16.076.193.099.382.208.563.331.08.052.156.107.232.164l.052.039-.035-.028.101.082c.115.096.224.195.328.299.082.079.162.164.236.251.06.072.136.175-.003-.01.142.188.37.33.618.251.219-.071.419-.282.402-.528-.074-1.05-.52-2.161-1.275-2.903-.656-.64-1.595-1.023-2.517-.957-.883.06-1.666.47-2.33 1.04-.378.322-.734.71-1.002 1.132-.153.244-.057.613.197.75.274.15.588.068.753-.19zM23.528 17.525c.009-.033.022-.066.033-.099.047-.131-.068.148-.008.017.022-.047.044-.09.068-.134.028-.05.055-.096.088-.14.014-.022.087-.117.019-.03-.068.088.008-.008.027-.03.047-.052.096-.099.148-.145.09-.082-.085.052-.016.01.035-.021.068-.046.104-.065l.09-.046c.088-.047-.112.035-.046.019l.051-.017c.042-.013.08-.024.12-.032.02-.003.04-.009.058-.011.099-.02-.136.008-.027.005.088-.003.172-.003.26.003.104.005-.038 0-.038-.006 0 .003.082.014.093.017.032.005.065.014.098.022.052.01.104.022.156.038.046.014.093.033.14.05.098.035-.137-.066-.025-.012.035.017.068.033.101.052.036.02.071.041.107.063.044.028.142.129.019.008.068.066.142.126.208.2.014.014.024.036.038.047-.033-.028-.066-.096-.022-.022.03.046.058.093.085.14.006.008.036.076.038.076-.01 0-.046-.129-.008-.014.025.066.044.131.06.2.085-.205.167-.413.252-.618-.074.046-.15.087-.227.125-.082.044-.167.085-.252.124-.046.021-.095.04-.142.063.052-.025.126-.052.033-.014-.03.01-.06.024-.09.035-.12.044-.241.085-.364.12-.06.017-.12.03-.18.045-.03.005-.061.013-.091.019-.025.005-.17.024-.058.01.104-.013-.005 0-.032.003-.03.003-.06.006-.093.006-.066.003-.132.003-.195 0-.032-.003-.07-.011-.1-.008.06-.006.133.021.032.002-.063-.01-.123-.03-.183-.049-.126-.038.095.052.002.003-.03-.017-.06-.03-.09-.05-.024-.013-.118-.084-.041-.021.082.065-.027-.025-.047-.044-.027-.025-.049-.052-.076-.08-.03-.032-.025-.062.033.044-.008-.016-.025-.032-.033-.046-.052-.08-.096-.164-.134-.25-.115-.262-.52-.344-.75-.196-.27.175-.32.468-.197.75.312.705 1.026 1.078 1.779 1.042.604-.03 1.181-.238 1.72-.506.11-.055.222-.112.326-.178.21-.131.312-.378.252-.618-.195-.797-.843-1.412-1.642-1.587-.416-.09-.848-.123-1.253.033-.407.158-.725.435-.963.799-.117.177-.219.385-.273.593-.077.277.093.608.383.673.292.06.593-.093.675-.388z"/>
</svg>
