<svg width="32" height="32" viewBox="0 0 32 32" fill="none" xmlns="http://www.w3.org/2000/svg">
<path d="M8.19204 12.7641C7.82081 12.1215 7.27782 12.2064 7.27782 12.2064C6.29712 12.2861 6.05333 12.8543 6.05333 12.8543C6.49659 13.0508 7.0839 13.1252 7.0839 13.1252C7.97595 13.2527 8.19204 12.7641 8.19204 12.7641Z" fill="currentColor"/>
<path d="M9.12787 18.7058C11.8206 20.1928 13.0285 17.8985 13.0285 17.8985C11.0505 19.051 9.12787 18.7058 9.12787 18.7058Z" fill="currentColor"/>
<path d="M12.2302 11.2719C12.2302 11.2719 11.7038 11.4312 11.6817 12.1694C11.6817 12.1694 12.1083 12.5093 12.8397 12.0048C12.8397 12.0048 13.3273 11.6809 13.6265 11.3144C13.6265 11.3091 13.1389 10.9108 12.2302 11.2719Z" fill="currentColor"/>
<path fill-rule="evenodd" clip-rule="evenodd" d="M17.659 18.0631C17.3266 19.1782 16.7948 20.1765 16.0913 21.0313C15.3711 21.9128 14.3906 22.6455 13.266 23.1553L13.1054 23.2243C12.7674 23.3783 12.4129 23.5376 12.0362 23.58L11.8368 23.596C11.7315 23.6013 11.6263 23.6066 11.5155 23.6066C11.3327 23.6066 11.1443 23.6013 10.956 23.5853C10.4352 23.5482 9.92558 23.4632 9.44363 23.3358C8.82872 23.1712 8.2249 22.9375 7.64877 22.6402C6.98954 22.3004 6.36356 21.8543 5.77635 21.3234C5.13375 20.7393 4.54654 20.0331 4.03135 19.2207C3.4663 18.3393 2.98435 17.3092 2.59657 16.1569C2.18109 14.9251 1.88195 13.587 1.6659 11.9409C1.56065 11.1445 1.48863 10.3215 1.44431 9.4241C1.42215 8.99932 1.40553 8.53736 1.39999 8.00638C1.39999 7.7993 1.40553 7.65063 1.43323 7.48071C1.51079 6.9869 1.82101 6.54619 2.24203 6.31787C2.55225 6.15857 2.92895 6.09485 3.30011 6.13733C3.56047 6.16919 3.77652 6.21698 3.98703 6.28601C4.14214 6.33911 4.28617 6.39751 4.43021 6.46123C4.46344 6.47185 4.49114 6.48247 4.5133 6.49309C4.74597 6.57274 4.9731 6.63114 5.20576 6.67893C5.3498 6.71079 5.49383 6.73203 5.6434 6.75327C5.6652 6.76024 5.68939 6.76263 5.71283 6.76496C5.72512 6.76617 5.73722 6.76737 5.74865 6.7692L5.97578 6.79044C6.635 6.84885 7.33855 6.85416 8.07533 6.79575C8.25813 6.77982 8.43541 6.76389 8.61822 6.74265C8.62024 6.74265 8.62375 6.74194 8.62821 6.74104C8.63592 6.73947 8.64646 6.73734 8.65699 6.73734C8.68469 6.73203 8.72347 6.72672 8.76779 6.72141C8.80933 6.71345 8.85227 6.70681 8.8952 6.70017C8.93813 6.69353 8.98107 6.6869 9.02261 6.67893C9.40485 6.62053 9.74831 6.54619 10.0696 6.46123C10.3909 6.37627 10.7067 6.27539 11.0114 6.15857C11.0169 6.15857 11.0224 6.15857 11.028 6.15326L11.1831 6.08423C11.2167 6.0699 11.2504 6.05315 11.2823 6.03724C11.2977 6.0296 11.3128 6.0221 11.3271 6.01521C11.4601 5.95149 11.5875 5.87716 11.7149 5.80283C11.7758 5.76566 11.8423 5.72317 11.9033 5.68069C11.9143 5.67007 11.9254 5.65945 11.942 5.64883L11.9476 5.64352C12.0417 5.56918 12.147 5.47892 12.2467 5.37803C12.5846 5.02227 12.9613 4.6559 13.4211 4.37448C13.7369 4.17271 14.2299 3.955 14.7285 4.0081C15.2769 4.07713 15.7256 4.39041 15.9583 4.8736C16.0082 4.98511 16.0525 5.08599 16.0913 5.1975C16.2408 5.54795 16.3904 5.93556 16.5732 6.4453C16.8391 7.2046 17.0773 7.95329 17.2712 8.67542C17.5371 9.63118 17.7421 10.5869 17.8861 11.5215C18.0745 12.7427 18.1576 13.8206 18.1354 14.8082C18.1077 16.0029 17.9471 17.1021 17.659 18.0631ZM4.74745 12.6627C4.70898 12.758 4.43894 13.4265 4.90662 13.6985C4.95648 13.7197 6.10319 14.1923 6.3137 14.2507C6.6627 14.341 6.984 14.3781 7.27761 14.3781C8.35785 14.3781 9.01707 13.8525 9.23866 13.502C9.77601 12.7693 9.2442 12.0525 9.23866 12.0471C8.18612 10.6613 6.67932 10.9374 6.03118 11.2772C5.20022 11.6595 4.76813 12.61 4.75151 12.6525L4.74745 12.6627ZM11.4933 20.3145C14.3684 19.8048 14.8781 16.5445 14.8781 16.5445C15.1163 15.7056 14.4626 15.5835 14.4626 15.5835C13.9474 15.4242 13.6261 15.987 13.6261 15.987C10.8175 18.6419 7.53797 17.0702 7.53797 17.0702C7.03386 16.7516 6.69594 17.1233 6.69594 17.1233C6.29154 17.495 6.6904 17.9782 6.6904 17.9782C8.80102 21.0366 11.4933 20.3145 11.4933 20.3145ZM14.9957 11.621C15.0259 11.5861 15.0452 11.5638 15.0498 11.5586C15.3489 11.0914 14.7174 10.5869 14.6897 10.5657C14.6565 10.5392 13.82 9.88074 12.8949 9.90198C12.1581 9.88074 10.6845 10.2949 10.4075 11.9887L10.4073 11.991C10.4011 12.0403 10.2967 12.8759 11.1 13.279C11.4656 13.4914 12.2966 13.6719 13.2605 13.1994C13.5208 13.0719 13.7867 12.8967 14.0582 12.6631C14.1966 12.5442 14.8077 11.8382 14.9957 11.621Z" fill="currentColor"/>
<path d="M20.3848 15.8543C20.3848 15.8543 20.9278 15.9764 21.0053 16.7093C21.0053 16.7093 20.6064 17.0811 19.8362 16.6297C19.8362 16.6297 19.3265 16.3429 18.994 15.9977C18.994 15.9977 19.4484 15.5622 20.3848 15.8543Z" fill="currentColor"/>
<path d="M21.4426 11.2191C21.4759 11.2245 21.4759 11.2137 21.3817 11.1976C21.3879 11.1996 21.3948 11.2023 21.4023 11.2053C21.4148 11.2102 21.4287 11.2157 21.4426 11.2191Z" fill="currentColor"/>
<path d="M19.127 21.3819C21.4153 21.0739 23.0387 22.1254 23.0387 22.1254C21.1826 19.7355 19.127 21.3819 19.127 21.3819Z" fill="currentColor"/>
<path d="M24.4673 17.4526C24.7776 16.7782 25.3316 16.826 25.3316 16.826C26.2725 16.831 26.578 17.3291 26.6089 17.3795L26.6115 17.3836C26.1849 17.6119 25.6031 17.7288 25.6031 17.7288C24.7277 17.9253 24.4673 17.4526 24.4673 17.4526Z" fill="currentColor"/>
<path fill-rule="evenodd" clip-rule="evenodd" d="M30.2895 12.3498C30.1621 12.0047 29.9294 11.6914 29.5804 11.5268C29.1261 11.3144 28.6276 11.325 28.1401 11.4259C27.8299 11.4896 27.5307 11.6064 27.2371 11.7233C27.2039 11.7339 26.9767 11.8135 27.1983 11.7392C27.1922 11.7412 27.1852 11.7439 27.1778 11.7468C27.1653 11.7517 27.1513 11.7571 27.1374 11.7604C27.0986 11.7764 27.0598 11.7923 27.0211 11.8029C26.9213 11.8401 26.8161 11.8666 26.7108 11.8932C26.6167 11.9144 26.5225 11.9356 26.4283 11.9516C26.4012 11.9574 26.3741 11.9616 26.3461 11.9659C26.3226 11.9695 26.2985 11.9733 26.2732 11.9781C26.2614 11.9809 26.2497 11.9823 26.2371 11.9837C26.2259 11.9849 26.2142 11.9863 26.2012 11.9887H26.2178C25.9962 12.01 25.7802 12.0259 25.5586 12.0312C25.3259 12.0365 25.0877 12.0259 24.855 12.0153C24.8156 12.0119 24.7767 12.009 24.7381 12.0061C24.6574 12.0001 24.5773 11.9942 24.495 11.9834L24.3343 11.9675C24.3011 11.9622 24.2678 11.9569 24.2346 11.9569C23.736 11.8879 23.2375 11.787 22.7555 11.6542C22.5173 11.5905 22.2846 11.5215 22.052 11.4471C21.9847 11.4257 21.9193 11.4024 21.8546 11.3794C21.8075 11.3626 21.7608 11.346 21.714 11.3303C21.6832 11.3185 21.6508 11.3045 21.6177 11.2902C21.5618 11.2659 21.5039 11.2408 21.4481 11.2241C21.44 11.2241 21.4319 11.2213 21.4216 11.2177L21.4094 11.2135C21.4059 11.2135 21.4025 11.2115 21.3978 11.2087L21.3948 11.2069C21.3926 11.2057 21.3901 11.2043 21.3872 11.2029C21.3789 11.2002 21.3706 11.1963 21.3623 11.1923C21.354 11.1883 21.3457 11.1843 21.3373 11.1817L21.3019 11.1668C21.2621 11.1503 21.2205 11.133 21.1822 11.1126C21.1296 11.0887 21.077 11.0635 21.0243 11.0383C20.9717 11.0131 20.9191 10.9878 20.8665 10.964C20.6837 10.8737 20.5009 10.7728 20.3236 10.6666C20.246 10.6188 20.1685 10.571 20.0965 10.5179C20.0798 10.5073 20.0632 10.4954 20.0466 10.4834C20.03 10.4715 20.0134 10.4595 19.9967 10.4489C19.8582 10.3427 19.7308 10.2259 19.6145 10.0985C19.3985 9.86483 18.9608 9.87014 18.7448 10.0985C18.7392 10.1038 18.7282 10.125 18.7171 10.1516C18.6174 10.3693 18.5897 10.6135 18.6229 10.8524C18.706 11.3994 18.778 11.9516 18.8223 12.5038C18.8833 13.2419 18.8943 13.9799 18.8777 14.7233C19.1049 14.6277 19.3597 14.5587 19.6256 14.5428C20.3568 14.4684 21.8581 14.7711 22.2736 16.4384L22.2747 16.445C22.2902 16.5263 22.4423 17.3254 21.6863 17.7764C21.3373 18.0154 20.523 18.2596 19.5259 17.8561C19.26 17.7499 18.9774 17.5959 18.6894 17.3782C18.6728 17.3623 18.6395 17.3357 18.6063 17.3092C18.49 17.8667 18.3348 18.4189 18.1354 18.9499C17.7365 19.9906 17.1604 20.9464 16.3849 21.7588C16.0525 22.1092 15.6813 22.4225 15.2769 22.7039C15.0664 22.8526 14.9224 23.0809 14.8947 23.3305C14.8891 23.3677 14.8891 23.3942 14.8947 23.4048C15.6038 25.1305 16.8557 26.6332 18.5564 27.5199L18.5938 27.5394C18.8988 27.6986 19.2238 27.8682 19.5591 27.9447C19.7197 27.982 19.906 27.9866 20.0766 27.9907L20.1463 27.9925C20.3347 27.9978 20.523 28.0031 20.7114 27.9978C21.1102 27.9872 21.5091 27.9447 21.9079 27.881C23.2873 27.658 24.5614 27.0367 25.6084 26.15C26.6056 25.311 27.3867 24.2385 27.996 23.1075C28.6165 21.9552 29.0763 20.7234 29.4253 19.4756C29.73 18.3924 29.9571 17.2879 30.1122 16.1782C30.2285 15.3711 30.3227 14.5587 30.3726 13.7463C30.3754 13.6876 30.3787 13.6282 30.3821 13.5684C30.4053 13.1573 30.4297 12.7253 30.2895 12.3498ZM24.6113 24.504C24.6113 24.504 24.146 24.7163 23.8136 24.2332C23.8136 24.2332 21.4537 21.5411 17.7809 22.9057C17.7809 22.9057 17.2546 23.2986 16.8447 22.9535C16.8447 22.9535 16.2962 22.5924 16.8613 21.9181C16.8613 21.9181 18.6838 19.1198 21.5312 19.7517C21.5312 19.7517 24.3011 20.1181 24.9714 23.7287C24.9714 23.7234 25.1376 24.3181 24.6113 24.504ZM27.7755 18.159L27.7342 18.1797C27.4626 18.3157 26.6312 18.7319 26.4616 18.7906C26.1181 18.9074 25.8023 18.9658 25.5087 18.9924C24.4285 19.072 23.736 18.5995 23.4812 18.2649C22.9042 17.593 23.335 16.8658 23.3635 16.8178L23.3649 16.8154C24.3011 15.3552 25.83 15.5198 26.5003 15.8118C27.3327 16.1206 27.8371 16.9933 27.8874 17.0803L27.8908 17.0862L27.8957 17.0962C27.9407 17.1874 28.2589 17.8311 27.8188 18.1375L27.7755 18.159Z" fill="currentColor"/>
<path d="M5.90181 6.69849C5.89904 6.69714 5.89627 6.69579 5.8935 6.69579C5.88513 6.69172 5.87043 6.68456 5.85658 6.67666C5.88414 6.68854 5.90094 6.69671 5.91012 6.70118C5.90735 6.70118 5.90458 6.69984 5.90181 6.69849Z" fill="currentColor"/>
<path d="M5.85658 6.67666C5.8521 6.6741 5.8477 6.67146 5.84363 6.66882H5.83809C5.84473 6.67159 5.85089 6.6742 5.85658 6.67666Z" fill="currentColor"/>
</svg>
