<svg
  width="48"
  height="48"
  viewBox="0 0 48 48"
  fill="none"
  xmlns="http://www.w3.org/2000/svg"
>
  <path
    d="M0 24C0 10.7452 10.7452 0 24 0C37.2548 0 48 10.7452 48 24C48 37.2548 37.2548 48 24 48C10.7452 48 0 37.2548 0 24Z"
    fill="#929497"
    fill-opacity="0.2"
  />
  <g clip-path="url(#clip0)">
    <path
      fill-rule="evenodd"
      clip-rule="evenodd"
      d="M41.0001 7H40.0001V8H41.0001V7ZM31.476 14.0204C32.6684 14.02 33.812 14.4761 34.6549 15.2883C36.4084 16.978 36.4074 19.7166 34.6526 21.4051L28.8496 26.9919C28.2352 27.5847 27.4548 27.9924 26.6037 28.1652C26.5451 28.1773 26.4853 28.1834 26.4254 28.1833C26.0185 28.1845 25.6668 27.91 25.5838 27.5264C25.4874 27.0803 25.7848 26.6433 26.2481 26.5504C26.7747 26.4438 27.2577 26.1918 27.638 25.8252L33.4409 20.2376C34.5258 19.1927 34.5256 17.4987 33.4405 16.454C32.3553 15.4093 30.5961 15.4095 29.5112 16.4544L23.7082 22.0413C22.9988 22.7262 22.7273 23.726 22.9979 24.6576C23.1263 25.0962 22.8612 25.5521 22.4057 25.6758C21.9502 25.7995 21.4768 25.5443 21.3483 25.1057C20.9095 23.5991 21.3484 21.9818 22.4966 20.8745L28.2995 15.2869C29.1405 14.4736 30.2841 14.0176 31.476 14.0204ZM25.5385 21.3655C25.994 21.2418 26.4675 21.497 26.596 21.9356C27.0348 23.4421 26.5959 25.0595 25.4477 26.1667L19.6447 31.7552C17.8959 33.4131 15.089 33.4129 13.3403 31.7548C11.5724 30.0784 11.5506 27.3394 13.2917 25.637L19.0946 20.0494C19.7096 19.4568 20.4902 19.0491 21.3415 18.8761L21.3584 18.8727C21.8224 18.7833 22.2738 19.0731 22.3667 19.5199C22.4595 19.9667 22.1586 20.4014 21.6945 20.4908C21.1684 20.5975 20.686 20.8495 20.3063 21.2161L14.5033 26.8046C13.4184 27.8495 13.4186 29.5434 14.5038 30.5881C15.5889 31.6328 17.3482 31.6326 18.4331 30.5877L24.2361 25C24.9455 24.3151 25.217 23.3153 24.9464 22.3836C24.8179 21.945 25.0831 21.4892 25.5385 21.3655Z"
      fill="#A32A29"
    />
  </g>
  <defs>
    <clipPath id="clip0">
      <rect
        width="32"
        height="32"
        fill="white"
        transform="translate(8 8)"
      />
    </clipPath>
  </defs>
</svg>
