<svg
  width="32"
  height="32"
  viewBox="0 0 32 32"
  fill="none"
  xmlns="http://www.w3.org/2000/svg"
>
  <path
    fill-rule="evenodd"
    clip-rule="evenodd"
    d="M16.4839 8.39265C14.3655 8.39265 12.6426 10.1155 12.6426 12.2339C12.6426 14.3523 14.3655 16.0752 16.4839 16.0752C18.637 16.0752 20.3251 14.3501 20.3251 12.2339C20.3251 10.1177 18.637 8.39265 16.4839 8.39265ZM14.0931 12.2339C14.0931 10.9263 15.1762 9.8431 16.4839 9.8431C17.8214 9.8431 18.8747 10.9236 18.8747 12.2339C18.8747 13.5442 17.8214 14.6247 16.4839 14.6247C15.1762 14.6247 14.0931 13.5415 14.0931 12.2339Z"
    fill="currentColor"
  />
  <path
    fill-rule="evenodd"
    clip-rule="evenodd"
    d="M16.4839 2.65002C11.1989 2.65002 6.93262 6.95216 6.93262 12.2339C6.93262 13.4437 7.36127 14.788 8.01911 16.1641C8.67924 17.5451 9.58437 18.9871 10.5683 20.3994C11.5527 21.8125 12.6221 23.2045 13.6132 24.4836L14.0991 25.1103C13.516 25.2635 12.9861 25.4847 12.5786 25.7814C12.1014 26.1288 11.7616 26.606 11.7616 27.2104C11.7616 28.111 12.493 28.7049 13.3499 29.0574C14.2279 29.4186 15.3738 29.5915 16.5002 29.5915C17.6265 29.5915 18.7724 29.4186 19.6505 29.0574C20.5074 28.7049 21.2387 28.111 21.2387 27.2104C21.2387 26.606 20.8989 26.1288 20.4218 25.7814C20.0131 25.4838 19.4813 25.2622 18.8961 25.109L18.9316 25.0635C19.0765 24.8779 19.2237 24.6894 19.3728 24.4981C20.3688 23.2201 21.4413 21.8271 22.428 20.4117C23.414 18.9972 24.3202 17.5522 24.9808 16.1686C25.6391 14.7899 26.0677 13.4437 26.0677 12.2339C26.0677 6.95055 21.7672 2.65002 16.4839 2.65002ZM16.7687 27.9033C17.0957 27.4454 17.4746 26.9429 17.8895 26.404L17.9693 26.4151C18.5376 26.494 19.0261 26.6255 19.3618 26.7934C19.7194 26.9722 19.7883 27.1283 19.7883 27.2104C19.7883 27.2742 19.7578 27.3648 19.6096 27.481C19.4585 27.5995 19.2202 27.7138 18.8993 27.8116C18.2905 27.9973 17.4685 28.0988 16.6226 28.1078L16.7687 27.9033ZM14.1011 27.8116C14.7013 27.9947 15.5087 28.096 16.3419 28.1074L16.1971 27.9005C15.8768 27.4429 15.5049 26.9422 15.097 26.4062L15.0298 26.4152C14.4451 26.4943 13.9579 26.6258 13.6277 26.7927C13.2796 26.9686 13.2121 27.1237 13.2121 27.2104C13.2121 27.2742 13.2425 27.3648 13.3907 27.481C13.5418 27.5995 13.7802 27.7138 14.1011 27.8116ZM8.38307 12.2339C8.38307 7.76132 12.0113 4.13311 16.4839 4.13311C20.99 4.13311 24.6173 7.7622 24.6173 12.2339C24.6173 13.2279 24.2701 14.3785 23.6833 15.6188C23.0985 16.8547 22.2888 18.1532 21.393 19.4361C20.4978 20.7182 19.5221 21.9769 18.6083 23.1347C18.4059 23.3913 18.2061 23.6432 18.0109 23.8894C17.452 24.5944 16.93 25.2529 16.4856 25.8402C16.0313 25.2329 15.4934 24.549 14.9169 23.816C14.741 23.5922 14.5609 23.3632 14.379 23.1311C13.4697 21.9706 12.497 20.7087 11.6036 19.4244C10.7097 18.1392 9.90089 16.8396 9.31656 15.605C8.73007 14.3658 8.38307 13.2194 8.38307 12.2339Z"
    fill="currentColor"
  />
</svg>
