<svg width="32" height="32" viewBox="0 0 32 32" fill="none" xmlns="http://www.w3.org/2000/svg">
<path d="M0 16C0 7.16344 7.16344 0 16 0C24.8366 0 32 7.16344 32 16C32 24.8366 24.8366 32 16 32C7.16344 32 0 24.8366 0 16Z" fill="#E60000"/>
<g clip-path="url(#clip0)">
<path fill-rule="evenodd" clip-rule="evenodd" d="M33 -1H32V0H33V-1ZM15.9999 6C12.3326 6 9.37523 9.01363 9.25582 12.7527H7.60559C7.2788 12.7846 7 13.0957 7 13.4225V22.7023C7 24.6159 8.41085 26.25 10.2365 26.25H21.7555C23.5812 26.25 25 24.6159 25 22.7023V13.4222C25 13.0714 24.6729 12.7524 24.3224 12.7524H22.7442C22.6242 9.01363 19.6668 6 15.9999 6ZM15.9999 7.34728C18.9175 7.34728 21.2773 9.71508 21.3887 12.7527H10.603C10.7224 9.71536 13.0822 7.34728 15.9999 7.34728ZM23.6449 14.0999H8.34686V22.702C8.34686 23.9697 9.22383 24.9024 10.2362 24.9024H21.7555C22.7679 24.9024 23.6449 23.9697 23.6449 22.702V14.0999ZM15.9999 16.5712C15.2506 16.5712 14.6524 17.1772 14.6524 17.9265C14.6524 18.4289 14.9235 18.8592 15.3223 19.0907V21.7534C15.3223 22.1041 15.6411 22.4311 15.9999 22.4311C16.3586 22.4311 16.6774 22.1044 16.6774 21.7534V19.0907C17.0762 18.8592 17.347 18.4209 17.347 17.9265C17.347 17.1772 16.7411 16.5712 15.9999 16.5712Z" fill="white"/>
</g>
<defs>
<clipPath id="clip0">
<rect width="32" height="32" fill="white"/>
</clipPath>
</defs>
</svg>
