<svg xmlns="http://www.w3.org/2000/svg" width="32" height="32" fill="none" viewBox="0 0 32 32">
    <path fill="#929497" fill-rule="evenodd" d="M9.256 12.753C9.376 9.013 12.333 6 16 6s6.624 3.014 6.744 6.752h1.578c.35 0 .678.32.678.67v9.28c0 1.914-1.419 3.548-3.244 3.548h-11.52C8.412 26.25 7 24.616 7 22.702v-9.28c0-.326.279-.637.606-.67h1.65zm12.133 0c-.112-3.038-2.471-5.406-5.39-5.406-2.917 0-5.277 2.368-5.396 5.406h10.786zM8.347 14.1h15.298v8.602c0 1.268-.877 2.2-1.89 2.2H10.237c-1.012 0-1.89-.932-1.89-2.2V14.1zm6.305 3.827c0-.75.599-1.356 1.348-1.356.741 0 1.347.606 1.347 1.355 0 .495-.27.933-.67 1.165v2.662c0 .351-.318.678-.677.678-.359 0-.678-.327-.678-.678v-2.662c-.398-.232-.67-.662-.67-1.165z" clip-rule="evenodd"/>
</svg>
