<svg xmlns="http://www.w3.org/2000/svg" width="32" height="32" fill="none" viewBox="0 0 32 32">
    <path fill="#929497" d="M25.29 7.667c-4.888-4.888-12.734-4.89-17.623 0-4.888 4.888-4.89 12.733 0 17.623 4.888 4.888 12.733 4.89 17.623 0 4.888-4.888 4.89-12.734 0-17.623zm-8.812 19.825c-6.073 0-11.014-4.941-11.014-11.014 0-6.073 4.941-11.014 11.014-11.014 6.073 0 11.014 4.941 11.014 11.014 0 6.073-4.941 11.014-11.014 11.014z"/>
    <path fill="#929497" d="M20.067 12.431c-.302-.268-.764-.24-1.032.062s-.24.764.062 1.032c.844.749 1.328 1.825 1.328 2.953 0 2.177-1.77 3.947-3.947 3.947s-3.948-1.77-3.948-3.947c0-1.139.493-2.222 1.35-2.973.305-.266.336-.727.07-1.031-.266-.304-.727-.335-1.031-.07-1.176 1.029-1.85 2.513-1.85 4.074 0 2.983 2.426 5.41 5.409 5.41 2.982 0 5.41-2.427 5.41-5.41 0-1.545-.664-3.02-1.82-4.047z"/>
    <path fill="#929497" d="M16.478 15.26c.404 0 .731-.328.731-.731V10.63c0-.404-.327-.73-.73-.73-.405 0-.732.326-.732.73v3.899c0 .404.327.73.731.73z"/>
</svg>
