<svg width="108" height="108" viewBox="0 0 108 108" fill="none" xmlns="http://www.w3.org/2000/svg">
<path d="M71.88 61.1248C82.08 45.8848 80.52 24.8848 67.08 11.4448C51.72 -3.9152 26.88 -3.9152 11.52 11.4448C-3.84 26.8048 -3.84 51.6448 11.52 67.0048C24.96 80.4448 45.96 82.1248 61.2 71.8048L97.32 107.925L108.12 97.1248L71.88 61.1248ZM14.52 64.0048C0.840001 50.3248 0.840001 28.1248 14.52 14.4448C28.2 0.764806 50.4 0.764806 64.08 14.4448C77.76 28.1248 77.76 50.3248 64.08 64.0048C50.4 77.8048 28.2 77.8048 14.52 64.0048Z" fill="#4A4A4A"/>
</svg>
