<svg xmlns="http://www.w3.org/2000/svg" width="32" height="32" fill="none" viewBox="0 0 32 32">
    <path fill="currentColor" d="M16.5 3C9.64 3 4.056 8.583 4 15.417c-.027 3.333 1.25 6.5 3.611 8.86 2.334 2.39 5.473 3.695 8.806 3.723h.083c6.86 0 12.444-5.583 12.5-12.417C29.055 8.694 23.472 3.056 16.5 3zm0 23.306h-.083c-2.89-.028-5.584-1.167-7.639-3.223-2-2.027-3.111-4.75-3.083-7.639.028-5.916 4.889-10.75 10.888-10.75 5.972.028 10.778 4.917 10.75 10.89-.056 5.916-4.916 10.722-10.833 10.722z"/>
    <path fill="currentColor" d="M11.894 14.111h-.047c-.753 0-1.366.623-1.366 1.389s.613 1.389 1.366 1.389h.047c.753 0 1.365-.623 1.365-1.389s-.612-1.389-1.365-1.389zm0 1.389h-.047.047zM16.524 14.111h-.047c-.754 0-1.366.623-1.366 1.389s.612 1.389 1.366 1.389h.047c.753 0 1.365-.623 1.365-1.389s-.612-1.389-1.365-1.389zm0 1.389h-.047.047zM21.154 14.111h-.047c-.754 0-1.366.623-1.366 1.389s.612 1.389 1.366 1.389h.047c.753 0 1.365-.623 1.365-1.389s-.612-1.389-1.365-1.389zm0 1.389h-.047.047z"/>
</svg>
