<?xml version="1.0" encoding="utf-8"?>
<!-- Generator: Adobe Illustrator 24.1.0, SVG Export Plug-In . SVG Version: 6.00 Build 0)  -->
<svg version="1.1" id="Layer_1" xmlns="http://www.w3.org/2000/svg" xmlns:xlink="http://www.w3.org/1999/xlink" x="0px" y="0px"
	 viewBox="0 0 32 32" style="enable-background:new 0 0 32 32;" xml:space="preserve">
<style type="text/css">
	.st0{fill-rule:evenodd;clip-rule:evenodd;}
	.st1{display:none;fill-rule:evenodd;clip-rule:evenodd;fill:#D60000;}
</style>
<path class="st0" d="M16,3.3C9.1,3.3,3.5,8.9,3.5,15.8c0,6.9,5.6,12.5,12.5,12.5s12.5-5.6,12.5-12.5C28.5,8.9,22.9,3.3,16,3.3z
	 M11.4,17.3c-1.9,0-1.9-3,0-3C13.3,14.3,13.3,17.3,11.4,17.3z M16,17.3c-1.9,0-1.9-3,0-3C18,14.3,18,17.3,16,17.3z M20.7,17.3
	c-1.9,0-1.9-3,0-3C22.6,14.3,22.6,17.3,20.7,17.3z"/>
<path class="st1" d="M11.4,14.4L11.4,14.4c-0.8,0-1.4,0.6-1.4,1.4s0.6,1.4,1.4,1.4h0c0.8,0,1.4-0.6,1.4-1.4
	C12.8,15,12.2,14.4,11.4,14.4z M11.4,15.8L11.4,15.8L11.4,15.8z M16,14.4L16,14.4c-0.8,0-1.4,0.6-1.4,1.4s0.6,1.4,1.4,1.4h0
	c0.8,0,1.4-0.6,1.4-1.4C17.4,15,16.8,14.4,16,14.4z M16,15.8L16,15.8L16,15.8z M20.7,14.4L20.7,14.4c-0.8,0-1.4,0.6-1.4,1.4
	s0.6,1.4,1.4,1.4h0c0.8,0,1.4-0.6,1.4-1.4C22,15,21.4,14.4,20.7,14.4z M20.7,15.8L20.7,15.8L20.7,15.8z"/>
</svg>
