<svg xmlns="http://www.w3.org/2000/svg" width="32" height="24" fill="none" viewBox="0 0 32 24">
    <g clip-path="url(#clip0)">
        <circle cx="16" cy="12" r="12" fill="#fff"/>
        <path fill="#A32A29" fill-rule="evenodd" d="M9.25 13.75c.966 0 1.75-.784 1.75-1.75s-.784-1.75-1.75-1.75S7.5 11.034 7.5 12s.784 1.75 1.75 1.75zM16 13.75c.966 0 1.75-.784 1.75-1.75s-.784-1.75-1.75-1.75-1.75.784-1.75 1.75.784 1.75 1.75 1.75zM22.75 13.75c.966 0 1.75-.784 1.75-1.75s-.784-1.75-1.75-1.75S21 11.034 21 12s.784 1.75 1.75 1.75z" clip-rule="evenodd"/>
    </g>
    <defs>
        <clipPath id="clip0">
            <path fill="#fff" d="M0 0H32V24H0z"/>
        </clipPath>
    </defs>
</svg>
