<svg width="22" height="26" viewBox="0 0 22 26" fill="none" xmlns="http://www.w3.org/2000/svg">
<path d="M9 0V2L13 2V0H9Z" fill="#221F1F"/>
<path d="M8 24V26H14V24H8Z" fill="#221F1F"/>
<path fill-rule="evenodd" clip-rule="evenodd" d="M0 20H2V12.0882C2 9.6814 2.94558 7.37097 4.63217 5.66577C6.31913 3.9602 8.60949 3 11 3C13.3905 3 15.6809 3.9602 17.3678 5.66577C19.0544 7.37097 20 9.6814 20 12.0882V20H22V22L0 22V20ZM4 20L18 20V12.0882C18 10.2048 17.2599 8.40069 15.9459 7.07221C14.6323 5.7441 12.853 5 11 5C9.14705 5 7.36774 5.7441 6.05412 7.07221C4.74013 8.40069 4 10.2048 4 12.0882V20Z" fill="#221F1F"/>
</svg>
