<svg width="32" height="32" viewBox="0 0 32 32" fill="none" xmlns="http://www.w3.org/2000/svg">
<path fill-rule="evenodd" clip-rule="evenodd" d="M26 3V4V6H28H29V8H28H26V10V11H24V10V8H22H21V6H22H24V4V3H26ZM3 17V21V25C3 26.4113 4.1179 27.4197 5.31004 28.0158C6.56193 28.6417 8.22145 29 10 29C11.7786 29 13.4381 28.6417 14.69 28.0158C15.8821 27.4197 17 26.4113 17 25V21V18H25H26V17V14H24V16H16.7996C16.4255 15.1017 15.5782 14.4285 14.6899 13.9843C13.4379 13.3583 11.7784 13 10 13C8.93696 13 7.91641 13.128 7 13.3647V8H18V6H6H5V7V14.15C3.93117 14.7596 3 15.7121 3 17ZM5 19.85V21C5 21.2457 5.2251 21.7373 6.20446 22.2269C7.12407 22.6868 8.46455 23 10 23C11.5354 23 12.8759 22.6868 13.7955 22.2269C14.7749 21.7373 15 21.2457 15 21V19.85C14.8976 19.9084 14.794 19.9637 14.6899 20.0157C13.4379 20.6417 11.7784 21 10 21C8.22156 21 6.56205 20.6417 5.31015 20.0157C5.20597 19.9637 5.10235 19.9084 5 19.85ZM15 17C15 17.2456 14.7749 17.7372 13.7954 18.2269C12.8758 18.6867 11.5353 19 10 19C8.46473 19 7.12424 18.6867 6.20457 18.2269C5.22509 17.7372 5 17.2456 5 17C5 16.7544 5.22509 16.2628 6.20457 15.7731C7.12424 15.3133 8.46473 15 10 15C11.5353 15 12.8758 15.3133 13.7954 15.7731C14.7749 16.2628 15 16.7544 15 17ZM5 25V23.8502C5.10232 23.9085 5.20589 23.9637 5.31004 24.0158C6.56193 24.6417 8.22145 25 10 25C11.7786 25 13.4381 24.6417 14.69 24.0158C14.7941 23.9637 14.8977 23.9085 15 23.8502V25C15 25.2457 14.7749 25.7373 13.7955 26.2269C12.8759 26.6868 11.5354 27 10 27C8.46455 27 7.12407 26.6868 6.20446 26.2269C5.2251 25.7373 5 25.2457 5 25Z" fill="#A32A29"/>
</svg>
