<svg width="32" height="32" viewBox="0 0 32 32" fill="none" xmlns="http://www.w3.org/2000/svg">
<g clip-path="url(#clip0)">
<path fill-rule="evenodd" clip-rule="evenodd" d="M32.9998 -1H31.9998V0H32.9998V-1ZM7.5998 3.7C10.2998 3.7 12.4998 5.9 12.4998 8.6C12.4998 11.3 10.2998 13.5 7.6998 13.5C4.99981 13.5 2.7998 11.3 2.7998 8.6C2.7998 5.9 4.89981 3.7 7.5998 3.7ZM7.5998 4.8C5.49981 4.8 3.7998 6.5 3.7998 8.6C3.7998 10.7 5.49981 12.4 7.5998 12.4C9.6998 12.4 11.3998 10.7 11.3998 8.6C11.3998 6.5 9.6998 4.8 7.5998 4.8ZM10.6998 8.6C10.6998 8.3 10.4998 8.1 10.1998 8.1H8.19976V6C8.19976 5.7 7.99976 5.5 7.69976 5.5C7.39976 5.5 7.09976 5.7 7.09976 6V8H4.99976C4.69976 8 4.49976 8.2 4.49976 8.5C4.49976 8.8 4.69976 9.2 4.99976 9.2H6.99976V11.2C6.99976 11.5 7.19976 11.7 7.49976 11.7C7.79976 11.7 7.99976 11.5 7.99976 11.2V9.2H9.99976C10.4998 9.2 10.6998 8.9 10.6998 8.6ZM24.9998 12.5H12.9998C12.6998 12.5 12.3998 12.3 12.4998 12C12.4998 11.7 12.6998 11.5 12.9998 11.5H24.5998L24.6998 10.6L17.6998 8C17.3998 7.9 17.2998 7.6 17.3998 7.3C17.3998 7.1 17.2998 7 17.1998 6.9H16.9998L16.8998 7V7.2C16.9998 7.3 16.9998 7.5 16.8998 7.6L16.5998 7.9L14.2998 8.7C13.9998 8.8 13.6998 8.7 13.5998 8.4C13.4998 8.1 13.5998 7.8 13.8998 7.7L15.7998 7C15.7998 6.95001 15.8248 6.87504 15.8498 6.80005L15.8498 6.8C15.8748 6.72501 15.8998 6.65 15.8998 6.6C15.9998 6.2 16.2998 6 16.5998 5.8C16.8998 5.7 17.2998 5.7 17.5998 5.8C18.0998 6 18.4998 6.5 18.4998 7L25.4998 9.6C25.6998 9.7 25.7998 9.9 25.7998 10.2L25.4998 12C25.4998 12.3 25.2998 12.5 24.9998 12.5ZM15.1998 22.3C15.1998 22.6 15.3998 22.8 15.6998 22.8H18.3998C18.6998 22.8 18.8998 22.6 18.8998 22.3C18.8998 22.1 18.7998 21.9 18.5998 21.8C18.4998 19.5 18.4998 17.2 18.5998 14.9C18.7998 14.8 18.8998 14.6 18.8998 14.4C18.8998 14.1 18.6998 13.9 18.3998 13.9H15.6998C15.3998 13.9 15.1998 14.1 15.1998 14.4C15.1998 14.6 15.2998 14.8 15.4998 14.9C15.5998 17.2 15.5998 19.5 15.4998 21.8C15.3998 21.9 15.1998 22.1 15.1998 22.3ZM16.6998 14.9H17.6998C17.5998 17.2 17.5998 19.4 17.6998 21.7H16.6998C16.7998 19.5 16.7998 17.2 16.6998 14.9ZM21.0999 22.3C21.0999 22.6 21.2999 22.8 21.5999 22.8H24.2999C24.5999 22.8 24.7999 22.6 24.7999 22.3C24.7999 22.1 24.6999 21.9 24.4999 21.8C24.3999 19.5 24.3999 17.2 24.4999 14.9C24.6999 14.8 24.7999 14.6 24.7999 14.4C24.7999 14.1 24.5999 13.9 24.2999 13.9H21.5999C21.2999 13.9 21.0999 14.1 21.0999 14.4C21.0999 14.6 21.1999 14.8 21.3999 14.9C21.4999 17.2 21.4999 19.5 21.3999 21.8C21.1999 21.9 21.0999 22.1 21.0999 22.3ZM22.4999 14.9H23.4999C23.3999 17.2 23.3999 19.4 23.4999 21.7H22.4999C22.5999 19.5 22.5999 17.2 22.4999 14.9ZM9.39978 22.3C9.39978 22.6 9.59978 22.8 9.89978 22.8H12.5998C12.8998 22.8 13.0998 22.6 13.0998 22.3C13.0998 22.1 12.9998 21.9 12.7998 21.8C12.6998 19.5 12.6998 17.2 12.7998 14.9C12.9998 14.8 13.0998 14.6 13.0998 14.4C13.0998 14.1 12.8998 13.9 12.5998 13.9H11.7998C11.4998 13.9 11.2998 14.1 11.2998 14.4C11.2998 14.7 11.4998 14.9 11.7998 14.9C11.6998 17.2 11.6998 19.4 11.7998 21.7H10.7998C10.8998 19.5 10.8998 17.3 10.7998 15.2C10.7998 15.1 10.6998 14.9 10.5998 14.8C10.4998 14.7 10.3998 14.7 10.1998 14.7C9.89978 14.7 9.69978 15 9.69978 15.3C9.79978 17.5 9.79978 19.7 9.69978 21.8C9.49978 21.9 9.39978 22.1 9.39978 22.3ZM6.99976 24.1C6.99976 24.4 7.19976 24.6 7.49976 24.6H26.5998C26.8998 24.6 27.0998 24.4 27.0998 24.1C27.0998 23.8 26.8998 23.6 26.5998 23.6H7.59976C7.29976 23.5 6.99976 23.8 6.99976 24.1ZM28.2998 25.6H5.99976C5.69976 25.6 5.49976 25.8 5.49976 26.1C5.49976 26.4 5.69976 26.6 5.99976 26.6H28.2998C28.5998 26.6 28.7998 26.4 28.7998 26.1C28.7998 25.9 28.5998 25.6 28.2998 25.6Z" fill="#A32A29"/>
</g>
<defs>
<clipPath id="clip0">
<rect width="32" height="32" fill="white"/>
</clipPath>
</defs>
</svg>
