<svg width="32" height="32" viewBox="0 0 32 32" fill="none" xmlns="http://www.w3.org/2000/svg">
<g clip-path="url(#clip0)">
<path fill-rule="evenodd" clip-rule="evenodd" d="M33.0001 -1H32.0001V0H33.0001V-1ZM5.44434 6.90625C5.44434 5.94831 6.23421 5.16071 7.1921 5.16071H24.2367C25.1946 5.16071 25.9845 5.94831 25.9845 6.90625V18.4196H25.922C26.6758 19.3148 27.1497 20.4543 27.1497 21.7121C27.1497 24.5474 24.8376 26.8571 22.0024 26.8571C20.7833 26.8571 19.6755 26.4109 18.7926 25.6987H7.1921C6.23421 25.6987 5.44434 24.9088 5.44434 23.9509V6.90625ZM24.2367 6.30357H7.1921C6.84753 6.30357 6.58719 6.56179 6.58719 6.90625V23.9509C6.58719 24.2955 6.84753 24.5558 7.1921 24.5558H17.7211C17.1768 23.7399 16.8573 22.7635 16.8573 21.7121C16.8573 21.5752 16.8755 21.4431 16.8936 21.311C16.9013 21.2551 16.909 21.1992 16.9153 21.1429H10.0001V20H17.1742C17.4981 19.091 18.0645 18.3072 18.8037 17.7143H10.0001V16.5714H21.4287V16.6228C21.4804 16.6169 21.5319 16.6101 21.5833 16.6034C21.7214 16.5852 21.8594 16.567 22.0024 16.567C23.051 16.567 24.0267 16.8847 24.8417 17.4263V6.90625C24.8417 6.56179 24.5813 6.30357 24.2367 6.30357ZM11.143 9.14286C11.143 8.20286 11.9173 7.42857 12.8573 7.42857C13.7973 7.42857 14.5716 8.20286 14.5716 9.14286C14.5716 10.0829 13.7973 10.8571 12.8573 10.8571C11.9173 10.8571 11.143 10.0829 11.143 9.14286ZM12.2658 14.625L18.2345 7.44196L19.1117 8.17187L13.1452 15.3549L12.2658 14.625ZM13.4287 9.14286C13.4287 8.82057 13.1796 8.57143 12.8573 8.57143C12.5349 8.57143 12.2859 8.82057 12.2859 9.14286C12.2859 9.46526 12.5349 9.71428 12.8573 9.71428C13.1796 9.71428 13.4287 9.46526 13.4287 9.14286ZM16.8573 13.7143C16.8573 12.7743 17.6316 12 18.5716 12C19.5116 12 20.2859 12.7743 20.2859 13.7143C20.2859 14.6543 19.5116 15.4286 18.5716 15.4286C17.6316 15.4286 16.8573 14.6543 16.8573 13.7143ZM19.143 13.7143C19.143 13.392 18.8939 13.1429 18.5716 13.1429C18.2492 13.1429 18.0001 13.392 18.0001 13.7143C18.0001 14.0367 18.2492 14.2857 18.5716 14.2857C18.8939 14.2857 19.143 14.0367 19.143 13.7143ZM26.0068 21.7121C26.0068 19.4943 24.22 17.7098 22.0024 17.7098C19.7848 17.7098 18.0001 19.4943 18.0001 21.7121C18.0001 23.9297 19.7848 25.7143 22.0024 25.7143C24.22 25.7143 26.0068 23.9297 26.0068 21.7121ZM24.8461 22.2835H19.1609V21.1406H24.8461V22.2835Z" fill="#A32A29"/>
</g>
<defs>
<clipPath id="clip0">
<rect width="32" height="32" fill="white"/>
</clipPath>
</defs>
</svg>
