<svg width="32" height="32" viewBox="0 0 32 32" fill="none" xmlns="http://www.w3.org/2000/svg">
<g clip-path="url(#clip0)">
<path fill-rule="evenodd" clip-rule="evenodd" d="M33 -1H32V0H33V-1ZM24.5796 4H28.2484C29.7388 4 30.9617 5.20209 30.9999 6.66713V11.6633C30.9999 13.1659 29.777 14.368 28.2484 14.368H26.9872V27.5158H28.707C29.0127 27.5158 29.2802 27.7788 29.2802 28.0793C29.2802 28.3798 29.0127 28.6428 28.707 28.6428H24.121C23.8153 28.6428 23.5477 28.3798 23.5477 28.0793C23.5477 27.7788 23.8153 27.5158 24.121 27.5158H25.8407V14.4056H24.5796C23.0509 14.4056 21.828 13.2035 21.828 11.7009V6.7047C21.828 5.20209 23.0509 4 24.5796 4ZM28.2101 13.241C29.0891 13.241 29.8152 12.5273 29.8152 11.6633V6.66713C29.8152 5.80313 29.0891 5.08939 28.2101 5.08939H24.5414C23.6624 5.08939 22.9363 5.80313 22.9363 6.66713V11.6633C22.9363 12.5273 23.6624 13.241 24.5414 13.241H28.2101ZM9.48401 19.5896H14.7961C15.1018 19.5896 15.3693 19.8525 15.3693 20.153C15.3693 20.4536 15.1018 20.7165 14.7961 20.7165H9.48401C9.17828 20.7165 8.91076 20.4536 8.91076 20.153C8.91076 19.8525 9.17828 19.5896 9.48401 19.5896ZM20.5668 15.9833L18.7324 11.3252C18.2356 10.0104 16.9363 9.14642 15.5222 9.14642H8.75794C7.34393 9.14642 6.04457 10.0104 5.54776 11.3252L3.75158 15.9457C2.14649 16.3965 1 17.824 1 19.5144V23.4963C1 24.0222 1.42038 24.4355 1.95541 24.4355H2.29936V26.0883C2.29936 27.4782 3.44585 28.5676 4.82164 28.5676H4.97451C6.38852 28.5676 7.4968 27.4407 7.4968 26.0883V24.4355H16.4777V26.0883C16.4777 27.4782 17.6242 28.5676 18.9999 28.5676H19.191C20.605 28.5676 21.7133 27.4407 21.7133 26.0883V24.4355H22.3248C22.8598 24.4355 23.2802 24.0222 23.2802 23.4963V19.552C23.3184 17.8615 22.1337 16.3965 20.5668 15.9833ZM6.5796 11.7384C6.92355 10.8744 7.80253 10.2734 8.71972 10.2734H15.484C16.4394 10.2734 17.3184 10.8744 17.6242 11.7384L19.2292 15.833H5.01273L6.5796 11.7384ZM6.38852 26.1259C6.38852 26.8772 5.77706 27.4782 5.01273 27.4782H4.82164C4.05732 27.4782 3.44585 26.8772 3.44585 26.1259V24.473H6.42673V26.1259H6.38852ZM20.605 26.1259C20.605 26.8772 19.9936 27.4782 19.2292 27.4782H19.0382C18.2738 27.4782 17.6624 26.8772 17.6624 26.1259V24.473H20.6433V26.1259H20.605ZM22.1719 23.3461H2.10828V19.552C2.10828 18.1245 3.29299 16.96 4.74521 16.96H19.535C20.9872 16.96 22.1719 18.1245 22.1719 19.552V23.3461ZM25.3438 6.85495H26.7961C27.675 6.85495 28.4012 7.60626 28.4012 8.47026C28.4012 9.33426 27.675 10.048 26.7961 10.048H25.8406V11.2125C25.8406 11.513 25.5731 11.776 25.2674 11.776C24.9617 11.776 24.6942 11.513 24.6942 11.2125V7.49356C24.6942 7.30574 24.7706 7.15547 24.9235 7.04278C25.0381 6.93008 25.191 6.85495 25.3438 6.85495ZM25.8406 8.88348H26.7961C27.0254 8.88348 27.2547 8.69565 27.2547 8.43269C27.2547 8.16973 27.0636 7.98191 26.7961 7.98191H25.8406V8.88348ZM4.78335 18.6129C3.82794 18.6129 3.02539 19.4017 3.02539 20.3409C3.02539 21.28 3.82794 22.0689 4.78335 22.0689C5.73876 22.0689 6.54131 21.28 6.54131 20.3409C6.54131 19.4017 5.73876 18.6129 4.78335 18.6129ZM4.78335 21.1297C4.32475 21.1297 3.9808 20.7541 3.9808 20.3409C3.9808 19.8901 4.36297 19.552 4.78335 19.552C5.20373 19.552 5.5859 19.9277 5.5859 20.3409C5.5859 20.7917 5.24195 21.1297 4.78335 21.1297ZM17.7388 20.3409C17.7388 19.4017 18.5414 18.6129 19.4968 18.6129C20.4904 18.6129 21.2547 19.4017 21.2547 20.3409C21.2547 21.28 20.4522 22.0689 19.4968 22.0689C18.5414 22.0689 17.7388 21.28 17.7388 20.3409ZM18.6942 20.3409C18.6942 20.7541 19.0382 21.1297 19.4968 21.1297C19.9554 21.1297 20.3375 20.7917 20.2993 20.3409C20.2993 19.9277 19.9554 19.552 19.4968 19.552C19.0764 19.552 18.6942 19.8901 18.6942 20.3409Z" fill="#A32A29"/>
</g>
<defs>
<clipPath id="clip0">
<rect width="32" height="32" fill="white"/>
</clipPath>
</defs>
</svg>
