<svg width="30" height="20" viewBox="0 0 30 20" fill="none" xmlns="http://www.w3.org/2000/svg">
  <path d="M3.20023 10.4783H14.7211C15.0731 10.4783 15.3611 10.1935 15.3611 9.84532C15.3611 9.49718 15.0731 9.21233 14.7211 9.21233H3.20023C2.8482 9.21233 2.56018 9.49718 2.56018 9.84532C2.56018 10.1935 2.8482 10.4783 3.20023 10.4783Z" fill="#A32A29"/>
  <path d="M7.68055 12.6938H3.20023C2.8482 12.6938 2.56018 12.409 2.56018 12.0608C2.56018 11.7127 2.8482 11.4278 3.20023 11.4278H7.68055C8.03258 11.4278 8.3206 11.7127 8.3206 12.0608C8.3206 12.409 8.03258 12.6938 7.68055 12.6938Z" fill="#A32A29"/>
  <path d="M9.92071 12.6938H12.1609C12.5129 12.6938 12.8009 12.409 12.8009 12.0608C12.8009 11.7127 12.5129 11.4278 12.1609 11.4278H9.92071C9.56869 11.4278 9.28067 11.7127 9.28067 12.0608C9.28067 12.409 9.56869 12.6938 9.92071 12.6938Z" fill="#A32A29"/>
  <path fill-rule="evenodd" clip-rule="evenodd" d="M3.20023 8.26284H5.76041C6.11244 8.26284 6.40046 7.978 6.40046 7.62985V5.09787C6.40046 4.74972 6.11244 4.46488 5.76041 4.46488H3.20023C2.8482 4.46488 2.56018 4.74972 2.56018 5.09787V7.62985C2.56018 7.978 2.8482 8.26284 3.20023 8.26284ZM5.12037 6.99685H3.84028V5.73087H5.12037V6.99685Z" fill="#A32A29"/>
  <path fill-rule="evenodd" clip-rule="evenodd" d="M24.3184 15.8578C24.3983 15.8522 24.4498 15.8239 24.4498 15.7955C26.4979 15.1625 28.162 13.7382 29.1221 11.8709C30.0822 9.97192 30.2742 7.85139 29.6021 5.82581C28.386 2.05949 24.6738 -0.219289 20.7695 0.413705C20.1935 0.508655 19.6494 0.698553 19.0094 0.951751C18.0142 1.36615 17.1143 1.70518 16.3876 1.93289H2.11215C0.960069 1.93289 0 2.88238 0 4.02177V13.1369C0 14.2763 0.960069 15.2258 2.11215 15.2258H9.36154C9.33848 15.476 9.36418 15.7332 9.44068 15.9854C9.6967 16.8083 10.4648 17.3147 11.2648 17.3147C11.2865 17.3147 11.3082 17.3143 11.3299 17.3135C11.3166 17.549 11.3493 17.787 11.4248 18.011C11.6808 18.8022 12.4489 19.3086 13.249 19.3086C13.441 19.3086 13.665 19.2769 13.857 19.2453L18.4333 17.7894C18.5542 17.7496 18.671 17.6977 18.7818 17.6352L24.2257 15.8904C24.2583 15.8816 24.2892 15.8707 24.3184 15.8578ZM23.9952 14.6615C23.9434 14.6642 23.8918 14.6729 23.8417 14.6877L19.7792 15.9898C19.7804 15.7845 19.7471 15.5789 19.6814 15.384C19.4193 14.63 18.7492 14.1391 18.0146 14.0681C18.1593 13.7866 18.2413 13.4698 18.2413 13.1369V6.65993C18.5397 6.60255 18.8386 6.53564 19.1374 6.4588C19.3294 6.42716 19.4574 6.45881 19.5214 6.49045C19.5854 6.5221 19.5854 6.6487 19.5854 6.712C19.5534 7.06015 19.8414 7.37665 20.1935 7.37665C20.5455 7.4083 20.8655 7.12345 20.8655 6.7753C20.8655 6.26891 20.6735 5.82581 20.3215 5.54096C19.9374 5.22446 19.3934 5.12952 18.8174 5.28776C17.3452 5.66756 15.9051 5.79416 14.497 5.69921C14.145 5.69921 13.825 5.63591 13.505 5.16117C13.441 5.03457 13.377 4.90797 13.377 4.78137C13.345 4.43322 13.441 4.08507 13.697 3.86353C13.953 3.61033 14.273 3.51538 14.5931 3.54703H14.6251C14.7531 3.57868 14.9131 3.57868 15.1051 3.57868C16.2892 3.51538 18.4013 2.69249 19.5534 2.18609C20.0654 1.96454 20.5455 1.80629 20.9935 1.74299C24.2577 1.20495 27.394 3.10393 28.418 6.26891C28.9621 7.94634 28.8021 9.75038 28.002 11.3329C27.202 12.9154 25.7939 14.0864 24.0977 14.6244C24.0615 14.6342 24.0273 14.6467 23.9952 14.6615ZM18.0542 16.5427L17.7718 16.6332L13.441 18.011C13.1209 18.1059 12.7369 17.916 12.6409 17.5995C12.5769 17.4413 12.6089 17.283 12.6729 17.1248C12.7487 16.9999 12.8444 16.9144 12.96 16.8528L14.3727 16.3897L17.6333 15.3524C17.6973 15.3207 17.7613 15.3207 17.8253 15.3207C18.0813 15.3207 18.3373 15.5106 18.4333 15.7638C18.5256 16.068 18.3519 16.4305 18.0542 16.5427ZM11.4568 15.9854L13.8131 15.2258H10.6548C10.625 15.3352 10.6223 15.4546 10.6568 15.5739C10.7208 15.7322 10.8168 15.8588 10.9768 15.9537C11.1368 16.017 11.2968 16.0487 11.4568 15.9854ZM16.1292 13.9598H10.4159C10.3454 13.9478 10.2725 13.9482 10.2008 13.9598H2.11215C1.66412 13.9598 1.28009 13.58 1.28009 13.1369V4.02177C1.28009 3.57868 1.66412 3.19888 2.11215 3.19888H12.5045C12.1811 3.66987 12.0452 4.25727 12.0969 4.84467C12.1289 5.16117 12.2569 5.50931 12.4489 5.79416C13.0569 6.68035 13.793 6.87025 14.401 6.9019C15.2389 6.95369 16.0957 6.93957 16.9612 6.84927V13.1369C16.9612 13.58 16.5772 13.9598 16.1292 13.9598Z" fill="#A32A29"/>
</svg>
