<svg width="22" height="22" viewBox="0 0 22 22" fill="none" xmlns="http://www.w3.org/2000/svg">
  <path fill-rule="evenodd" clip-rule="evenodd" d="M13.3744 13.5351L14.3164 12.5931C14.3851 12.5244 14.4145 12.4361 14.4145 12.3478C14.4145 12.2594 14.3753 12.1711 14.3164 12.1024C14.1888 11.9749 13.9533 11.9749 13.8258 12.1024L7.69297 18.2352C7.62429 18.3039 7.59485 18.3922 7.59485 18.4805C7.59485 18.5245 7.60457 18.5684 7.62159 18.61C7.65571 18.6932 7.73573 18.7447 7.81809 18.7809C7.89472 18.8146 7.98194 18.8148 8.05871 18.7814L8.09615 18.7652C8.14097 18.7457 8.18177 18.718 8.21646 18.6836L9.45922 17.4502C10.0578 17.725 10.5778 17.774 10.833 17.774C10.9605 17.774 11.0881 17.7642 11.1371 17.7544C13.2272 17.5974 14.2771 16.0765 14.5519 15.6251C14.6794 15.4191 14.6794 15.1541 14.5715 14.9382C14.2771 14.3593 13.8748 13.8883 13.3744 13.5351ZM11.7553 15.1541L11.7651 15.2228C11.7651 15.6644 11.4119 16.0176 10.9703 16.0274L10.9016 16.0078L11.7553 15.1541ZM11.0685 17.0479H11.0586C10.9998 17.0577 10.568 17.1068 10.0087 16.9105L10.3423 16.5769C10.5484 16.675 10.7643 16.7241 10.9703 16.7241C11.7946 16.7241 12.4618 16.0569 12.4618 15.2326C12.4618 15.0266 12.4128 14.8205 12.3146 14.6144L12.8936 14.0355C13.3548 14.3397 13.6982 14.7518 13.9631 15.2817C13.6491 15.7821 12.7758 16.9204 11.0685 17.0479Z" fill="#A32A29"/>
  <path d="M8.09526 16.2629H8.11889C8.17837 16.2629 8.23597 16.2421 8.28169 16.204C8.43869 16.0961 8.48776 15.8802 8.37982 15.7232C8.22282 15.4877 8.11488 15.2424 8.02657 14.9579C8.39944 14.4967 9.41994 13.486 11.1077 13.5939C11.2941 13.5939 11.4609 13.4467 11.4707 13.2701C11.4806 13.0837 11.3334 12.9169 11.1469 12.9071C9.10594 12.7795 7.89901 14.0159 7.46726 14.5556C7.32007 14.742 7.28082 14.9971 7.35932 15.2326C7.47707 15.5564 7.62426 15.8508 7.79107 16.1059C7.86957 16.204 7.97751 16.2629 8.09526 16.2629Z" fill="#A32A29"/>
  <path d="M11.304 14.0846C11.304 14.271 11.147 14.428 10.9605 14.428C10.519 14.428 10.1657 14.7812 10.1657 15.2326L10.1853 15.4191C10.2344 15.5957 10.1166 15.7821 9.93021 15.8312L9.85171 15.841C9.6849 15.841 9.54752 15.733 9.50828 15.576C9.47884 15.4681 9.46902 15.3504 9.46902 15.2326C9.46902 14.4084 10.1363 13.7411 10.9605 13.7411C11.147 13.7411 11.304 13.8981 11.304 14.0846Z" fill="#A32A29"/>
  <path d="M15.9943 6.94108C15.9943 7.29433 16.2887 7.5887 16.6419 7.5887C16.9952 7.5887 17.2896 7.29433 17.2896 6.94108C17.2896 6.58783 17.005 6.29346 16.6419 6.29346C16.2789 6.29346 15.9943 6.58783 15.9943 6.94108Z" fill="#A32A29"/>
  <path fill-rule="evenodd" clip-rule="evenodd" d="M20.5767 1.55404C20.9594 1.55404 21.3127 1.70123 21.5874 1.97598C21.8622 2.24091 22.0094 2.60397 21.9995 2.98666V16.1157C21.9995 16.9105 21.3519 17.5484 20.5669 17.5484H16.8087C15.8668 19.9328 13.5608 21.5126 10.9998 21.5126C8.43872 21.5126 6.13279 19.923 5.19079 17.5484H1.43262C0.647623 17.5484 0 16.9105 0 16.1157V2.98666C0 2.19185 0.647623 1.55404 1.43262 1.55404H1.58962V0.896606C1.58962 0.425608 1.9723 0.0527344 2.43349 0.0527344H19.4287C19.8997 0.0527344 20.2725 0.43542 20.2725 0.896606V1.55404H20.5767ZM19.1834 1.14192H2.6788V1.55404H19.1834V1.14192ZM5.84823 15.2522C5.84823 18.0979 8.16397 20.4136 11.0096 20.4136C13.8552 20.4136 16.1709 18.0979 16.1709 15.2424C16.1709 13.1229 14.8953 11.2488 12.9328 10.4539C12.3245 10.2086 11.6768 10.0811 11.0096 10.0811C8.40928 10.0811 6.21129 12.0239 5.88748 14.6046C5.85804 14.8205 5.84823 15.0364 5.84823 15.2522ZM16.6321 8.04989H20.9202V5.83227H16.6321C16.0238 5.83227 15.5331 6.33271 15.5331 6.94108C15.5331 7.55927 16.0238 8.04989 16.6321 8.04989ZM16.6321 4.7529H20.9202V2.98666C20.9202 2.80022 20.7632 2.64322 20.5767 2.64322H1.43262C1.24618 2.64322 1.08918 2.80022 1.08918 2.98666V16.1059C1.08918 16.2924 1.24618 16.4494 1.43262 16.4494H4.86698C4.78848 16.047 4.74923 15.6447 4.74923 15.2522C4.74923 14.9873 4.76886 14.7322 4.79829 14.4771C5.18098 11.3567 7.84997 9.0017 10.9998 9.0017C11.8142 9.0017 12.5992 9.1587 13.3351 9.45307C15.7098 10.4049 17.2503 12.6814 17.2503 15.2522C17.2503 15.6447 17.2111 16.047 17.1326 16.4494H20.5767C20.7632 16.4494 20.9202 16.2924 20.9202 16.1059V9.12926H16.6321C15.4252 9.12926 14.4439 8.14802 14.4439 6.94108C14.4439 5.73415 15.4252 4.7529 16.6321 4.7529Z" fill="#A32A29"/>
</svg>
