<svg width="48" height="48" viewBox="0 0 48 48" fill="none" xmlns="http://www.w3.org/2000/svg">
<path d="M0 24C0 10.7452 10.7452 0 24 0C37.2548 0 48 10.7452 48 24C48 37.2548 37.2548 48 24 48C10.7452 48 0 37.2548 0 24Z" fill="#929497" fill-opacity="0.2"/>
<g clip-path="url(#clip0)">
<path fill-rule="evenodd" clip-rule="evenodd" d="M19 12H29C30.1046 12 31 12.8954 31 14V31H17V14C17 12.8954 17.8954 12 19 12ZM16 32V31V14C16 12.3431 17.3431 11 19 11H29C30.6569 11 32 12.3431 32 14V31V32V34C32 35.6569 30.6569 37 29 37H19C17.3431 37 16 35.6569 16 34V32ZM31 32V34C31 35.1046 30.1046 36 29 36H19C17.8954 36 17 35.1046 17 34V32H31ZM21 34C21 34.5523 21.4477 35 22 35H26C26.5523 35 27 34.5523 27 34C27 33.4477 26.5523 33 26 33H22C21.4477 33 21 33.4477 21 34ZM22.0801 14.25C21.781 14.25 21.5385 14.0075 21.5385 13.7083C21.5385 13.4092 21.781 13.1667 22.0801 13.1667H25.6635C25.9626 13.1667 26.2051 13.4092 26.2051 13.7083C26.2051 14.0075 25.9626 14.25 25.6635 14.25H22.0801Z" fill="#A32A29"/>
</g>
<defs>
<clipPath id="clip0">
<rect width="32" height="32" fill="white" transform="translate(8 8)"/>
</clipPath>
</defs>
</svg>
