<svg width="32" height="32" viewBox="0 0 32 32" fill="none" xmlns="http://www.w3.org/2000/svg">
<g clip-path="url(#clip0)">
<path fill-rule="evenodd" clip-rule="evenodd" d="M33.0004 -1H32.0004V0H33.0004V-1ZM21.2004 2.9H10.8004C9.20039 2.9 7.90039 4.2 7.90039 5.8V26.7C7.90039 28.3 9.20039 29.6 10.8004 29.6H21.2004C22.8004 29.6 24.1004 28.3 24.1004 26.7V5.8C24.1004 4.2 22.8004 2.9 21.2004 2.9ZM23.2004 5.8V26.7C23.2004 27.8 22.3004 28.7 21.2004 28.7H10.8004C9.70039 28.7 8.80039 27.8 8.80039 26.7V5.8C8.80039 4.7 9.70039 3.8 10.8004 3.8H21.2004C22.3004 3.8 23.2004 4.7 23.2004 5.8ZM17.2005 5.4H14.9005C14.7005 5.4 14.5005 5.3 14.6005 5.1C14.6005 4.9 14.7005 4.8 14.9005 4.8H17.2005C17.4005 4.8 17.5005 4.9 17.5005 5.1C17.5005 5.3 17.4005 5.4 17.2005 5.4ZM12.9004 6.4H19.2004C20.4004 6.4 21.4004 7.4 21.4004 8.6V22.5C21.4004 23.7 20.4004 24.7 19.2004 24.7H12.9004C11.7004 24.7 10.7004 23.7 10.7004 22.5V8.6C10.7004 7.4 11.7004 6.4 12.9004 6.4ZM20.5004 22.5V8.6C20.5004 7.9 19.9004 7.3 19.2004 7.3H12.9004C12.2004 7.3 11.6004 7.9 11.6004 8.6V22.5C11.6004 23.2 12.2004 23.8 12.9004 23.8H19.2004C19.9004 23.8 20.5004 23.2 20.5004 22.5ZM18.2004 13.3H15.8004C15.0004 13.3 14.4004 13.9 14.4004 14.7V15C14.4004 15.8 15.0004 16.4 15.8004 16.4H16.8004V15.7H15.8004C15.4004 15.7 15.1004 15.4 15.1004 15V14.7C15.1004 14.3 15.4004 14 15.8004 14H18.2004C18.6004 14 18.9004 14.3 18.9004 14.7V15C18.9004 15.4 18.6004 15.7 18.2004 15.7H17.9004V16.4H18.2004C19.0004 16.4 19.6004 15.8 19.6004 15V14.7C19.5004 13.9 18.9004 13.3 18.2004 13.3ZM15.3004 14.7H16.3004C17.0004 14.7 17.7004 15.3 17.7004 16V16.3C17.7004 17.1 17.1004 17.7 16.3004 17.7H13.9004C13.1004 17.7 12.5004 17.1 12.5004 16.3V16C12.5004 15.2 13.1004 14.6 13.9004 14.6H14.2004V15.3H13.9004C13.5004 15.3 13.2004 15.6 13.2004 16V16.4C13.2004 16.8 13.5004 17.1 13.9004 17.1H16.3004C16.7004 17.1 17.0004 16.8 17.0004 16.4V16.1C17.0004 15.7 16.7004 15.4 16.3004 15.4H15.3004V14.7ZM14.8004 26.6C14.8004 26 15.3004 25.4 16.0004 25.4C16.7004 25.4 17.2004 26 17.2004 26.6C17.2004 27.2 16.6004 27.8 16.0004 27.8C15.4004 27.8 14.8004 27.3 14.8004 26.6ZM15.5004 26.7C15.5004 27 15.7004 27.2 16.0004 27.2C16.3004 27.2 16.5004 26.9 16.5004 26.7C16.5004 26.4 16.3004 26.2 16.0004 26.2C15.7004 26.2 15.5004 26.4 15.5004 26.7Z" fill="#A32A29"/>
</g>
<defs>
<clipPath id="clip0">
<rect width="32" height="32" fill="white"/>
</clipPath>
</defs>
</svg>
