<svg width="48" height="48" viewBox="0 0 48 48" fill="none" xmlns="http://www.w3.org/2000/svg">
<path d="M0 24C0 10.7452 10.7452 0 24 0C37.2548 0 48 10.7452 48 24C48 37.2548 37.2548 48 24 48C10.7452 48 0 37.2548 0 24Z" fill="#929497" fill-opacity="0.2"/>
<path d="M29.2174 37.4348H18.7826C17.2522 37.4348 16 36.1826 16 34.6522V13.7826C16 12.2522 17.2522 11 18.7826 11H29.2174C30.7478 11 32 12.2522 32 13.7826V34.6522C32 36.1826 30.7478 37.4348 29.2174 37.4348ZM18.7826 11.6957C17.6348 11.6957 16.6957 12.6348 16.6957 13.7826V34.6522C16.6957 35.8 17.6348 36.7391 18.7826 36.7391H29.2174C30.3652 36.7391 31.3043 35.8 31.3043 34.6522V13.7826C31.3043 12.6348 30.3652 11.6957 29.2174 11.6957H18.7826Z" fill="#A32A29" stroke="#A32A29" stroke-width="0.3"/>
<path d="M28.1731 32.565H19.8252C18.6774 32.565 17.7383 31.6259 17.7383 30.478V16.565C17.7383 15.4172 18.6774 14.478 19.8252 14.478H28.1731C29.3209 14.478 30.26 15.4172 30.26 16.565V30.478C30.26 31.6259 29.3209 32.565 28.1731 32.565ZM19.8252 15.1737C19.06 15.1737 18.4339 15.7998 18.4339 16.565V30.478C18.4339 31.2432 19.06 31.8693 19.8252 31.8693H28.1731C28.9383 31.8693 29.5644 31.2432 29.5644 30.478V16.565C29.5644 15.7998 28.9383 15.1737 28.1731 15.1737H19.8252Z" fill="#A32A29" stroke="#A32A29" stroke-width="0.3"/>
<path d="M27.1302 13.4349H20.8693C20.6606 13.4349 20.5215 13.2958 20.5215 13.0871C20.5215 12.8784 20.6606 12.7393 20.8693 12.7393H27.1302C27.3389 12.7393 27.478 12.8784 27.478 13.0871C27.478 13.2958 27.3389 13.4349 27.1302 13.4349Z" fill="#A32A29" stroke="#A32A29" stroke-width="0.3"/>
<path d="M24.0006 35.8694C23.3397 35.8694 22.7832 35.3128 22.7832 34.652C22.7832 33.9911 23.3397 33.4346 24.0006 33.4346C24.6615 33.4346 25.218 33.9911 25.218 34.652C25.218 35.3128 24.6615 35.8694 24.0006 35.8694ZM24.0006 34.1302C23.7223 34.1302 23.4789 34.3737 23.4789 34.652C23.4789 34.9302 23.7223 35.1737 24.0006 35.1737C24.2789 35.1737 24.5223 34.9302 24.5223 34.652C24.5223 34.3737 24.2789 34.1302 24.0006 34.1302Z" fill="#A32A29" stroke="#A32A29" stroke-width="0.3"/>
<path d="M24.2773 25.7823H21.8425C21.0773 25.7823 20.4512 25.1562 20.4512 24.391V24.0432C20.4512 23.2779 21.0773 22.6519 21.8425 22.6519H22.1207V23.3475H21.8425C21.4599 23.3475 21.1468 23.6606 21.1468 24.0432V24.391C21.1468 24.7736 21.4599 25.0866 21.8425 25.0866H24.2773C24.6599 25.0866 24.9729 24.7736 24.9729 24.391V24.0432C24.9729 23.6606 24.6599 23.3475 24.2773 23.3475H23.3033V22.6519H24.2773C25.0425 22.6519 25.6686 23.2779 25.6686 24.0432V24.391C25.6686 25.1562 25.0425 25.7823 24.2773 25.7823Z" fill="#A32A29"/>
<path d="M26.1562 24.3912H25.8083V23.6955H26.1562C26.5388 23.6955 26.8518 23.3825 26.8518 22.9999V22.652C26.8518 22.2694 26.5388 21.9564 26.1562 21.9564H23.7214C23.3388 21.9564 23.0257 22.2694 23.0257 22.652V22.9999C23.0257 23.3825 23.3388 23.6955 23.7214 23.6955H24.7649V24.3912H23.7214C22.9562 24.3912 22.3301 23.7651 22.3301 22.9999V22.652C22.3301 21.8868 22.9562 21.2607 23.7214 21.2607H26.1562C26.9214 21.2607 27.5475 21.8868 27.5475 22.652V22.9999C27.5475 23.7651 26.9214 24.3912 26.1562 24.3912Z" fill="#A32A29"/>
</svg>
