<svg width="32" height="32" viewBox="0 0 32 32" fill="none" xmlns="http://www.w3.org/2000/svg">
<g clip-path="url(#clip0)">
<path fill-rule="evenodd" clip-rule="evenodd" d="M32.9996 -1H31.9996V0H32.9996V-1ZM10.7822 2.85001C9.16894 2.85001 7.84961 4.16934 7.84961 5.78261V26.6522C7.84961 28.2655 9.16894 29.5848 10.7822 29.5848H21.217C22.8303 29.5848 24.1496 28.2655 24.1496 26.6522V5.78261C24.1496 4.16934 22.8303 2.85001 21.217 2.85001H10.7822ZM8.84526 5.78261C8.84526 4.71763 9.71724 3.84566 10.7822 3.84566H21.217C22.282 3.84566 23.154 4.71763 23.154 5.78261V26.6522C23.154 27.7172 22.282 28.5891 21.217 28.5891H10.7822C9.71724 28.5891 8.84526 27.7172 8.84526 26.6522V5.78261ZM12.9685 4.73682C13.0509 4.64126 13.1682 4.58914 13.2996 4.58914H18.6996C18.831 4.58914 18.9483 4.64126 19.0307 4.73682C19.1114 4.8304 19.1496 4.9546 19.1496 5.08697C19.1496 5.21934 19.1114 5.34354 19.0307 5.43711C18.9483 5.53268 18.831 5.58479 18.6996 5.58479H13.2996C13.1682 5.58479 13.0509 5.53268 12.9685 5.43711C12.8878 5.34354 12.8496 5.21934 12.8496 5.08697C12.8496 4.9546 12.8878 4.8304 12.9685 4.73682ZM17.4581 15.623C17.3383 15.623 17.2579 15.7245 17.2579 15.8241C17.2579 15.9266 17.3338 16.0336 17.4581 16.0336C17.5165 16.0336 17.5665 16.0049 17.5999 15.9693C17.6339 15.9331 17.6582 15.8819 17.6582 15.8241C17.6582 15.7666 17.6308 15.7172 17.5979 15.6841C17.5651 15.6511 17.5159 15.623 17.4581 15.623ZM12.5519 13.02C12.5519 12.58 12.9113 12.2043 13.3525 12.2043H17.7751C18.2182 12.2043 18.5677 12.5815 18.5677 13.02V13.0463H18.6011C19.0408 13.0463 19.4021 13.4116 19.4021 13.8535V14.7366C19.7601 14.8142 20.0361 15.1383 20.0361 15.5209V16.1357C20.0361 16.5196 19.759 16.8354 19.4021 16.9118V17.8031C19.4021 18.2447 19.0408 18.6103 18.6011 18.6103H13.3525C12.9128 18.6103 12.5519 18.2446 12.5519 17.8031V13.02ZM13.3525 12.8842C13.2752 12.8842 13.2192 12.9396 13.2192 13.0197V13.0586C13.2616 13.0508 13.3058 13.0463 13.3525 13.0463H17.9003V13.02C17.9003 12.9373 17.8417 12.8842 17.7751 12.8842H13.3525ZM13.3525 13.7181C13.2751 13.7181 13.2192 13.7732 13.2192 13.8535V17.8031C13.2192 17.8788 13.2704 17.9304 13.3525 17.9304H18.6011C18.6832 17.9304 18.7345 17.8788 18.7345 17.8031V16.9346H16.974C16.5337 16.9346 16.1811 16.5773 16.1811 16.1357V15.5209C16.1811 15.0808 16.5325 14.7136 16.974 14.7136H18.7345V13.8538C18.7345 13.7734 18.6784 13.7181 18.6011 13.7181H13.3525ZM16.974 15.3935C16.905 15.3935 16.8487 15.449 16.8487 15.5209V16.1357C16.8487 16.2076 16.905 16.2631 16.974 16.2631H19.2352C19.3101 16.2631 19.3604 16.2101 19.3604 16.1357V15.5209C19.3604 15.4462 19.3102 15.3935 19.2352 15.3935H16.974ZM11.9997 6.90001C10.8463 6.90001 9.89966 7.82565 9.89966 8.96155V22.0385C9.89966 23.1744 10.8463 24.1 11.9997 24.1H19.9997C21.153 24.1 22.0997 23.1744 22.0997 22.0385V8.96155C22.0997 7.82565 21.153 6.90001 19.9997 6.90001H11.9997ZM10.7663 8.96155C10.7663 8.29937 11.3197 7.75385 11.9997 7.75385H19.9997C20.6796 7.75385 21.233 8.29937 21.233 8.96155V22.0385C21.233 22.7006 20.6796 23.2462 19.9997 23.2462H11.9997C11.3197 23.2462 10.7663 22.7006 10.7663 22.0385V8.96155ZM15.9997 25.3848C15.3112 25.3848 14.7323 25.9637 14.7323 26.6522C14.7323 27.3407 15.3112 27.9196 15.9997 27.9196C16.6882 27.9196 17.2671 27.3407 17.2671 26.6522C17.2671 25.9637 16.6882 25.3848 15.9997 25.3848ZM15.528 26.6522C15.528 26.4015 15.749 26.1804 15.9997 26.1804C16.2503 26.1804 16.4714 26.4015 16.4714 26.6522C16.4714 26.9028 16.2503 27.1239 15.9997 27.1239C15.749 27.1239 15.528 26.9028 15.528 26.6522Z" fill="#A32A29"/>
</g>
<defs>
<clipPath id="clip0">
<rect width="32" height="32" fill="white"/>
</clipPath>
</defs>
</svg>
