<svg width="17" height="26" viewBox="0 0 17 26" fill="none" xmlns="http://www.w3.org/2000/svg">
<path fill-rule="evenodd" clip-rule="evenodd" d="M3.5 1H13.5C14.6046 1 15.5 1.89543 15.5 3V20H1.5V3C1.5 1.89543 2.39543 1 3.5 1ZM0.5 21V20V3C0.5 1.34315 1.84315 0 3.5 0H13.5C15.1569 0 16.5 1.34315 16.5 3V20V21V23C16.5 24.6569 15.1569 26 13.5 26H3.5C1.84315 26 0.5 24.6569 0.5 23V21ZM15.5 21V23C15.5 24.1046 14.6046 25 13.5 25H3.5C2.39543 25 1.5 24.1046 1.5 23V21H15.5ZM5.5 23C5.5 23.5523 5.94772 24 6.5 24H10.5C11.0523 24 11.5 23.5523 11.5 23C11.5 22.4477 11.0523 22 10.5 22H6.5C5.94772 22 5.5 22.4477 5.5 23ZM6.58013 3.25C6.28097 3.25 6.03846 3.00749 6.03846 2.70833C6.03846 2.40918 6.28097 2.16667 6.58013 2.16667H10.1635C10.4626 2.16667 10.7051 2.40918 10.7051 2.70833C10.7051 3.00749 10.4626 3.25 10.1635 3.25H6.58013Z" fill="#A32A29"/>
</svg>
