<svg width="32" height="32" viewBox="0 0 32 32" fill="none" xmlns="http://www.w3.org/2000/svg">
<path fill-rule="evenodd" clip-rule="evenodd" d="M9.28676 16.9653C9.89502 20.5589 13.0136 23.1054 16.5335 23.1054C16.9373 23.1054 17.3487 23.0729 17.7625 23.0004C19.6994 22.6756 21.3896 21.611 22.5288 20.0041C23.6655 18.4023 24.1118 16.448 23.7827 14.5063C23.4561 12.5671 22.3942 10.8703 20.7938 9.73071C19.1934 8.59116 17.2415 8.14384 15.3095 8.47121C11.3135 9.14844 8.6112 12.9619 9.28676 16.9653ZM15.5164 9.70072C15.8629 9.64324 16.2069 9.61576 16.5484 9.61576C17.8048 9.61576 19.0288 10.0031 20.0733 10.7478C21.402 11.6949 22.2845 13.1044 22.5562 14.7162C22.8304 16.3281 22.459 17.9499 21.5142 19.2819C20.5694 20.6139 19.1635 21.501 17.5556 21.7709C14.2376 22.3357 11.0766 20.0841 10.5157 16.7579C9.95236 13.4292 12.1984 10.2655 15.5164 9.70072Z" fill="#A32A29"/>
<path fill-rule="evenodd" clip-rule="evenodd" d="M14.3926 30.905C14.9435 30.9675 15.5019 31 16.0603 31C16.2947 31 16.529 30.9925 16.7658 30.9825C17.0176 30.97 17.2394 30.8051 17.3217 30.5677L18.3887 27.5464L18.5706 27.5164C19.4656 27.3664 20.3406 27.1115 21.1782 26.7592L23.5189 28.5685C23.7259 28.7309 24.015 28.7434 24.2344 28.601C24.9324 28.1511 25.603 27.6313 26.2312 27.0566C26.4181 26.8866 26.4829 26.6192 26.3932 26.3793L25.411 23.7454C26.099 22.9782 26.6874 22.126 27.1585 21.2014L29.8259 21.0914C30.0826 21.0789 30.307 20.909 30.3917 20.6666C30.6585 19.8619 30.8629 19.0198 30.9925 18.1601C31.0324 17.9027 30.9103 17.6503 30.6859 17.5229L28.4523 16.2559C28.4847 15.4337 28.4324 14.6065 28.2952 13.7943C28.2504 13.5219 28.1955 13.2521 28.1307 12.9847L30.0427 11.2329C30.2297 11.0629 30.2945 10.793 30.2048 10.5556C29.9106 9.76594 29.5516 8.99875 29.1353 8.28153C29.0032 8.05162 28.744 7.93167 28.4822 7.98165L25.9445 8.45146C25.244 7.55432 24.4239 6.76463 23.494 6.0999L23.8605 3.34849C23.8954 3.09859 23.7732 2.85119 23.5514 2.72374C22.8808 2.33889 22.1628 2.00153 21.42 1.71914C21.1682 1.62418 20.8865 1.69915 20.717 1.90407L18.9097 4.10319C17.8028 3.88328 16.6736 3.8233 15.5418 3.92576L13.8741 1.28931C13.737 1.0719 13.4802 0.961942 13.2309 1.01192C12.5105 1.14687 11.8 1.33679 11.117 1.5742C10.8652 1.66166 10.6957 1.90157 10.6982 2.16896L10.7281 5.42517C9.78831 5.96245 8.93076 6.61969 8.16795 7.38939L4.85993 6.33481C4.61314 6.25734 4.34142 6.3398 4.17939 6.54722C3.75809 7.08701 3.36921 7.66678 3.01772 8.27154C2.88559 8.50144 2.91302 8.78883 3.08253 8.98875L5.42083 11.7327C5.07681 12.6848 4.85744 13.6719 4.76521 14.6865L1.3849 16.0809C1.1406 16.1834 0.98604 16.4283 1.001 16.6932C1.0334 17.278 1.09822 17.8527 1.18796 18.3925C1.20292 18.48 1.22037 18.5649 1.23782 18.6499L1.26025 18.7649C1.31011 19.0198 1.51203 19.2172 1.7688 19.2597L5.43578 19.8719C5.76484 20.7716 6.1986 21.6287 6.73456 22.4234L5.06933 25.6146C4.94469 25.852 4.98707 26.1419 5.17154 26.3344C5.6751 26.8616 6.22353 27.3589 6.80436 27.8113C7.00628 27.9687 7.28548 27.9887 7.50236 27.8562L10.5736 26.042C11.3812 26.5193 12.2413 26.8966 13.1412 27.169L13.8542 30.4202C13.9115 30.6826 14.1284 30.8775 14.3926 30.905ZM16.2897 29.7505C15.8509 29.758 15.4097 29.743 14.9709 29.708L14.2779 26.5393C14.2281 26.3144 14.0561 26.1319 13.8317 26.072C12.7947 25.7921 11.8125 25.3597 10.9101 24.7875C10.7132 24.6625 10.4639 24.6575 10.2619 24.7775L7.24061 26.5618C6.94396 26.3169 6.65728 26.057 6.38307 25.7896L8.0109 22.6683C8.12059 22.4584 8.10314 22.2035 7.96354 22.0136C7.32786 21.1264 6.83178 20.1543 6.49525 19.1247C6.42295 18.9048 6.2335 18.7399 6.00665 18.7049L2.40198 18.1001C2.34714 17.7628 2.30476 17.4179 2.27485 17.063L5.59283 15.6936C5.8147 15.6011 5.96427 15.3912 5.97923 15.1513C6.04404 14.0093 6.29083 12.8922 6.71212 11.8401C6.79688 11.6227 6.757 11.3778 6.60742 11.2029L4.32148 8.51894C4.50346 8.22406 4.6979 7.93667 4.90231 7.65928L8.16047 8.69637C8.38981 8.76884 8.6391 8.70386 8.80612 8.52394C9.62378 7.64179 10.5785 6.90708 11.643 6.3473C11.8499 6.23734 11.977 6.02243 11.977 5.79002L11.9471 2.61379C12.3086 2.50133 12.68 2.40387 13.0515 2.3214L14.6967 4.91787C14.8239 5.12279 15.0557 5.23524 15.2975 5.20276C16.5464 5.05032 17.7954 5.11529 19.0069 5.40018C19.2337 5.45266 19.478 5.37519 19.6301 5.19026L21.39 3.04861C21.7964 3.21605 22.1903 3.40597 22.5717 3.60839L22.2102 6.31481C22.1778 6.54972 22.285 6.78213 22.4819 6.91458C23.5314 7.6168 24.4388 8.48895 25.1792 9.50355C25.3188 9.69597 25.5581 9.79093 25.7949 9.75095L28.2703 9.28863C28.4972 9.71096 28.7041 10.1508 28.8885 10.6006L27.0164 12.3149C26.8419 12.4749 26.7721 12.7148 26.8344 12.9397C26.9292 13.292 27.0089 13.6469 27.0688 14.0018C27.2109 14.8464 27.2532 15.7061 27.1884 16.5632C27.1735 16.8056 27.2931 17.0356 27.5025 17.153L29.6912 18.3925C29.6015 18.8923 29.4818 19.3821 29.3398 19.8619L26.7372 19.9719C26.5054 19.9794 26.2985 20.1168 26.1988 20.3267C25.7027 21.3788 25.0471 22.3384 24.2444 23.1731C24.0798 23.3455 24.0275 23.6004 24.1098 23.8254L25.077 26.4168C24.708 26.7367 24.3216 27.0341 23.9253 27.309L21.6443 25.5472C21.4623 25.4047 21.2155 25.3772 21.0061 25.4747C20.1636 25.8595 19.2761 26.1319 18.3612 26.2869C18.1917 26.3169 18.0222 26.3394 17.8527 26.3593C17.6184 26.3893 17.4189 26.5468 17.3417 26.7717L16.2897 29.7505Z" fill="#A32A29"/>
<path fill-rule="evenodd" clip-rule="evenodd" d="M9.28676 16.9653C9.89502 20.5589 13.0136 23.1054 16.5335 23.1054C16.9373 23.1054 17.3487 23.0729 17.7625 23.0004C19.6994 22.6756 21.3896 21.611 22.5288 20.0041C23.6655 18.4023 24.1118 16.448 23.7827 14.5063C23.4561 12.5671 22.3942 10.8703 20.7938 9.73071C19.1934 8.59116 17.2415 8.14384 15.3095 8.47121C11.3135 9.14844 8.6112 12.9619 9.28676 16.9653ZM15.5164 9.70072C15.8629 9.64324 16.2069 9.61576 16.5484 9.61576C17.8048 9.61576 19.0288 10.0031 20.0733 10.7478C21.402 11.6949 22.2845 13.1044 22.5562 14.7162C22.8304 16.3281 22.459 17.9499 21.5142 19.2819C20.5694 20.6139 19.1635 21.501 17.5556 21.7709C14.2376 22.3357 11.0766 20.0841 10.5157 16.7579C9.95236 13.4292 12.1984 10.2655 15.5164 9.70072Z" stroke="#A32A29" stroke-width="0.4"/>
<path fill-rule="evenodd" clip-rule="evenodd" d="M14.3926 30.905C14.9435 30.9675 15.5019 31 16.0603 31C16.2947 31 16.529 30.9925 16.7658 30.9825C17.0176 30.97 17.2394 30.8051 17.3217 30.5677L18.3887 27.5464L18.5706 27.5164C19.4656 27.3664 20.3406 27.1115 21.1782 26.7592L23.5189 28.5685C23.7259 28.7309 24.015 28.7434 24.2344 28.601C24.9324 28.1511 25.603 27.6313 26.2312 27.0566C26.4181 26.8866 26.4829 26.6192 26.3932 26.3793L25.411 23.7454C26.099 22.9782 26.6874 22.126 27.1585 21.2014L29.8259 21.0914C30.0826 21.0789 30.307 20.909 30.3917 20.6666C30.6585 19.8619 30.8629 19.0198 30.9925 18.1601C31.0324 17.9027 30.9103 17.6503 30.6859 17.5229L28.4523 16.2559C28.4847 15.4337 28.4324 14.6065 28.2952 13.7943C28.2504 13.5219 28.1955 13.2521 28.1307 12.9847L30.0427 11.2329C30.2297 11.0629 30.2945 10.793 30.2048 10.5556C29.9106 9.76594 29.5516 8.99875 29.1353 8.28153C29.0032 8.05162 28.744 7.93167 28.4822 7.98165L25.9445 8.45146C25.244 7.55432 24.4239 6.76463 23.494 6.0999L23.8605 3.34849C23.8954 3.09859 23.7732 2.85119 23.5514 2.72374C22.8808 2.33889 22.1628 2.00153 21.42 1.71914C21.1682 1.62418 20.8865 1.69915 20.717 1.90407L18.9097 4.10319C17.8028 3.88328 16.6736 3.8233 15.5418 3.92576L13.8741 1.28931C13.737 1.0719 13.4802 0.961942 13.2309 1.01192C12.5105 1.14687 11.8 1.33679 11.117 1.5742C10.8652 1.66166 10.6957 1.90157 10.6982 2.16896L10.7281 5.42517C9.78831 5.96245 8.93076 6.61969 8.16795 7.38939L4.85993 6.33481C4.61314 6.25734 4.34142 6.3398 4.17939 6.54722C3.75809 7.08701 3.36921 7.66678 3.01772 8.27154C2.88559 8.50144 2.91302 8.78883 3.08253 8.98875L5.42083 11.7327C5.07681 12.6848 4.85744 13.6719 4.76521 14.6865L1.3849 16.0809C1.1406 16.1834 0.98604 16.4283 1.001 16.6932C1.0334 17.278 1.09822 17.8527 1.18796 18.3925C1.20292 18.48 1.22037 18.5649 1.23782 18.6499L1.26025 18.7649C1.31011 19.0198 1.51203 19.2172 1.7688 19.2597L5.43578 19.8719C5.76484 20.7716 6.1986 21.6287 6.73456 22.4234L5.06933 25.6146C4.94469 25.852 4.98707 26.1419 5.17154 26.3344C5.6751 26.8616 6.22353 27.3589 6.80436 27.8113C7.00628 27.9687 7.28548 27.9887 7.50236 27.8562L10.5736 26.042C11.3812 26.5193 12.2413 26.8966 13.1412 27.169L13.8542 30.4202C13.9115 30.6826 14.1284 30.8775 14.3926 30.905ZM16.2897 29.7505C15.8509 29.758 15.4097 29.743 14.9709 29.708L14.2779 26.5393C14.2281 26.3144 14.0561 26.1319 13.8317 26.072C12.7947 25.7921 11.8125 25.3597 10.9101 24.7875C10.7132 24.6625 10.4639 24.6575 10.2619 24.7775L7.24061 26.5618C6.94396 26.3169 6.65728 26.057 6.38307 25.7896L8.0109 22.6683C8.12059 22.4584 8.10314 22.2035 7.96354 22.0136C7.32786 21.1264 6.83178 20.1543 6.49525 19.1247C6.42295 18.9048 6.2335 18.7399 6.00665 18.7049L2.40198 18.1001C2.34714 17.7628 2.30476 17.4179 2.27485 17.063L5.59283 15.6936C5.8147 15.6011 5.96427 15.3912 5.97923 15.1513C6.04404 14.0093 6.29083 12.8922 6.71212 11.8401C6.79688 11.6227 6.757 11.3778 6.60742 11.2029L4.32148 8.51894C4.50346 8.22406 4.6979 7.93667 4.90231 7.65928L8.16047 8.69637C8.38981 8.76884 8.6391 8.70386 8.80612 8.52394C9.62378 7.64179 10.5785 6.90708 11.643 6.3473C11.8499 6.23734 11.977 6.02243 11.977 5.79002L11.9471 2.61379C12.3086 2.50133 12.68 2.40387 13.0515 2.3214L14.6967 4.91787C14.8239 5.12279 15.0557 5.23524 15.2975 5.20276C16.5464 5.05032 17.7954 5.11529 19.0069 5.40018C19.2337 5.45266 19.478 5.37519 19.6301 5.19026L21.39 3.04861C21.7964 3.21605 22.1903 3.40597 22.5717 3.60839L22.2102 6.31481C22.1778 6.54972 22.285 6.78213 22.4819 6.91458C23.5314 7.6168 24.4388 8.48895 25.1792 9.50355C25.3188 9.69597 25.5581 9.79093 25.7949 9.75095L28.2703 9.28863C28.4972 9.71096 28.7041 10.1508 28.8885 10.6006L27.0164 12.3149C26.8419 12.4749 26.7721 12.7148 26.8344 12.9397C26.9292 13.292 27.0089 13.6469 27.0688 14.0018C27.2109 14.8464 27.2532 15.7061 27.1884 16.5632C27.1735 16.8056 27.2931 17.0356 27.5025 17.153L29.6912 18.3925C29.6015 18.8923 29.4818 19.3821 29.3398 19.8619L26.7372 19.9719C26.5054 19.9794 26.2985 20.1168 26.1988 20.3267C25.7027 21.3788 25.0471 22.3384 24.2444 23.1731C24.0798 23.3455 24.0275 23.6004 24.1098 23.8254L25.077 26.4168C24.708 26.7367 24.3216 27.0341 23.9253 27.309L21.6443 25.5472C21.4623 25.4047 21.2155 25.3772 21.0061 25.4747C20.1636 25.8595 19.2761 26.1319 18.3612 26.2869C18.1917 26.3169 18.0222 26.3394 17.8527 26.3593C17.6184 26.3893 17.4189 26.5468 17.3417 26.7717L16.2897 29.7505Z" stroke="#A32A29" stroke-width="0.4"/>
</svg>
