<svg width="268" height="268" viewBox="0 0 268 268" fill="none" xmlns="http://www.w3.org/2000/svg">
<path d="M42.7245 42.1903H108.283V33.6113H34.1455V107.747H42.7245V42.1903Z" fill="#221F1F"/>
<path fill-rule="evenodd" clip-rule="evenodd" d="M108.283 55.8439V107.747H56.3804V55.8439H108.283ZM73.6821 73.1478V90.4474H90.9817V73.1478H73.6821Z" fill="#221F1F"/>
<path d="M125.582 55.8482H142.882V73.1477H125.582V55.8482Z" fill="#221F1F"/>
<path fill-rule="evenodd" clip-rule="evenodd" d="M212.083 107.747V55.8439H160.179V107.747H212.083ZM177.481 73.1478H194.781V90.4474H177.481V73.1478Z" fill="#221F1F"/>
<path d="M142.882 90.4474V125.047L125.583 125.047V142.346H142.882V125.047L160.182 125.047V142.346H177.481V176.947H160.182V159.648H142.882V176.947H160.182V194.247H142.882V211.547H125.582L125.583 142.346H108.283V125.047H125.583L125.582 90.4474H142.882Z" fill="#221F1F"/>
<path d="M56.3824 125.047V142.346H90.9837V125.047H56.3824Z" fill="#221F1F"/>
<path fill-rule="evenodd" clip-rule="evenodd" d="M56.3824 159.648V211.551H108.285V159.648H56.3824ZM90.9816 194.247H73.682V176.947H90.9816V194.247Z" fill="#221F1F"/>
<path d="M212.083 142.346V125.047H177.482L177.481 142.346H212.083Z" fill="#221F1F"/>
<path d="M160.183 211.547L160.182 194.247L177.482 194.247L177.481 176.947L194.784 176.947V159.648H212.083V194.247H194.784V211.547H160.183Z" fill="#221F1F"/>
<path d="M34.1455 159.648H42.7245V225.204H108.283V233.783H34.1455V159.648Z" fill="#221F1F"/>
<path d="M225.741 225.204H160.183V233.783H234.32V159.648H225.741V225.204Z" fill="#221F1F"/>
<path d="M160.183 42.1903V33.6113H234.32V107.747H225.741V42.1903H160.183Z" fill="#221F1F"/>
</svg>
