<svg xmlns="http://www.w3.org/2000/svg" width="32" height="32" fill="none" viewBox="0 0 32 32">
    <path fill="#A32A29" fill-rule="evenodd" d="M21.667 8c-2.386 0-4.334 1.84-4.334 4.093s1.948 4.093 4.334 4.093c2.385 0 4.333-1.84 4.333-4.093S24.052 8 21.667 8zm0 1.26c1.664 0 3 1.26 3 2.833 0 1.573-1.336 2.834-3 2.834-1.665 0-3-1.261-3-2.834 0-1.572 1.335-2.834 3-2.834zm-9.605 5.401c.06-.025.123-.041.188-.049.11-.012.22.001.323.04l8.27 3.07.063.019v.01c.315.089.64.217.917.462.093.083.177.186.25.295l.61-.212.973-.339.126-.044 1.374-.477.247-.086h.001c.102-.036.19-.067.263-.091l.11-.038.035-.012.03-.01.023-.01.004-.001c.001-.001.002-.003.069-.018h.01c.125-.028.251-.04.385-.04.913 0 1.667.713 1.667 1.575 0 .558-.312 1.05-.781 1.328l-.011.006-.01.004-8.865 4.87c-.17.095-.376.113-.562.05l-7.219-2.48H10v.63c0 .348-.298.63-.667.63H4.667c-.369 0-.667-.282-.667-.63v-7.556c-.001-.326.26-.6.604-.63h4.729c.357 0 .65.264.667.6l2.063-.866zm.292 1.26l8.063 2.99c.02.008.041.015.062.02.205.055.368.136.438.197.07.062.083.082.083.207 0 .185-.137.315-.333.315h-3.188l-3.229-1.22c-.342-.129-.73.028-.867.35-.137.322.027.689.367.82l3.333 1.26c.08.031.164.048.25.05h3.334c.744 0 1.373-.48 1.583-1.123l.393-.136h.001c.347-.12.865-.298 1.481-.513l.744-.26.746-.262.329-.11.17-.057c.033-.01.061-.021.085-.03l.051-.019h.01l.007-.001c.02-.004.044-.009.066-.009.192 0 .334.134.334.315 0 .117-.063.21-.157.266l-8.573 4.703-7.041-2.42c-.074-.023-.152-.033-.23-.03H10v-4.32l2.354-.983zm-3.687.265H5.333v6.297h3.334v-6.297z" clip-rule="evenodd"/>
</svg>
