<svg width="32" height="32" viewBox="0 0 32 32" fill="none" xmlns="http://www.w3.org/2000/svg">
<path d="M24.4998 15.4C24.4998 15.3 24.4998 15.3 24.4998 15.4C24.3998 15.3 24.3998 15.3 24.3998 15.2C24.3998 15.2 24.2998 15.2 24.2998 15.1C24.1998 15.1 24.1998 15.1 24.1998 15.1C24.0998 15.1 24.0998 15.1 23.9998 15.1C23.8998 15.1 23.8998 15.1 23.8998 15.1L23.7998 15.2C23.7998 15.2 23.6998 15.2 23.6998 15.3C23.6998 15.3 23.6998 15.4 23.5998 15.4L23.4998 15.5C23.4998 15.6 23.4998 15.6 23.4998 15.6V15.7C23.4998 15.9 23.5998 16 23.6998 16.2C23.6998 16.2 23.7998 16.2 23.7998 16.3L23.8998 16.4H24.0998C24.1998 16.4 24.3998 16.3 24.4998 16.2C24.4998 16.2 24.4998 16.1 24.5998 16.1L24.6998 16C24.6998 15.9 24.6998 15.9 24.6998 15.9V15.7C24.5998 15.5 24.5998 15.5 24.4998 15.4C24.5998 15.4 24.5998 15.4 24.4998 15.4Z" fill="#a32a29"/>
<path d="M21.0998 9.5C20.2998 9.5 19.4998 9.7 18.6998 9.9V6.7C18.6998 5.3 17.5998 4.2 16.2998 4.2H6.6998C5.3998 4.2 4.2998 5.3 4.2998 6.7V25C4.2998 26.5 5.4998 27.7 6.8998 27.7H16.1998C17.4998 27.7 18.5998 26.6 18.5998 25.2V21.4C19.2998 21.7 20.1998 21.8 20.9998 21.8C24.5998 21.8 27.5998 19 27.5998 15.6C27.5998 12.2 24.6998 9.5 21.0998 9.5ZM5.4998 6.7C5.4998 6 5.9998 5.5 6.6998 5.5H16.2998C16.9998 5.5 17.4998 6.1 17.4998 6.7V7.3H5.4998V6.7ZM17.4998 25.3C17.4998 26 16.9998 26.5 16.2998 26.5H6.7998C6.0998 26.5 5.4998 26 5.4998 25.3V24.7H17.4998V25.3ZM17.4998 23.4H5.4998V8.6H17.4998V10.5C15.6998 11.6 14.4998 13.5 14.4998 15.7C14.4998 16.6 14.6998 17.4 15.0998 18.2L13.7998 21.1C13.6998 21.3 13.6998 21.6 13.8998 21.7C13.9998 21.9 14.1998 21.9 14.2998 21.9C14.3998 21.9 14.3998 21.9 14.3998 21.9L17.3998 21.1V23.4H17.4998ZM21.0998 20.6C20.0998 20.6 18.9998 20.3 18.1998 19.8C18.0998 19.7 17.9998 19.7 17.8998 19.7C17.7998 19.7 17.7998 19.7 17.7998 19.7L15.4998 20.3L16.3998 18.3C16.4998 18.1 16.4998 17.9 16.3998 17.7C15.9998 17 15.7998 16.3 15.7998 15.5C15.7998 12.8 18.1998 10.6 21.1998 10.6C24.1998 10.6 26.5998 12.8 26.5998 15.5C26.5998 18.2 23.9998 20.6 21.0998 20.6Z" fill="#a32a29"/>
<path d="M18.3998 15.2C18.2998 15.1 18.1998 15.1 18.1998 15.1C18.0998 15.1 18.0998 15.1 17.9998 15.1C17.8998 15.1 17.8998 15.1 17.8998 15.1C17.8998 15.1 17.7998 15.1 17.7998 15.2C17.7998 15.2 17.6998 15.2 17.6998 15.3C17.6998 15.3 17.6998 15.4 17.5998 15.4L17.4998 15.5C17.4998 15.6 17.4998 15.6 17.4998 15.6V15.8C17.4998 15.9 17.4998 15.9 17.4998 15.9C17.4998 15.9 17.4998 16 17.5998 16C17.5998 16 17.5998 16.1 17.6998 16.1C17.6998 16.1 17.7998 16.1 17.7998 16.2L17.8998 16.3C17.9998 16.3 17.9998 16.3 17.9998 16.3H18.0998C18.1998 16.3 18.3998 16.2 18.4998 16.1C18.4998 16.1 18.4998 16 18.5998 16L18.6998 15.9C18.6998 15.8 18.6998 15.8 18.6998 15.8V15.7C18.6998 15.5 18.5998 15.4 18.3998 15.2C18.4998 15.2 18.4998 15.2 18.3998 15.2Z" fill="#a32a29"/>
<path d="M20.9998 15.1C20.8998 15.1 20.8998 15.1 20.8998 15.1L20.7998 15.2C20.7998 15.2 20.6998 15.2 20.6998 15.3C20.5998 15.4 20.4998 15.6 20.4998 15.7C20.4998 15.9 20.5998 16 20.6998 16.2C20.6998 16.2 20.7998 16.2 20.7998 16.3L20.8998 16.4H21.0998C21.1998 16.4 21.3998 16.3 21.4998 16.2C21.5998 16.1 21.6998 15.9 21.6998 15.8C21.6998 15.6 21.5998 15.5 21.4998 15.4C21.3998 15.1 21.1998 15 20.9998 15.1Z" fill="#a32a29"/>
</svg>
