<svg width="32" height="32" viewBox="0 0 32 32" fill="none" xmlns="http://www.w3.org/2000/svg">
<path fill-rule="evenodd" clip-rule="evenodd" d="M11.0507 25.5405C10.6507 25.5405 10.3265 25.2162 10.3265 24.8162L10.3265 7.25057L7.70003 9.877C7.41717 10.1599 6.95856 10.1599 6.6757 9.877C6.39285 9.59414 6.39285 9.13563 6.6757 8.85277L10.5386 4.98994C10.6744 4.85407 10.8587 4.77778 11.0507 4.77778C11.2428 4.77778 11.4271 4.85407 11.5629 4.98994L15.4257 8.85277C15.7085 9.13563 15.7085 9.59414 15.4257 9.877C15.1428 10.1599 14.6842 10.1599 14.4014 9.877L11.775 7.25066V24.8162C11.775 25.2162 11.4507 25.5405 11.0507 25.5405ZM20.7078 25.5405C20.5157 25.5405 20.3315 25.4642 20.1957 25.3283L16.3329 21.4655C16.05 21.1826 16.05 20.7241 16.3329 20.4412C16.6157 20.1584 17.0743 20.1584 17.3572 20.4412L19.9835 23.0676V5.50206C19.9835 5.10206 20.3078 4.77778 20.7078 4.77778C21.1078 4.77778 21.4321 5.10206 21.4321 5.50206V23.0677L24.0585 20.4412C24.3414 20.1584 24.8 20.1584 25.0828 20.4412C25.3657 20.7241 25.3657 21.1826 25.0828 21.4655L21.2199 25.3283C21.0841 25.4642 20.8999 25.5405 20.7078 25.5405Z" fill="currentColor" stroke="currentColor" stroke-width="0.3"/>
</svg>
