<svg width="21" height="19" viewBox="0 0 21 19" fill="none" xmlns="http://www.w3.org/2000/svg">
<path fill-rule="evenodd" clip-rule="evenodd" d="M17.6992 3.2002C15.7992 1.3002 13.0992 0.200195 10.2992 0.200195C4.79922 0.200195 0.199219 4.3002 0.199219 9.4002C0.199219 11.2002 0.799219 12.9002 1.79922 14.4002L1.89922 14.5002V14.6002C1.79922 15.0002 1.39922 16.4002 1.09922 17.6002C0.999219 17.9002 1.09922 18.2002 1.19922 18.5002C1.39922 18.8002 1.69922 19.0002 1.89922 19.0002C2.09922 19.0002 2.19922 19.0002 2.19922 19.0002C2.29922 19.0002 2.39922 19.0002 2.59922 19.0002L5.29922 17.7002C5.39922 17.7002 5.69922 17.5002 5.69922 17.5002C5.79922 17.4002 6.09922 17.4002 6.19922 17.5002H6.29922C7.39922 17.9002 8.59922 18.1002 10.1992 18.1002C15.7992 18.1002 20.1992 14.2002 20.1992 9.2002C20.3992 7.1002 19.3992 4.9002 17.6992 3.2002ZM10.2992 16.8002C9.09922 16.8002 8.19922 16.7002 7.29922 16.4002L6.69922 16.2002C6.19922 16.1002 5.69922 16.1002 5.29922 16.3002C5.19922 16.3002 4.79922 16.5002 4.79922 16.5002L2.79922 17.5002C3.49922 14.9002 3.49922 14.9002 3.49922 14.8002C3.49922 14.5002 3.39922 14.2002 3.19922 13.9002C3.09922 13.7002 2.99922 13.6002 2.99922 13.6002C2.09922 12.4002 1.69922 11.0002 1.69922 9.5002C1.69922 5.3002 5.49922 1.8002 10.2992 1.8002C12.6992 1.8002 15.0992 2.7002 16.6992 4.4002C18.0992 5.8002 18.8992 7.6002 18.8992 9.5002C18.7992 13.5002 15.0992 16.8002 10.2992 16.8002Z" fill="#221F1F"/>
<path fill-rule="evenodd" clip-rule="evenodd" d="M10.2992 11.4002C9.69922 11.4002 9.29922 11.9002 9.29922 12.4002C9.29922 13.0002 9.79922 13.4002 10.2992 13.4002C10.8992 13.4002 11.2992 12.9002 11.2992 12.4002C11.2992 11.8002 10.8992 11.4002 10.2992 11.4002Z" fill="#221F1F"/>
<path fill-rule="evenodd" clip-rule="evenodd" d="M10.2992 4.1002C9.69922 4.1002 9.29922 4.6002 9.29922 5.1002V9.2002C9.29922 9.8002 9.79922 10.2002 10.2992 10.2002C10.8992 10.2002 11.2992 9.7002 11.2992 9.2002V5.1002C11.2992 4.6002 10.8992 4.1002 10.2992 4.1002Z" fill="#221F1F"/>
</svg>
