<svg width="32" height="32" viewBox="0 0 32 32" fill="none" xmlns="http://www.w3.org/2000/svg">
<path d="M16.3041 7C11.1633 7 7 10.7624 7 15.401C7 17.0719 7.5425 18.6291 8.4725 19.9373C8.5097 19.9776 8.57687 20.0872 8.62027 20.1595C8.7112 20.3248 8.76907 20.5098 8.76907 20.7103C8.76907 20.7857 7.9021 23.8681 7.9021 23.8681C7.83907 24.1068 8.0044 24.3528 8.26997 24.4117C8.30923 24.4241 8.34747 24.4241 8.38673 24.4241C8.44977 24.4241 8.50763 24.4117 8.5655 24.3972L8.64403 24.3641L11.0961 23.1675C11.1395 23.1458 11.5322 22.9753 11.5808 22.9557C11.7451 22.8906 11.93 22.8565 12.1243 22.8565C12.2979 22.8565 12.4684 22.8834 12.6234 22.9381C12.6275 22.9381 12.6327 22.9381 12.6327 22.9433C12.6565 22.9557 12.6813 22.9598 12.7061 22.9702C13.8252 23.4 15.0517 23.5313 16.3455 23.5313C21.4832 23.5313 25.6 20.0417 25.6 15.4031C25.6062 10.7624 21.4429 7 16.3041 7Z" stroke="currentColor" stroke-width="1.5"/>
<path fill-rule="evenodd" clip-rule="evenodd" d="M16.3 19.4333C15.7296 19.4333 15.2667 18.9714 15.2667 18.4C15.2667 17.8286 15.7296 17.3667 16.3 17.3667C16.8735 17.3667 17.3333 17.8286 17.3333 18.4C17.3333 18.9714 16.8735 19.4333 16.3 19.4333Z" fill="currentColor"/>
<path fill-rule="evenodd" clip-rule="evenodd" d="M17.3333 15.2667C17.3333 15.8381 16.8735 16.3 16.3 16.3C15.7296 16.3 15.2667 15.8381 15.2667 15.2667V11.1333C15.2667 10.5619 15.7296 10.1 16.3 10.1C16.8735 10.1 17.3333 10.5619 17.3333 11.1333V15.2667Z" fill="currentColor"/>
</svg>
