<svg xmlns="http://www.w3.org/2000/svg" width="32" height="32" fill="currentColor" viewBox="0 0 32 32">
    <path fill="currentColor" fill-rule="evenodd" d="M25.441 10.5h-5.408c.82-.409 1.518-1.026 2.024-1.79.483-.77.573-1.522.247-2.06-.318-.482-.894-.727-1.462-.623-1.967.153-3.701 2.23-4.543 3.422-.843-1.192-2.577-3.268-4.544-3.423-.568-.105-1.144.14-1.462.623-.326.538-.236 1.288.247 2.06.506.764 1.204 1.38 2.024 1.79H7.156c-.345 0-.624.279-.624.623v3.616c0 .344.28.623.624.623h.146v9.946c0 .345.279.624.623.624h16.748c.345 0 .624-.28.624-.624v-9.943h.144c.345 0 .624-.28.624-.624v-3.615c0-.166-.066-.325-.182-.442-.117-.117-.276-.183-.442-.183zm-7.998 1.247v2.369h-2.289v-2.37h2.289zm1.246 2.369h6.129v-2.37h-6.129v2.37zm2.251-6.85l.094-.003c.07-.005.14.006.204.032.03.054.028.34-.254.779-.832 1.129-2.127 1.824-3.528 1.894.831-1.127 2.193-2.597 3.484-2.7v-.001zm-9.585.035c-.027.05-.024.335.258.774.832 1.129 2.127 1.824 3.527 1.894-.83-1.128-2.193-2.6-3.484-2.701-.034-.004-.065-.004-.093-.004-.071-.006-.143.007-.208.037zM7.78 11.747h6.129v2.369H7.779v-2.37zm6.13 3.728H8.55v9.209h5.36v-9.209zm1.247 9.21v-9.21h2.289v9.209l-2.289.001zm3.533 0h5.36v-9.21h-5.36v9.21z" clip-rule="evenodd"/>
</svg>
