<svg xmlns="http://www.w3.org/2000/svg" width="32" height="32" fill="none" viewBox="0 0 32 32">
    <path fill="#A32A29" fill-rule="evenodd" d="M15.617 5.122l.041.038 2.022 2.022H22c1.078 0 1.956.852 1.998 1.92l.002.08v.909h.546c1.077 0 1.956.852 1.998 1.92l.002.08v3.455h.8c.361 0 .654.284.654.636V20c0 .352-.293.636-.654.636h-.8v3.455c0 1.078-.853 1.956-1.92 1.998l-.08.002H6c-1.078 0-1.956-.852-1.998-1.92L4 24.091V9.18l.002-.08c.04-1.04.876-1.875 1.916-1.918L6 7.182h6.865l2.022-2.022c.2-.2.516-.212.73-.038zM5.091 10.964V24.09c0 .482.375.876.85.907L6 25h18.546c.481 0 .876-.375.907-.85l.002-.06v-3.454h-1.382c-1.446 0-2.619-1.14-2.619-2.545 0-1.406 1.173-2.546 2.619-2.546h1.381v-3.454c0-.482-.375-.877-.849-.907l-.06-.002H6c-.287 0-.56-.06-.808-.17l-.101-.048zm19.013 5.672h2.805v2.91h-2.805l-.068-.002c-.829-.033-1.49-.67-1.49-1.453v-.063c.036-.774.72-1.392 1.558-1.392zm.078.728c.301 0 .545.244.545.545v.364c0 .301-.244.545-.545.545-.301 0-.546-.244-.546-.545v-.364c0-.301.245-.545.546-.545zM6 8.273h5.774L9.956 10.09H6l-.06-.002c-.474-.03-.85-.425-.85-.907 0-.502.408-.91.91-.91zm9.273-1.956l-3.775 3.774h7.549l-3.774-3.774zm7.636 3.774h-2.32l-1.818-1.818H22l.06.002.059.005c.446.058.79.44.79.902v.909z" clip-rule="evenodd"/>
</svg>
