<svg xmlns="http://www.w3.org/2000/svg" width="32" height="32" fill="none" viewBox="0 0 32 32">
    <path fill="#fff" fill-rule="evenodd" d="M20.27 5.442c-.307-.277-.781-.252-1.058.056s-.252.783.056 1.06l3.777 3.398H8c-.414 0-.75.336-.75.75s.336.75.75.75h15.045l-3.777 3.398c-.308.277-.333.752-.056 1.06.277.307.75.332 1.059.055l5.226-4.701c.155-.138.253-.338.253-.562 0-.193-.073-.369-.192-.502-.018-.02-.037-.038-.056-.056L20.27 5.442zm-7.54 10.75c.307-.277.781-.252 1.058.056s.252.782-.056 1.06l-3.777 3.398H25c.414 0 .75.336.75.75s-.336.75-.75.75H9.955l3.777 3.398c.308.277.333.752.056 1.06-.277.307-.75.332-1.059.055l-5.226-4.701c-.155-.138-.253-.338-.253-.562 0-.193.073-.369.192-.502.018-.02.037-.038.056-.056l5.231-4.706z" clip-rule="evenodd"/>
</svg>
