<svg width="32" height="32" viewBox="0 0 32 32" fill="none" xmlns="http://www.w3.org/2000/svg">
<g clip-path="url(#clip0)">
<path fill-rule="evenodd" clip-rule="evenodd" d="M33 -1H32V0H33V-1ZM27.125 12.0625H25.2501V20.1875C25.2501 20.5312 24.9689 20.8125 24.6251 20.8125C24.2814 20.8125 24.0001 20.5312 24.0001 20.1875V12.0625H21.1874V20.1875C21.1874 20.5312 20.9061 20.8125 20.5624 20.8125C20.2186 20.8125 19.9374 20.5312 19.9374 20.1875V12.0625H17.125V20.1875C17.125 20.5312 16.8438 20.8125 16.5 20.8125C16.1562 20.8125 15.875 20.5312 15.875 20.1875V12.0625H13.0625V20.1875C13.0625 20.5312 12.7812 20.8125 12.4375 20.8125C12.0938 20.8125 11.8125 20.5312 11.8125 20.1875V12.0625H9V20.1875C9 20.5312 8.71875 20.8125 8.375 20.8125C8.03125 20.8125 7.75 20.5312 7.75 20.1875V12.0625H5.875C5.53125 12.0625 5.25 11.7812 5.25 11.4375V10.0625C5.25 9.84375 5.375 9.65625 5.5625 9.53125L16.1875 3.09375C16.375 2.96875 16.625 2.96875 16.8438 3.09375L27.4688 9.53125C27.6562 9.65625 27.7812 9.84375 27.7812 10.0625V11.4375C27.75 11.7812 27.4688 12.0625 27.125 12.0625ZM26.5 10.4062V10.8125H6.5V10.4062L16.5 4.34375L26.5 10.4062ZM27.4375 22.375V24.5625H28.375C28.7188 24.5625 29 24.8438 29 25.1875V28C29 28.3438 28.7188 28.625 28.375 28.625H4.625C4.28125 28.625 4 28.3438 4 28V25.1875C4 24.8438 4.28125 24.5625 4.625 24.5625H5.5625V22.375C5.5625 22.0312 5.84375 21.75 6.1875 21.75H26.8125C27.1562 21.75 27.4375 22.0312 27.4375 22.375ZM6.1875 25.8125L6.18595 25.8125H5.25V27.375H27.75V25.8125H26.8141L26.8125 25.8125H6.1875ZM26.1875 23V24.5625H6.8125V23H26.1875Z" fill="#A32A29"/>
</g>
<defs>
<clipPath id="clip0">
<rect width="32" height="32" fill="white"/>
</clipPath>
</defs>
</svg>
