<svg width="32" height="32" viewBox="0 0 32 32" fill="currentColor" xmlns="http://www.w3.org/2000/svg">
<path fill-rule="evenodd" clip-rule="evenodd" d="M8.56579 20.3077C8.56579 19.8935 8.90158 19.5577 9.31579 19.5577H14.8421C15.2563 19.5577 15.5921 19.8935 15.5921 20.3077C15.5921 20.7219 15.2563 21.0577 14.8421 21.0577H9.31579C8.90158 21.0577 8.56579 20.7219 8.56579 20.3077ZM5.25 9.23077C5.25 8.21508 6.00711 7.25 7.10526 7.25H25.8947C26.9929 7.25 27.75 8.21508 27.75 9.23077V15.3846C27.75 15.7988 27.4142 16.1346 27 16.1346C26.5858 16.1346 26.25 15.7988 26.25 15.3846V9.23077C26.25 8.88769 26.0168 8.75 25.8947 8.75H7.10526C6.98321 8.75 6.75 8.88769 6.75 9.23077V22.7692C6.75 23.1123 6.98321 23.25 7.10526 23.25H20.3684C20.7826 23.25 21.1184 23.5858 21.1184 24C21.1184 24.4142 20.7826 24.75 20.3684 24.75H7.10526C6.00711 24.75 5.25 23.7849 5.25 22.7692V9.23077ZM24.2422 16.1143C23.9655 15.8061 23.4913 15.7806 23.1831 16.0574C22.8749 16.3341 22.8494 16.8083 23.1262 17.1165L25.3184 19.5577H17.0526C16.6384 19.5577 16.3026 19.8935 16.3026 20.3077C16.3026 20.7219 16.6384 21.0577 17.0526 21.0577H25.3185L23.1262 23.4989C22.8494 23.8071 22.8749 24.2813 23.1831 24.558C23.4913 24.8348 23.9655 24.8093 24.2422 24.5011L27.558 20.8088C27.5948 20.7678 27.6263 20.7238 27.6526 20.6776C27.7083 20.5794 27.7426 20.4674 27.7489 20.348C27.7503 20.3226 27.7503 20.2972 27.7491 20.2719C27.7407 20.0922 27.669 19.9291 27.5559 19.8042L24.2422 16.1143Z" fill="currentColor"/>
</svg>
