<svg width="32" height="32" viewBox="0 0 32 32" fill="none" xmlns="http://www.w3.org/2000/svg">
<path d="M0 16C0 7.16344 7.16344 0 16 0V0C24.8366 0 32 7.16344 32 16V16C32 24.8366 24.8366 32 16 32V32C7.16344 32 0 24.8366 0 16V16Z" fill="#929497" fill-opacity="0.2"/>
<path fill-rule="evenodd" clip-rule="evenodd" d="M13.6667 11.5C13.2068 11.5 12.8333 11.8735 12.8333 12.3333C12.8333 12.7932 13.2068 13.1667 13.6667 13.1667C14.1265 13.1667 14.5 12.7932 14.5 12.3333C14.5 11.8735 14.1265 11.5 13.6667 11.5ZM15.4309 11.8333C15.2132 11.064 14.5055 10.5 13.6667 10.5C12.8278 10.5 12.1202 11.064 11.9024 11.8333H11C10.7239 11.8333 10.5 12.0572 10.5 12.3333C10.5 12.6095 10.7239 12.8333 11 12.8333H11.9024C12.1202 13.6026 12.8278 14.1667 13.6667 14.1667C14.5055 14.1667 15.2132 13.6026 15.4309 12.8333H21C21.2761 12.8333 21.5 12.6095 21.5 12.3333C21.5 12.0572 21.2761 11.8333 21 11.8333H15.4309ZM16.5691 15.8333C16.7868 15.064 17.4945 14.5 18.3333 14.5C19.1722 14.5 19.8798 15.064 20.0976 15.8333H21C21.2761 15.8333 21.5 16.0572 21.5 16.3333C21.5 16.6095 21.2761 16.8333 21 16.8333H20.0976C19.8798 17.6026 19.1722 18.1667 18.3333 18.1667C17.4945 18.1667 16.7868 17.6026 16.5691 16.8333H11C10.7239 16.8333 10.5 16.6095 10.5 16.3333C10.5 16.0572 10.7239 15.8333 11 15.8333H16.5691ZM18.3333 15.5C17.8735 15.5 17.5 15.8735 17.5 16.3333C17.5 16.7932 17.8735 17.1667 18.3333 17.1667C18.7932 17.1667 19.1667 16.7932 19.1667 16.3333C19.1667 15.8735 18.7932 15.5 18.3333 15.5ZM11.9024 19.8333C12.1202 19.064 12.8278 18.5 13.6667 18.5C14.5055 18.5 15.2132 19.064 15.4309 19.8333H21C21.2761 19.8333 21.5 20.0572 21.5 20.3333C21.5 20.6095 21.2761 20.8333 21 20.8333H15.4309C15.2132 21.6026 14.5055 22.1667 13.6667 22.1667C12.8278 22.1667 12.1202 21.6026 11.9024 20.8333H11C10.7239 20.8333 10.5 20.6095 10.5 20.3333C10.5 20.0572 10.7239 19.8333 11 19.8333H11.9024ZM13.6667 19.5C13.2068 19.5 12.8333 19.8735 12.8333 20.3333C12.8333 20.7932 13.2068 21.1667 13.6667 21.1667C14.1265 21.1667 14.5 20.7932 14.5 20.3333C14.5 19.8735 14.1265 19.5 13.6667 19.5Z" fill="#A32A29"/>
</svg>
