<svg width="32" height="32" viewBox="0 0 32 32" fill="none" xmlns="http://www.w3.org/2000/svg">
<path fill-rule="evenodd" clip-rule="evenodd" d="M16.5 7.3125C13.7558 7.3125 11.5312 9.53709 11.5312 12.2812C11.5312 13.9366 12.3407 15.4028 13.5854 16.3058C10.9078 17.3731 9 19.8681 9 22.8281C9 23.5023 9.33642 24.0323 9.81334 24.4119C10.2694 24.775 10.8754 25.0231 11.5317 25.2002C12.8501 25.5559 14.6167 25.6875 16.5 25.6875C18.3833 25.6875 20.1499 25.5559 21.4683 25.2002C22.1246 25.0231 22.7306 24.775 23.1867 24.4119C23.6636 24.0323 24 23.5023 24 22.8281C24 19.8681 22.0922 17.3731 19.4146 16.3058C20.6593 15.4028 21.4688 13.9366 21.4688 12.2812C21.4688 9.53709 19.2442 7.3125 16.5 7.3125ZM16.5 15.75C18.4157 15.75 19.9688 14.197 19.9688 12.2812C19.9688 10.3655 18.4157 8.8125 16.5 8.8125C14.5843 8.8125 13.0312 10.3655 13.0312 12.2812C13.0312 14.197 14.5843 15.75 16.5 15.75ZM16.5 17.25C13.14 17.25 10.5 19.7923 10.5 22.8281C10.5 22.9449 10.5413 23.0742 10.7476 23.2384C10.9746 23.4191 11.3571 23.5994 11.9224 23.752C13.047 24.0554 14.6553 24.1875 16.5 24.1875C18.3447 24.1875 19.953 24.0554 21.0776 23.752C21.6429 23.5994 22.0254 23.4191 22.2524 23.2384C22.4587 23.0742 22.5 22.9449 22.5 22.8281C22.5 19.7923 19.86 17.25 16.5 17.25Z" fill="#929497"/>
</svg>
