<svg xmlns="http://www.w3.org/2000/svg" width="32" height="32" fill="currentColor" viewBox="0 0 32 32">
    <path fill="#currentColor" d="M24.682 25.284H7.808c-.999 0-1.808-.81-1.808-1.807V6.603C6 6.27 6.27 6 6.603 6c.332 0 .602.27.602.603v16.873c0 .333.27.603.603.603h16.874c.333 0 .602.27.602.603 0 .333-.27.602-.602.602z"/>
    <path fill="#currentColor" d="M9.013 20.463c-.244.002-.466-.145-.56-.371-.094-.226-.041-.487.133-.66l6.026-6.026c.235-.233.614-.233.85 0l3.194 3.194 5.598-5.598c.172-.173.43-.226.656-.134.226.093.374.312.375.556v3.616c0 .332-.27.602-.603.602-.333 0-.603-.27-.603-.602v-2.164l-4.996 4.996c-.235.234-.614.234-.85 0l-3.193-3.188-5.599 5.604c-.113.113-.267.176-.428.175z"/>
    <path fill="#currentColor" d="M24.681 12.026h-3.013c-.333 0-.603-.27-.603-.602 0-.333.27-.603.603-.603h3.013c.333 0 .603.27.603.603 0 .333-.27.602-.603.602z"/>
</svg>
