<svg
  width="32"
  height="32"
  viewBox="0 0 32 32"
  fill="none"
  xmlns="http://www.w3.org/2000/svg"
>
  <path
    d="M24.8254 12.744V11.7588C24.8254 9.40087 23.991 7.20982 22.4783 5.58403C20.9278 3.91518 18.796 3 16.4704 3H15.6575C13.3319 3 11.2 3.91518 9.64962 5.58403C8.13688 7.20982 7.30246 9.40087 7.30246 11.7588V12.744C5.46671 12.8678 4.00781 14.3967 4.00781 16.2647V17.8044C4.00781 19.7478 5.59053 21.3305 7.53394 21.3305H9.52042C9.87572 21.3305 10.1664 21.0398 10.1664 20.6845V13.3792C10.1664 13.0239 9.87572 12.7332 9.52042 12.7332H8.59447V11.7588C8.59447 7.50053 11.6307 4.29202 15.6521 4.29202H16.465C20.4918 4.29202 23.5226 7.50053 23.5226 11.7588V12.7332H22.5967C22.2414 12.7332 21.9507 13.0239 21.9507 13.3792V20.6791C21.9507 21.0344 22.2414 21.3251 22.5967 21.3251H23.5011C23.2373 24.6951 20.9171 25.4757 19.8404 25.6534C19.5443 24.7436 18.6884 24.0868 17.6817 24.0868H16.0666C14.8177 24.0868 13.8002 25.1043 13.8002 26.3532C13.8002 27.6022 14.8177 28.625 16.0666 28.625H17.687C18.7314 28.625 19.6089 27.9144 19.8727 26.9561C20.4003 26.8808 21.2347 26.6924 22.0637 26.2079C23.2319 25.5242 24.6155 24.1299 24.7985 21.3197C26.645 21.2067 28.1093 19.6724 28.1093 17.799V16.2593C28.1147 14.3967 26.6612 12.8624 24.8254 12.744ZM8.88518 20.0331H7.54471C6.31191 20.0331 5.3106 19.0318 5.3106 17.799V16.2593C5.3106 15.0265 6.31191 14.0252 7.54471 14.0252H8.88518V20.0331ZM17.687 27.333H16.0666C15.5283 27.333 15.0922 26.8969 15.0922 26.3586C15.0922 25.8202 15.5283 25.3842 16.0666 25.3842H17.687C18.2254 25.3842 18.6614 25.8202 18.6614 26.3586C18.6614 26.8969 18.2254 27.333 17.687 27.333ZM26.8227 17.799C26.8227 19.0318 25.8214 20.0331 24.5886 20.0331H23.2481V14.0252H24.5886C25.8214 14.0252 26.8227 15.0265 26.8227 16.2593V17.799Z"
    fill="currentColor"
  />
</svg>
