<svg width="25" height="24" viewBox="0 0 25 24" fill="none" xmlns="http://www.w3.org/2000/svg">
<path d="M12.8405 2.70239C7.80758 2.70239 3.71198 6.79814 3.67122 11.8108C3.65085 14.2561 4.58815 16.579 6.32012 18.3111C8.03172 20.0635 10.3342 21.0212 12.7794 21.0416H12.8405C17.8734 21.0416 21.969 16.9458 22.0098 11.9331C22.0505 6.87965 17.9549 2.74315 12.8405 2.70239ZM12.8405 19.7986H12.7794C10.6602 19.7782 8.68376 18.9427 7.17592 17.4349C5.70884 15.9473 4.89379 13.9504 4.91417 11.8312C4.93454 7.49095 8.50037 3.94538 12.9016 3.94538C17.2825 3.96576 20.8076 7.55208 20.7873 11.9331C20.7464 16.2734 17.1806 19.7986 12.8405 19.7986Z" fill="#A32A29"/>
<path d="M9.46161 10.8531H9.42707C8.87448 10.8531 8.4255 11.3099 8.4255 11.872C8.4255 12.4341 8.87448 12.8908 9.42707 12.8908H9.46161C10.0142 12.8908 10.4632 12.4341 10.4632 11.872C10.4632 11.3099 10.0142 10.8531 9.46161 10.8531Z" fill="#A32A29"/>
<path d="M12.8577 10.8531H12.8232C12.2706 10.8531 11.8216 11.3099 11.8216 11.872C11.8216 12.4341 12.2706 12.8908 12.8232 12.8908H12.8577C13.4103 12.8908 13.8593 12.4341 13.8593 11.872C13.8593 11.3099 13.4103 10.8531 12.8577 10.8531Z" fill="#A32A29"/>
<path d="M16.2539 10.8531H16.2193C15.6668 10.8531 15.2178 11.3099 15.2178 11.872C15.2178 12.4341 15.6668 12.8908 16.2193 12.8908H16.2539C16.8065 12.8908 17.2555 12.4341 17.2555 11.872C17.2555 11.3099 16.8065 10.8531 16.2539 10.8531Z" fill="#A32A29"/>
</svg>
