<svg width="32" height="32" viewBox="0 0 32 32" fill="none" xmlns="http://www.w3.org/2000/svg">
<path d="M8 19H18V12H8V19ZM8.53191 12.6442H17.4681V18.3558H8.53191V12.6442Z" fill="#A32A29" stroke="#A32A29" stroke-width="0.2"/>
<path d="M19.4418 13.5256H21.5255V11.4419H19.4418V13.5256ZM19.9999 11.9628H21.0046V12.9674H19.9999V11.9628Z" fill="#A32A29"/>
<path d="M22.3813 13.5256H24.4651V11.4419H22.3813V13.5256ZM22.9395 11.9628H23.9441V12.9674H22.9395V11.9628Z" fill="#A32A29"/>
<path d="M19.4418 16.4279H21.5255V14.3442H19.4418V16.4279ZM19.9999 14.8651H21.0046V15.8698H19.9999V14.8651Z" fill="#A32A29"/>
<path d="M22.3813 16.4279H24.4651V14.3442H22.3813V16.4279ZM22.9395 14.8651H23.9441V15.8698H22.9395V14.8651Z" fill="#A32A29"/>
<path d="M19.4418 19.3302H21.5255V17.2465H19.4418V19.3302ZM19.9999 17.7674H21.0046V18.7721H19.9999V17.7674Z" fill="#A32A29"/>
<path d="M22.3813 19.3302H24.4651V17.2465H22.3813V19.3302ZM22.9395 17.7674H23.9441V18.7721H22.9395V17.7674Z" fill="#A32A29"/>
<path d="M27.8139 22.6419C27.8139 22.6047 27.8139 22.6047 27.8139 22.5674C27.8139 22.5674 27.8139 22.5674 27.8139 22.5302C27.8139 22.493 27.7767 22.493 27.7767 22.4558L26.1395 20.707V9.65581H13.1163V8.35349H15.2372C15.6093 8.35349 15.9069 8.05581 15.9069 7.68372V4.66977C15.9069 4.29767 15.6093 4 15.2372 4H7.79532C7.42323 4 7.12555 4.29767 7.12555 4.66977V7.68372C7.12555 8.05581 7.42323 8.35349 7.79532 8.35349H9.91625V9.65581H6.08369V20.707L4.44648 22.4558C4.40927 22.493 4.40927 22.493 4.40927 22.5302C4.40927 22.5302 4.40927 22.5302 4.40927 22.5674C4.40927 22.6047 4.40927 22.6047 4.40927 22.6419V27.1814C4.37206 27.7395 4.81858 28.186 5.37671 28.186H26.8093C27.3674 28.186 27.8139 27.7395 27.8139 27.1814V22.6419ZM7.79532 7.79535C7.7209 7.79535 7.68369 7.75814 7.68369 7.68372V4.66977C7.68369 4.59535 7.7209 4.55814 7.79532 4.55814H15.2372C15.3116 4.55814 15.3488 4.59535 15.3488 4.66977V7.68372C15.3488 7.75814 15.3116 7.79535 15.2372 7.79535H12.5581V9.65581H10.4744V7.79535H7.79532ZM6.64183 10.214H9.91625H13.1163H25.5442V20.5581H6.64183V10.214ZM6.49299 21.0791H25.7302L26.9209 22.3442H5.26509L6.49299 21.0791ZM27.293 27.1814C27.293 27.4419 27.0697 27.6279 26.8465 27.6279H5.37671C5.11625 27.6279 4.9302 27.4046 4.9302 27.1814V22.9395H27.293V27.1814Z" fill="#A32A29" stroke="#A32A29" stroke-width="0.2"/>
<path d="M16.093 26.5116C16.7628 26.5116 17.3209 25.9535 17.3209 25.2837C17.3209 24.614 16.7628 24.0558 16.093 24.0558C15.4233 24.0558 14.8651 24.614 14.8651 25.2837C14.8651 25.9535 15.4233 26.5116 16.093 26.5116ZM16.093 24.614C16.4651 24.614 16.7628 24.9116 16.7628 25.2837C16.7628 25.6558 16.4651 25.9535 16.093 25.9535C15.7209 25.9535 15.4233 25.6558 15.4233 25.2837C15.4233 24.9116 15.7209 24.614 16.093 24.614Z" fill="#A32A29"/>
<path d="M14.4557 5.26511H8.57666V6.06511H14.4557V5.26511Z" fill="#A32A29"/>
<path d="M14.4557 6.45581H8.57666V7.25581H14.4557V6.45581Z" fill="#A32A29"/>
</svg>
