<svg width="52" height="44" viewBox="0 0 52 44" fill="none" xmlns="http://www.w3.org/2000/svg">
<path fill-rule="evenodd" clip-rule="evenodd" d="M0 19C0 10.1634 7.16344 3 16 3H36C44.8366 3 52 10.1634 52 19V19C52 27.8366 44.8366 35 36 35H16C7.16344 35 0 27.8366 0 19V19Z" fill="#A32A29"/>
<g filter="url(#filter0_ddd_3936_36419)">
<path fill-rule="evenodd" clip-rule="evenodd" d="M36 33C43.732 33 50 26.732 50 19C50 11.268 43.732 5 36 5C28.268 5 22 11.268 22 19C22 26.732 28.268 33 36 33Z" fill="white"/>
</g>
<defs>
<filter id="filter0_ddd_3936_36419" x="14" y="0" width="44" height="44" filterUnits="userSpaceOnUse" color-interpolation-filters="sRGB">
<feFlood flood-opacity="0" result="BackgroundImageFix"/>
<feColorMatrix in="SourceAlpha" type="matrix" values="0 0 0 0 0 0 0 0 0 0 0 0 0 0 0 0 0 0 127 0" result="hardAlpha"/>
<feOffset dy="3"/>
<feGaussianBlur stdDeviation="0.5"/>
<feColorMatrix type="matrix" values="0 0 0 0 0 0 0 0 0 0 0 0 0 0 0 0 0 0 0.1 0"/>
<feBlend mode="normal" in2="BackgroundImageFix" result="effect1_dropShadow_3936_36419"/>
<feColorMatrix in="SourceAlpha" type="matrix" values="0 0 0 0 0 0 0 0 0 0 0 0 0 0 0 0 0 0 127 0" result="hardAlpha"/>
<feOffset dy="1"/>
<feGaussianBlur stdDeviation="0.5"/>
<feColorMatrix type="matrix" values="0 0 0 0 0 0 0 0 0 0 0 0 0 0 0 0 0 0 0.16 0"/>
<feBlend mode="normal" in2="effect1_dropShadow_3936_36419" result="effect2_dropShadow_3936_36419"/>
<feColorMatrix in="SourceAlpha" type="matrix" values="0 0 0 0 0 0 0 0 0 0 0 0 0 0 0 0 0 0 127 0" result="hardAlpha"/>
<feOffset dy="3"/>
<feGaussianBlur stdDeviation="4"/>
<feColorMatrix type="matrix" values="0 0 0 0 0 0 0 0 0 0 0 0 0 0 0 0 0 0 0.15 0"/>
<feBlend mode="normal" in2="effect2_dropShadow_3936_36419" result="effect3_dropShadow_3936_36419"/>
<feBlend mode="normal" in="SourceGraphic" in2="effect3_dropShadow_3936_36419" result="shape"/>
</filter>
</defs>
</svg>
