<svg width="58" height="44" viewBox="0 0 58 44" fill="none" xmlns="http://www.w3.org/2000/svg">
<path fill-rule="evenodd" clip-rule="evenodd" d="M6 19C6 10.1634 13.1634 3 22 3H42C50.8366 3 58 10.1634 58 19C58 27.8366 50.8366 35 42 35H22C13.1634 35 6 27.8366 6 19Z" fill="white"/>
<path d="M7 19C7 10.7157 13.7157 4 22 4H42C50.2843 4 57 10.7157 57 19C57 27.2843 50.2843 34 42 34H22C13.7157 34 7 27.2843 7 19Z" stroke="#929497" stroke-opacity="0.4" stroke-width="2"/>
<g filter="url(#filter0_dd_3936_36371)">
<path fill-rule="evenodd" clip-rule="evenodd" d="M22 33C29.732 33 36 26.732 36 19C36 11.268 29.732 5 22 5C14.268 5 8 11.268 8 19C8 26.732 14.268 33 22 33Z" fill="white"/>
</g>
<defs>
<filter id="filter0_dd_3936_36371" x="0" y="0" width="44" height="44" filterUnits="userSpaceOnUse" color-interpolation-filters="sRGB">
<feFlood flood-opacity="0" result="BackgroundImageFix"/>
<feColorMatrix in="SourceAlpha" type="matrix" values="0 0 0 0 0 0 0 0 0 0 0 0 0 0 0 0 0 0 127 0" result="hardAlpha"/>
<feOffset dy="1"/>
<feGaussianBlur stdDeviation="0.5"/>
<feColorMatrix type="matrix" values="0 0 0 0 0 0 0 0 0 0 0 0 0 0 0 0 0 0 0.16 0"/>
<feBlend mode="normal" in2="BackgroundImageFix" result="effect1_dropShadow_3936_36371"/>
<feColorMatrix in="SourceAlpha" type="matrix" values="0 0 0 0 0 0 0 0 0 0 0 0 0 0 0 0 0 0 127 0" result="hardAlpha"/>
<feOffset dy="3"/>
<feGaussianBlur stdDeviation="4"/>
<feColorMatrix type="matrix" values="0 0 0 0 0 0 0 0 0 0 0 0 0 0 0 0 0 0 0.15 0"/>
<feBlend mode="normal" in2="effect1_dropShadow_3936_36371" result="effect2_dropShadow_3936_36371"/>
<feBlend mode="normal" in="SourceGraphic" in2="effect2_dropShadow_3936_36371" result="shape"/>
</filter>
</defs>
</svg>
