<svg width="48" height="48" viewBox="0 0 48 48" fill="none" xmlns="http://www.w3.org/2000/svg">
<path d="M0 24C0 10.7452 10.7452 0 24 0C37.2548 0 48 10.7452 48 24C48 37.2548 37.2548 48 24 48C10.7452 48 0 37.2548 0 24Z" fill="#929497" fill-opacity="0.2"/>
<g clip-path="url(#clip0)">
<path fill-rule="evenodd" clip-rule="evenodd" d="M41.0001 7H40.0001V8H41.0001V7ZM14.5001 15.85C13.0393 15.85 11.8501 17.0392 11.8501 18.5V29.5C11.8501 30.9608 13.0393 32.15 14.5001 32.15H33.5001C34.9609 32.15 36.1501 30.9608 36.1501 29.5V18.5C36.1501 17.0392 34.961 15.85 33.5002 15.85H14.5001ZM13.1501 20.35V22.05H34.85V20.35H13.1501ZM13.1501 29.5V23.35H34.8501V29.5114C34.8439 30.2503 34.2405 30.85 33.5002 30.85H14.5001C13.7559 30.85 13.1501 30.2441 13.1501 29.5ZM13.1501 19.05H34.8501V18.5C34.8501 17.7559 34.2443 17.15 33.5001 17.15H14.5001C13.7559 17.15 13.1501 17.7559 13.1501 18.5V19.05ZM31.3001 24.8H30.3001C29.4731 24.8 28.8001 25.473 28.8001 26.3V27.3C28.8001 28.127 29.4731 28.8 30.3001 28.8H31.3001C32.1271 28.8 32.8001 28.127 32.8001 27.3V26.3C32.8001 25.473 32.1271 24.8 31.3001 24.8ZM31.8001 27.3C31.8001 27.576 31.5761 27.8001 31.3001 27.8001H30.3001C30.0241 27.8001 29.8001 27.576 29.8001 27.3V26.3001C29.8001 26.0241 30.0241 25.8 30.3001 25.8H31.3001C31.5761 25.8 31.8001 26.0241 31.8001 26.3001V27.3ZM15.0501 28.4C15.0501 28.0635 15.3849 27.85 15.7144 27.85H21.8858C22.2153 27.85 22.55 28.0635 22.5501 28.4C22.5501 28.7365 22.2153 28.95 21.8858 28.95H15.7144C15.3849 28.95 15.0501 28.7365 15.0501 28.4Z" fill="#A32A29"/>
</g>
<defs>
<clipPath id="clip0">
<rect width="32" height="32" fill="white" transform="translate(8 8)"/>
</clipPath>
</defs>
</svg>
