<svg width="32" height="32" viewBox="0 0 32 32" fill="none" xmlns="http://www.w3.org/2000/svg">
<g clip-path="url(#clip0)">
<path fill-rule="evenodd" clip-rule="evenodd" d="M33.0001 -1H32.0001V0H33.0001V-1ZM6.50009 7.85C5.03926 7.85 3.8501 9.03916 3.8501 10.5V21.5C3.8501 22.9608 5.03926 24.15 6.50009 24.15H25.5001C26.9609 24.15 28.1501 22.9608 28.1501 21.5V10.5C28.1501 9.03916 26.961 7.85 25.5002 7.85H6.50009ZM5.15008 12.35V14.05H26.85V12.35H5.15008ZM5.15008 21.5V15.35H26.8501V21.5114C26.8439 22.2503 26.2405 22.85 25.5002 22.85H6.50009C5.75591 22.85 5.15008 22.2441 5.15008 21.5ZM5.15008 11.05H26.8501V10.5C26.8501 9.75585 26.2443 9.15003 25.5001 9.15003H6.50009C5.75591 9.15003 5.15008 9.75585 5.15008 10.5V11.05ZM23.3001 16.8H22.3001C21.4731 16.8 20.8001 17.473 20.8001 18.3V19.3C20.8001 20.127 21.4731 20.8 22.3001 20.8H23.3001C24.1271 20.8 24.8001 20.127 24.8001 19.3V18.3C24.8001 17.473 24.1271 16.8 23.3001 16.8ZM23.8001 19.3C23.8001 19.576 23.5761 19.8001 23.3001 19.8001H22.3001C22.0241 19.8001 21.8001 19.576 21.8001 19.3V18.3001C21.8001 18.0241 22.0241 17.8 22.3001 17.8H23.3001C23.5761 17.8 23.8001 18.0241 23.8001 18.3001V19.3ZM7.0501 20.4C7.0501 20.0635 7.38494 19.85 7.7144 19.85H13.8858C14.2153 19.85 14.55 20.0635 14.5501 20.4C14.5501 20.7365 14.2153 20.95 13.8858 20.95H7.7144C7.38494 20.95 7.0501 20.7365 7.0501 20.4Z" fill="#A32A29"/>
</g>
<defs>
<clipPath id="clip0">
<rect width="32" height="32" fill="white"/>
</clipPath>
</defs>
</svg>
