<svg xmlns="http://www.w3.org/2000/svg" width="32" height="32" fill="none" viewBox="0 0 32 32">
  <path stroke="currentColor" stroke-width="1.5" d="M18.813 4H5c-1.105 0-2 .895-2 2v18.969c0 1.104.895 2 2 2h13.813c1.105 0 2-.896 2-2V6c0-1.105-.895-2-2-2z" />
  <path stroke="currentColor" stroke-width="1.5" d="M14.95 7.625H8.862c-1.104 0-2 .895-2 2v1.75c0 1.105.896 2 2 2h6.088c1.105 0 2-.895 2-2v-1.75c0-1.105-.895-2-2-2z" />
  <path fill="#D8D8D8" stroke="currentColor" d="M8.01 17.344h-.898c-.276 0-.5.224-.5.5v.718c0 .277.224.5.5.5h.897c.276 0 .5-.223.5-.5v-.718c0-.276-.224-.5-.5-.5zM16.7 17.344h-.896c-.276 0-.5.224-.5.5v.718c0 .277.224.5.5.5h.897c.276 0 .5-.223.5-.5v-.718c0-.276-.224-.5-.5-.5zM12.355 17.344h-.897c-.276 0-.5.224-.5.5v.718c0 .277.224.5.5.5h.897c.276 0 .5-.223.5-.5v-.718c0-.276-.224-.5-.5-.5zM8.01 21.875h-.898c-.276 0-.5.224-.5.5v.719c0 .276.224.5.5.5h.897c.276 0 .5-.224.5-.5v-.719c0-.276-.224-.5-.5-.5zM16.7 21.875h-.896c-.276 0-.5.224-.5.5v.719c0 .276.224.5.5.5h.897c.276 0 .5-.224.5-.5v-.719c0-.276-.224-.5-.5-.5zM12.355 21.875h-.897c-.276 0-.5.224-.5.5v.719c0 .276.224.5.5.5h.897c.276 0 .5-.224.5-.5v-.719c0-.276-.224-.5-.5-.5z" />
  <path stroke="currentColor" stroke-width="1.5" d="M20.598 7.781h7.656c1.105 0 2 .896 2 2v12.313c0 1.104-.895 2-2 2h-7.656" />
  <path stroke="currentColor" stroke-linecap="square" stroke-width="1.5" d="M26.814 9.114v13.647" />
</svg>
