<svg width="33" height="32" viewBox="0 0 33 32" fill="none" xmlns="http://www.w3.org/2000/svg">
<path d="M30.2684 22.1115L30.2685 22.1115C30.3646 18.5573 28.9239 15.086 26.4115 12.4752C21.1064 7.17382 12.4255 7.17493 7.12191 12.4786C4.51437 15.0861 3.06928 18.5584 3.06836 22.1216C3.06882 22.1234 3.07006 22.1275 3.07301 22.1339C3.07955 22.1479 3.09155 22.1661 3.10941 22.1839C3.12727 22.2018 3.14548 22.2138 3.15949 22.2203C3.16583 22.2233 3.16993 22.2245 3.17176 22.225H6.76496C6.76679 22.2245 6.77089 22.2233 6.77723 22.2203C6.79124 22.2138 6.80945 22.2018 6.82731 22.1839C6.84516 22.1661 6.85717 22.1479 6.86371 22.1339C6.86666 22.1275 6.8679 22.1234 6.86836 22.1216L30.2684 22.1115ZM30.2684 22.1115V22.1216V22.1115ZM25.8219 12.9786L26.1919 12.6086L25.8055 12.2558C23.4244 10.0817 20.5128 8.82954 17.385 8.72528L16.8684 8.70806V9.225V11.625V12.0851L17.3268 12.1233C19.625 12.3148 21.7214 13.1745 23.4362 14.6987L23.7885 15.0119L24.1219 14.6786L25.8219 12.9786ZM29.6684 22.025H30.1853L30.1681 21.5083C30.0638 18.3805 28.8117 15.469 26.6376 13.0879L26.2848 12.7015L25.9148 13.0714L24.2148 14.7714L23.8814 15.1048L24.1947 15.4572C25.7288 17.1831 26.6742 19.2762 26.7688 21.5458L26.7888 22.025H27.2684H29.6684ZM3.26864 21.5083L3.25142 22.025H3.76836H6.16836H6.62843L6.66663 21.5665C6.85815 19.2683 7.71783 17.1719 9.24206 15.4572L9.55528 15.1048L9.22191 14.7714L7.52191 13.0714L7.16004 12.7096L6.80668 13.0798C4.62106 15.3695 3.37269 18.3868 3.26864 21.5083ZM16.5684 9.225V8.70806L16.0517 8.72528C12.9239 8.82954 10.0123 10.0817 7.63122 12.2558L7.24482 12.6086L7.61481 12.9786L9.31481 14.6786L9.64817 15.0119L10.0005 14.6987C11.7264 13.1646 13.8195 12.2191 16.0892 12.1246L16.5684 12.1046V11.625V9.225ZM16.7684 20.325V20.6854L17.1103 20.7993C17.8104 21.0327 18.2154 21.7087 18.0803 22.3165L18.0738 22.3456L18.0709 22.3752C17.9972 23.1117 17.4196 23.625 16.6684 23.625C15.9381 23.625 15.3389 23.0317 15.2653 22.3698L15.2629 22.3482L15.2587 22.3269C15.1173 21.62 15.5186 21.0353 16.2265 20.7993L16.5684 20.6854V20.325V16.725C16.5684 16.6788 16.5727 16.6499 16.5766 16.6332C16.5933 16.6293 16.6222 16.625 16.6684 16.625C16.7049 16.625 16.7236 16.6316 16.7305 16.6346C16.7374 16.6377 16.7413 16.6408 16.7447 16.6447C16.7533 16.6544 16.7684 16.6815 16.7684 16.725V20.325ZM16.583 16.6143C16.5831 16.6143 16.5827 16.6152 16.5818 16.6167C16.5825 16.615 16.583 16.6142 16.583 16.6143ZM16.5601 16.6384C16.5586 16.6393 16.5577 16.6397 16.5577 16.6396C16.5576 16.6396 16.5584 16.6391 16.5601 16.6384ZM15.3684 22.125C15.3684 22.4876 15.5447 22.8084 15.7648 23.0286C15.985 23.2487 16.3058 23.425 16.6684 23.425C17.0096 23.425 17.3668 23.3235 17.6313 23.0811C17.9041 22.831 18.0319 22.4707 17.9672 22.0741C17.9517 21.7324 17.7818 21.4313 17.572 21.2214C17.3518 21.0013 17.031 20.825 16.6684 20.825C16.3058 20.825 15.985 21.0013 15.7648 21.2214C15.5447 21.4416 15.3684 21.7624 15.3684 22.125Z" fill="transparent" stroke="white"/>
</svg>
