<svg width="25" height="25" viewBox="0 0 25 25" fill="none" xmlns="http://www.w3.org/2000/svg">
  <path fill-rule="evenodd" clip-rule="evenodd" d="M0.10798 10.9021C0.70983 4.78286 5.8782 0 12.1032 0C18.3282 0 23.4965 4.78286 24.0984 10.9021L24.2064 12H23.1032H13.1032L13.1032 18L13.1032 19V20L13.1032 22C13.1032 22.5527 13.5505 23 14.1032 23C14.6559 23 15.1032 22.5527 15.1032 22V21H17.1032V22C17.1032 23.6573 15.7605 25 14.1032 25C12.4459 25 11.1032 23.6573 11.1032 22L11.1032 20L11.1032 19V18L11.1032 12H1.10318H0L0.10798 10.9021ZM13.1032 10H16.5697C16.3831 7.25351 15.448 5.26877 14.531 3.94421C14.016 3.20039 13.5038 2.66086 13.1269 2.31189C13.1189 2.30451 13.111 2.29722 13.1032 2.29001V10ZM11.1032 2.29001V10H7.63668C7.82322 7.25351 8.75837 5.26877 9.67537 3.94421C10.1903 3.20039 10.7026 2.66086 11.0795 2.31189C11.0874 2.30451 11.0953 2.29722 11.1032 2.29001ZM2.26788 10H5.63261C5.82033 6.84504 6.8771 4.50315 7.96794 2.89771C5.10152 4.20536 2.93906 6.82733 2.26788 10ZM18.5737 10C18.386 6.84505 17.3293 4.50314 16.2384 2.89771C19.1048 4.20536 21.2673 6.82733 21.9385 10H18.5737Z" fill="#A41919"/>
</svg>
