<svg xmlns="http://www.w3.org/2000/svg" width="32" height="32" fill="none" viewBox="0 0 32 32">
    <path fill="currentColor" stroke="currentColor" stroke-width=".3" d="M14.249 17.167l.81.756-2.286 2.287c-.216.216-.567.216-.784 0-.216-.217-.216-.567 0-.784l2.26-2.26zm2.352-2.353l2.86-2.86c.216-.216.567-.216.784 0 .216.217.216.568 0 .784l-2.833 2.833-.81-.757zm-1.072 3.547l1.131 1.056c.09 1.19-.328 2.393-1.213 3.278l-2.692 2.683c-.793.793-1.85 1.232-2.967 1.232s-2.174-.439-2.967-1.232c-.795-.795-1.232-1.844-1.232-2.967 0-1.117.439-2.174 1.232-2.967l2.684-2.684c.794-.794 1.851-1.232 2.976-1.232h.012l1.308 1.221-.07.156c-.393-.178-.815-.269-1.25-.269-.83 0-1.606.322-2.192.908l-2.684 2.684c-.586.585-.908 1.36-.908 2.183 0 .828.32 1.595.908 2.183.585.586 1.36.908 2.183.908.823 0 1.598-.322 2.184-.908l2.692-2.683c.91-.91 1.149-2.28.63-3.445l.235-.105zm2.724-2.005l-.172-.16.422-.936c.393.177.815.268 1.25.268.83 0 1.606-.321 2.192-.908l2.684-2.683c.586-.586.908-1.361.908-2.184 0-.828-.32-1.595-.908-2.183-.585-.586-1.36-.908-2.183-.908-.823 0-1.598.322-2.184.909l-2.692 2.683c-.91.91-1.149 2.28-.63 3.445l-1.012.45c-.704-1.579-.38-3.44.859-4.68l2.692-2.683c.793-.793 1.85-1.232 2.967-1.232s2.174.44 2.967 1.232c.795.796 1.232 1.844 1.232 2.967 0 1.117-.439 2.174-1.232 2.967l-2.685 2.684c-.793.794-1.85 1.232-2.975 1.232-.517 0-1.023-.094-1.5-.28zm6.554 7.633c.224.209.236.56.027.783-.209.224-.56.236-.783.027L7.427 9.284c-.223-.209-.236-.56-.027-.783.209-.224.56-.236.783-.027l16.624 15.515z"/>
</svg>
