<svg width="48" height="48" viewBox="0 0 48 48" fill="none" xmlns="http://www.w3.org/2000/svg">
<path d="M0 24C0 10.7452 10.7452 0 24 0C37.2548 0 48 10.7452 48 24C48 37.2548 37.2548 48 24 48C10.7452 48 0 37.2548 0 24Z" fill="#929497" fill-opacity="0.2"/>
<g clip-path="url(#clip0)">
<path fill-rule="evenodd" clip-rule="evenodd" d="M41 7H40V8H41V7ZM19.2 20.7L23.3 16.4C23.4 16.3 23.4 16.4 23.4 16.5V27.5C23.4 27.8 23.7 28.1 24 28.1C24.3 28.1 24.6 27.8 24.6 27.5V16.5C24.6 16.4 24.7 16.4 24.7 16.4L28.8 20.7C29 21 29.4 21 29.7 20.7C30 20.5 30 20.1 29.7 19.8L24.2 14.1C24.2 14 23.9 14 23.7 14.1L18.3 19.9C18 20.1 18 20.5 18.3 20.8C18.5 21 18.9 21 19.2 20.7ZM33.5 25.9C33.2 25.9 32.9 26.2 32.9 26.5V29.2C32.9 30.8 31.8 32 30.2 32H17.9C16.4 32 15.2 30.8 15.2 29.2V26.3C15.2 26 14.9 25.7 14.6 25.7C14.3 25.7 14 26 14 26.4V29.3C14 31.6 15.7 33.3 17.9 33.3H30.2C32.4 33.3 34.1 31.5 34.1 29.3V26.6C34.1 26.2 33.8 25.9 33.5 25.9Z" fill="#A32A29"/>
</g>
<defs>
<clipPath id="clip0">
<rect width="32" height="32" fill="white" transform="translate(8 8)"/>
</clipPath>
</defs>
</svg>
