<svg width="32" height="32" viewBox="0 0 32 32" fill="none" xmlns="http://www.w3.org/2000/svg">
<path d="M12.9062 13.6456C13.8555 13.6456 14.625 12.8676 14.625 11.908C14.625 10.9483 13.8555 10.1703 12.9062 10.1703C11.957 10.1703 11.1875 10.9483 11.1875 11.908C11.1875 12.8676 11.957 13.6456 12.9062 13.6456Z" fill="#A32A29"/>
<path d="M25.6985 17.8699C24.9847 17.1988 24.0821 16.7584 23.0954 16.6325V8.95698C23.0954 8.13909 22.7595 7.40509 22.2347 6.85983C21.6889 6.31457 20.9542 6 20.1355 6H7.95992C7.14122 6 6.40649 6.33554 5.86069 6.85983C5.31489 7.40509 5 8.13909 5 8.95698V18.6248V19.5266V21.477C5 22.2948 5.33588 23.0288 5.86069 23.5741C6.40649 24.1194 7.14122 24.4339 7.95992 24.4339H19.7366C20.5134 25.0631 21.479 25.4615 22.5496 25.4615C23.7882 25.4615 24.9008 24.9582 25.6985 24.1613C26.4962 23.3644 27 22.2529 27 21.0156C27 19.7783 26.4962 18.6668 25.6985 17.8699ZM6.1126 8.95698C6.1126 8.45366 6.32252 7.99229 6.6584 7.65675C6.99427 7.3212 7.45611 7.11149 7.95992 7.11149H20.1355C20.6393 7.11149 21.1011 7.3212 21.437 7.65675C21.7729 7.99229 21.9828 8.45366 21.9828 8.95698V15.5001L18.876 12.4173C18.666 12.2076 18.3092 12.1866 18.0782 12.4173L13.3969 17.1149L10.2271 13.9272C10.0172 13.7175 9.66031 13.6965 9.42939 13.9272L6.1126 17.2827V8.95698ZM7.93893 23.3434V23.3224C7.43511 23.3224 6.97328 23.1127 6.6374 22.7772C6.32252 22.4416 6.1126 21.9803 6.1126 21.477V19.5266V18.8555L9.84924 15.1226L13.0191 18.2893C13.229 18.499 13.5859 18.499 13.8168 18.2893L18.4981 13.5917L21.563 16.6745C21.5 16.6955 21.437 16.7164 21.374 16.7374C21.2901 16.7584 21.2061 16.7793 21.1011 16.8213C21.0172 16.8423 20.9332 16.8842 20.8492 16.9052C20.7863 16.9261 20.7443 16.9471 20.6813 16.9891C20.5973 17.031 20.5344 17.052 20.4714 17.0939C20.3664 17.1568 20.2615 17.2197 20.1565 17.2827C20.0935 17.3246 20.0515 17.3456 19.9885 17.3875C19.9466 17.4085 19.9256 17.4295 19.8836 17.4504C19.6947 17.5763 19.5267 17.7231 19.3798 17.8908C18.5821 18.6877 18.0782 19.7992 18.0782 21.0366C18.0782 21.3511 18.1202 21.6447 18.1832 21.9593C18.2042 22.0432 18.2252 22.1061 18.2462 22.19C18.3092 22.3997 18.3721 22.6094 18.4561 22.8191V22.8401C18.5401 23.0079 18.624 23.1966 18.729 23.3434H7.93893ZM24.8798 23.3644C24.271 23.9726 23.4523 24.3291 22.5286 24.3291C21.6469 24.3291 20.8282 23.9726 20.2405 23.4063C20.1565 23.3224 20.0725 23.2176 19.9885 23.1337C19.9256 23.0708 19.8626 22.9869 19.7996 22.924C19.7156 22.8191 19.6527 22.6933 19.5897 22.5675C19.5477 22.4836 19.5057 22.4207 19.4637 22.3368C19.4218 22.2319 19.3798 22.1061 19.3588 21.9803C19.3378 21.8964 19.2958 21.7915 19.2748 21.7076C19.2328 21.4979 19.2118 21.2672 19.2118 21.0366C19.2118 20.1138 19.5897 19.2959 20.1775 18.6877C20.7863 18.0796 21.605 17.7231 22.5286 17.7231C23.4523 17.7231 24.271 18.1005 24.8798 18.6877C25.4885 19.275 25.8454 20.1138 25.8454 21.0366C25.8454 21.9383 25.4676 22.7562 24.8798 23.3644Z" fill="#A32A29"/>
<path d="M24.3726 20.3725H23.0962V19.0821C23.0962 18.7648 22.8451 18.511 22.5312 18.511C22.2174 18.511 21.9663 18.7648 21.9663 19.0821V20.3725H20.6899C20.3761 20.3725 20.125 20.6264 20.125 20.9437C20.125 21.261 20.3761 21.5148 20.6899 21.5148H21.9663V22.8052C21.9663 23.1225 22.2174 23.3764 22.5312 23.3764C22.8451 23.3764 23.0962 23.1225 23.0962 22.8052V21.5148H24.3726C24.6864 21.5148 24.9375 21.261 24.9375 20.9437C24.9375 20.6264 24.6864 20.3725 24.3726 20.3725Z" fill="#A32A29"/>
</svg>
