<svg width="32" height="33" viewBox="0 0 32 33" fill="none" xmlns="http://www.w3.org/2000/svg">
<path d="M0 16.5C0 7.66344 7.16344 0.5 16 0.5C24.8366 0.5 32 7.66344 32 16.5C32 25.3366 24.8366 32.5 16 32.5C7.16344 32.5 0 25.3366 0 16.5Z" fill="#A32A29"/>
<path fill-rule="evenodd" clip-rule="evenodd" d="M16 8.25C13.7286 8.25 11.875 10.0752 11.875 12.3406V13.0969C11.875 14.097 12.2363 15.0114 12.8353 15.7207L10.8642 16.9569L10.8633 16.9574C10.1865 17.3801 9.8125 18.1625 9.8125 18.9585V24.75H22.1875V18.9585C22.1875 18.1625 21.8135 17.3801 21.1367 16.9574L21.1358 16.9569L19.1647 15.7207C19.7637 15.0114 20.125 14.097 20.125 13.0969V12.3406C20.125 10.0752 18.2714 8.25 16 8.25ZM13.25 12.3406C13.25 10.8475 14.4749 9.625 16 9.625C17.5251 9.625 18.75 10.8475 18.75 12.3406V13.0969C18.75 14.59 17.5251 15.8125 16 15.8125C14.4749 15.8125 13.25 14.59 13.25 13.0969V12.3406ZM18.052 16.6459C17.447 16.9906 16.746 17.1875 16 17.1875C15.254 17.1875 14.553 16.9906 13.948 16.6459L11.5933 18.1226L11.592 18.1235C11.3728 18.2602 11.1875 18.5672 11.1875 18.9585V23.375H20.8125V18.9585C20.8125 18.5672 20.6272 18.2602 20.408 18.1235L20.4067 18.1226L18.052 16.6459Z" fill="white"/>
</svg>
