<svg width="18" height="23" viewBox="0 0 18 23" fill="none" xmlns="http://www.w3.org/2000/svg">
<path fill-rule="evenodd" clip-rule="evenodd" d="M13.4399 22.3223C13.2483 22.2473 13.0782 22.1261 12.9448 21.9694C12.8113 21.8128 12.7186 21.6256 12.675 21.4245C12.6269 21.1703 12.675 20.994 13.0506 20.2794C14.4762 17.6217 15.2028 14.6452 15.1621 11.6295C15.1621 8.55614 14.5965 6.16294 13.188 3.29567C12.971 2.88819 12.7872 2.46391 12.6384 2.02692C12.6576 1.84547 12.7149 1.6701 12.8064 1.51226C12.898 1.35442 13.0217 1.21765 13.1697 1.11086C13.3746 0.996113 13.6086 0.94366 13.8429 0.959931C14.0772 0.976203 14.3017 1.06049 14.4888 1.20246C14.7519 1.54747 14.9783 1.91896 15.1644 2.3109C16.1829 4.32521 16.8704 6.49041 17.2004 8.72333C17.4177 10.4902 17.4461 12.2751 17.2851 14.0479C17.0009 16.3148 16.3488 18.5202 15.3545 20.5772C14.7522 21.823 14.3743 22.336 14.056 22.336C13.9786 22.3384 13.9017 22.35 13.827 22.3703C13.6963 22.3838 13.5644 22.3689 13.4399 22.3268V22.3223ZM9.34286 20.1787C8.81613 20.0252 8.4268 19.3794 8.58712 18.8939C8.62376 18.7771 8.87338 18.2366 9.13904 17.6939C10.2538 15.4719 10.7295 12.9839 10.5131 10.5074C10.3849 8.734 9.89379 7.00589 9.07033 5.43009C8.46802 4.20028 8.44053 4.00791 8.78864 3.51323C8.9828 3.28277 9.25999 3.13814 9.56009 3.1107C9.86019 3.08327 10.159 3.17523 10.3917 3.36666C10.6963 3.64377 11.6376 5.60872 11.9948 6.72173C13.197 10.413 13.0114 14.416 11.4727 17.9801C10.6849 19.8329 10.1307 20.4077 9.34743 20.1787H9.34286ZM5.11753 18.0053C4.94867 17.9244 4.79963 17.8073 4.68093 17.6625C4.56222 17.5177 4.47673 17.3486 4.43048 17.1671C4.38468 16.9541 4.46255 16.7205 4.84958 15.9396C6.26948 13.0632 6.2855 10.2967 4.89767 7.48893C4.28849 6.25454 4.27475 6.0095 4.79004 5.52399C4.87677 5.42052 4.98798 5.34034 5.11356 5.29075C5.23914 5.24116 5.37512 5.22371 5.50915 5.24C6.10917 5.24 6.42521 5.5423 6.95424 6.64158C7.74743 8.20073 8.14536 9.93089 8.11305 11.6799C8.15151 13.4342 7.73909 15.169 6.91529 16.7182C6.41146 17.7397 6.16183 18.0099 5.658 18.0786C5.47256 18.0945 5.28595 18.0671 5.11294 17.9984L5.11753 18.0053ZM1.18075 15.9808C0.876156 15.8183 0.646334 15.5442 0.539515 15.2159C0.443328 14.8747 0.523482 14.6044 0.910518 13.9678C1.40748 13.1479 1.52428 12.7082 1.52428 11.6387C1.52428 10.5692 1.40748 10.1295 0.910518 9.30961C0.762536 9.07492 0.636057 8.82734 0.532638 8.56989C0.372327 8.02941 0.823495 7.36756 1.4281 7.25534C1.9388 7.15916 2.29148 7.38817 2.76097 8.1233C3.42895 9.18342 3.78341 10.4109 3.78341 11.6639C3.78341 12.9169 3.42895 14.1443 2.76097 15.2045C2.28003 15.9488 1.74413 16.2121 1.18075 15.9808Z" fill="white"/>
</svg>
