<svg width="20" height="12" viewBox="0 0 20 12" fill="none" xmlns="http://www.w3.org/2000/svg">
<path fill-rule="evenodd" clip-rule="evenodd" d="M3.46797 3.41699C7.13464 -0.249674 13.1346 -0.249674 16.8013 3.41699C18.5346 5.21699 19.5346 7.61699 19.468 10.0837C19.468 10.2837 19.268 10.4837 19.068 10.4837H16.668C16.468 10.4837 16.268 10.2837 16.268 10.0837C16.268 6.68366 13.468 3.88366 10.068 3.88366C6.66797 3.88366 3.86797 6.68366 3.86797 10.0837C3.86797 10.2837 3.66797 10.4837 3.46797 10.4837H1.06797C0.867969 10.4837 0.667969 10.2837 0.667969 10.0837C0.667969 7.61699 1.66797 5.21699 3.46797 3.41699ZM14.8013 4.88366L15.9346 3.75033C14.4013 2.35033 12.5346 1.55033 10.5346 1.48366V3.08366C12.1346 3.21699 13.6013 3.81699 14.8013 4.88366ZM17.1346 9.68366H18.7346C18.668 7.68366 17.868 5.81699 16.468 4.28366L15.3346 5.41699C16.4013 6.61699 17.068 8.08366 17.1346 9.68366ZM3.73464 4.28366C2.33464 5.75033 1.53464 7.68366 1.46797 9.68366H3.06797C3.2013 8.08366 3.8013 6.61699 4.86797 5.41699L3.73464 4.28366ZM9.66797 3.08366V1.48366C7.66797 1.55033 5.8013 2.35033 4.26797 3.75033L5.4013 4.88366C6.6013 3.81699 8.06797 3.15033 9.66797 3.08366Z" fill="#A32A29"/>
<path fill-rule="evenodd" clip-rule="evenodd" d="M10.468 6.48366V8.88366C11.068 9.08366 11.468 9.68366 11.3347 10.2837C11.268 10.9503 10.7347 11.417 10.068 11.417C9.40133 11.417 8.86799 10.8837 8.80133 10.2837C8.66799 9.61699 9.06799 9.08366 9.66799 8.88366V6.48366C9.66799 6.21699 9.80133 6.08366 10.068 6.08366C10.3347 6.08366 10.468 6.28366 10.468 6.48366ZM9.53466 10.0837C9.53466 10.3503 9.80133 10.617 10.068 10.617C10.4013 10.617 10.668 10.417 10.6013 10.0837C10.6013 9.81699 10.3347 9.55032 10.068 9.55032C9.80133 9.55032 9.53466 9.81699 9.53466 10.0837Z" fill="#A32A29"/>
</svg>
