<svg xmlns="http://www.w3.org/2000/svg" width="32" height="32" fill="none" viewBox="0 0 32 32">
    <path fill="#fff" fill-rule="evenodd" d="M24.156 12.679h-6.09c-.19 0-.343-.153-.343-.344 0-.19.154-.342.343-.342h6.09c.19 0 .344.152.344.342 0 .191-.154.344-.344.344" clip-rule="evenodd"/>
    <path fill-rule="evenodd" stroke="#fff" stroke-width=".5" d="M24.156 12.679h-6.09c-.19 0-.343-.153-.343-.344 0-.19.154-.342.343-.342h6.09c.19 0 .344.152.344.342 0 .191-.154.344-.344.344z" clip-rule="evenodd"/>
    <path fill="#fff" fill-rule="evenodd" d="M24.156 14.955h-6.09c-.19 0-.343-.154-.343-.344 0-.191.154-.344.343-.344h6.09c.19 0 .344.153.344.344 0 .19-.154.344-.344.344" clip-rule="evenodd"/>
    <path fill-rule="evenodd" stroke="#fff" stroke-width=".5" d="M24.156 14.955h-6.09c-.19 0-.343-.154-.343-.344 0-.191.154-.344.343-.344h6.09c.19 0 .344.153.344.344 0 .19-.154.344-.344.344z" clip-rule="evenodd"/>
    <path fill="#fff" fill-rule="evenodd" d="M24.156 17.23h-6.09c-.19 0-.343-.153-.343-.343 0-.191.154-.344.343-.344h6.09c.19 0 .344.153.344.344 0 .19-.154.344-.344.344" clip-rule="evenodd"/>
    <path fill-rule="evenodd" stroke="#fff" stroke-width=".5" d="M24.156 17.23h-6.09c-.19 0-.343-.153-.343-.343 0-.191.154-.344.343-.344h6.09c.19 0 .344.153.344.344 0 .19-.154.344-.344.344z" clip-rule="evenodd"/>
    <path fill="#fff" fill-rule="evenodd" d="M24.156 19.506h-6.09c-.19 0-.343-.153-.343-.344 0-.19.154-.344.343-.344h6.09c.19 0 .344.154.344.344 0 .19-.154.344-.344.344" clip-rule="evenodd"/>
    <path fill-rule="evenodd" stroke="#fff" stroke-width=".5" d="M24.156 19.506h-6.09c-.19 0-.343-.153-.343-.344 0-.19.154-.344.343-.344h6.09c.19 0 .344.154.344.344 0 .19-.154.344-.344.344z" clip-rule="evenodd"/>
    <path fill="#fff" fill-rule="evenodd" d="M24.156 21.781h-6.09c-.19 0-.343-.154-.343-.343 0-.19.154-.344.343-.344h6.09c.19 0 .344.154.344.344 0 .19-.154.343-.344.343" clip-rule="evenodd"/>
    <path fill-rule="evenodd" stroke="#fff" stroke-width=".5" d="M24.156 21.781h-6.09c-.19 0-.343-.154-.343-.343 0-.19.154-.344.343-.344h6.09c.19 0 .344.154.344.344 0 .19-.154.343-.344.343z" clip-rule="evenodd"/>
    <path fill="#fff" fill-rule="evenodd" d="M24.156 24.056h-6.09c-.19 0-.343-.152-.343-.344 0-.19.154-.342.343-.342h6.09c.19 0 .344.153.344.342 0 .192-.154.344-.344.344" clip-rule="evenodd"/>
    <path fill-rule="evenodd" stroke="#fff" stroke-width=".5" d="M24.156 24.056h-6.09c-.19 0-.343-.152-.343-.344 0-.19.154-.342.343-.342h6.09c.19 0 .344.153.344.342 0 .192-.154.344-.344.344z" clip-rule="evenodd"/>
    <path fill="#fff" fill-rule="evenodd" d="M25.667 26.269h-9.05c-.19 0-.344-.153-.344-.344V11.841c0-.19.154-.342.344-.342.191 0 .344.152.344.342v13.742h8.363V11.84c0-.19.154-.342.343-.342.19 0 .344.152.344.342v14.084c0 .191-.154.344-.344.344" clip-rule="evenodd"/>
    <path fill-rule="evenodd" stroke="#fff" stroke-width=".5" d="M25.667 26.269h-9.05c-.19 0-.344-.153-.344-.344V11.841c0-.19.154-.342.344-.342.191 0 .344.152.344.342v13.742h8.363V11.84c0-.19.154-.342.343-.342.19 0 .344.152.344.342v14.084c0 .191-.154.344-.344.344z" clip-rule="evenodd"/>
    <path fill="#fff" fill-rule="evenodd" d="M16.618 12.185c-.19 0-.344-.153-.344-.344 0-.814-.663-1.477-1.478-1.477-.19 0-.344-.155-.344-.344 0-.19.154-.343.344-.343 1.193 0 2.166.97 2.166 2.164 0 .19-.154.344-.344.344" clip-rule="evenodd"/>
    <path fill-rule="evenodd" stroke="#fff" stroke-width=".5" d="M16.618 12.185c-.19 0-.344-.153-.344-.344 0-.814-.663-1.477-1.478-1.477-.19 0-.344-.155-.344-.344 0-.19.154-.343.344-.343 1.193 0 2.166.97 2.166 2.164 0 .19-.154.344-.344.344z" clip-rule="evenodd"/>
    <path fill="#fff" fill-rule="evenodd" d="M11.153 22.015c-1.195 0-2.165-.97-2.165-2.166V8.51c0-.814-.663-1.477-1.479-1.477-.815 0-1.478.663-1.478 1.478v6.037h2.243c.188 0 .342.154.342.344 0 .19-.154.343-.342.343H5.688c-.19 0-.344-.153-.344-.343V8.51c0-1.195.97-2.166 2.165-2.166 1.194 0 2.166.971 2.166 2.166v11.34c0 .815.663 1.478 1.478 1.478.816 0 1.478-.663 1.478-1.479v-8.008c0-1.194.971-2.165 2.166-2.165.19 0 .342.154.342.344 0 .19-.152.343-.342.343-.816 0-1.478.665-1.478 1.479v8.007c0 1.195-.972 2.166-2.166 2.166" clip-rule="evenodd"/>
    <path fill-rule="evenodd" stroke="#fff" stroke-width=".5" d="M11.153 22.015c-1.195 0-2.165-.97-2.165-2.166V8.51c0-.814-.663-1.477-1.479-1.477-.815 0-1.478.663-1.478 1.478v6.037h2.243c.188 0 .342.154.342.344 0 .19-.154.343-.342.343H5.688c-.19 0-.344-.153-.344-.343V8.51c0-1.195.97-2.166 2.165-2.166 1.194 0 2.166.971 2.166 2.166v11.34c0 .815.663 1.478 1.478 1.478.816 0 1.478-.663 1.478-1.479v-8.008c0-1.194.971-2.165 2.166-2.165.19 0 .342.154.342.344 0 .19-.152.343-.342.343-.816 0-1.478.665-1.478 1.479v8.007c0 1.195-.972 2.166-2.166 2.166z" clip-rule="evenodd"/>
    <path fill="#fff" fill-rule="evenodd" d="M25.668 12.185c-.19 0-.344-.153-.344-.344 0-.814-.663-1.477-1.478-1.477h-9.05c-.189 0-.343-.155-.343-.344 0-.19.154-.343.344-.343h9.049c1.193 0 2.165.97 2.165 2.164 0 .19-.154.344-.343.344" clip-rule="evenodd"/>
    <path fill-rule="evenodd" stroke="#fff" stroke-width=".5" d="M25.668 12.185c-.19 0-.344-.153-.344-.344 0-.814-.663-1.477-1.478-1.477h-9.05c-.189 0-.343-.155-.343-.344 0-.19.154-.343.344-.343h9.049c1.193 0 2.165.97 2.165 2.164 0 .19-.154.344-.343.344z" clip-rule="evenodd"/>
    <path fill="#fff" fill-rule="evenodd" d="M15.325 22.015h-4.172c-.19 0-.343-.154-.343-.344 0-.19.154-.343.343-.343h4.172c.19 0 .344.154.344.343 0 .19-.154.344-.344.344" clip-rule="evenodd"/>
    <path fill-rule="evenodd" stroke="#fff" stroke-width=".5" d="M15.325 22.015h-4.172c-.19 0-.343-.154-.343-.344 0-.19.154-.343.343-.343h4.172c.19 0 .344.154.344.343 0 .19-.154.344-.344.344z" clip-rule="evenodd"/>
    <path fill="#fff" fill-rule="evenodd" d="M18.44 8.853c-.19 0-.344-.154-.344-.344 0-.815-.663-1.478-1.478-1.478H7.51c-.19 0-.344-.154-.344-.343 0-.191.154-.344.344-.344h9.108c1.193 0 2.165.97 2.165 2.165 0 .19-.154.344-.343.344" clip-rule="evenodd"/>
    <path fill-rule="evenodd" stroke="#fff" stroke-width=".5" d="M18.44 8.853c-.19 0-.344-.154-.344-.344 0-.815-.663-1.478-1.478-1.478H7.51c-.19 0-.344-.154-.344-.343 0-.191.154-.344.344-.344h9.108c1.193 0 2.165.97 2.165 2.165 0 .19-.154.344-.343.344z" clip-rule="evenodd"/>
</svg>
