<svg
  width="26"
  height="16"
  viewBox="0 0 26 16"
  fill="none"
  xmlns="http://www.w3.org/2000/svg"
>
  <path
    fill-rule="evenodd"
    clip-rule="evenodd"
    d="M3.44409 8.5674C3.30732 8.34645 3.19836 8.15387 3.11584 8C3.19836 7.84613 3.30732 7.65354 3.44409 7.4326C3.81928 6.82654 4.39817 6.01612 5.20718 5.20711C6.81684 3.59745 9.32531 2 13.0001 2C16.6748 2 19.1833 3.59745 20.793 5.20711C21.602 6.01612 22.1809 6.82654 22.5561 7.4326C22.6928 7.65354 22.8018 7.84613 22.8843 8C22.8018 8.15387 22.6928 8.34645 22.5561 8.5674C22.1809 9.17346 21.602 9.98388 20.793 10.7929C19.1833 12.4025 16.6748 14 13.0001 14C9.32531 14 6.81684 12.4025 5.20718 10.7929C4.39817 9.98388 3.81928 9.17346 3.44409 8.5674ZM24.9188 7.60513C24.919 7.60562 24.9192 7.60608 24.0001 8C24.9192 8.39392 24.919 8.39438 24.9188 8.39487L24.9183 8.39598L24.9172 8.39868L24.914 8.406L24.9042 8.42817C24.8961 8.44624 24.8849 8.47083 24.8706 8.5015C24.842 8.56283 24.8007 8.64858 24.7463 8.75525C24.6375 8.96846 24.4757 9.26613 24.2566 9.6201C23.8193 10.3265 23.1482 11.2661 22.2072 12.2071C20.3168 14.0975 17.3253 16 13.0001 16C8.67485 16 5.68332 14.0975 3.79297 12.2071C2.85198 11.2661 2.18088 10.3265 1.74356 9.6201C1.52444 9.26613 1.36262 8.96846 1.25385 8.75525C1.19942 8.64858 1.15816 8.56283 1.12954 8.5015C1.11522 8.47083 1.10406 8.44624 1.09599 8.42817L1.08617 8.406L1.08298 8.39868L1.08182 8.39598L1.08134 8.39487C1.08113 8.39438 1.08093 8.39392 2.00008 8C1.08093 7.60608 1.08113 7.60562 1.08134 7.60513L1.08182 7.60402L1.08298 7.60132L1.08617 7.594L1.09599 7.57183C1.10406 7.55376 1.11522 7.52917 1.12954 7.4985C1.15816 7.43717 1.19942 7.35142 1.25385 7.24475C1.36262 7.03154 1.52444 6.73387 1.74356 6.3799C2.18088 5.67346 2.85198 4.73388 3.79297 3.79289C5.68332 1.90255 8.67485 0 13.0001 0C17.3253 0 20.3168 1.90255 22.2072 3.79289C23.1482 4.73388 23.8193 5.67346 24.2566 6.3799C24.4757 6.73387 24.6375 7.03154 24.7463 7.24475C24.8007 7.35142 24.842 7.43717 24.8706 7.4985C24.8849 7.52917 24.8961 7.55376 24.9042 7.57183L24.914 7.594L24.9172 7.60132L24.9183 7.60402L24.9188 7.60513ZM24.0001 8L24.9192 7.60608L25.088 8L24.9192 8.39392L24.0001 8ZM1.08093 7.60608L2.00008 8L1.08093 8.39392L0.912109 8L1.08093 7.60608ZM10.0001 8C10.0001 6.34315 11.3432 5 13.0001 5C14.6569 5 16.0001 6.34315 16.0001 8C16.0001 9.65685 14.6569 11 13.0001 11C11.3432 11 10.0001 9.65685 10.0001 8ZM13.0001 3C10.2387 3 8.00008 5.23858 8.00008 8C8.00008 10.7614 10.2387 13 13.0001 13C15.7615 13 18.0001 10.7614 18.0001 8C18.0001 5.23858 15.7615 3 13.0001 3Z"
    fill="currentColor"
  />
</svg>
