<svg
  width="26"
  height="22"
  viewBox="0 0 26 22"
  fill="none"
  xmlns="http://www.w3.org/2000/svg"
>
  <path
    fill-rule="evenodd"
    clip-rule="evenodd"
    d="M22 0.585785L18.4356 4.15012C16.9271 3.45901 15.1244 3 13 3C8.67472 3 5.68319 4.90255 3.79285 6.79289C2.85186 7.73388 2.18076 8.67346 1.74344 9.37989C1.52432 9.73386 1.3625 10.0315 1.25372 10.2447C1.1993 10.3514 1.15804 10.4372 1.12942 10.4985C1.1151 10.5292 1.10394 10.5538 1.09586 10.5718L1.08605 10.594L1.08286 10.6013L1.08169 10.604L1.08122 10.6051C1.08122 10.6051 1.08081 10.6061 1.99995 11L1.08081 10.6061L0.911987 11L1.08081 11.3939L1.99995 11C1.08081 11.3939 1.08122 11.3949 1.08122 11.3949L1.08169 11.396L1.08286 11.3987L1.08605 11.406L1.09586 11.4282C1.10394 11.4462 1.1151 11.4708 1.12942 11.5015C1.15804 11.5628 1.1993 11.6486 1.25372 11.7552C1.3625 11.9685 1.52432 12.2661 1.74344 12.6201C2.18076 13.3265 2.85186 14.2661 3.79285 15.2071C4.34938 15.7636 5.00136 16.3212 5.75472 16.831L2.58574 20L3.99995 21.4142L7.56429 17.8499C9.07278 18.541 10.8755 19 13 19C17.3252 19 20.3167 17.0975 22.2071 15.2071C23.1481 14.2661 23.8192 13.3265 24.2565 12.6201C24.4756 12.2661 24.6374 11.9685 24.7462 11.7552C24.8006 11.6486 24.8419 11.5628 24.8705 11.5015C24.8848 11.4708 24.896 11.4462 24.904 11.4282L24.9139 11.406L24.917 11.3987L24.9182 11.396L24.9187 11.3949C24.9187 11.3949 24.9191 11.3939 24 11L24.9191 11.3939L25.0879 11L24.9191 10.6061L24 11C24.9191 10.6061 24.9187 10.6051 24.9187 10.6051L24.9182 10.604L24.917 10.6013L24.9139 10.594L24.904 10.5718C24.896 10.5538 24.8848 10.5292 24.8705 10.4985C24.8419 10.4372 24.8006 10.3514 24.7462 10.2447C24.6374 10.0315 24.4756 9.73386 24.2565 9.37989C23.8192 8.67346 23.1481 7.73388 22.2071 6.79289C21.6505 6.23636 20.9985 5.67877 20.2452 5.16898L23.4142 2L22 0.585785ZM13 5C14.4871 5 15.7832 5.2616 16.906 5.67976L15.7573 6.82839C14.9669 6.30488 14.019 6 13 6C10.2385 6 7.99996 8.23857 7.99996 11C7.99996 12.0191 8.30483 12.967 8.82835 13.7574L7.19964 15.3861C6.42168 14.8996 5.76113 14.347 5.20706 13.7929C4.39805 12.9839 3.81915 12.1735 3.44397 11.5674C3.3072 11.3465 3.19824 11.1539 3.11571 11C3.19824 10.8461 3.3072 10.6535 3.44397 10.4326C3.81915 9.82654 4.39805 9.01612 5.20706 8.20711C6.81672 6.59745 9.32519 5 13 5ZM10.2426 15.1716L9.09393 16.3202C10.2168 16.7384 11.5129 17 13 17C16.6747 17 19.1832 15.4025 20.7928 13.7929C21.6019 12.9839 22.1808 12.1735 22.5559 11.5674C22.6927 11.3465 22.8017 11.1539 22.8842 11C22.8017 10.8461 22.6927 10.6535 22.5559 10.4326C22.1808 9.82654 21.6019 9.01612 20.7928 8.20711C20.2388 7.65304 19.5782 7.10042 18.8003 6.6139L17.1716 8.24261C17.6951 9.03304 18 9.98092 18 11C18 13.7614 15.7614 16 13 16C11.9809 16 11.033 15.6951 10.2426 15.1716ZM15.7076 9.70658C15.895 10.0982 16 10.5369 16 11C16 12.6569 14.6568 14 13 14C12.5368 14 12.0982 13.895 11.7065 13.7076L15.7076 9.70658ZM14.2934 8.29237L10.2923 12.2934C10.1049 11.9018 9.99996 11.4631 9.99996 11C9.99996 9.34314 11.3431 8 13 8C13.4631 8 13.9017 8.10495 14.2934 8.29237Z"
    fill="currentColor"
  />
</svg>
