<svg width="32" height="32" viewBox="0 0 32 32" fill="none" xmlns="http://www.w3.org/2000/svg">
<path d="M0 16C0 7.16344 7.16344 0 16 0V0C24.8366 0 32 7.16344 32 16V16C32 24.8366 24.8366 32 16 32V32C7.16344 32 0 24.8366 0 16V16Z" fill="#929497" fill-opacity="0.2"/>
<path fill-rule="evenodd" clip-rule="evenodd" d="M21.1335 11.4668C19.8668 10.2001 18.0668 9.4668 16.2001 9.4668C12.5335 9.4668 9.4668 12.2001 9.4668 15.6001C9.4668 16.8001 9.8668 17.9335 10.5335 18.9335L10.6001 19.0001V19.0668C10.5335 19.3335 10.2668 20.2668 10.0668 21.0668C10.0001 21.2668 10.0668 21.4668 10.1335 21.6668C10.2668 21.8668 10.4668 22.0001 10.6001 22.0001C10.7335 22.0001 10.8001 22.0001 10.8001 22.0001C10.8668 22.0001 10.9335 22.0001 11.0668 22.0001L12.8668 21.1335C12.9335 21.1335 13.1335 21.0001 13.1335 21.0001C13.2001 20.9335 13.4001 20.9335 13.4668 21.0001H13.5335C14.2668 21.2668 15.0668 21.4001 16.1335 21.4001C19.8668 21.4001 22.8001 18.8001 22.8001 15.4668C22.9335 14.0668 22.2668 12.6001 21.1335 11.4668ZM16.2001 20.5335C15.4001 20.5335 14.8001 20.4668 14.2001 20.2668L13.8001 20.1335C13.4668 20.0668 13.1335 20.0668 12.8668 20.2001C12.8001 20.2001 12.5335 20.3335 12.5335 20.3335L11.2001 21.0001C11.6668 19.2668 11.6668 19.2668 11.6668 19.2001C11.6668 19.0001 11.6001 18.8001 11.4668 18.6001C11.4001 18.4668 11.3335 18.4001 11.3335 18.4001C10.7335 17.6001 10.4668 16.6668 10.4668 15.6668C10.4668 12.8668 13.0001 10.5335 16.2001 10.5335C17.8001 10.5335 19.4001 11.1335 20.4668 12.2668C21.4001 13.2001 21.9335 14.4001 21.9335 15.6668C21.8668 18.3335 19.4001 20.5335 16.2001 20.5335Z" fill="#A32A29"/>
<path fill-rule="evenodd" clip-rule="evenodd" d="M16.2001 16.9335C15.8001 16.9335 15.5335 17.2668 15.5335 17.6001C15.5335 18.0001 15.8668 18.2668 16.2001 18.2668C16.6001 18.2668 16.8668 17.9335 16.8668 17.6001C16.8668 17.2001 16.6001 16.9335 16.2001 16.9335Z" fill="#A32A29"/>
<path fill-rule="evenodd" clip-rule="evenodd" d="M16.2001 12.0668C15.8001 12.0668 15.5335 12.4001 15.5335 12.7335V15.4668C15.5335 15.8668 15.8668 16.1335 16.2001 16.1335C16.6001 16.1335 16.8668 15.8001 16.8668 15.4668V12.7335C16.8668 12.4001 16.6001 12.0668 16.2001 12.0668Z" fill="#A32A29"/>
</svg>
