<svg width="32" height="32" fill="none" viewBox="-5 -5 32 32" fill="none" xmlns="http://www.w3.org/2000/svg">
<path fill-rule="evenodd" clip-rule="evenodd" d="M13.3744 13.4823L14.3164 12.5403C14.3851 12.4716 14.4145 12.3833 14.4145 12.295C14.4145 12.2067 14.3753 12.1184 14.3164 12.0497C14.1888 11.9221 13.9533 11.9221 13.8258 12.0497L7.69297 18.1825C7.62429 18.2512 7.59485 18.3395 7.59485 18.4278C7.59485 18.4717 7.60457 18.5157 7.62159 18.5572C7.65571 18.6405 7.73573 18.6919 7.81809 18.7282C7.89472 18.7619 7.98194 18.7621 8.05871 18.7287L8.09615 18.7124C8.14097 18.6929 8.18177 18.6653 8.21646 18.6308L9.45922 17.3975C10.0578 17.6722 10.5778 17.7213 10.833 17.7213C10.9605 17.7213 11.0881 17.7115 11.1371 17.7017C13.2272 17.5447 14.2771 16.0238 14.5519 15.5724C14.6794 15.3663 14.6794 15.1014 14.5715 14.8855C14.2771 14.3066 13.8748 13.8356 13.3744 13.4823ZM11.7553 15.1014L11.7651 15.1701C11.7651 15.6116 11.4119 15.9649 10.9703 15.9747L10.9016 15.9551L11.7553 15.1014ZM11.0685 16.9952H11.0586C10.9998 17.005 10.568 17.0541 10.0087 16.8578L10.3423 16.5242C10.5484 16.6223 10.7643 16.6714 10.9703 16.6714C11.7946 16.6714 12.4618 16.0041 12.4618 15.1799C12.4618 14.9738 12.4128 14.7678 12.3146 14.5617L12.8936 13.9828C13.3548 14.2869 13.6982 14.6991 13.9631 15.2289C13.6491 15.7294 12.7758 16.8676 11.0685 16.9952Z" fill="white"/>
<path d="M8.09526 16.2102H8.11889C8.17837 16.2102 8.23597 16.1894 8.28169 16.1513C8.43869 16.0434 8.48776 15.8275 8.37982 15.6705C8.22282 15.435 8.11488 15.1897 8.02657 14.9051C8.39944 14.4439 9.41994 13.4333 11.1077 13.5412C11.2941 13.5412 11.4609 13.394 11.4707 13.2174C11.4806 13.0309 11.3334 12.8641 11.1469 12.8543C9.10594 12.7268 7.89901 13.9631 7.46726 14.5028C7.32007 14.6893 7.28082 14.9444 7.35932 15.1799C7.47707 15.5037 7.62426 15.7981 7.79107 16.0532C7.86957 16.1513 7.97751 16.2102 8.09526 16.2102Z" fill="white"/>
<path d="M11.304 14.0318C11.304 14.2183 11.147 14.3753 10.9605 14.3753C10.519 14.3753 10.1657 14.7285 10.1657 15.1799L10.1853 15.3663C10.2344 15.5429 10.1166 15.7294 9.93021 15.7784L9.85171 15.7883C9.6849 15.7883 9.54752 15.6803 9.50828 15.5233C9.47884 15.4154 9.46902 15.2976 9.46902 15.1799C9.46902 14.3556 10.1363 13.6884 10.9605 13.6884C11.147 13.6884 11.304 13.8454 11.304 14.0318Z" fill="white"/>
<path d="M15.9943 6.88834C15.9943 7.24159 16.2887 7.53597 16.6419 7.53597C16.9952 7.53597 17.2896 7.24159 17.2896 6.88834C17.2896 6.5351 17.005 6.24072 16.6419 6.24072C16.2789 6.24072 15.9943 6.5351 15.9943 6.88834Z" fill="white"/>
<path fill-rule="evenodd" clip-rule="evenodd" d="M20.5767 1.50131C20.9594 1.50131 21.3127 1.64849 21.5874 1.92324C21.8622 2.18818 22.0094 2.55124 21.9995 2.93393V16.063C21.9995 16.8578 21.3519 17.4956 20.5669 17.4956H16.8087C15.8668 19.88 13.5608 21.4599 10.9998 21.4599C8.43872 21.4599 6.13279 19.8702 5.19079 17.4956H1.43262C0.647623 17.4956 0 16.8578 0 16.063V2.93393C0 2.13912 0.647623 1.50131 1.43262 1.50131H1.58962V0.843872C1.58962 0.372874 1.9723 0 2.43349 0H19.4287C19.8997 0 20.2725 0.382686 20.2725 0.843872V1.50131H20.5767ZM19.1834 1.08918H2.6788V1.50131H19.1834V1.08918ZM5.84823 15.1995C5.84823 18.0451 8.16397 20.3609 11.0096 20.3609C13.8552 20.3609 16.1709 18.0451 16.1709 15.1897C16.1709 13.0702 14.8953 11.196 12.9328 10.4012C12.3245 10.1559 11.6768 10.0283 11.0096 10.0283C8.40928 10.0283 6.21129 11.9712 5.88748 14.5519C5.85804 14.7678 5.84823 14.9836 5.84823 15.1995ZM16.6321 7.99716H20.9202V5.77954H16.6321C16.0238 5.77954 15.5331 6.27998 15.5331 6.88835C15.5331 7.50653 16.0238 7.99716 16.6321 7.99716ZM16.6321 4.70017H20.9202V2.93393C20.9202 2.74749 20.7632 2.59049 20.5767 2.59049H1.43262C1.24618 2.59049 1.08918 2.74749 1.08918 2.93393V16.0532C1.08918 16.2396 1.24618 16.3966 1.43262 16.3966H4.86698C4.78848 15.9943 4.74923 15.592 4.74923 15.1995C4.74923 14.9346 4.76886 14.6794 4.79829 14.4243C5.18098 11.304 7.84997 8.94897 10.9998 8.94897C11.8142 8.94897 12.5992 9.10597 13.3351 9.40034C15.7098 10.3521 17.2503 12.6286 17.2503 15.1995C17.2503 15.592 17.2111 15.9943 17.1326 16.3966H20.5767C20.7632 16.3966 20.9202 16.2396 20.9202 16.0532V9.07653H16.6321C15.4252 9.07653 14.4439 8.09528 14.4439 6.88835C14.4439 5.68142 15.4252 4.70017 16.6321 4.70017Z" fill="white"/>
</svg>
