<svg width="48" height="48" viewBox="0 0 48 48" fill="none" xmlns="http://www.w3.org/2000/svg">
<path d="M0 24C0 10.7452 10.7452 0 24 0C37.2548 0 48 10.7452 48 24C48 37.2548 37.2548 48 24 48C10.7452 48 0 37.2548 0 24Z" fill="#929497" fill-opacity="0.2"/>
<g clip-path="url(#clip0)">
<path fill-rule="evenodd" clip-rule="evenodd" d="M34 12H14C12.8954 12 12 12.8954 12 14V25.1667H36V14C36 12.8954 35.1046 12 34 12ZM37 25.1667V26.1667V27.5C37 29.1569 35.6569 30.5 34 30.5H27V31V33V33.75H30.5833C31.1356 33.75 31.5833 34.1977 31.5833 34.75V36C31.5833 36.5523 31.1356 37 30.5833 37H17.4167C16.8644 37 16.4167 36.5523 16.4167 36V34.75C16.4167 34.1977 16.8644 33.75 17.4167 33.75H21V33V31V30.5H14C12.3431 30.5 11 29.1569 11 27.5V26.1667V25.1667V14C11 12.3431 12.3431 11 14 11H34C35.6569 11 37 12.3431 37 14V25.1667ZM12 26.1667V27.5C12 28.6046 12.8954 29.5 14 29.5H34C35.1046 29.5 36 28.6046 36 27.5V26.1667H12ZM30.5833 36H17.4167V34.75H30.5833L30.5833 36ZM26 33V31H22V33H26ZM21.2917 14.25C20.9925 14.25 20.75 14.0075 20.75 13.7083C20.75 13.4092 20.9925 13.1667 21.2917 13.1667H27.7917C28.0908 13.1667 28.3333 13.4092 28.3333 13.7083C28.3333 14.0075 28.0908 14.25 27.7917 14.25H21.2917Z" fill="#A32A29"/>
</g>
<defs>
<clipPath id="clip0">
<rect width="32" height="32" fill="white" transform="translate(8 8)"/>
</clipPath>
</defs>
</svg>
