<svg width="26" height="22" viewBox="0 0 26 22" fill="none" xmlns="http://www.w3.org/2000/svg">
<path d="M16 0V2L26 2V0H16Z" fill="white"/>
<path fill-rule="evenodd" clip-rule="evenodd" d="M0 5V13C0 14.4113 1.1179 15.4197 2.31004 16.0158C3.56193 16.6417 5.22145 17 7 17C8.77855 17 10.4381 16.6417 11.69 16.0158C11.7941 15.9637 11.8977 15.9085 12 15.8502V18C12 19.4113 13.1179 20.4197 14.31 21.0158C15.5619 21.6417 17.2214 22 19 22C20.7786 22 22.4381 21.6417 23.69 21.0158C24.8821 20.4197 26 19.4113 26 18V14C26 12.5887 24.8819 11.5803 23.6899 10.9843C22.438 10.3583 20.7784 10 19 10C17.2216 10 15.5621 10.3583 14.3101 10.9843C14.206 11.0363 14.1024 11.0916 14 11.15V5C14 3.58874 12.8819 2.5803 11.6899 1.98425C10.4379 1.3583 8.77844 1 7 1C5.22156 1 3.56205 1.3583 2.31015 1.98425C1.11805 2.5803 0 3.58874 0 5ZM14 16.85V18C14 18.2457 14.2251 18.7373 15.2045 19.2269C16.1241 19.6868 17.4646 20 19 20C20.5354 20 21.8759 19.6868 22.7955 19.2269C23.7749 18.7373 24 18.2457 24 18V16.85C23.8976 16.9084 23.794 16.9637 23.6899 17.0157C22.438 17.6417 20.7784 18 19 18C17.2216 18 15.5621 17.6417 14.3101 17.0157C14.206 16.9637 14.1024 16.9084 14 16.85ZM24 14C24 14.2456 23.7749 14.7372 22.7954 15.2269C21.8758 15.6867 20.5353 16 19 16C17.4647 16 16.1242 15.6867 15.2046 15.2269C14.2251 14.7372 14 14.2456 14 14C14 13.7544 14.2251 13.2628 15.2046 12.7731C16.1242 12.3133 17.4647 12 19 12C20.5353 12 21.8758 12.3133 22.7954 12.7731C23.7749 13.2628 24 13.7544 24 14ZM2 7.85004V9C2 9.24573 2.2251 9.73726 3.20446 10.2269C4.12407 10.6868 5.46455 11 7 11C8.53545 11 9.87593 10.6868 10.7955 10.2269C11.7749 9.73726 12 9.24573 12 9V7.85004C11.8976 7.90842 11.794 7.96366 11.6899 8.01575C10.4379 8.6417 8.77844 9 7 9C5.22156 9 3.56205 8.6417 2.31015 8.01575C2.20597 7.96366 2.10235 7.90842 2 7.85004ZM12 5C12 5.2456 11.7749 5.73715 10.7954 6.22689C9.87576 6.68673 8.53527 7 7 7C5.46473 7 4.12424 6.68673 3.20457 6.22689C2.22509 5.73715 2 5.2456 2 5C2 4.7544 2.22509 4.26285 3.20457 3.77311C4.12424 3.31327 5.46473 3 7 3C8.53527 3 9.87576 3.31327 10.7954 3.77311C11.7749 4.26285 12 4.7544 12 5ZM2 13V11.8502C2.10232 11.9085 2.20589 11.9637 2.31004 12.0158C3.56193 12.6417 5.22145 13 7 13C8.77855 13 10.4381 12.6417 11.69 12.0158C11.7941 11.9637 11.8977 11.9085 12 11.8502V13C12 13.2457 11.7749 13.7373 10.7955 14.2269C9.87593 14.6868 8.53545 15 7 15C5.46455 15 4.12407 14.6868 3.20446 14.2269C2.2251 13.7373 2 13.2457 2 13Z" fill="white"/>
</svg>
