<svg xmlns="http://www.w3.org/2000/svg" width="32" height="32" fill="none" viewBox="0 0 32 32">
    <path fill="#A32A29" fill-rule="evenodd" d="M10.934 26h10.132c.515 0 .934-.396.934-.883V9.383C22 9.17 21.819 9 21.595 9h-11.19c-.224 0-.405.171-.405.383v15.734c0 .487.419.883.934.883zM11 24.886V10h10v14.886c0 .063-.054.114-.12.114h-9.76c-.066 0-.12-.051-.12-.114z" clip-rule="evenodd"/>
    <path fill="#A32A29" d="M11 10v-.1h-.1v.1h.1zm10 0h.1v-.1H21v.1zm.066 15.9H10.934v.2h10.132v-.2zm.834-.783c0 .427-.369.783-.834.783v.2c.565 0 1.034-.436 1.034-.983h-.2zm0-15.734v15.734h.2V9.383h-.2zm-.305-.283c.174 0 .305.132.305.283h.2c0-.272-.231-.483-.505-.483v.2zm-11.19 0h11.19v-.2h-11.19v.2zm-.305.283c0-.151.13-.283.305-.283v-.2c-.274 0-.505.21-.505.483h.2zm0 15.734V9.383h-.2v15.734h.2zm.834.783c-.465 0-.834-.356-.834-.783h-.2c0 .547.47.983 1.034.983v-.2zM10.9 10v14.886h.2V10h-.2zM21 9.9H11v.2h10v-.2zm.1 14.986V10h-.2v14.886h.2zm-.22.214c.117 0 .22-.091.22-.214h-.2c0 .002 0 .005-.004.008-.003.003-.009.006-.016.006v.2zm-9.76 0h9.76v-.2h-9.76v.2zm-.22-.214c0 .123.103.214.22.214v-.2c-.007 0-.013-.003-.016-.006-.003-.003-.004-.006-.004-.008h-.2z"/>
    <path fill="#A32A29" fill-rule="evenodd" d="M21.53 15h3.3c.645 0 1.17-.541 1.17-1.206V8.206C26 7.541 25.475 7 24.83 7H7.17C6.526 7 6 7.541 6 8.206v5.588C6 14.459 6.525 15 7.17 15h3.3c.222 0 .4-.185.4-.412V9.635h10.26v4.953c0 .227.178.412.4.412zm3.108-1H21.8V9.321c0-.215-.175-.389-.39-.389H10.59c-.215 0-.39.174-.39.39V14H7.363c-.2 0-.363-.162-.363-.36V8.36c0-.198.163-.36.363-.36h17.275c.2 0 .362.162.362.36v5.28c0 .198-.162.36-.362.36z" clip-rule="evenodd"/>
    <path fill="#A32A29" d="M10.87 9.635v-.1h-.1v.1h.1zm10.26 0h.1v-.1h-.1v.1zM21.8 14h-.1v.1h.1V14zm-11.6 0v.1h.1V14h-.1zm14.63.9h-3.3v.2h3.3v-.2zm1.07-1.106c0 .613-.483 1.106-1.07 1.106v.2c.703 0 1.27-.589 1.27-1.306h-.2zm0-5.588v5.588h.2V8.206h-.2zM24.83 7.1c.587 0 1.07.493 1.07 1.106h.2c0-.717-.567-1.306-1.27-1.306v.2zm-17.66 0h17.66v-.2H7.17v.2zM6.1 8.206c0-.613.483-1.106 1.07-1.106v-.2c-.703 0-1.27.589-1.27 1.306h.2zm0 5.588V8.206h-.2v5.588h.2zM7.17 14.9c-.587 0-1.07-.493-1.07-1.106h-.2c0 .717.567 1.306 1.27 1.306v-.2zm3.3 0h-3.3v.2h3.3v-.2zm.3-.312c0 .175-.136.312-.3.312v.2c.28 0 .5-.232.5-.512h-.2zm0-4.953v4.953h.2V9.635h-.2zm10.36-.1H10.87v.2h10.26v-.2zm.1 5.053V9.635h-.2v4.953h.2zm.3.312c-.164 0-.3-.137-.3-.312h-.2c0 .28.22.512.5.512v-.2zm.27-.8h2.838v-.2H21.8v.2zm-.1-4.779V14h.2V9.321h-.2zm-.29-.289c.16 0 .29.13.29.29h.2c0-.271-.22-.49-.49-.49v.2zm-10.82 0h10.82v-.2H10.59v.2zm-.29.29c0-.16.13-.29.29-.29v-.2c-.27 0-.49.219-.49.49h.2zm0 4.678V9.321h-.2V14h.2zm-2.937.1H10.2v-.2H7.363v.2zm-.463-.46c0 .254.208.46.463.46v-.2c-.146 0-.263-.118-.263-.26h-.2zm0-5.28v5.28h.2V8.36h-.2zm.463-.46c-.255 0-.463.206-.463.46h.2c0-.142.117-.26.263-.26v-.2zm17.275 0H7.363v.2h17.275v-.2zm.462.46c0-.254-.208-.46-.462-.46v.2c.145 0 .262.117.262.26h.2zm0 5.28V8.36h-.2v5.28h.2zm-.462.46c.254 0 .462-.206.462-.46h-.2c0 .143-.117.26-.262.26v.2z"/>
    <path fill="#A32A29" fill-rule="evenodd" d="M8.338 12.94h2.133c.22 0 .4-.169.4-.377V9.317c0-.208-.18-.377-.4-.377H8.338c-.222 0-.4.169-.4.377v3.246c0 .208.178.377.4.377zm1.733-.753H8.738V9.693h1.333v2.494z" clip-rule="evenodd"/>
    <path fill="#A32A29" d="M8.738 12.187h-.1v.1h.1v-.1zm1.333 0v.1h.1v-.1h-.1zM8.738 9.693v-.1h-.1v.1h.1zm1.333 0h.1v-.1h-.1v.1zm.4 3.147H8.338v.2h2.133v-.2zm.3-.277c0 .147-.129.277-.3.277v.2c.27 0 .5-.208.5-.477h-.2zm0-3.246v3.246h.2V9.317h-.2zm-.3-.277c.171 0 .3.13.3.277h.2c0-.27-.23-.477-.5-.477v.2zm-2.133 0h2.133v-.2H8.338v.2zm-.3.277c0-.148.128-.277.3-.277v-.2c-.271 0-.5.208-.5.477h.2zm0 3.246V9.317h-.2v3.246h.2zm.3.277c-.172 0-.3-.13-.3-.277h-.2c0 .27.229.477.5.477v-.2zm.4-.553h1.333v-.2H8.738v.2zm-.1-2.594v2.494h.2V9.693h-.2zm1.433-.1H8.738v.2h1.333v-.2zm.1 2.594V9.693h-.2v2.494h.2z"/>
    <path fill="#A32A29" fill-rule="evenodd" d="M21.529 12.94h2.134c.22 0 .4-.169.4-.377V9.317c0-.208-.18-.377-.4-.377h-2.134c-.221 0-.4.169-.4.377v3.246c0 .208.179.377.4.377zm1.733-.753H21.93V9.693h1.334v2.494z" clip-rule="evenodd"/>
    <path fill="#A32A29" d="M21.929 12.187h-.1v.1h.1v-.1zm1.334 0v.1h.1v-.1h-.1zm-1.334-2.494v-.1h-.1v.1h.1zm1.334 0h.1v-.1h-.1v.1zm.4 3.147h-2.134v.2h2.134v-.2zm.3-.277c0 .147-.129.277-.3.277v.2c.27 0 .5-.208.5-.477h-.2zm0-3.246v3.246h.2V9.317h-.2zm-.3-.277c.171 0 .3.13.3.277h.2c0-.27-.23-.477-.5-.477v.2zm-2.134 0h2.134v-.2h-2.134v.2zm-.3.277c0-.148.128-.277.3-.277v-.2c-.27 0-.5.208-.5.477h.2zm0 3.246V9.317h-.2v3.246h.2zm.3.277c-.172 0-.3-.13-.3-.277h-.2c0 .27.23.477.5.477v-.2zm.4-.553h1.334v-.2h-1.334v.2zm-.1-2.594v2.494h.2V9.693h-.2zm1.433-.1H21.93v.2h1.334v-.2zm.1 2.594V9.693h-.2v2.494h.2z"/>
    <path fill="#A32A29" fill-rule="evenodd" d="M16.818 25.995h2.332c.221 0 .4-.171.4-.383V9.378c0-.212-.179-.383-.4-.383h-2.332c-.221 0-.4.171-.4.383v16.234c0 .212.179.383.4.383zm1.932-.765h-1.532V9.76h1.532v15.47z" clip-rule="evenodd"/>
    <path fill="#A32A29" d="M17.218 25.23h-.1v.1h.1v-.1zm1.532 0v.1h.1v-.1h-.1zM17.218 9.76v-.1h-.1v.1h.1zm1.532 0h.1v-.1h-.1v.1zm.4 16.135h-2.332v.2h2.332v-.2zm.3-.283c0 .152-.13.283-.3.283v.2c.272 0 .5-.212.5-.483h-.2zm0-16.234v16.234h.2V9.378h-.2zm-.3-.283c.17 0 .3.13.3.283h.2c0-.27-.228-.483-.5-.483v.2zm-2.332 0h2.332v-.2h-2.332v.2zm-.3.283c0-.152.13-.283.3-.283v-.2c-.272 0-.5.212-.5.483h.2zm0 16.234V9.378h-.2v16.234h.2zm.3.283c-.17 0-.3-.13-.3-.283h-.2c0 .271.228.483.5.483v-.2zm.4-.565h1.532v-.2h-1.532v.2zm-.1-15.57v15.47h.2V9.76h-.2zm1.632-.1h-1.532v.2h1.532v-.2zm.1 15.57V9.76h-.2v15.47h.2zM12.07 24.163c-.221 0-.4-.179-.4-.4V18.79c0-.221.179-.4.4-.4.221 0 .4.179.4.4v4.974c0 .22-.179.4-.4.4z"/>
</svg>
