<svg width="269" height="239" viewBox="0 0 269 239" fill="none" xmlns="http://www.w3.org/2000/svg">
<path d="M17.3925 141.662C36.031 205.311 110.075 213.532 161.425 186.702C185.899 173.923 207.006 150.328 217.749 123.897C226.598 113.973 231.94 101.422 232.955 88.1707C235.311 55.9848 215.467 28.5902 190.028 16.5981C165.22 4.90261 135.717 6.21859 108.572 10.3241C81.6669 14.3925 55.7642 28.34 38.6379 52.6115C21.3633 77.1147 8.90362 112.859 17.3925 141.662Z" fill="#F7F7F7"/>
<path d="M207.866 221.27L132.607 221.224C130.455 221.224 128.324 220.8 126.335 219.977C124.347 219.154 122.54 217.947 121.019 216.427C119.497 214.906 118.29 213.101 117.468 211.114C116.645 209.127 116.222 206.998 116.223 204.848V16.3756C116.222 14.224 116.645 12.0933 117.469 10.1054C118.293 8.11742 119.502 6.3113 121.025 4.79032C122.549 3.26934 124.357 2.06335 126.348 1.24138C128.339 0.419406 130.472 -0.00242654 132.626 1.04995e-05H207.885C210.041 1.87444e-06 212.177 0.425099 214.169 1.25095C216.161 2.07679 217.97 3.28715 219.493 4.81268C221.016 6.33821 222.222 8.14892 223.043 10.141C223.865 12.1332 224.284 14.2676 224.278 16.422V204.941C224.268 209.28 222.534 213.437 219.456 216.499C216.379 219.561 212.21 221.277 207.866 221.27Z" fill="#263238"/>
<path d="M207.84 6.70992H193.256C192.779 6.71953 192.309 6.8232 191.872 7.01496C191.436 7.20672 191.042 7.48278 190.712 7.82728C190.383 8.17178 190.125 8.57792 189.953 9.02235C189.782 9.46677 189.7 9.9407 189.712 10.4169V13.0581C189.724 13.5343 189.642 14.0083 189.471 14.4527C189.299 14.8971 189.041 15.3033 188.712 15.6478C188.382 15.9923 187.988 16.2683 187.551 16.4601C187.115 16.6518 186.645 16.7555 186.168 16.7651H157.723C157.247 16.7543 156.777 16.6498 156.341 16.4576C155.905 16.2654 155.511 15.9893 155.182 15.6451C154.853 15.3008 154.595 14.8952 154.423 14.4513C154.251 14.0074 154.168 13.534 154.179 13.0581V10.3798C154.19 9.90395 154.107 9.43054 153.935 8.98666C153.763 8.54278 153.505 8.13713 153.176 7.79288C152.847 7.44863 152.453 7.17253 152.017 6.98035C151.581 6.78817 151.112 6.68368 150.635 6.67285H132.73C129.685 6.67285 126.765 7.88035 124.611 10.03C122.458 12.1796 121.247 15.0954 121.244 18.1367V202.105C121.243 203.611 121.539 205.103 122.115 206.495C122.691 207.887 123.536 209.152 124.602 210.217C125.668 211.283 126.934 212.128 128.326 212.705C129.719 213.281 131.213 213.578 132.72 213.578L207.868 213.625C210.9 213.607 213.803 212.392 215.941 210.244C218.079 208.096 219.279 205.19 219.279 202.161V18.1923C219.284 15.1551 218.082 12.2401 215.938 10.0872C213.793 7.93441 210.881 6.71974 207.84 6.70992Z" fill="white"/>
<path d="M210.068 25.2814C210.068 25.3371 208.166 25.3928 205.828 25.4113C203.49 25.4299 201.588 25.4113 201.588 25.3557C201.588 25.3 203.444 25.2536 205.828 25.2258C208.213 25.1979 210.068 25.235 210.068 25.2814Z" fill="#263238"/>
<path d="M210.086 27.4503C210.086 27.4503 208.184 27.5523 205.846 27.5709C203.508 27.5894 201.606 27.5709 201.606 27.5709C201.606 27.5709 203.462 27.4595 205.846 27.441C208.23 27.4224 210.086 27.4039 210.086 27.4503Z" fill="#263238"/>
<path d="M210.107 29.6189C210.107 29.6652 208.205 29.7209 205.867 29.7395C203.528 29.758 201.626 29.7395 201.626 29.6838C201.626 29.6281 203.482 29.5817 205.867 29.5632C208.251 29.5446 210.107 29.5725 210.107 29.6189Z" fill="#263238"/>
<path d="M150.457 70.062H132.931V87.5683H150.457V70.062Z" fill="#E7515B"/>
<path d="M184.175 71.9434C184.175 72.0269 178.312 72.0918 171.084 72.0918C163.857 72.0918 157.993 72.0269 157.993 71.9434C157.993 71.8599 163.857 71.7949 171.084 71.7949C178.312 71.7949 184.175 71.8599 184.175 71.9434Z" fill="#E7515B"/>
<path d="M205.039 77.3092C205.039 77.3927 194.509 77.4577 181.521 77.4577C168.532 77.4577 157.993 77.3927 157.993 77.3092C157.993 77.2257 168.523 77.1608 181.521 77.1608C194.519 77.1608 205.039 77.2257 205.039 77.3092Z" fill="#263238"/>
<path d="M204.492 81.146C204.492 81.2295 194.083 81.2945 181.243 81.2945C168.402 81.2945 157.993 81.2295 157.993 81.146C157.993 81.0625 168.402 80.9976 181.243 80.9976C194.083 80.9976 204.492 81.0625 204.492 81.146Z" fill="#263238"/>
<path d="M185.447 84.7976C185.447 84.8811 179.305 84.9461 171.725 84.9461C164.144 84.9461 157.993 84.8811 157.993 84.7976C157.993 84.7141 164.144 84.6492 171.725 84.6492C179.305 84.6492 185.447 84.7141 185.447 84.7976Z" fill="#263238"/>
<path d="M150.457 99.2266H132.931V116.733H150.457V99.2266Z" fill="#E7515B"/>
<path d="M184.175 101.145C184.175 101.229 178.312 101.294 171.084 101.294C163.857 101.294 157.993 101.229 157.993 101.145C157.993 101.062 163.857 100.997 171.084 100.997C178.312 100.997 184.175 101.025 184.175 101.145Z" fill="#E7515B"/>
<path d="M205.039 106.474C205.039 106.558 194.509 106.623 181.521 106.623C168.532 106.623 157.993 106.558 157.993 106.474C157.993 106.391 168.523 106.326 181.521 106.326C194.519 106.326 205.039 106.391 205.039 106.474Z" fill="#263238"/>
<path d="M204.492 110.311C204.492 110.394 194.083 110.459 181.243 110.459C168.402 110.459 157.993 110.394 157.993 110.311C157.993 110.227 168.402 110.162 181.243 110.162C194.083 110.162 204.492 110.227 204.492 110.311Z" fill="#263238"/>
<path d="M185.447 113.962C185.447 114.045 179.305 114.11 171.725 114.11C164.144 114.11 157.993 114.045 157.993 113.962C157.993 113.878 164.144 113.813 171.725 113.813C179.305 113.813 185.447 113.878 185.447 113.962Z" fill="#263238"/>
<path d="M150.457 128.391H132.931V145.898H150.457V128.391Z" fill="#E7515B"/>
<path d="M184.175 130.272C184.175 130.356 178.312 130.421 171.084 130.421C163.857 130.421 157.993 130.356 157.993 130.272C157.993 130.189 163.857 130.124 171.084 130.124C178.312 130.124 184.175 130.189 184.175 130.272Z" fill="#E7515B"/>
<path d="M205.039 135.638C205.039 135.722 194.509 135.787 181.521 135.787C168.532 135.787 157.993 135.722 157.993 135.638C157.993 135.555 168.523 135.49 181.521 135.49C194.519 135.49 205.039 135.564 205.039 135.638Z" fill="#263238"/>
<path d="M204.492 139.475C204.492 139.559 194.083 139.623 181.243 139.623C168.402 139.623 157.993 139.559 157.993 139.475C157.993 139.391 168.402 139.327 181.243 139.327C194.083 139.327 204.492 139.391 204.492 139.475Z" fill="#263238"/>
<path d="M185.447 143.127C185.447 143.21 179.305 143.275 171.725 143.275C164.144 143.275 157.993 143.21 157.993 143.127C157.993 143.043 164.144 142.978 171.725 142.978C179.305 142.978 185.447 143.052 185.447 143.127Z" fill="#263238"/>
<path d="M150.457 157.556H132.931V175.063H150.457V157.556Z" fill="#E7515B"/>
<path d="M184.175 159.447C184.175 159.521 178.312 159.595 171.084 159.595C163.857 159.595 157.993 159.521 157.993 159.447C157.993 159.372 163.857 159.289 171.084 159.289C178.312 159.289 184.175 159.363 184.175 159.447Z" fill="#455B64"/>
<path d="M205.039 164.813C205.039 164.887 194.509 164.961 181.521 164.961C168.532 164.961 157.993 164.887 157.993 164.813C157.993 164.738 168.523 164.664 181.521 164.664C194.519 164.664 205.039 164.729 205.039 164.813Z" fill="#263238"/>
<path d="M204.492 168.64C204.492 168.723 194.083 168.788 181.243 168.788C168.402 168.788 157.993 168.723 157.993 168.64C157.993 168.556 168.402 168.491 181.243 168.491C194.083 168.491 204.492 168.556 204.492 168.64Z" fill="#263238"/>
<path d="M185.447 172.301C185.447 172.376 179.305 172.45 171.725 172.45C164.144 172.45 157.993 172.376 157.993 172.301C157.993 172.227 164.144 172.153 171.725 172.153C179.305 172.153 185.447 172.218 185.447 172.301Z" fill="#263238"/>
<path d="M150.457 186.721H132.931V204.227H150.457V186.721Z" fill="#E0E0E0"/>
<path d="M184.175 188.612C184.175 188.695 178.312 188.76 171.084 188.76C163.857 188.76 157.993 188.695 157.993 188.612C157.993 188.528 163.857 188.463 171.084 188.463C178.312 188.463 184.175 188.528 184.175 188.612Z" fill="#E0E0E0"/>
<path d="M205.039 193.978C205.039 194.061 194.509 194.126 181.521 194.126C168.532 194.126 157.993 194.061 157.993 193.978C157.993 193.894 168.523 193.829 181.521 193.829C194.519 193.829 205.039 193.894 205.039 193.978Z" fill="#EBEBEB"/>
<path d="M204.492 197.805C204.492 197.888 194.083 197.953 181.243 197.953C168.402 197.953 157.993 197.888 157.993 197.805C157.993 197.721 168.402 197.656 181.243 197.656C194.083 197.656 204.492 197.721 204.492 197.805Z" fill="#EBEBEB"/>
<path d="M185.447 201.466C185.447 201.549 179.305 201.614 171.725 201.614C164.144 201.614 157.993 201.549 157.993 201.466C157.993 201.382 164.144 201.317 171.725 201.317C179.305 201.317 185.447 201.382 185.447 201.466Z" fill="#EBEBEB"/>
<g opacity="0.3">
<path opacity="0.3" d="M150.457 157.556H132.931V175.063H150.457V157.556Z" fill="black"/>
</g>
<g opacity="0.3">
<path opacity="0.3" d="M150.457 99.2266H132.931V116.733H150.457V99.2266Z" fill="black"/>
</g>
<path d="M194.232 16.2505L148.273 22.2538L156.496 85.0713L202.455 79.068L194.232 16.2505Z" fill="#F5F6F6"/>
<path d="M184.714 12.7491L138.755 18.7524L146.978 81.57L192.937 75.5667L184.714 12.7491Z" fill="white"/>
<path d="M192.914 75.5855L192.859 75.2797C192.859 75.0758 192.794 74.7793 192.738 74.353C192.627 73.5282 192.469 72.4161 192.265 70.9333C191.866 67.9306 191.272 63.5193 190.53 58.033C189.055 46.9862 187.005 31.3056 184.509 12.7615L184.722 12.9283L138.78 18.9521L138.957 18.7112C142.018 42.1764 144.848 63.8993 147.139 81.5352L146.944 81.3777L180.343 77.1147L189.621 75.947L192.107 75.6504L192.933 75.5577L192.107 75.6782L189.686 76.0118L180.408 77.2629L146.944 81.7299H146.777V81.563C144.458 63.9549 141.61 42.2134 138.521 18.7575V18.5444H138.725L184.676 12.5205H184.862V12.7151C187.255 31.3334 189.278 47.0603 190.706 58.1257C191.402 63.6861 191.959 67.9955 192.33 70.9981C192.525 72.4717 192.655 73.6116 192.757 74.39L192.859 75.2612C192.942 75.4095 192.924 75.4929 192.914 75.5855Z" fill="#A42A29"/>
<path d="M168.462 27.7194C168.462 27.8399 163.462 28.5906 157.329 29.3968C151.196 30.2031 146.149 30.7591 146.14 30.6387C146.13 30.5182 151.131 29.7861 157.273 28.9705C163.415 28.155 168.472 27.6082 168.462 27.7194Z" fill="#A42A29"/>
<path d="M181.261 31.6395C181.261 31.7507 173.589 32.8535 164.089 34.0861C154.589 35.3187 146.87 36.2454 146.851 36.1249C146.833 36.0044 154.533 34.9109 164.033 33.6783C173.533 32.4457 181.271 31.4912 181.261 31.6395Z" fill="#A42A29"/>
<path d="M182.029 37.3019C182.029 37.4132 174.356 38.516 164.856 39.7578C155.356 40.9997 147.647 41.8801 147.61 41.7967C147.572 41.7133 155.282 40.5826 164.782 39.3408C174.282 38.0989 182.01 37.2 182.029 37.3019Z" fill="#A42A29"/>
<path d="M182.78 43.0012C182.78 43.1124 175.099 44.2152 165.608 45.4571C156.117 46.6989 148.379 47.6071 148.37 47.4867C148.361 47.3662 156.033 46.2726 165.552 45.04C175.071 43.8075 182.79 42.89 182.78 43.0012Z" fill="#A42A29"/>
<path d="M183.528 48.6914C183.528 48.8026 175.856 49.9055 166.346 51.1473C156.837 52.3892 149.137 53.3066 149.137 53.1862C149.137 53.0657 156.809 51.9721 166.309 50.7303C175.809 49.4884 183.51 48.5709 183.528 48.6914Z" fill="#A42A29"/>
<path d="M184.293 54.3906C184.293 54.5018 176.611 55.6046 167.12 56.8465C157.63 58.0883 149.892 58.9965 149.883 58.8853C149.874 58.7741 157.555 57.662 167.065 56.4202C176.574 55.1783 184.256 54.2701 184.293 54.3906Z" fill="#A42A29"/>
<path d="M185.006 60.0818C185.006 60.193 177.333 61.2958 167.833 62.5377C158.333 63.7795 150.624 64.697 150.633 64.5858C150.642 64.4746 158.305 63.3625 167.815 62.1206C177.324 60.8788 184.997 59.9613 185.006 60.0818Z" fill="#A42A29"/>
<path d="M169.853 67.8564C169.853 67.9676 165.733 68.6071 160.63 69.2743C155.528 69.9416 151.353 70.3864 151.353 70.2659C151.353 70.1455 155.463 69.5153 160.575 68.8573C165.687 68.1993 169.834 67.7823 169.853 67.8564Z" fill="#A42A29"/>
<path d="M268.876 220.464C268.876 227.155 157.63 239.147 109.832 238.999C61.1253 238.869 6.49951 229.991 6.49951 223.3C6.49951 216.608 49.1017 209.574 101.436 209.574C153.77 209.574 268.876 213.782 268.876 220.464Z" fill="#E0E0E0"/>
<path d="M175.554 89.2274C175.489 89.2274 174.107 79.6263 172.483 67.7825C170.859 55.9387 169.588 46.3098 169.7 46.3005C169.811 46.2913 171.147 55.8924 172.78 67.7454C174.413 79.5985 175.628 89.2088 175.554 89.2274Z" fill="#A42A29"/>
<path d="M216.053 36.7079C216.053 36.7079 216.053 36.7635 216.053 36.8562L215.886 37.2825L215.255 38.9135L212.917 44.9096C210.95 49.9696 208.278 56.9573 205.402 64.7698C202.525 72.5822 200.067 79.5977 198.295 84.7782L196.207 90.8577C195.957 91.562 195.771 92.1181 195.632 92.5166L195.474 92.9428L195.418 93.0819C195.418 93.0819 195.418 93.0355 195.418 92.9336L195.548 92.498C195.672 92.1026 195.848 91.5466 196.077 90.8299C196.541 89.3841 197.228 87.2897 198.09 84.7134C199.816 79.5606 202.275 72.471 205.132 64.6771C207.99 56.8831 210.699 49.8491 212.713 44.8447C213.715 42.324 214.568 40.2851 215.125 38.8765C215.422 38.1907 215.644 37.6532 215.802 37.2639L215.988 36.8469C216.006 36.7991 216.028 36.7526 216.053 36.7079Z" fill="#A42A29"/>
<path d="M245.069 74.4732C245.069 74.5288 238.083 80.0337 229.371 86.7526C220.659 93.4715 213.553 98.893 213.507 98.8003C213.46 98.7076 220.493 93.2398 229.213 86.5117C237.934 79.7835 245.031 74.4176 245.069 74.4732Z" fill="#A42A29"/>
<path d="M158.501 91.0161C158.445 91.0161 155.717 87.5964 152.433 83.287C149.148 78.9776 146.504 75.4467 146.56 75.4004C146.616 75.354 149.343 78.8201 152.637 83.1294C155.931 87.4388 158.556 90.9512 158.501 91.0161Z" fill="#A42A29"/>
<path d="M241.76 118.058C241.76 118.132 237.427 116.937 232.139 115.389C226.85 113.841 222.564 112.544 222.583 112.479C222.601 112.414 226.915 113.6 232.204 115.148C237.492 116.696 241.779 117.993 241.76 118.058Z" fill="#A42A29"/>
<path d="M80.5238 91.099C75.5047 90.1723 63.4718 89.3104 57.8032 92.4243C57.8032 92.4243 57.896 97.5584 60.1783 99.0876C62.4605 100.617 81.5165 88.013 89.7641 107.604C89.7641 107.604 89.8662 92.7764 80.4867 91.099H80.5238Z" fill="#B72F49"/>
<path d="M53.704 173.653L49.6312 183.718C49.6312 183.718 21.6225 177.657 6.40745 182.698C0.618307 184.598 -3.87199 198.926 5.97141 206.367C15.5365 213.578 73.7991 224.244 73.0569 224.254C72.3147 224.263 89.6728 224.606 89.6728 224.606L91.5283 209.018L123.823 209.602C148.288 207.285 149.262 182.587 136.533 179.742C122.2 176.545 100.296 175.108 100.296 175.108L96.8165 167.268L53.704 173.653Z" fill="#8B383F"/>
<path d="M87.5021 160.151C87.3866 160.408 87.2468 160.653 87.0846 160.883C86.6795 161.529 86.2332 162.148 85.7486 162.736C85.0325 163.63 84.2576 164.476 83.4291 165.267C81.3988 167.199 79.0674 168.789 76.5263 169.974C75.4942 170.466 74.4275 170.881 73.3347 171.216C72.6017 171.45 71.855 171.639 71.0987 171.782C70.8262 171.855 70.5458 171.896 70.2637 171.902C70.2637 171.837 71.4327 171.615 73.2604 170.975C74.3269 170.607 75.3709 170.177 76.3871 169.687C77.6307 169.079 78.8305 168.386 79.9777 167.611C81.1231 166.839 82.2199 165.997 83.2621 165.09C84.091 164.324 84.8718 163.507 85.6001 162.644C86.8063 161.133 87.4464 160.114 87.5021 160.151Z" fill="#263238"/>
<path d="M100.427 165.739C100.427 165.841 99.2668 166.008 97.9308 166.545C96.5948 167.083 95.6206 167.759 95.5557 167.676C96.1687 167.011 96.9415 166.513 97.8009 166.23C98.619 165.843 99.5236 165.674 100.427 165.739Z" fill="#263238"/>
<g opacity="0.3">
<path opacity="0.3" d="M73.2452 171.161C78.7786 169.338 83.5093 165.657 86.6332 160.744C87.1156 161.732 87.3162 162.833 87.2131 163.926C87.11 165.02 86.7071 166.064 86.0487 166.944C87.8115 167.5 89.6857 166.713 91.467 166.212C93.2484 165.712 95.5122 165.647 96.5977 167.139C88.5759 169.02 80.4408 170.382 72.2432 171.216" fill="black"/>
</g>
<path d="M162.839 84.7688C162.742 84.5912 162.61 84.4353 162.45 84.311C162.291 84.1866 162.107 84.0964 161.911 84.0459L162.44 82.6373C162.346 82.1713 162.163 81.7276 161.902 81.3306C161.521 80.8023 160.38 80.9691 160.38 80.9691L160.51 80.5799C160.621 80.3033 160.657 80.0021 160.613 79.7072C160.569 79.4124 160.447 79.1346 160.26 78.9025L160.065 78.6986C159.625 78.355 159.091 78.1515 158.534 78.1148C158.534 78.1148 159.091 76.771 158.71 76.2613C157.328 74.5375 152.634 78.2352 151.641 78.6615C149.303 79.6717 151.279 79.8478 149.377 80.7282C149.232 80.8168 149.071 80.8755 148.903 80.9011C148.734 80.9267 148.563 80.9185 148.398 80.8771C148.233 80.8357 148.078 80.7619 147.942 80.6599C147.806 80.558 147.691 80.43 147.605 80.2833C146.85 78.6691 145.845 77.1836 144.627 75.8813C143.236 74.5283 142.094 74.7692 141.445 75.1028C141.372 75.1402 141.309 75.193 141.259 75.2576C141.209 75.3222 141.174 75.3969 141.157 75.4765C141.139 75.556 141.139 75.6385 141.157 75.7181C141.175 75.7977 141.21 75.8724 141.259 75.9369C142.031 76.911 142.74 77.9324 143.384 78.9952C143.801 79.82 144.841 86.2331 144.841 86.2331L143.43 89.7918L128.54 119.902C128.54 119.902 99.6221 104.592 99.6778 104.147L100.606 125.119L122.38 136.453C124.245 137.427 126.301 137.981 128.404 138.076C130.507 138.17 132.604 137.804 134.55 137.002C136.496 136.2 138.241 134.981 139.665 133.433C141.089 131.884 142.155 130.043 142.79 128.039L150.583 97.9749L151.984 95.3708L162.561 88.4665C162.928 87.9288 163.147 87.304 163.196 86.6549C163.245 86.0058 163.122 85.3553 162.839 84.7688Z" fill="#8F5045"/>
<path d="M157.108 79.1533C156.774 79.4127 156.393 79.6259 156.05 79.8668L154.992 80.599C154.566 80.8955 154.12 81.1736 153.684 81.4516C153.426 81.4752 153.179 81.5681 152.97 81.7203C152.722 81.8887 152.492 82.0812 152.283 82.2949L152.209 82.3783H152.116L151.94 82.2671H151.875L151.819 82.2208L151.671 82.0725L151.578 81.9613V81.8964L151.439 81.7667C151.439 81.7667 151.439 81.7667 151.393 81.7667C151.362 81.7428 151.327 81.724 151.291 81.7111C151.273 81.7021 151.254 81.6975 151.235 81.6975C151.215 81.6975 151.196 81.7021 151.179 81.7111C151.179 81.7111 151.124 81.7574 151.105 81.7945C151.066 81.8721 151.045 81.9578 151.045 82.0447C151.045 82.1316 151.066 82.2173 151.105 82.2949C151.123 82.343 151.144 82.3895 151.17 82.4339C151.198 82.4845 151.232 82.5312 151.272 82.5729C151.311 82.6207 151.354 82.6642 151.402 82.7027L151.615 82.8602C151.688 82.9047 151.766 82.939 151.847 82.9622H151.931C151.691 83.2833 151.503 83.6397 151.374 84.0187C151.267 84.2982 151.243 84.6029 151.306 84.8957C151.368 85.1885 151.514 85.4568 151.727 85.6683C151.906 85.8506 152.141 85.968 152.395 86.0019C152.483 86.0251 152.575 86.0251 152.664 86.0019C152.716 85.9853 152.764 85.9567 152.803 85.9185H152.747C152.872 85.8715 152.975 85.7787 153.035 85.659C153.049 85.636 153.057 85.61 153.059 85.5831C153.06 85.5563 153.055 85.5294 153.045 85.5048C153.034 85.4803 153.017 85.4587 152.996 85.442C152.975 85.4252 152.95 85.4139 152.923 85.4088H152.71C152.574 85.3753 152.441 85.332 152.311 85.279C152.179 85.2069 152.074 85.0928 152.014 84.9547C151.955 84.7422 151.946 84.5192 151.986 84.3025C152.026 84.0857 152.115 83.8809 152.246 83.7036C152.47 83.3225 152.745 82.9733 153.063 82.6656C153.23 82.5081 153.387 82.3598 153.564 82.2115C153.663 82.1323 153.756 82.0455 153.842 81.952C154.35 81.6702 154.843 81.3608 155.317 81.0253C155.66 80.7936 155.985 80.5341 156.31 80.2654C156.635 79.9966 156.922 79.6352 157.238 79.3386C157.182 79.1811 157.145 79.1347 157.108 79.1533Z" fill="#703E38"/>
<path d="M158.889 81.9336C158.447 82.103 158.038 82.351 157.683 82.6657L156.477 83.5925C156.088 83.8797 155.689 84.1485 155.308 84.4358C154.928 84.7231 154.584 85.0567 154.232 85.3626C154.232 85.3626 154.232 85.4367 154.232 85.4274C154.688 85.2797 155.131 85.0968 155.559 84.8806C155.995 84.643 156.42 84.3832 156.83 84.1022C157.238 83.8334 157.637 83.5646 158.027 83.2866C158.459 83.0272 158.832 82.6799 159.121 82.2672C159.144 82.2304 159.155 82.188 159.153 82.1451C159.152 82.1022 159.138 82.0605 159.114 82.0252C159.089 81.9899 159.055 81.9625 159.015 81.9463C158.975 81.93 158.932 81.9256 158.889 81.9336Z" fill="#703E38"/>
<path d="M160.618 85.1026C160.413 85.144 160.221 85.2364 160.061 85.3714C159.848 85.5104 159.635 85.6587 159.43 85.8162L158.169 86.743C157.315 87.3454 156.406 87.8643 155.589 88.5131C155.294 88.6665 154.983 88.7876 154.662 88.8745C154.251 88.9678 153.819 88.9016 153.455 88.6892C153.289 88.5986 153.15 88.4646 153.053 88.3014C152.957 88.1382 152.907 87.9519 152.908 87.7624C152.928 87.5364 152.991 87.3163 153.094 87.1137C153.205 86.9005 153.298 86.6781 153.428 86.4742C153.428 86.4742 153.428 86.4186 153.381 86.4742C153.191 86.6596 153.017 86.8611 152.862 87.0766C152.718 87.3007 152.626 87.554 152.593 87.818C152.581 88.0465 152.628 88.2741 152.731 88.4788C152.833 88.6834 152.987 88.858 153.177 88.9857C153.542 89.2411 153.985 89.3623 154.43 89.3286C154.326 89.4115 154.238 89.5119 154.17 89.6252C154.021 89.8996 153.964 90.215 154.009 90.5241C154.055 90.8331 154.199 91.1193 154.42 91.3397C154.678 91.5961 154.997 91.7814 155.348 91.8772C155.564 91.9267 155.785 91.9485 156.007 91.942C156.23 91.942 156.554 91.942 156.647 91.6918C156.673 91.6554 156.688 91.6116 156.688 91.5667C156.688 91.5218 156.673 91.478 156.647 91.4416C156.499 91.2933 156.322 91.3397 156.137 91.3582C155.986 91.3721 155.833 91.3721 155.682 91.3582C155.403 91.3523 155.129 91.2792 154.884 91.145C154.687 91.009 154.538 90.8128 154.461 90.5856C154.384 90.3585 154.383 90.1126 154.457 89.8847C154.537 89.6389 154.693 89.4248 154.903 89.273C155.337 89.1883 155.75 89.0182 156.118 88.7726C156.984 88.3591 157.802 87.8525 158.558 87.262C158.976 86.9561 159.375 86.6318 159.764 86.3352C159.978 86.1637 160.176 85.9746 160.358 85.7699C160.533 85.6263 160.665 85.437 160.739 85.2231C160.739 85.2231 160.646 85.0934 160.618 85.1026Z" fill="#703E38"/>
<path d="M62.945 96.5297L53.9922 99.4489L60.3937 116.075L76.9725 117.836L87.252 108.772L87.7808 99.1709L77.8631 96.5853L62.945 96.5297Z" fill="#D0D8DC"/>
<path d="M56.6238 98.4579C56.6238 98.4579 64.7323 115.769 76.0045 112.897C87.2766 110.024 85.115 98.4764 85.115 98.4764C85.115 98.4764 97.454 100.84 101.555 104.324C105.655 107.809 104.394 116.446 104.394 116.446L102.909 131.988L99.2724 161.847C99.2724 161.847 103.911 173.172 97.5375 175.841L85.4768 179.326L56.3548 181.411C56.3548 181.411 47.0773 185.118 44.0436 182.004C41.0098 178.89 37.7998 172.653 37.7998 172.653L48.5802 101.479L56.6238 98.4579Z" fill="#D0D8DC"/>
<path d="M98.1636 102.359C98.4976 102.507 128.38 119.708 128.38 119.708L143.002 89.2921C143.373 93.6293 148.114 99.1063 152.511 97.2343C152.511 97.2343 140.293 148.307 132.704 146.166C130.542 145.564 100.056 130.69 100.056 130.69L93.395 119.68L98.1636 102.359Z" fill="#D0D8DC"/>
<g opacity="0.3">
<path opacity="0.3" d="M56.6447 146.759C54.8881 142.292 53.1408 137.828 51.4027 133.367C51.1429 132.719 50.7532 131.959 50.0574 131.912C49.7299 131.929 49.421 132.069 49.1935 132.305C48.966 132.541 48.837 132.855 48.8327 133.182C48.7983 133.857 48.8577 134.534 49.009 135.193C49.6213 138.159 50.076 140.17 51.7181 142.338C54.919 146.564 53.3603 148.946 53.3603 148.946C54.1582 154.432 54.4922 161.985 53.3603 167.824L55.7077 174.469C56.7004 169.233 59.7621 164.636 59.7899 159.307C59.8363 154.97 58.2127 150.8 56.6447 146.759Z" fill="black"/>
</g>
<g opacity="0.3">
<path opacity="0.3" d="M102.891 132.08C107.632 133.933 111.964 136.714 116.613 138.771C114.498 135.211 111.354 132.375 107.595 130.634C106.631 130.144 105.535 129.975 104.468 130.152C103.419 130.412 102.724 131.079 102.993 132.126" fill="black"/>
</g>
<g opacity="0.3">
<path opacity="0.3" d="M127.584 119.476C126.053 119.606 125.042 121.117 124.43 122.534C122.711 126.561 122.309 131.027 123.279 135.296C123.456 136.065 123.836 136.964 124.625 137.029C124.908 137.03 125.184 136.941 125.413 136.774C125.641 136.607 125.811 136.372 125.896 136.102C126.05 135.553 126.075 134.976 125.97 134.415C125.682 131.783 124.94 129.633 125.33 126.529C125.771 124.09 126.529 121.719 127.584 119.476Z" fill="black"/>
</g>
<path d="M80.8623 86.7061L78.7191 101.617C78.7191 101.617 70.5545 107.567 60.8961 98.8372C62.2237 91.8882 61.5216 84.7043 58.8735 78.143C58.8735 78.143 60.2374 78.0781 62.4084 78.143C62.4084 78.143 65.7485 89.0415 80.8623 86.7524V86.7061Z" fill="#703E38"/>
<path d="M57.1503 68.5418C59.2841 90.7003 80.9377 91.627 85.5857 82.8693C87.0794 80.0891 88.2113 75.1032 88.6473 69.7836C88.7586 68.5789 88.8236 67.3648 88.8421 66.1415C88.9998 57.8657 87.3299 49.6918 82.5242 47.9866C65.8247 42.0461 55.0257 46.3833 57.1503 68.5418Z" fill="#8F5045"/>
<path d="M89.4109 49.5252C90.1624 47.9682 89.4109 45.6884 87.3884 45.4938L87.3328 45.3826C87.5163 44.7043 87.4402 43.9819 87.1194 43.3565C86.7987 42.7312 86.2563 42.2475 85.5979 42V41.9444C85.651 41.9566 85.7013 41.9786 85.7463 42.0093L85.5886 41.9073C85.5798 41.5445 85.4949 41.1876 85.3394 40.8596C85.1839 40.5316 84.9613 40.2399 84.6858 40.0032C84.4104 39.7665 84.0884 39.5902 83.7405 39.4855C83.3926 39.3809 83.0266 39.3504 82.6662 39.3958C82.4487 39.4205 82.2342 39.4671 82.0261 39.5349C81.7696 39.1424 81.4066 38.8311 80.9793 38.6374C80.5521 38.4437 80.0785 38.3757 79.6139 38.4413C79.4142 38.4583 79.2176 38.5019 79.0294 38.571C78.7556 38.3244 78.4308 38.1409 78.0781 38.0336C77.7254 37.9263 77.3534 37.8978 76.9884 37.9501C76.79 37.9706 76.5942 38.0109 76.4039 38.0706C75.8713 37.6814 75.2141 37.5013 74.5573 37.5645C73.9004 37.6277 73.2898 37.9299 72.8414 38.4135C72.5723 38.0669 72.2154 37.7982 71.8077 37.6353C71.4 37.4724 70.9562 37.4211 70.522 37.4867C70.0508 37.5285 69.5993 37.6948 69.2139 37.9687C68.9496 37.7562 68.6443 37.6005 68.3171 37.5112C67.9898 37.4219 67.6477 37.401 67.312 37.4497C66.7511 37.4905 66.2195 37.7153 65.7997 38.0891C65.3603 37.8943 64.8757 37.8238 64.3989 37.8852C64.1701 37.913 63.9458 37.9691 63.7309 38.0521C63.2628 37.8526 62.7489 37.7851 62.2451 37.857C61.7413 37.9289 61.2669 38.1374 60.8734 38.4598C60.4616 38.2829 60.0108 38.2158 59.5653 38.2652C59.0109 38.3012 58.485 38.523 58.0725 38.8947C57.66 39.2664 57.3851 39.7662 57.2923 40.3133H57.2181C56.8805 40.3401 56.5517 40.4336 56.2505 40.5882C55.9494 40.7428 55.6819 40.9555 55.4636 41.2141C55.2453 41.4727 55.0805 41.7719 54.9788 42.0945C54.8771 42.4171 54.8404 42.7567 54.8709 43.0936C54.4789 42.9532 54.059 42.9088 53.6463 42.9638C53.2303 43.0077 52.8306 43.1488 52.4794 43.3758C52.1283 43.6027 51.8356 43.9091 51.625 44.2701C51.4145 44.6311 51.2921 45.0366 51.2677 45.4537C51.2433 45.8708 51.3176 46.2878 51.4846 46.6708H51.3454C50.9548 46.707 50.5772 46.8299 50.2402 47.0304C49.9031 47.231 49.6152 47.5042 49.3974 47.8302C49.1796 48.1561 49.0374 48.5265 48.9811 48.9144C48.9249 49.3022 48.9561 49.6977 49.0725 50.072C47.0036 50.8226 46.9572 53.677 48.488 54.8447C47.8924 55.304 47.4993 55.9769 47.3919 56.7208C47.2846 57.4646 47.4714 58.2211 47.9128 58.8297C47.8382 59.2872 47.8697 59.7557 48.0048 60.1991C48.1399 60.6425 48.375 61.0491 48.6921 61.3875C48.3746 62.0037 48.2825 62.7112 48.4316 63.388C48.5806 64.0647 48.9615 64.6683 49.5085 65.0945C50.5847 72.11 54.0266 79.1162 61.161 82.9714L59.7416 78.0133C59.7416 78.0133 56.7635 73.704 57.4036 70.4604C58.0438 67.2168 60.0384 69.5336 60.0384 69.5336C60.0384 69.5336 64.2226 60.8407 63.6567 55.4749L63.0815 50.109C63.0815 50.109 78.6769 44.7617 86.4143 51.7216L86.6091 51.666C86.6342 51.9228 86.711 52.172 86.8347 52.3986C86.9585 52.6252 87.1268 52.8245 87.3295 52.9845C87.5322 53.1446 87.7651 53.2622 88.0144 53.3302C88.2636 53.3982 88.524 53.4153 88.7801 53.3804C91.0067 53.2136 91.0345 50.2758 89.4109 49.5252Z" fill="#0E3944"/>
<path d="M59.4734 68.4491C59.4734 68.4491 55.7623 64.2603 52.4779 66.9015C49.1935 69.5427 54.9087 77.2532 58.5271 76.9103C62.1455 76.5674 59.4549 68.4491 59.4549 68.4491H59.4734Z" fill="#8F5045"/>
<path d="M59.8071 210.037C59.8071 210.037 35.3702 217.359 34.0157 217.831C25.5639 220.806 31.483 237.571 47.6722 232.956C50.6966 232.344 71.3019 225.894 71.3019 225.894L59.8071 210.037Z" fill="#0E3944"/>
<path d="M48.9379 224.402C48.7152 223.717 48.474 223.04 48.205 222.373C47.9359 221.705 47.6576 221.094 47.3514 220.464C47.11 219.823 46.6957 219.262 46.1545 218.842C46.1242 218.821 46.0893 218.808 46.0529 218.805C46.0165 218.801 45.9796 218.806 45.9457 218.82C45.9117 218.833 45.8817 218.855 45.8582 218.883C45.8348 218.912 45.8186 218.945 45.8112 218.981C45.7877 219.639 45.9213 220.293 46.2009 220.89C46.4236 221.548 46.6463 222.215 46.8597 222.882C47.0731 223.55 47.2772 224.208 47.4813 224.884C47.5644 225.594 47.8403 226.267 48.2792 226.83C48.3581 226.892 48.4505 226.934 48.5488 226.953C48.6472 226.972 48.7486 226.967 48.8447 226.939C48.9407 226.911 49.0288 226.86 49.1015 226.791C49.1741 226.722 49.2294 226.637 49.2626 226.543C49.376 225.813 49.2626 225.066 48.9379 224.402Z" fill="#D0D8DC"/>
<path d="M54.3635 224.198C53.8347 223.16 53.343 222.103 52.8605 221.047C52.6193 220.528 52.378 220.009 52.1183 219.499C51.8585 218.989 51.6544 218.396 51.1348 218.257L51.0235 218.137C50.9492 218.044 50.7544 218.072 50.7544 218.211C50.7544 218.35 50.6338 218.489 50.606 218.665C50.5923 218.794 50.5923 218.925 50.606 219.054C50.6569 219.369 50.7345 219.679 50.8379 219.981C50.9956 220.528 51.1905 221.065 51.3946 221.603C51.8399 222.706 52.3224 223.771 52.8698 224.837C52.9237 224.968 53.0117 225.082 53.1246 225.168C53.2375 225.254 53.3712 225.308 53.512 225.325C53.6529 225.342 53.7957 225.321 53.9258 225.265C54.0559 225.209 54.1686 225.118 54.2522 225.004C54.3444 224.893 54.4037 224.759 54.4234 224.617C54.443 224.474 54.4223 224.329 54.3635 224.198Z" fill="#D0D8DC"/>
<path d="M90.5474 208.49C90.5474 208.49 115.903 208.925 117.313 208.879C125.663 208.638 128.186 222.678 115.021 223.614C111.988 223.828 86.8179 224.439 86.8179 224.439L90.5474 208.49Z" fill="#0E3944"/>
<path d="M97.1207 212.984C97.1086 212.919 97.0783 212.859 97.0334 212.81C96.9885 212.761 96.9308 212.726 96.8669 212.709C96.803 212.692 96.7355 212.692 96.6721 212.712C96.6087 212.731 96.5519 212.767 96.5084 212.817C96.3245 213.102 96.1897 213.415 96.1094 213.744C96.0074 214.105 95.9053 214.467 95.8218 214.828C95.6363 215.542 95.4971 216.265 95.3765 216.988C95.2306 217.7 95.1345 218.421 95.0889 219.147C95.0889 219.907 95.9424 220.704 96.6568 220.139C96.7616 220.058 96.8427 219.952 96.8917 219.829C96.9407 219.707 96.9557 219.574 96.9352 219.444C96.9125 219.322 96.8617 219.208 96.7867 219.11C96.9422 218.21 97.029 217.299 97.0465 216.385L97.13 214.708C97.13 214.513 97.13 214.319 97.13 214.124C97.1967 213.747 97.1936 213.36 97.1207 212.984Z" fill="#D0D8DC"/>
<path d="M101.928 213.282C101.897 213.206 101.857 213.134 101.807 213.068C101.798 213.062 101.786 213.058 101.775 213.058C101.763 213.058 101.752 213.062 101.742 213.068C101.343 213.509 101.112 214.077 101.093 214.672C100.972 215.274 100.907 215.886 100.842 216.525C100.637 217.782 100.529 219.052 100.518 220.325C100.518 221.122 101.844 221.103 101.909 220.325C101.909 220.325 101.909 220.241 101.909 220.195C101.96 220.137 102.001 220.072 102.03 220C102.131 219.683 102.172 219.35 102.15 219.018C102.15 218.712 102.15 218.397 102.15 218.091C102.15 217.498 102.225 216.905 102.28 216.312C102.336 215.719 102.401 215.126 102.457 214.533C102.512 214.097 102.494 213.282 101.928 213.282Z" fill="#D0D8DC"/>
<path d="M109.697 142.663C112.165 147.408 112.48 159.808 111.079 163.246C109.465 167.138 100.02 166.555 100.02 166.555C100.02 166.555 96.7168 135.573 93.4602 120.004C90.2036 104.435 82.2432 95.4454 82.2432 95.4454C82.2432 95.4454 98.86 94.1943 102.395 103.119C104.131 107.358 104.858 111.942 104.52 116.51C104.462 117.274 104.35 118.033 104.186 118.781H104.325C104.872 118.781 106.783 119.43 108.806 125.87C111.2 133.479 108.565 141.199 108.565 141.199C109.043 141.604 109.429 142.106 109.697 142.672V142.663Z" fill="#EF4153"/>
<path d="M90.2736 109.486C90.2736 109.486 92.0364 99.6993 88.1211 95.5845C84.2058 91.4697 80.4297 91.1361 80.4297 91.1361C80.4297 91.1361 85.5047 94.9821 86.4418 97.7716C87.3788 100.561 90.2736 109.486 90.2736 109.486Z" fill="#CE374C"/>
<path d="M94.4707 119.884C97.9875 119.338 101.386 118.197 104.519 116.51C104.461 117.274 104.349 118.033 104.185 118.781C104.185 118.781 98.0242 120.292 94.4707 119.884Z" fill="#CE374C"/>
<path d="M109.691 142.663C106.304 143.25 102.864 143.471 99.4297 143.321C99.4297 143.321 106.054 142.645 108.559 141.19C109.037 141.595 109.423 142.097 109.691 142.663Z" fill="#CE374C"/>
<path d="M69.0038 110.024C69.0038 110.024 70.9522 99.8293 69.6533 96.8174C68.3544 93.8055 58.2507 91.4793 57.4528 92.5265C56.6549 93.5738 55.9683 96.4652 57.3044 99.6996C57.3044 99.6996 63.4464 99.9498 69.0038 110.024Z" fill="#CE374C"/>
<path d="M80.5255 91.0985L79.3657 97.1409C83.346 98.3179 87.1221 101.293 89.7663 107.604C89.7663 107.604 89.8683 92.7759 80.4883 91.0985H80.5255Z" fill="#B72F49"/>
<path d="M76.0892 137.853C78.826 163.886 72.4802 172.569 72.4802 172.569C72.4802 172.569 53.582 177.203 49.6855 173.783C45.7889 170.364 47.83 157.843 47.83 157.843C47.0464 156.361 46.3404 154.839 45.7147 153.284C45.2323 152.125 44.7127 150.782 44.2303 149.327C43.7479 147.872 43.3026 146.333 42.9408 144.739C42.1925 141.626 42.3242 138.366 43.3211 135.323C43.5487 134.571 43.8599 133.847 44.2489 133.164C44.2489 133.164 38.8587 118.484 39.7215 111.608C39.8957 110.167 40.3834 108.782 41.1502 107.549C45.2972 100.719 56.5508 98.4667 56.5508 98.4667C59.835 98.9671 69.2517 103.378 72.9163 119.17L76.0892 137.853Z" fill="#EF4153"/>
<path d="M69.4284 123.535C66.9699 127.594 49.8622 129.725 49.8622 129.725C49.8622 129.725 40.4549 147.556 49.1664 151.745C57.7203 155.85 71.5994 150.698 72.1096 150.512C69.2522 153.45 49.7231 157.444 45.7616 153.293C45.5785 153.109 45.428 152.896 45.3163 152.662C44.836 151.601 44.493 150.483 44.2957 149.335C43.5568 144.706 43.2462 140.019 43.368 135.332C43.5955 134.58 43.9067 133.856 44.2957 133.173C44.2957 133.173 38.9055 118.493 39.7683 111.617C39.9426 110.176 40.4303 108.791 41.1971 107.558C51.4023 106.631 54.3433 125.268 54.3433 125.268C57.2842 125.963 69.4006 123.553 69.4006 123.553L69.4284 123.535Z" fill="#CE374C"/>
<path d="M66.694 210.612L62.2687 203.291L50.9687 161.467C50.9687 161.467 42.387 157.139 36.1247 167.954C35.8742 168.39 47.1371 198.175 50.2729 206.461L51.08 214.495C51.08 214.495 51.08 224.069 51.6367 224.875C52.0855 225.44 52.6878 225.865 53.3715 226.098C53.3428 226.436 53.3888 226.777 53.5063 227.095C53.6239 227.414 53.81 227.703 54.0517 227.941C54.2933 228.18 54.5845 228.363 54.9046 228.477C55.2247 228.591 55.566 228.633 55.9043 228.6C55.9043 228.6 56.2847 231.214 58.2979 230.741C58.8473 230.64 59.3686 230.423 59.8264 230.103C60.2842 229.783 60.6678 229.369 60.9512 228.888C60.9512 228.888 61.1275 232.224 62.8995 231.77C64.6715 231.316 64.8942 229.87 65.2003 229.379C65.5065 228.888 65.6178 223.967 65.6178 223.967L65.1539 215.886L70.0246 219.416C71.407 220.019 73.4202 220.742 74.4964 219.676L66.694 210.612Z" fill="#8F5045"/>
<path d="M41.211 108.995C33.7329 112.211 33.3618 152.654 33.2783 161.819C33.2783 161.819 47.7426 202.374 48.6148 204.635C50.1642 208.676 62.8657 200.928 62.8657 200.928L51.2311 159.938L50.1735 130.801C50.1735 130.801 52.1589 121.645 48.8467 115.111C45.5345 108.578 41.211 108.995 41.211 108.995Z" fill="#D0D8DC"/>
<path d="M241.601 108.17H126.792C124.966 108.17 123.215 108.894 121.924 110.184C120.633 111.473 119.908 113.222 119.908 115.046V160.874C119.911 162.696 120.637 164.443 121.928 165.73C123.218 167.018 124.968 167.741 126.792 167.741H241.601C243.425 167.741 245.175 167.018 246.465 165.73C247.756 164.443 248.482 162.696 248.485 160.874V115.046C248.485 113.222 247.76 111.473 246.469 110.184C245.178 108.894 243.427 108.17 241.601 108.17Z" fill="#FAFBFB"/>
<path d="M241.601 108.17L150.459 108.29H127.674C126.737 108.237 125.798 108.331 124.89 108.568C123.995 108.828 123.166 109.276 122.46 109.884C121.749 110.484 121.171 111.224 120.762 112.058C120.353 112.893 120.123 113.803 120.085 114.731V126.167V148.928V160.309C120.018 161.23 120.14 162.156 120.443 163.029C120.746 163.902 121.224 164.704 121.847 165.387C122.471 166.064 123.228 166.605 124.071 166.975C124.914 167.345 125.825 167.537 126.746 167.537L217.888 167.648H240.673C241.61 167.699 242.549 167.605 243.457 167.37C244.359 167.108 245.197 166.66 245.915 166.054C246.635 165.447 247.221 164.696 247.637 163.851C248.052 163.006 248.287 162.083 248.327 161.143V149.771V127.011V115.639C248.396 114.691 248.271 113.739 247.96 112.84C247.649 111.942 247.159 111.116 246.518 110.413C245.894 109.725 245.136 109.172 244.291 108.786C243.445 108.4 242.53 108.191 241.601 108.17ZM241.601 108.17C242.556 108.171 243.5 108.37 244.373 108.754C245.247 109.139 246.031 109.7 246.676 110.403C247.323 111.106 247.82 111.932 248.139 112.832C248.458 113.732 248.591 114.687 248.531 115.639V127.02V149.781V161.161C248.492 162.123 248.252 163.066 247.829 163.93C247.406 164.795 246.808 165.562 246.073 166.184C245.34 166.807 244.483 167.268 243.559 167.537C242.631 167.785 241.669 167.882 240.71 167.825H217.925L126.783 167.945C125.798 167.942 124.824 167.734 123.923 167.335C123.023 166.936 122.215 166.355 121.551 165.628C120.896 164.902 120.395 164.052 120.076 163.129C119.757 162.205 119.628 161.227 119.695 160.253V148.9V126.139V114.75C119.734 113.778 119.977 112.825 120.406 111.952C120.836 111.079 121.444 110.305 122.191 109.68C122.931 109.048 123.797 108.58 124.733 108.309C125.667 108.065 126.635 107.971 127.599 108.031H150.385L241.601 108.17Z" fill="#A42A29"/>
<path d="M235.174 132.256C235.174 132.488 212.769 132.664 185.14 132.664C157.512 132.664 135.098 132.488 135.098 132.256C135.098 132.024 157.493 131.857 185.14 131.857C212.787 131.857 235.174 132.033 235.174 132.256Z" fill="#A42A29"/>
<path d="M235.174 139.337C235.174 139.569 212.769 139.745 185.14 139.745C157.512 139.745 135.098 139.569 135.098 139.337C135.098 139.105 157.493 138.938 185.14 138.938C212.787 138.938 235.174 139.142 235.174 139.337Z" fill="#A42A29"/>
<path d="M187.979 146.444C187.293 146.562 186.597 146.615 185.901 146.602L180.233 146.723C175.455 146.797 168.84 146.843 161.538 146.843C154.237 146.843 147.622 146.797 142.844 146.723L137.176 146.602C136.48 146.615 135.784 146.562 135.098 146.444C135.783 146.321 136.48 146.268 137.176 146.287L142.844 146.157C147.632 146.083 154.237 146.036 161.538 146.036C168.84 146.036 175.455 146.083 180.233 146.157L185.901 146.287C186.597 146.268 187.294 146.321 187.979 146.444Z" fill="#A42A29"/>
<path d="M233.555 152.005C233.731 152.153 231.569 154.915 228.749 158.168L227.255 159.854L226.967 160.179L226.68 159.873C224.49 157.51 222.968 155.721 223.117 155.601C223.265 155.48 224.973 157.046 227.236 159.308H226.67C227.144 158.752 227.598 158.177 228.136 157.593C230.92 154.387 233.35 151.866 233.555 152.005Z" fill="#A42A29"/>
<path d="M237.946 152.005C238.113 152.154 236.443 154.359 234.235 156.936C233.261 158.048 232.38 159.058 231.619 159.808L231.359 160.077L231.146 159.818C230.264 158.724 229.754 157.964 229.847 157.909C229.94 157.853 230.617 158.4 231.61 159.391H231.146C231.786 158.567 232.649 157.538 233.623 156.398C235.831 153.831 237.779 151.866 237.946 152.005Z" fill="#A42A29"/>
<path d="M196.904 100.858C195.599 98.6339 193.747 96.7804 191.523 95.4733L191.356 95.3713L187.747 93.8515L183.72 93.314C182.333 93.4062 180.954 93.592 179.592 93.87L178.664 94.0646L178.247 94.1944C177.989 94.2575 177.735 94.3349 177.486 94.4261L176.864 94.667C176.632 94.7597 176.41 94.8524 176.187 94.9636L175.5 95.3435C175.371 95.4269 175.231 95.4825 175.102 95.566C172.913 96.8864 171.08 98.7184 169.758 100.904C169.674 101.043 169.609 101.173 169.535 101.312C169.461 101.451 169.275 101.757 169.155 101.988C169.034 102.22 168.951 102.442 168.858 102.665C168.765 102.887 168.682 103.073 168.607 103.286C168.533 103.499 168.45 103.795 168.375 104.046C168.301 104.296 168.292 104.324 168.255 104.463V104.667C168.127 105.252 168.046 105.847 168.014 106.446C167.888 107.032 167.807 107.627 167.772 108.225V108.42C167.772 108.503 167.772 108.587 167.772 108.67C167.743 109.89 167.909 111.107 168.264 112.275C168.264 112.275 168.264 112.275 168.264 112.331C168.258 112.346 168.258 112.362 168.264 112.377V112.442C168.612 113.663 169.111 114.837 169.748 115.936C170.717 117.589 171.996 119.039 173.515 120.208C173.858 120.477 174.22 120.699 174.582 120.931C174.758 121.042 174.916 121.172 175.092 121.274C176.208 121.921 177.402 122.423 178.646 122.766L179.573 122.961C180.185 123.087 180.805 123.174 181.429 123.22H181.633C184.291 123.576 186.996 123.221 189.472 122.191C190.175 122.013 190.843 121.719 191.448 121.32C193.672 120.017 195.524 118.166 196.829 115.945C198.172 113.649 198.879 111.037 198.879 108.378C198.879 105.719 198.172 103.108 196.829 100.811L196.904 100.858Z" fill="#EBEBEB"/>
<path d="M196.903 100.857C196.234 99.7244 195.42 98.6838 194.481 97.7621C193.54 96.8451 192.487 96.051 191.346 95.3989L187.727 93.8883L183.701 93.3785C182.206 93.4944 180.72 93.7174 179.257 94.0458C178.889 94.1144 178.527 94.2073 178.172 94.3238C177.816 94.4248 177.466 94.5454 177.123 94.6853C176.436 94.9697 175.772 95.3075 175.138 95.6954C174.035 96.3059 173.041 97.0951 172.197 98.0308C171.278 98.8873 170.507 99.8893 169.915 100.996L169.469 101.83C169.319 102.11 169.186 102.397 169.07 102.692C168.943 102.994 168.834 103.304 168.746 103.619L168.477 104.546V104.75L168.245 106.483V106.529L168.013 108.271V108.466C168.013 108.809 168.013 109.133 168.013 109.458C168.013 109.782 168.059 110.116 168.105 110.44C168.189 111.084 168.329 111.72 168.523 112.34V112.395C169.039 114.198 169.892 115.887 171.037 117.372C171.603 118.121 172.243 118.81 172.948 119.429C173.666 120.032 174.426 120.583 175.221 121.079C176.319 121.715 177.49 122.213 178.71 122.562L179.47 122.719C179.722 122.772 179.976 122.813 180.231 122.84L181.753 123.062H181.799C183.078 123.411 184.426 123.411 185.705 123.062H185.761C187.057 123.082 188.337 122.763 189.472 122.135C190.489 121.847 191.447 121.379 192.301 120.755C195.445 118.647 197.666 115.422 198.514 111.736C199.362 108.05 198.773 104.18 196.866 100.913L196.903 100.857ZM196.903 100.857C197.995 102.714 198.676 104.784 198.898 106.927C199.121 109.069 198.88 111.234 198.192 113.276C197.508 115.324 196.395 117.204 194.927 118.79C194.189 119.58 193.371 120.291 192.487 120.912C191.616 121.57 190.636 122.068 189.592 122.386C188.414 123.091 187.069 123.469 185.696 123.479H185.742C184.39 123.845 182.965 123.845 181.613 123.479L180.046 123.275C179.786 123.229 179.517 123.21 179.266 123.155L178.506 123.007C177.239 122.662 176.022 122.155 174.887 121.496C174.065 120.979 173.275 120.413 172.522 119.8C171.789 119.159 171.121 118.449 170.527 117.678C169.325 116.141 168.441 114.38 167.929 112.497V112.442C167.732 111.787 167.589 111.118 167.502 110.44C167.457 110.102 167.429 109.762 167.419 109.421C167.419 109.078 167.419 108.735 167.419 108.401V108.197L167.669 106.344V106.39L167.92 104.537V104.333L168.208 103.406C168.3 103.091 168.439 102.794 168.56 102.479C168.69 102.179 168.836 101.885 168.996 101.599L169.479 100.737C170.112 99.6024 170.927 98.5789 171.891 97.7064C172.775 96.7575 173.813 95.9647 174.962 95.3618C175.616 94.971 176.301 94.6362 177.012 94.3609C177.367 94.2227 177.729 94.1052 178.097 94.0087C178.456 93.896 178.821 93.8093 179.192 93.7492C180.67 93.4458 182.167 93.2476 183.673 93.1561L187.69 93.7214L191.299 95.2506C192.435 95.9181 193.484 96.721 194.426 97.6416C195.39 98.5998 196.223 99.6811 196.903 100.857Z" fill="#A42A29"/>
<path d="M191.18 101.015C188.545 102.943 181.744 109.411 179.406 111.367L177.894 109.764C177.154 108.79 176.139 108.061 174.981 107.669C174.854 107.646 174.723 107.654 174.6 107.692C174.477 107.731 174.365 107.799 174.274 107.89C174.183 107.981 174.115 108.093 174.076 108.216C174.038 108.339 174.03 108.469 174.053 108.596C174.382 109.785 175.049 110.854 175.973 111.673L178.525 114.508C178.796 114.778 179.163 114.929 179.545 114.929C179.928 114.929 180.295 114.778 180.566 114.508C182.422 112.349 190.419 104.463 192.33 102.377C192.443 102.21 192.498 102.011 192.487 101.81C192.476 101.609 192.4 101.417 192.27 101.263C192.14 101.109 191.963 101.001 191.766 100.957C191.57 100.912 191.364 100.932 191.18 101.015Z" fill="#A42A29"/>
</svg>
