<svg width="48" height="48" viewBox="0 0 48 48" fill="none" xmlns="http://www.w3.org/2000/svg">
<path d="M0 24C0 37.3 10.7 48 24 48C37.3 48 48 37.3 48 24C48 10.9 37.6 0.3 24.5 0H23.4C10.4 0.3 0 10.9 0 24Z" fill="white"/>
<path fill-rule="evenodd" clip-rule="evenodd" d="M7.97878 18.0036H10.2213L11.4959 21.3339L12.7557 18C13.3579 18.0071 14.3738 18.0071 14.9797 18V18.1995C14.976 19.813 14.976 21.6117 14.9797 23.2253H13.5943C13.596 22.7082 13.6058 22.025 13.6157 21.3308L13.6157 21.3306V21.3306V21.3305V21.3304C13.6271 20.5376 13.6386 19.7304 13.6386 19.1398L12.1461 23.2253H10.8826L9.3605 19.1398V23.2253L7.97509 23.2217L7.97878 18.0036ZM42.0765 20.0374L42.0728 23.2253H40.6578V18H42.4755L44.7439 21.1701V18H46.133V23.2217H44.3855L42.0765 20.0374ZM20.6485 21.1772L20.6559 20.0374L17.56 20.041L17.5563 19.1398H17.8482C18.139 19.1398 18.4513 19.1394 18.7711 19.139H18.7711H18.7711H18.7712H18.7712H18.7712H18.7712H18.7712C19.4346 19.1382 20.1303 19.1374 20.7335 19.1398V18H16.1413V23.2253H20.7261L20.7298 22.0748C20.5187 22.0748 20.281 22.0746 20.0292 22.0744C19.2104 22.0737 18.2429 22.0729 17.5563 22.0784V21.1772L17.9036 21.1736C18.1076 21.1736 18.3244 21.1734 18.5478 21.1732L18.5483 21.1732H18.5484H18.5484H18.5484H18.5484H18.5484H18.5485H18.5485H18.5485H18.5485H18.5486H18.5486H18.5486C19.2473 21.1725 20.0105 21.1718 20.6485 21.1772ZM12.4934 26.8122L12.486 27.952C11.8478 27.9466 11.0846 27.9473 10.3858 27.948C10.1622 27.9482 9.9452 27.9484 9.74102 27.9484L9.39374 27.952V28.8531C10.0802 28.8477 11.0476 28.8485 11.8663 28.8492H11.8666H11.8676H11.8685H11.8695H11.8705H11.8715H11.8724H11.8734H11.8744H11.8753H11.8763H11.8772C12.1251 28.8494 12.3591 28.8496 12.5672 28.8496L12.5636 30H7.97878V24.7748H12.5709V25.9146C11.8972 25.9092 11.1029 25.9099 10.3689 25.9106H10.3687C10.1328 25.9108 9.90307 25.911 9.6856 25.911H9.39374L9.39744 26.8122H12.4934ZM35.8859 27.952L35.8933 26.8122H32.8011L32.7974 25.911H33.0893C33.3067 25.911 33.5364 25.9108 33.7724 25.9106H33.7725C34.5065 25.9099 35.3009 25.9092 35.9746 25.9146V24.7748H31.3824V30H35.9635L35.9672 28.8496C35.7569 28.8496 35.5202 28.8494 35.2695 28.8492H35.2685H35.2675H35.2665H35.2662C34.4476 28.8485 33.4802 28.8477 32.7937 28.8531V27.952L33.141 27.9484C33.3451 27.9484 33.5621 27.9482 33.7857 27.948C34.4845 27.9473 35.2478 27.9466 35.8859 27.952ZM7.63519 23.2243H6.05028L5.56631 22.0738H3.00977L2.52949 23.2243H1L3.40507 18.0026H5.21903L7.63519 23.2243ZM4.29173 19.1388L3.49004 21.1726H5.09342L4.29173 19.1388ZM38.7266 23.2254H40.3115L37.8917 18.0037H36.0777L33.6727 23.2254H35.2058L35.6861 22.0749H38.2427L38.7266 23.2254ZM36.1664 21.1737L36.9681 19.1399L37.7698 21.1737H36.1664ZM41.5192 24.7819L40.9613 25.9253L38.656 25.9288C38.5711 25.9288 38.4824 25.9324 38.4011 25.9538C38.1388 26.0214 38.0169 26.196 38.0501 26.4382C38.076 26.6483 38.2681 26.805 38.5193 26.8086C38.6819 26.8115 38.8444 26.8097 39.007 26.808C39.2508 26.8055 39.4947 26.8029 39.7385 26.8157C40.0599 26.8335 40.3924 26.8585 40.699 26.9511C41.2126 27.1078 41.5266 27.4711 41.6116 27.9911C41.7335 28.7463 41.4712 29.4729 40.6917 29.8041C40.4552 29.9039 40.1855 29.9715 39.9306 29.9787C39.2515 29.9935 38.4765 29.9929 37.7399 29.9923H37.7398H37.7397H37.7396H37.7396H37.7395H37.7395H37.7394H37.7394C37.4141 29.9921 37.0964 29.9918 36.7977 29.9929V28.8531L39.8087 28.8353C40.0599 28.8068 40.2077 28.6715 40.2225 28.4578C40.2409 28.2013 40.1227 28.0446 39.8604 27.9805C39.7791 27.9627 39.6905 27.952 39.6055 27.952C39.4387 27.9507 39.2715 27.9521 39.1042 27.9535H39.1041H39.1041H39.1041H39.104H39.104H39.104H39.1039H39.1039C38.7968 27.9561 38.4892 27.9587 38.1831 27.9448C37.7435 27.927 37.3445 27.7846 37.0268 27.4676C36.3913 26.8371 36.4172 25.3019 37.7878 24.8888C38.0317 24.8175 38.3014 24.7783 38.5563 24.7748L41.5192 24.7819ZM46.3213 25.9253L46.8791 24.7819L43.9162 24.7748C43.6612 24.7783 43.3915 24.8175 43.1477 24.8888C41.7771 25.3019 41.7512 26.8371 42.3867 27.4676C42.7044 27.7846 43.1034 27.927 43.543 27.9448C43.8491 27.9587 44.1566 27.9561 44.4638 27.9535H44.4638H44.4639H44.4639H44.4639H44.464H44.464H44.464C44.6314 27.9521 44.7986 27.9507 44.9654 27.952C45.0504 27.952 45.139 27.9627 45.2203 27.9805C45.4826 28.0446 45.6008 28.2013 45.5824 28.4578C45.5676 28.6715 45.4198 28.8068 45.1686 28.8353L42.1576 28.8531V29.9929C42.4563 29.9918 42.774 29.9921 43.0993 29.9923H43.0993H43.0994H43.0995H43.0995H43.0996H43.0996H43.0998C43.8364 29.9929 44.6114 29.9935 45.2905 29.9787C45.5454 29.9715 45.8151 29.9039 46.0516 29.8041C46.8311 29.4729 47.0934 28.7463 46.9715 27.9911C46.8865 27.4711 46.5725 27.1078 46.059 26.9511C45.7523 26.8585 45.4198 26.8335 45.0984 26.8157C44.8546 26.8029 44.6107 26.8055 44.3669 26.808C44.2043 26.8097 44.0418 26.8115 43.8792 26.8086C43.628 26.805 43.4359 26.6483 43.41 26.4382C43.3768 26.196 43.4987 26.0214 43.761 25.9538C43.8423 25.9324 43.9309 25.9288 44.0159 25.9288L46.3213 25.9253ZM19.3707 24.7816L17.1799 27.4388L19.3707 29.9926L17.6233 29.9962L16.1455 28.3292L14.7194 29.9962L12.8944 29.9891L15.2034 27.4388L12.8981 24.7816L14.7231 24.7887L16.1418 26.3453L17.6233 24.7852L19.3707 24.7816ZM21.1394 29.9964L21.1357 28.2761H23.0051C24.2501 28.2618 25.0777 27.2182 24.771 26.0535C24.5641 25.2592 23.8955 24.8032 23.0088 24.7854C22.3883 24.7726 21.6996 24.7752 21.024 24.7778C20.5773 24.7795 20.1362 24.7811 19.7244 24.7783V29.9964H21.1394ZM22.7576 27.1291L21.1357 27.1327L21.132 25.9252C21.3267 25.9266 21.5469 25.9258 21.7724 25.925H21.7725H21.7726H21.7727H21.7728C22.1163 25.9237 22.4721 25.9223 22.7687 25.9288C23.1713 25.9359 23.4226 26.1924 23.4152 26.5557C23.4078 26.9012 23.1529 27.1256 22.7576 27.1291ZM30.8549 29.9715L29.1444 30L27.5965 28.2761H26.9241L26.9278 29.9965H25.5128V24.7783C25.9246 24.7811 26.3656 24.7795 26.8124 24.7778C27.488 24.7752 28.1767 24.7726 28.7971 24.7854C29.6838 24.8032 30.3525 25.2592 30.5594 26.0535C30.8328 27.0864 30.2158 28.0232 29.2035 28.2333L30.8549 29.9715ZM26.9241 27.1327L28.5459 27.1291C28.9412 27.1256 29.1961 26.9012 29.2035 26.5557C29.2109 26.1924 28.9597 25.9359 28.557 25.9288C28.2604 25.9223 27.9047 25.9237 27.5612 25.925C27.3355 25.9258 27.1152 25.9266 26.9204 25.9252L26.9241 27.1327ZM25.3508 23.2252L27.0613 23.1967L25.4099 21.4585C26.4222 21.2484 27.0391 20.3116 26.7657 19.2787C26.5588 18.4844 25.8902 18.0285 25.0035 18.0106C24.3831 17.9978 23.6943 18.0004 23.0187 18.003C22.572 18.0047 22.1309 18.0064 21.7192 18.0035V23.2217H23.1341L23.1304 21.5013H23.8028L25.3508 23.2252ZM24.7523 20.3544L23.1304 20.3579L23.1267 19.1504C23.3215 19.1519 23.5419 19.151 23.7675 19.1502H23.7675C24.111 19.1489 24.4668 19.1476 24.7634 19.154C25.166 19.1611 25.4173 19.4176 25.4099 19.7809C25.4025 20.1264 25.1476 20.3508 24.7523 20.3544ZM32.8752 23.2185C32.2693 23.2435 31.6708 23.2114 31.1166 22.9336C30.3888 22.5667 30.012 21.9576 29.8827 21.199C29.7867 20.6326 29.8162 20.0627 30.0305 19.5178C30.363 18.6771 31.0095 18.1714 31.9183 18.0681C32.4655 18.0071 33.0208 18.0093 33.5752 18.0114C33.7657 18.0122 33.9561 18.0129 34.146 18.0111H34.2717L34.279 19.1829L32.8641 19.1865C32.6572 19.1901 32.4466 19.2043 32.2434 19.2435C31.7336 19.3432 31.4011 19.6531 31.3161 20.1375C31.2607 20.451 31.257 20.7929 31.3198 21.1028C31.4381 21.7154 31.922 22.0502 32.6387 22.0716C32.8231 22.0763 33.0075 22.0748 33.2034 22.0733C33.3058 22.0725 33.4114 22.0716 33.5217 22.0716L33.4521 22.2125C33.2826 22.5554 33.102 22.9209 32.9528 23.215L32.8752 23.2185ZM29.0148 18.0037H27.6146V23.2289H29.0148C29.0111 21.5976 29.0111 19.635 29.0148 18.0037Z" fill="#006FCF"/>
</svg>
