<svg width="32" height="32" viewBox="0 0 32 32" fill="none" xmlns="http://www.w3.org/2000/svg">
<path d="M17.2828 14.5109V14.5391H17.2638C17.2665 14.5342 17.2701 14.5293 17.2737 14.5243C17.2769 14.5199 17.2801 14.5154 17.2828 14.5109Z" fill="#A32A29"/>
<path fill-rule="evenodd" clip-rule="evenodd" d="M28 16C28 22.6274 22.6274 28 16 28C9.37258 28 4 22.6274 4 16C4 9.37258 9.37258 4 16 4C22.6274 4 28 9.37258 28 16ZM23.1699 21.9154V16.9681C23.1699 14.3188 21.7551 13.0858 19.868 13.0858C18.3438 13.0858 17.664 13.9244 17.2828 14.5109V13.2884H14.4141C14.4526 14.0976 14.4141 21.9152 14.4141 21.9152H17.2826V17.0971C17.2826 16.8385 17.3021 16.5824 17.3776 16.398C17.5855 15.8821 18.0563 15.3492 18.8489 15.3492C19.8874 15.3492 20.3016 16.1407 20.3016 17.2997V21.9154H23.1699ZM9.79016 10.6203C9.79016 9.77405 10.4321 9.12996 11.4133 9.12996C12.3947 9.12996 12.9978 9.77405 13.0168 10.6203C13.0168 11.4485 12.3947 12.1112 11.3943 12.1112H11.3757C10.4135 12.1112 9.79016 11.4485 9.79016 10.6203ZM12.8281 21.9154H9.96065V13.2884H12.8281V21.9154Z" fill="#A32A29"/>
</svg>
