<svg width="48" height="48" viewBox="0 0 48 48" fill="none" xmlns="http://www.w3.org/2000/svg">
<path d="M24 48C10.7 48 0 37.3 0 24C0 10.7 10.7 0 24 0C37.3 0 48 10.7 48 24C48 37.3 37.3 48 24 48Z" fill="white"/>
<path fill-rule="evenodd" clip-rule="evenodd" d="M17.7778 33.5556C23.1779 33.5556 27.5556 29.1779 27.5556 23.7778C27.5556 18.3777 23.1779 14 17.7778 14C12.3777 14 8 18.3777 8 23.7778C8 29.1779 12.3777 33.5556 17.7778 33.5556Z" fill="#FF0000" fill-opacity="0.8"/>
<path fill-rule="evenodd" clip-rule="evenodd" d="M30.2222 33.5556C35.6223 33.5556 40 29.1779 40 23.7778C40 18.3777 35.6223 14 30.2222 14C24.8221 14 20.4444 18.3777 20.4444 23.7778C20.4444 29.1779 24.8221 33.5556 30.2222 33.5556Z" fill="#FFA600" fill-opacity="0.8"/>
</svg>
