<svg width="247" height="160" viewBox="0 0 247 160" fill="none" xmlns="http://www.w3.org/2000/svg">
  <mask id="mask0_24_5272" style="mask-type:alpha" maskUnits="userSpaceOnUse" x="0" y="0" width="247" height="160">
    <rect width="247" height="160" rx="8" fill="url(#paint0_linear_24_5272)"/>
  </mask>
  <g mask="url(#mask0_24_5272)">
    <rect width="247" height="160" rx="8" fill="url(#paint1_linear_24_5272)"/>
    <g opacity="0.3">
      <mask id="mask1_24_5272" style="mask-type:alpha" maskUnits="userSpaceOnUse" x="33" y="-20" width="181" height="214">
        <path d="M33 -19.999H214V193.577H33V-19.999Z" fill="white"/>
      </mask>
      <g mask="url(#mask1_24_5272)">
        <path opacity="0.678" fill-rule="evenodd" clip-rule="evenodd" d="M196.112 34.2638C198.718 17.6483 196.094 6.345 187.108 -3.89667C177.214 -15.1716 159.341 -20.001 136.472 -20.001H70.0923C67.83 -20.0006 65.6421 -19.1927 63.9225 -17.7227C62.2028 -16.2528 61.0644 -14.2172 60.712 -11.9825L33.0695 163.294C32.9413 164.108 32.9909 164.939 33.2148 165.732C33.4388 166.524 33.8318 167.259 34.3669 167.885C34.9019 168.511 35.5663 169.013 36.3142 169.358C37.0621 169.703 37.8759 169.881 38.6994 169.881H79.6791L76.8512 187.817C76.7386 188.528 76.7816 189.256 76.9772 189.949C77.1729 190.642 77.5165 191.285 77.9845 191.832C78.4524 192.38 79.0335 192.819 79.6877 193.121C80.342 193.422 81.0538 193.578 81.774 193.577H116.317C120.407 193.577 123.887 190.604 124.525 186.566L124.864 184.809L131.37 143.544L131.79 141.264C132.099 139.309 133.095 137.529 134.599 136.244C136.103 134.958 138.017 134.251 139.996 134.251H145.162C178.626 134.251 204.829 120.654 212.484 81.3389C215.684 64.9083 214.028 51.1969 205.57 41.5556C203.01 38.6385 199.827 36.226 196.114 34.2616" fill="white"/>
      </g>
      <mask id="mask2_24_5272" style="mask-type:alpha" maskUnits="userSpaceOnUse" x="33" y="-20" width="165" height="190">
        <path d="M33 -19.999H197.069V169.881H33V-19.999Z" fill="white"/>
      </mask>
      <g mask="url(#mask2_24_5272)">
        <path opacity="0.696" fill-rule="evenodd" clip-rule="evenodd" d="M196.112 34.2638C198.718 17.6483 196.094 6.345 187.108 -3.89667C177.214 -15.1716 159.341 -20.001 136.472 -20.001H70.0923C67.83 -20.0006 65.6421 -19.1927 63.9225 -17.7227C62.2028 -16.2528 61.0644 -14.2172 60.712 -11.9825L33.0695 163.294C32.9413 164.108 32.9909 164.939 33.2148 165.732C33.4388 166.524 33.8318 167.259 34.3669 167.885C34.9019 168.511 35.5663 169.013 36.3142 169.358C37.0621 169.703 37.8759 169.881 38.6994 169.881H79.6791L89.973 104.605L89.6532 106.649C89.9989 104.418 91.1311 102.384 92.8454 100.914C94.5596 99.4445 96.7428 98.6362 99.0008 98.6353H118.477C156.729 98.6353 186.682 83.0945 195.433 38.1512C195.694 36.8198 195.914 35.532 196.112 34.2638" fill="white"/>
      </g>
      <mask id="mask3_24_5272" style="mask-type:alpha" maskUnits="userSpaceOnUse" x="33" y="-20" width="165" height="190">
        <path d="M33 -19.999H197.069V169.881H33V-19.999Z" fill="white"/>
      </mask>
      <g mask="url(#mask3_24_5272)">
        <path fill-rule="evenodd" clip-rule="evenodd" d="M101.032 34.4835C101.34 32.5286 102.336 30.7479 103.84 29.462C105.345 28.1762 107.259 27.4698 109.238 27.4701H161.271C167.436 27.4701 173.183 27.8725 178.439 28.7209C179.94 28.9602 181.402 29.2387 182.82 29.5541C184.881 30.0058 186.917 30.5635 188.92 31.2248C191.398 32.0362 193.804 33.0527 196.114 34.2638C198.718 17.6483 196.092 6.34283 187.108 -3.89667C177.216 -15.1716 159.341 -20.001 136.474 -20.001H70.0942C67.8315 -20.0011 65.6432 -19.1935 63.9231 -17.7234C62.203 -16.2534 61.0642 -14.2176 60.7118 -11.9825L33.0715 163.294C32.9433 164.107 32.9928 164.939 33.2166 165.731C33.4405 166.523 33.8333 167.258 34.3681 167.884C34.9029 168.51 35.567 169.012 36.3147 169.357C37.0624 169.702 37.8758 169.881 38.6992 169.881H79.6811L89.9728 104.605L101.03 34.4835H101.032Z" fill="white"/>
      </g>
    </g>
  </g>
  <defs>
    <linearGradient id="paint0_linear_24_5272" x1="247" y1="80" x2="0" y2="80" gradientUnits="userSpaceOnUse">
      <stop stop-color="#003087"/>
      <stop offset="1" stop-color="#009CDE"/>
    </linearGradient>
    <linearGradient id="paint1_linear_24_5272" x1="247" y1="80" x2="0" y2="80" gradientUnits="userSpaceOnUse">
      <stop stop-color="#003087"/>
      <stop offset="1" stop-color="#009CDE"/>
    </linearGradient>
  </defs>
</svg>
