<svg width="48" height="48" viewBox="0 0 48 48" fill="none" xmlns="http://www.w3.org/2000/svg">
<path d="M24 48C10.7 48 0 37.3 0 24C0 10.7 10.7 0 24 0C37.3 0 48 10.7 48 24C48 37.3 37.3 48 24 48Z" fill="white"/>
<path fill-rule="evenodd" clip-rule="evenodd" d="M38.4378 31.2336L37.4162 37.7329C37.3964 37.8587 37.4938 37.9725 37.6212 37.9725H38.6486C38.8188 37.9725 38.9637 37.8488 38.9902 37.6807L39.9974 31.2981C40.0173 31.1722 39.92 31.0583 39.7925 31.0583H38.6428C38.5406 31.0583 38.4537 31.1327 38.4378 31.2336Z" fill="#009CDE"/>
<path fill-rule="evenodd" clip-rule="evenodd" d="M35.3719 35.6805C35.2567 36.3616 34.7162 36.8187 34.0265 36.8187C33.6809 36.8187 33.4042 36.7075 33.2262 36.497C33.0499 36.2883 32.9835 35.9909 33.0395 35.6599C33.1468 34.9849 33.6961 34.513 34.3751 34.513C34.7136 34.513 34.9885 34.6252 35.1698 34.8377C35.3524 35.0517 35.4241 35.351 35.3719 35.6805ZM37.0329 33.3607H35.841C35.739 33.3607 35.652 33.4349 35.6361 33.5358L35.5836 33.8691L35.5003 33.7484C35.2423 33.3737 34.667 33.2484 34.0926 33.2484C32.7758 33.2484 31.6508 34.2463 31.432 35.6458C31.318 36.3441 31.4798 37.0113 31.8757 37.477C32.2394 37.9049 32.7584 38.083 33.3768 38.083C34.4382 38.083 35.0269 37.4012 35.0269 37.4012L34.9737 37.7324C34.9537 37.8584 35.0511 37.9724 35.1786 37.9724H36.2519C36.4222 37.9724 36.567 37.8486 36.5935 37.6805L37.2379 33.6004C37.2577 33.4745 37.1604 33.3607 37.0329 33.3607Z" fill="#009CDE"/>
<path fill-rule="evenodd" clip-rule="evenodd" d="M29.8804 33.3894C29.7444 34.2829 29.062 34.2829 28.4019 34.2829H28.0264L28.2898 32.6147C28.3057 32.5138 28.3927 32.4396 28.4948 32.4396H28.6669C29.1162 32.4396 29.5406 32.4396 29.7594 32.6955C29.8903 32.8488 29.9299 33.0756 29.8804 33.3894ZM29.5931 31.0583H27.104C26.9338 31.0583 26.7889 31.1821 26.7624 31.3503L25.7558 37.7328C25.736 37.8587 25.8334 37.9725 25.9609 37.9725H27.238C27.3571 37.9725 27.4585 37.886 27.4771 37.7682L27.7625 35.9588C27.789 35.7906 27.934 35.6668 28.1041 35.6668H28.8917C30.5312 35.6668 31.4775 34.8734 31.7248 33.3007C31.8361 32.613 31.7293 32.0725 31.4073 31.6942C31.0532 31.2782 30.4259 31.0583 29.5931 31.0583Z" fill="#009CDE"/>
<path fill-rule="evenodd" clip-rule="evenodd" d="M25.6277 33.3607H24.4297C24.3151 33.3607 24.2079 33.4176 24.1436 33.5123L22.491 35.9462L21.7906 33.6074C21.7468 33.461 21.6121 33.3607 21.4593 33.3607H20.2817C20.1395 33.3607 20.0394 33.5005 20.0853 33.6352L21.4045 37.5072L20.1637 39.2579C20.0663 39.3954 20.1646 39.5854 20.333 39.5854H21.5299C21.6432 39.5854 21.7495 39.5298 21.814 39.4365L25.7983 33.6865C25.8936 33.5488 25.7951 33.3607 25.6277 33.3607Z" fill="#003087"/>
<path fill-rule="evenodd" clip-rule="evenodd" d="M17.6185 35.6805C17.5034 36.3616 16.9628 36.8187 16.2732 36.8187C15.9275 36.8187 15.6507 36.7075 15.4728 36.497C15.2965 36.2883 15.2301 35.9909 15.2861 35.6599C15.3934 34.9849 15.9427 34.513 16.6218 34.513C16.9603 34.513 17.2351 34.6252 17.4164 34.8377C17.599 35.0517 17.6707 35.351 17.6185 35.6805ZM19.2796 33.3607H18.0877C17.9855 33.3607 17.8986 33.4349 17.8828 33.5358L17.8303 33.8691L17.747 33.7484C17.4888 33.3737 16.9136 33.2484 16.3391 33.2484C15.0223 33.2484 13.8975 34.2463 13.6785 35.6458C13.5646 36.3441 13.7264 37.0113 14.1222 37.477C14.486 37.9049 15.005 38.083 15.6234 38.083C16.6848 38.083 17.2735 37.4012 17.2735 37.4012L17.2203 37.7324C17.2004 37.8584 17.2977 37.9724 17.4252 37.9724H18.4986C18.6687 37.9724 18.8136 37.8486 18.8402 37.6805L19.4845 33.6004C19.5044 33.4745 19.4071 33.3607 19.2796 33.3607Z" fill="#003087"/>
<path fill-rule="evenodd" clip-rule="evenodd" d="M12.1271 33.3894C11.991 34.2829 11.3086 34.2829 10.6487 34.2829H10.2732L10.5366 32.6147C10.5525 32.5138 10.6394 32.4396 10.7415 32.4396H10.9137C11.3629 32.4396 11.7873 32.4396 12.0061 32.6955C12.137 32.8488 12.1766 33.0756 12.1271 33.3894ZM11.8399 31.0583H9.35068C9.18044 31.0583 9.03564 31.1821 9.00908 31.3503L8.00259 37.7328C7.98269 37.8587 8.08002 37.9725 8.20753 37.9725H9.39601C9.56613 37.9725 9.71104 37.8488 9.73761 37.6807L10.0092 35.9588C10.0357 35.7906 10.1806 35.6668 10.3508 35.6668H11.1385C12.778 35.6668 13.7242 34.8734 13.9716 33.3007C14.0828 32.613 13.976 32.0725 13.6539 31.6942C13.2999 31.2782 12.6725 31.0583 11.8399 31.0583Z" fill="#003087"/>
<path fill-rule="evenodd" clip-rule="evenodd" d="M31.9176 13.2717C32.1707 11.6576 31.9158 10.5593 31.0428 9.56456C30.0817 8.46922 28.3452 8 26.1234 8H19.6745C19.2203 8 18.8338 8.33041 18.7631 8.77894L16.0776 25.8075C16.0246 26.1436 16.2844 26.4475 16.6245 26.4475H20.6058L20.3309 28.19C20.2847 28.4838 20.5118 28.7497 20.8094 28.7497H24.1652C24.5624 28.7497 24.9005 28.4607 24.9624 28.0683L24.9953 27.8977L25.6275 23.889L25.6683 23.6675C25.7302 23.275 26.0684 22.9861 26.4656 22.9861H26.9676C30.2186 22.9861 32.7642 21.6653 33.5081 17.8455C33.8188 16.2493 33.6582 14.917 32.8363 13.9804C32.5876 13.6971 32.2784 13.4628 31.9176 13.2717Z" fill="#009CDE"/>
<path fill-rule="evenodd" clip-rule="evenodd" d="M31.9176 13.2717C32.1707 11.6576 31.9158 10.5593 31.0428 9.56456C30.0817 8.46922 28.3452 8 26.1234 8H19.6745C19.2203 8 18.8338 8.33041 18.7631 8.77894L16.0776 25.8075C16.0246 26.1436 16.2844 26.4475 16.6245 26.4475H20.6058L21.6059 20.1057L21.5749 20.3045C21.6457 19.856 22.029 19.5257 22.4831 19.5257H24.3752C28.0915 19.5257 31.0015 18.0158 31.8517 13.6494C31.8768 13.5201 31.8983 13.3948 31.9176 13.2717Z" fill="#012169"/>
<path fill-rule="evenodd" clip-rule="evenodd" d="M22.6802 13.2931C22.7228 13.0234 22.896 12.8024 23.1291 12.6907C23.235 12.64 23.3533 12.6117 23.4776 12.6117H28.5327C29.1316 12.6117 29.6899 12.6509 30.2005 12.7331C30.3464 12.7566 30.4884 12.7837 30.6263 12.8143C30.7642 12.8448 30.898 12.8791 31.0276 12.9169C31.0925 12.9359 31.1561 12.9557 31.2188 12.9766C31.4695 13.0598 31.7029 13.1579 31.9176 13.2717C32.1707 11.6576 31.9158 10.5593 31.0428 9.56456C30.0817 8.46922 28.3452 8 26.1234 8H19.6745C19.2203 8 18.8338 8.33041 18.7631 8.77894L16.0776 25.8075C16.0246 26.1436 16.2844 26.4475 16.6245 26.4475H20.6058L22.6802 13.2931Z" fill="#003087"/>
</svg>
