<svg width="48" height="48" viewBox="0 0 48 48" fill="none" xmlns="http://www.w3.org/2000/svg">
<path d="M0 24C0 10.7452 10.7452 0 24 0C37.2548 0 48 10.7452 48 24C48 37.2548 37.2548 48 24 48C10.7452 48 0 37.2548 0 24Z" fill="#929497" fill-opacity="0.2"/>
<path fill-rule="evenodd" clip-rule="evenodd" d="M34.8286 29.4254L34.0625 34.2999C34.0476 34.3942 34.1206 34.4796 34.2162 34.4796H34.9867C35.1144 34.4796 35.2231 34.3868 35.2429 34.2607L35.9984 29.4738C36.0133 29.3793 35.9403 29.2939 35.8447 29.2939H34.9824C34.9058 29.2939 34.8406 29.3497 34.8286 29.4254Z" fill="#009CDE"/>
<path fill-rule="evenodd" clip-rule="evenodd" d="M32.5286 32.7606C32.4422 33.2714 32.0368 33.6143 31.5196 33.6143C31.2603 33.6143 31.0528 33.5308 30.9193 33.373C30.7871 33.2165 30.7373 32.9934 30.7793 32.7451C30.8597 32.2389 31.2718 31.8849 31.781 31.8849C32.0348 31.8849 32.241 31.9691 32.377 32.1285C32.5139 32.289 32.5678 32.5135 32.5286 32.7606ZM33.7743 31.0207H32.8804C32.8039 31.0207 32.7387 31.0764 32.7267 31.152L32.6874 31.402L32.6249 31.3115C32.4314 31.0305 31.9999 30.9365 31.5691 30.9365C30.5815 30.9365 29.7378 31.6849 29.5736 32.7346C29.4882 33.2583 29.6095 33.7587 29.9064 34.108C30.1792 34.4289 30.5684 34.5625 31.0323 34.5625C31.8283 34.5625 32.2699 34.0511 32.2699 34.0511L32.2299 34.2995C32.2149 34.394 32.288 34.4795 32.3836 34.4795H33.1886C33.3163 34.4795 33.4249 34.3867 33.4448 34.2606L33.9281 31.2005C33.943 31.1061 33.87 31.0207 33.7743 31.0207Z" fill="#009CDE"/>
<path fill-rule="evenodd" clip-rule="evenodd" d="M28.4098 31.0422C28.3078 31.7123 27.796 31.7123 27.301 31.7123H27.0193L27.2169 30.4612C27.2288 30.3856 27.294 30.3299 27.3706 30.3299H27.4997C27.8367 30.3299 28.1549 30.3299 28.3191 30.5218C28.4172 30.6368 28.4469 30.8069 28.4098 31.0422ZM28.1943 29.2939H26.3275C26.1999 29.2939 26.0912 29.3868 26.0713 29.5129L25.3164 34.2998C25.3015 34.3942 25.3745 34.4796 25.4702 34.4796H26.428C26.5173 34.4796 26.5934 34.4146 26.6073 34.3263L26.8214 32.9693C26.8413 32.8431 26.95 32.7503 27.0776 32.7503H27.6683C28.8979 32.7503 29.6076 32.1552 29.7931 30.9757C29.8766 30.4599 29.7965 30.0546 29.555 29.7708C29.2894 29.4588 28.8189 29.2939 28.1943 29.2939Z" fill="#009CDE"/>
<path fill-rule="evenodd" clip-rule="evenodd" d="M25.2199 31.0205H24.3214C24.2355 31.0205 24.1551 31.0632 24.1069 31.1342L22.8674 32.9596L22.3421 31.2055C22.3092 31.0957 22.2082 31.0205 22.0936 31.0205H21.2104C21.1037 31.0205 21.0287 31.1254 21.0631 31.2264L22.0525 34.1304L21.1219 35.4434C21.0489 35.5465 21.1226 35.689 21.2489 35.689H22.1465C22.2316 35.689 22.3112 35.6473 22.3597 35.5773L25.3478 31.2648C25.4193 31.1616 25.3455 31.0205 25.2199 31.0205Z" fill="#003087"/>
<path fill-rule="evenodd" clip-rule="evenodd" d="M19.2141 32.7606C19.1278 33.2714 18.7223 33.6143 18.2052 33.6143C17.9459 33.6143 17.7383 33.5308 17.6049 33.373C17.4726 33.2165 17.4229 32.9934 17.4648 32.7451C17.5454 32.2389 17.9573 31.8849 18.4667 31.8849C18.7205 31.8849 18.9266 31.9691 19.0626 32.1285C19.1996 32.289 19.2533 32.5135 19.2141 32.7606ZM20.46 31.0207H19.5661C19.4894 31.0207 19.4242 31.0764 19.4124 31.152L19.373 31.402L19.3105 31.3115C19.1169 31.0305 18.6855 30.9365 18.2546 30.9365C17.267 30.9365 16.4234 31.6849 16.2592 32.7346C16.1737 33.2583 16.2951 33.7587 16.5919 34.108C16.8648 34.4289 17.2541 34.5625 17.7178 34.5625C18.5139 34.5625 18.9554 34.0511 18.9554 34.0511L18.9155 34.2995C18.9005 34.394 18.9735 34.4795 19.0692 34.4795H19.8742C20.0018 34.4795 20.1105 34.3867 20.1304 34.2606L20.6137 31.2005C20.6286 31.1061 20.5556 31.0207 20.46 31.0207Z" fill="#003087"/>
<path fill-rule="evenodd" clip-rule="evenodd" d="M15.0953 31.0422C14.9933 31.7123 14.4815 31.7123 13.9865 31.7123H13.7049L13.9024 30.4612C13.9144 30.3856 13.9796 30.3299 14.0561 30.3299H14.1852C14.5222 30.3299 14.8405 30.3299 15.0045 30.5218C15.1027 30.6368 15.1325 30.8069 15.0953 31.0422ZM14.8799 29.2939H13.013C12.8853 29.2939 12.7767 29.3868 12.7568 29.5129L12.0019 34.2998C11.987 34.3942 12.06 34.4796 12.1556 34.4796H13.047C13.1746 34.4796 13.2833 34.3868 13.3032 34.2607L13.5069 32.9693C13.5268 32.8431 13.6355 32.7503 13.7631 32.7503H14.3539C15.5835 32.7503 16.2932 32.1552 16.4787 30.9757C16.5621 30.4599 16.482 30.0546 16.2404 29.7708C15.9749 29.4588 15.5044 29.2939 14.8799 29.2939Z" fill="#003087"/>
<path fill-rule="evenodd" clip-rule="evenodd" d="M29.9379 15.9538C30.1277 14.7432 29.9366 13.9195 29.2818 13.1734C28.5609 12.3519 27.2586 12 25.5922 12H20.7556C20.4149 12 20.1251 12.2478 20.072 12.5842L18.0579 25.3557C18.0181 25.6077 18.213 25.8356 18.4681 25.8356H21.454L21.2479 27.1425C21.2132 27.3629 21.3835 27.5623 21.6067 27.5623H24.1235C24.4215 27.5623 24.675 27.3455 24.7215 27.0512L24.7462 26.9233L25.2203 23.9167L25.2509 23.7506C25.2973 23.4563 25.551 23.2396 25.8489 23.2396H26.2254C28.6636 23.2396 30.5728 22.249 31.1307 19.3841C31.3638 18.187 31.2433 17.1878 30.6269 16.4853C30.4404 16.2728 30.2084 16.0971 29.9379 15.9538Z" fill="#009CDE"/>
<path fill-rule="evenodd" clip-rule="evenodd" d="M29.9379 15.9538C30.1277 14.7432 29.9365 13.9195 29.2818 13.1734C28.5609 12.3519 27.2586 12 25.5922 12H20.7556C20.4149 12 20.1251 12.2478 20.072 12.5842L18.0579 25.3557C18.0181 25.6077 18.213 25.8356 18.4681 25.8356H21.454L22.2041 21.0793L22.1808 21.2284C22.2339 20.892 22.5214 20.6443 22.862 20.6443H24.2811C27.0683 20.6443 29.2508 19.5119 29.8885 16.2371C29.9073 16.1401 29.9234 16.0461 29.9379 15.9538Z" fill="#012169"/>
<path fill-rule="evenodd" clip-rule="evenodd" d="M23.0098 15.9698C23.0418 15.7676 23.1717 15.6018 23.3465 15.5181C23.4259 15.48 23.5147 15.4588 23.6078 15.4588H27.3992C27.8484 15.4588 28.2671 15.4882 28.65 15.5498C28.7595 15.5675 28.866 15.5877 28.9694 15.6107C29.0728 15.6336 29.1732 15.6593 29.2704 15.6877C29.319 15.7019 29.3668 15.7168 29.4138 15.7325C29.6018 15.7949 29.7768 15.8684 29.9379 15.9538C30.1277 14.7432 29.9365 13.9195 29.2818 13.1734C28.5609 12.3519 27.2586 12 25.5922 12H20.7556C20.4149 12 20.1251 12.2478 20.072 12.5842L18.0579 25.3557C18.0181 25.6077 18.213 25.8356 18.4681 25.8356H21.454L23.0098 15.9698Z" fill="#003087"/>
</svg>
