<svg width="21" height="24" viewBox="0 0 21 24" fill="none" xmlns="http://www.w3.org/2000/svg">
  <path d="M18.3323 6.09475C18.624 4.22802 18.3323 2.95666 17.3203 1.80625C16.2076 0.537575 14.1984 0 11.6288 0H4.16859C3.91454 0.0014395 3.66921 0.092793 3.4761 0.257863C3.28298 0.422933 3.15456 0.651054 3.1136 0.901781L0.0077615 20.5972C-0.00658215 20.6885 -0.000998799 20.7819 0.024128 20.8708C0.0492548 20.9598 0.0933303 21.0423 0.153332 21.1126C0.213333 21.183 0.287841 21.2395 0.371742 21.2783C0.455644 21.3172 0.546955 21.3374 0.639411 21.3377H5.24642L4.92791 23.3536C4.91526 23.4335 4.92012 23.5152 4.94215 23.5931C4.96418 23.671 5.00286 23.7432 5.05551 23.8046C5.10816 23.8661 5.17353 23.9154 5.2471 23.9491C5.32066 23.9829 5.40068 24.0002 5.48161 24H9.3629C9.58499 23.9988 9.79952 23.9191 9.9685 23.775C10.1375 23.6309 10.25 23.4316 10.2862 23.2125L10.3238 23.0149L11.0522 18.377L11.0993 18.1216C11.1351 17.9022 11.2476 17.7027 11.4166 17.5582C11.5856 17.4138 11.8002 17.3339 12.0225 17.3327H12.6031C16.3661 17.3327 19.308 15.8047 20.1695 11.3858C20.5283 9.53925 20.3428 7.99776 19.3913 6.91455C19.0902 6.57905 18.7304 6.30125 18.3296 6.09475" fill="#009ADE"/>
  <path d="M18.3323 6.09475C18.624 4.22802 18.3323 2.95666 17.3203 1.80625C16.2076 0.537574 14.1984 0 11.6288 0H4.16859C3.91454 0.0014395 3.66921 0.092793 3.4761 0.257863C3.28298 0.422933 3.15456 0.651054 3.1136 0.90178L0.0077615 20.5972C-0.00658215 20.6885 -0.000998799 20.7818 0.024128 20.8708C0.0492548 20.9598 0.0933303 21.0423 0.153332 21.1126C0.213333 21.183 0.287841 21.2395 0.371742 21.2783C0.455644 21.3172 0.546955 21.3374 0.639411 21.3377H5.24642L6.40221 14.0011L6.36726 14.2309C6.40606 13.9803 6.53316 13.7518 6.72564 13.5867C6.91811 13.4216 7.16328 13.3307 7.41688 13.3305H9.60615C13.9067 13.3305 17.2666 11.5834 18.2557 6.53153C18.2853 6.38235 18.3095 6.2372 18.3323 6.09475Z" fill="#002169"/>
  <path d="M7.64535 6.12028C7.66948 5.97073 7.72936 5.82923 7.81992 5.70779C7.91047 5.58635 8.029 5.48858 8.16545 5.42278C8.29121 5.36223 8.42906 5.33099 8.56863 5.33139H14.4121C15.0575 5.32489 15.7023 5.36983 16.3406 5.46578C16.5099 5.49266 16.6739 5.52357 16.8338 5.55852C16.9938 5.59346 17.1483 5.63378 17.2975 5.67813C17.3727 5.69963 17.4467 5.72248 17.5192 5.74667C17.797 5.83809 18.0667 5.95227 18.3256 6.08803C18.6172 4.2213 18.3256 2.94994 17.3136 1.79953C16.2076 0.537574 14.1984 0 11.6288 0H4.16859C3.91454 0.0014395 3.66921 0.092793 3.4761 0.257863C3.28298 0.422933 3.15456 0.651054 3.1136 0.90178L0.0077615 20.5972C-0.00658216 20.6885 -0.000998799 20.7818 0.024128 20.8708C0.0492548 20.9598 0.0933303 21.0423 0.153332 21.1126C0.213333 21.183 0.287841 21.2395 0.371742 21.2783C0.455644 21.3172 0.546955 21.3374 0.639411 21.3377H5.24642L6.40221 14.0011L7.64535 6.12028Z" fill="#002F87"/>
</svg>
