<svg width="32" height="32" viewBox="0 0 32 32" fill="none" xmlns="http://www.w3.org/2000/svg">
<path fill-rule="evenodd" clip-rule="evenodd" d="M28 16C28 22.6274 22.6274 28 16 28C9.37258 28 4 22.6274 4 16C4 9.37258 9.37258 4 16 4C22.6274 4 28 9.37258 28 16ZM22.0361 14.098C22.0361 17.92 19.1261 22.33 13.8041 22.33C12.1721 22.33 10.6481 21.85 9.38208 21.022C9.61008 21.052 9.83808 21.064 10.0721 21.064C11.4281 21.064 12.6761 20.602 13.6661 19.828C12.4001 19.804 11.3321 18.97 10.9661 17.818C11.1461 17.854 11.3261 17.872 11.5121 17.872C11.7761 17.872 12.0341 17.836 12.2741 17.77C10.9481 17.5 9.95208 16.336 9.95208 14.932V14.896C10.3421 15.112 10.7861 15.244 11.2601 15.256C10.4801 14.74 9.97008 13.852 9.97008 12.85C9.97008 12.322 10.1141 11.824 10.3601 11.398C11.7881 13.15 13.9181 14.302 16.3241 14.422C16.2701 14.212 16.2461 13.99 16.2461 13.762C16.2461 12.166 17.5421 10.87 19.1381 10.87C19.9721 10.87 20.7221 11.218 21.2501 11.782C21.9101 11.65 22.5281 11.41 23.0861 11.08C22.8701 11.758 22.4141 12.322 21.8141 12.682C22.4021 12.61 22.9601 12.454 23.4761 12.226C23.0861 12.808 22.5941 13.318 22.0301 13.726C22.0361 13.846 22.0361 13.972 22.0361 14.098Z" fill="#A32A29"/>
</svg>
