<svg width="48" height="48" viewBox="0 0 48 48" fill="none" xmlns="http://www.w3.org/2000/svg">
<path d="M24 48C10.7 48 0 37.3 0 24C0 10.7 10.7 0 24 0C37.3 0 48 10.7 48 24C48 37.3 37.3 48 24 48Z" fill="white"/>
<path d="M32.3534 20.9972L32.7812 18.5093C32.7812 18.5093 31.4564 18.0052 30.081 18.0052C28.5906 18.0052 25.0532 18.6619 25.0532 21.8434C25.0532 24.8399 29.207 24.8769 29.207 26.4492C29.207 28.0214 25.481 27.7394 24.2528 26.7498L23.8066 29.3532C23.8066 29.3532 25.1452 30.0099 27.1968 30.0099C29.2484 30.0099 32.3396 28.9417 32.3396 26.0376C32.3396 23.0226 28.149 22.7405 28.149 21.4318C28.1444 20.1139 31.0654 20.285 32.3534 20.9972ZM36.7372 25.7L38.315 21.3625L39.2028 25.7H36.7372ZM40.0446 29.8018H42.8L40.3942 18.2087H37.9792C36.866 18.2087 36.5946 19.0735 36.5946 19.0735L32.1188 29.8018H35.2468L35.8724 28.0815H39.6904L40.0446 29.8018ZM16.4236 18.2087L13.5624 26.1856L13.222 24.47L12.21 19.2538C12.21 19.2538 12.0858 18.2087 10.784 18.2087H6.0552L6 18.4029C6 18.4029 7.449 18.7035 9.1418 19.7301L11.75 29.8018H14.878L19.6574 18.2087H16.4236ZM21.9528 29.8018H18.949L20.8258 18.2087H23.8296L21.9528 29.8018Z" fill="#1A1E5A"/>
</svg>
